<svg width="120" height="120" viewBox="0 0 120 120" fill="none" xmlns="http://www.w3.org/2000/svg">
<g id="thickness=Standard, mode=default, name=direction_arrowRightCircle">
<path id="N1" d="M13 60C13 34.0426 34.0426 13 60 13C85.9574 13 107 34.0426 107 60C107 85.9574 85.9574 107 60 107C34.0426 107 13 85.9574 13 60ZM5 60C5 90.3757 29.6243 115 60 115C90.3757 115 115 90.3757 115 60C115 29.6243 90.3757 5 60 5C29.6243 5 5 29.6243 5 60Z" fill="black"/>
<path id="S1R" d="M65.04 27.5007C65.0671 27.501 65.0941 27.5009 65.1211 27.5017C65.1517 27.5026 65.1823 27.504 65.2129 27.5056C65.2454 27.5073 65.278 27.5089 65.3105 27.5114C65.3471 27.5143 65.3835 27.5184 65.4199 27.5222C65.4476 27.5251 65.4753 27.5285 65.5029 27.532C65.5274 27.535 65.5518 27.5382 65.5762 27.5417C65.6212 27.5482 65.6661 27.5552 65.7109 27.5632C65.7328 27.5671 65.7546 27.5716 65.7764 27.5759C65.8096 27.5824 65.8429 27.589 65.876 27.5964C65.889 27.5993 65.902 27.6022 65.915 27.6052L66.04 27.6364C66.0525 27.6398 66.0647 27.6437 66.0771 27.6472C66.1032 27.6545 66.1293 27.6618 66.1553 27.6696C66.1876 27.6794 66.2198 27.6894 66.252 27.6999C66.2941 27.7138 66.3361 27.7285 66.3779 27.7439C66.3917 27.7489 66.4053 27.7543 66.4189 27.7595C66.4612 27.7755 66.5031 27.7927 66.5449 27.8103C66.5703 27.8209 66.5959 27.8313 66.6211 27.8425C66.6476 27.8542 66.6739 27.8663 66.7002 27.8786C66.7349 27.8949 66.7693 27.912 66.8037 27.9294C66.8302 27.9428 66.8566 27.9564 66.8828 27.9704C66.9119 27.986 66.9409 28.0019 66.9697 28.0183C66.9982 28.0344 67.0265 28.0512 67.0547 28.0681C67.0875 28.0878 67.12 28.1079 67.1523 28.1286C67.1713 28.1408 67.1902 28.1532 67.209 28.1657C67.2487 28.1921 67.2882 28.2189 67.3271 28.2468C67.3379 28.2545 67.3486 28.2624 67.3594 28.2702C67.4023 28.3017 67.4453 28.3335 67.4873 28.3669C67.5023 28.3788 67.5164 28.3919 67.5312 28.404C67.5671 28.4334 67.6027 28.4631 67.6377 28.4939C67.645 28.5003 67.6529 28.506 67.6602 28.5124L93.0107 51.0905C98.3381 55.8354 98.3738 64.1523 93.0879 68.9431L67.6865 91.9636C67.6791 91.9703 67.6706 91.9764 67.6631 91.9831C67.6337 92.0094 67.6041 92.0351 67.5742 92.0603C67.5494 92.0812 67.5242 92.1016 67.499 92.1218C67.4718 92.1436 67.4446 92.1652 67.417 92.1862C67.3981 92.2006 67.3794 92.2152 67.3604 92.2292C67.3256 92.2547 67.2903 92.2792 67.2549 92.3034C67.2314 92.3195 67.2074 92.3348 67.1836 92.3503C67.1487 92.3731 67.1135 92.3951 67.0781 92.4167C67.0538 92.4316 67.0295 92.4464 67.0049 92.4607C66.9777 92.4764 66.9503 92.4915 66.9229 92.5066C66.8878 92.5258 66.8529 92.5451 66.8174 92.5632C66.8015 92.5713 66.7854 92.5788 66.7695 92.5866C66.7265 92.6079 66.6833 92.6285 66.6396 92.6482C66.6189 92.6575 66.598 92.6665 66.5771 92.6755C66.5431 92.6901 66.5089 92.7039 66.4746 92.7175C66.4351 92.7332 66.3954 92.7481 66.3555 92.7624C66.3385 92.7685 66.3217 92.7751 66.3047 92.781C66.2587 92.7968 66.2125 92.8118 66.166 92.8259C66.151 92.8305 66.1361 92.8352 66.1211 92.8396C66.0796 92.8517 66.0379 92.863 65.9961 92.8737C65.9704 92.8803 65.9447 92.8863 65.9189 92.8923C65.8871 92.8998 65.8552 92.9071 65.8232 92.9138C65.7914 92.9205 65.7595 92.9265 65.7275 92.9323C65.6963 92.9381 65.6651 92.9439 65.6338 92.9489C65.6035 92.9538 65.5733 92.9585 65.543 92.9626C65.5007 92.9684 65.4584 92.9729 65.416 92.9773C65.3974 92.9792 65.3789 92.9815 65.3604 92.9831C65.323 92.9865 65.2855 92.9886 65.248 92.9909C65.2139 92.993 65.1797 92.9946 65.1455 92.9958C65.1162 92.9969 65.0869 92.9974 65.0576 92.9978C65.0306 92.9982 65.0036 92.9989 64.9766 92.9987C64.9264 92.9985 64.8763 92.997 64.8262 92.9948C64.8148 92.9943 64.8034 92.9945 64.792 92.9939C64.749 92.9916 64.706 92.9877 64.6631 92.9841C64.6344 92.9817 64.6058 92.9793 64.5771 92.9763C64.54 92.9724 64.5029 92.9676 64.4658 92.9626C64.4469 92.9601 64.428 92.9576 64.4092 92.9548C64.3527 92.9464 64.2964 92.9373 64.2402 92.9265C64.2363 92.9257 64.2324 92.9253 64.2285 92.9245C64.1801 92.9151 64.1321 92.9036 64.084 92.8923C64.0602 92.8867 64.0364 92.8817 64.0127 92.8757C63.9856 92.8688 63.9586 92.8617 63.9316 92.8542C63.8898 92.8427 63.8482 92.83 63.8066 92.8171C63.7972 92.8142 63.7877 92.8113 63.7783 92.8083C63.727 92.7919 63.6757 92.7751 63.625 92.7566C63.6115 92.7516 63.5984 92.746 63.585 92.7409C63.5422 92.7248 63.4993 92.7088 63.457 92.6911C63.4295 92.6796 63.4023 92.6671 63.375 92.655C63.3436 92.6411 63.3123 92.6268 63.2812 92.612C63.2577 92.6008 63.2343 92.5895 63.2109 92.5779C63.1743 92.5595 63.1378 92.5407 63.1016 92.5212C63.0767 92.5078 63.052 92.4942 63.0273 92.4802C62.9979 92.4635 62.9685 92.4469 62.9395 92.4294C62.9104 92.4119 62.8822 92.393 62.8535 92.3747C62.8242 92.356 62.7946 92.3376 62.7656 92.3181C62.7407 92.3012 62.7161 92.2838 62.6914 92.2663C62.6593 92.2436 62.6272 92.2208 62.5957 92.197C62.5733 92.1801 62.5514 92.1626 62.5293 92.1452C62.5031 92.1246 62.4769 92.1041 62.4512 92.0827C62.4216 92.0582 62.3923 92.0331 62.3633 92.0075C62.3427 91.9895 62.322 91.9714 62.3018 91.9529C62.2743 91.9277 62.2476 91.9017 62.2207 91.8757C62.193 91.8489 62.1658 91.8214 62.1387 91.7937C62.1341 91.789 62.1286 91.7847 62.124 91.78C62.1118 91.7674 62.1009 91.7537 62.0889 91.7409C62.0716 91.7225 62.0532 91.705 62.0361 91.6862C62.0284 91.6777 62.0213 91.6685 62.0137 91.6599C61.9903 91.6336 61.9669 91.6075 61.9443 91.5808C61.921 91.5532 61.8975 91.5258 61.875 91.4978C61.8552 91.4731 61.8365 91.4476 61.8174 91.4226C61.7966 91.3953 61.7758 91.3682 61.7559 91.3405C61.7321 91.3077 61.7092 91.2743 61.6865 91.2409C61.6731 91.2211 61.6595 91.2014 61.6465 91.1814C61.6261 91.1501 61.6064 91.1184 61.5869 91.0866C61.5704 91.0597 61.5539 91.0328 61.5381 91.0056C61.5193 90.9733 61.5012 90.9407 61.4834 90.9079C61.4697 90.8827 61.4565 90.8572 61.4434 90.8318C61.43 90.8058 61.417 90.7798 61.4043 90.7536C61.3856 90.7153 61.367 90.6771 61.3496 90.6384C61.3425 90.6226 61.336 90.6065 61.3291 90.5905C61.3111 90.5491 61.2938 90.5075 61.2773 90.4655C61.266 90.4367 61.2548 90.4077 61.2441 90.3786C61.2342 90.3516 61.2241 90.3247 61.2148 90.2976C61.2029 90.2627 61.1926 90.2273 61.1816 90.1921C61.1714 90.1593 61.1617 90.1265 61.1523 90.0935C61.1474 90.0759 61.1424 90.0584 61.1377 90.0407C61.1259 89.9969 61.1147 89.953 61.1045 89.9089C61.0979 89.8803 61.0919 89.8516 61.0859 89.823C61.0795 89.7924 61.0731 89.7619 61.0674 89.7312C61.0622 89.7029 61.0574 89.6746 61.0527 89.6462C61.0256 89.4795 61.0089 89.3115 61.0029 89.1433C61.0022 89.1221 61.0014 89.101 61.001 89.0798C61.0001 89.0375 61.0005 88.9952 61.001 88.9529C61.0012 88.932 61.0014 88.9112 61.002 88.8904C61.0032 88.8464 61.0052 88.8024 61.0078 88.7585C61.0089 88.7403 61.0104 88.7221 61.0117 88.7038C61.0149 88.6602 61.0178 88.6165 61.0225 88.573C61.0253 88.5466 61.0289 88.5202 61.0322 88.4939C61.0368 88.458 61.0423 88.4222 61.0479 88.3864C61.0522 88.3584 61.0566 88.3304 61.0615 88.3025C61.0676 88.2679 61.074 88.2334 61.0811 88.1989C61.0873 88.1682 61.0946 88.1377 61.1016 88.1071C61.1086 88.0762 61.1152 88.0452 61.123 88.0144C61.1298 87.9876 61.1372 87.961 61.1445 87.9343C61.1726 87.8324 61.204 87.7313 61.2402 87.6316C61.2461 87.6155 61.2527 87.5997 61.2588 87.5837C61.2978 87.4804 61.3409 87.3784 61.3887 87.278C61.3994 87.2556 61.4098 87.233 61.4209 87.2107C61.4388 87.1749 61.4576 87.1395 61.4766 87.1042C61.4888 87.0814 61.5009 87.0585 61.5137 87.0359C61.5663 86.9425 61.623 86.8511 61.6836 86.7614C61.6956 86.7437 61.7084 86.7263 61.7207 86.7087C61.7473 86.6708 61.7737 86.6326 61.8018 86.5954C61.8108 86.5834 61.8199 86.5713 61.8291 86.5593C61.9014 86.4656 61.9789 86.375 62.0605 86.2868C62.0751 86.2711 62.0897 86.2555 62.1045 86.24C62.1343 86.2088 62.1643 86.1776 62.1953 86.1472C62.2033 86.1393 62.2116 86.1316 62.2197 86.1237L85.1064 63.9997H26C23.7909 63.9997 22 62.2089 22 59.9997C22.0001 57.7907 23.791 55.9997 26 55.9997H84.9814L62.2451 34.4001C62.2361 34.3915 62.2277 34.3824 62.2188 34.3737C62.1895 34.3455 62.161 34.3167 62.1328 34.2878C62.1158 34.2703 62.0987 34.2528 62.082 34.2351C62.054 34.2052 62.0269 34.1748 62 34.1443C61.9804 34.1221 61.9604 34.1004 61.9414 34.0778C61.917 34.049 61.8936 34.0194 61.8701 33.99C61.8513 33.9663 61.8327 33.9426 61.8145 33.9187C61.7911 33.888 61.7684 33.8571 61.7461 33.8259C61.7319 33.8061 61.7179 33.7863 61.7041 33.7663C61.6799 33.7312 61.6567 33.6956 61.6338 33.6599C61.6199 33.6383 61.6052 33.6172 61.5918 33.5954C61.5706 33.5609 61.5504 33.5259 61.5303 33.4909C61.5189 33.4711 61.5071 33.4514 61.4961 33.4314C61.4745 33.3923 61.4537 33.3529 61.4336 33.3132C61.424 33.2944 61.4145 33.2755 61.4053 33.2566C61.3849 33.2149 61.3655 33.1728 61.3467 33.1306C61.34 33.1155 61.3327 33.1008 61.3262 33.0857C61.3075 33.0424 61.2905 32.9986 61.2734 32.9548C61.2656 32.9346 61.2575 32.9145 61.25 32.8943C61.2381 32.8623 61.2278 32.8298 61.2168 32.7976C61.2067 32.7679 61.1959 32.7385 61.1865 32.7087C61.183 32.6976 61.1792 32.6866 61.1758 32.6755L61.1406 32.5525C61.1384 32.5443 61.136 32.5362 61.1338 32.528C61.1231 32.4876 61.1139 32.4467 61.1045 32.406C61.0998 32.3855 61.0952 32.365 61.0908 32.3445C61.0812 32.2996 61.0716 32.2548 61.0635 32.2097C61.0604 32.1925 61.0576 32.1752 61.0547 32.1579C61.0485 32.1209 61.0432 32.0838 61.0381 32.0466C61.0334 32.0124 61.0282 31.9783 61.0244 31.9441C61.022 31.922 61.0206 31.8998 61.0186 31.8777C61.0146 31.836 61.0104 31.7944 61.0078 31.7527C61.0064 31.7309 61.0059 31.709 61.0049 31.6872C61.003 31.6472 61.0017 31.6072 61.001 31.5671C61.0005 31.5365 61.0008 31.5059 61.001 31.4753C61.0012 31.4431 61.001 31.4109 61.002 31.3786C61.0029 31.347 61.0042 31.3155 61.0059 31.2839C61.0076 31.2513 61.0102 31.2188 61.0127 31.1862C61.0151 31.1553 61.0174 31.1244 61.0205 31.0935C61.0237 31.0622 61.0273 31.0309 61.0312 30.9997C61.0363 30.9596 61.0416 30.9196 61.0479 30.8796C61.0511 30.8587 61.055 30.8379 61.0586 30.8171C61.0649 30.7806 61.0718 30.7441 61.0791 30.7077C61.0984 30.6117 61.1211 30.5163 61.1475 30.4216C61.1547 30.3955 61.1621 30.3694 61.1699 30.3435C61.1796 30.3112 61.1896 30.2789 61.2002 30.2468C61.2325 30.1487 61.2694 30.0518 61.3096 29.9558C61.3192 29.9326 61.3287 29.9094 61.3389 29.8864C61.3578 29.8436 61.377 29.8008 61.3975 29.7585C61.4039 29.7452 61.4104 29.7318 61.417 29.7185C61.4386 29.675 61.462 29.6324 61.4854 29.5896C61.4954 29.571 61.5052 29.5523 61.5156 29.5339C61.535 29.4996 61.5547 29.4653 61.5752 29.4314C61.589 29.4085 61.6029 29.3856 61.6172 29.363C61.6404 29.3264 61.665 29.2906 61.6895 29.2546C61.7026 29.2353 61.716 29.2161 61.7295 29.197C61.7527 29.1642 61.7765 29.1316 61.8008 29.0993C61.8182 29.0762 61.8355 29.0529 61.8535 29.03C61.8772 28.9999 61.9021 28.9707 61.9268 28.9411C61.9455 28.9186 61.9641 28.8959 61.9834 28.8737C61.9932 28.8625 62.0028 28.8507 62.0127 28.8396C62.0277 28.8227 62.0433 28.8063 62.0586 28.7898C62.0723 28.7749 62.0857 28.7595 62.0996 28.7448C62.108 28.736 62.1165 28.7272 62.125 28.7185C62.1502 28.6924 62.1764 28.6675 62.2021 28.6423C62.2264 28.6185 62.2507 28.595 62.2754 28.572C62.2836 28.5643 62.2915 28.5562 62.2998 28.5486L62.3965 28.4626C62.4056 28.4548 62.4147 28.4469 62.4238 28.4392C62.4559 28.4121 62.4887 28.386 62.5215 28.3601C62.5368 28.348 62.552 28.3358 62.5674 28.3239C62.6009 28.2982 62.6348 28.2733 62.6689 28.2487C62.6948 28.2302 62.7209 28.212 62.7471 28.1941C62.7758 28.1744 62.8048 28.1552 62.834 28.1364C62.8544 28.1233 62.8749 28.1102 62.8955 28.0974C62.9348 28.0731 62.9747 28.0499 63.0146 28.0271C63.0352 28.0153 63.0555 28.0033 63.0762 27.9919C63.0998 27.9789 63.1236 27.9663 63.1475 27.9538C63.1892 27.932 63.2311 27.9106 63.2734 27.8903C63.2854 27.8846 63.2976 27.8793 63.3096 27.8737C63.3501 27.8549 63.3907 27.8365 63.4316 27.8191C63.4607 27.8067 63.4902 27.7955 63.5195 27.7839C63.5497 27.7719 63.5799 27.76 63.6104 27.7487C63.636 27.7393 63.6617 27.7303 63.6875 27.7214C63.7287 27.7071 63.77 27.6933 63.8115 27.6804C63.829 27.675 63.8467 27.67 63.8643 27.6648C63.8994 27.6544 63.9344 27.6439 63.9697 27.6345C64.0158 27.6223 64.062 27.6109 64.1084 27.6003C64.1217 27.5973 64.1351 27.5944 64.1484 27.5915C64.1883 27.5829 64.2285 27.5755 64.2686 27.5681C64.3017 27.5619 64.3349 27.5558 64.3682 27.5505C64.3844 27.5479 64.4007 27.5451 64.417 27.5427C64.4632 27.5359 64.5093 27.5293 64.5557 27.5241C64.5784 27.5216 64.6013 27.5204 64.624 27.5183C64.6627 27.5146 64.7014 27.511 64.7402 27.5085C64.7832 27.5057 64.8261 27.5041 64.8691 27.5027C64.8815 27.5022 64.8939 27.501 64.9062 27.5007C64.9508 27.4996 64.9954 27.5003 65.04 27.5007Z" fill="black"/>
</g>
</svg>
