<svg width="120" height="120" viewBox="0 0 120 120" fill="none" xmlns="http://www.w3.org/2000/svg">
<g id="thickness=Light, mode=default, name=direction_arrowUpCircle">
<path id="N1" d="M109 60C109 32.938 87.062 11 60 11C32.938 11 11 32.938 11 60C11 87.062 32.938 109 60 109C87.062 109 109 87.062 109 60ZM115 60C115 90.3757 90.3757 115 60 115C29.6243 115 5 90.3757 5 60C5 29.6243 29.6243 5 60 5C90.3757 5 115 29.6243 115 60Z" fill="black"/>
<path id="S1" d="M52.0996 26.8436C56.4218 22.3824 63.5782 22.3824 67.9004 26.8436L93.1543 52.913L93.1523 52.9139C93.6759 53.4539 93.9999 54.1884 94 54.9999C94 56.6567 92.6569 57.9999 91 57.9999C90.207 57.9999 89.4876 57.6908 88.9512 57.1884L88.9502 57.1903L63.416 33.3035C63.2825 33.1787 63.1431 33.0634 63 32.9559V92C63 93.6568 61.6569 95 60 95C58.3431 95 57 93.6568 57 92V32.9559C56.8569 33.0634 56.7175 33.1787 56.584 33.3035L31.0498 57.1903L31.0479 57.1884C30.5115 57.6905 29.7927 57.9999 29 57.9999C27.3431 57.9999 26 56.6567 26 54.9999C26.0001 54.1887 26.3234 53.4539 26.8467 52.9139L26.8457 52.913L52.0996 26.8436Z" fill="black"/>
</g>
</svg>
