<svg width="120" height="120" viewBox="0 0 120 120" fill="none" xmlns="http://www.w3.org/2000/svg">
<g id="thickness=Bold, mode=default, name=direction_arrowLeftUp">
<path id="S1LU" fill-rule="evenodd" clip-rule="evenodd" d="M80.0348 11.5002L80.0346 11.5315C82.2678 11.7959 83.9999 13.6957 83.9999 16.0001C83.9999 18.2795 82.3051 20.1631 80.1069 20.4595L80.1079 20.4987L28.1105 21.7466L108.182 101.818L108.143 101.857C108.682 102.599 109 103.513 109 104.5C109 106.985 106.985 109 104.5 109C103.512 109 102.599 108.682 101.857 108.143L101.818 108.182L101.333 107.697C101.323 107.687 101.313 107.677 101.303 107.667L21.7604 28.1244L20.5827 80.1019L20.4988 80.1C20.4457 82.5391 18.4518 84.5001 15.9999 84.5001C13.5146 84.5001 11.4999 82.4853 11.4999 80.0001C11.4999 79.7166 11.5261 79.4393 11.5762 79.1704L11.0738 23.676C11.0105 16.6906 16.6846 11.0091 23.6701 11.0633L80.0348 11.5002Z" fill="black"/>
</g>
</svg>
