<svg width="120" height="120" viewBox="0 0 120 120" fill="none" xmlns="http://www.w3.org/2000/svg">
<g id="thickness=Bold, mode=default, name=direction_arrowLeft">
<path id="S1L" d="M53.6642 108.2C53.6456 108.218 53.627 108.236 53.6082 108.254L53.5898 108.272C52.6858 109.125 51.5211 109.532 50.3692 109.498C49.7287 109.48 49.0916 109.325 48.5048 109.035C48.0648 108.817 47.6535 108.524 47.291 108.155L8.39411 68.8208C3.55907 63.9315 3.58108 56.055 8.44336 51.1927L47.8113 11.8247C48.1583 11.476 48.549 11.1958 48.9662 10.9845C49.6044 10.661 50.3037 10.4996 51.0029 10.5C51.6414 10.5003 52.2804 10.6357 52.8734 10.9072C53.3329 11.1174 53.7642 11.409 54.1456 11.7821C54.5272 12.1549 54.8286 12.5795 55.0492 13.0341C55.6474 14.266 55.6502 15.7143 55.0577 16.9483C54.8564 17.3675 54.5865 17.762 54.2478 18.1148L18.5242 55.5H109C111.485 55.5 113.5 57.5147 113.5 60C113.5 62.4853 111.485 64.5 109 64.5H18.4397L53.7631 101.901C55.4466 103.673 55.4097 106.474 53.6642 108.2Z" fill="black"/>
</g>
</svg>
