<svg width="120" height="120" viewBox="0 0 120 120" fill="none" xmlns="http://www.w3.org/2000/svg">
<g id="thickness=Standard, mode=default, name=direction_arrowDown">
<path id="S1D" fill-rule="evenodd" clip-rule="evenodd" d="M17.7701 65.1144C17.0513 64.4242 16.0752 64 15 64C12.7909 64 11 65.7909 11 68C11 69.1135 11.455 70.1207 12.1891 70.8459L51.4831 110.14C56.1879 114.845 63.8225 114.823 68.5009 110.092L107.339 70.818C108.057 70.095 108.5 69.0993 108.5 68C108.5 65.7909 106.709 64 104.5 64C103.416 64 102.432 64.4314 101.712 65.132L64 101.573V10C64 7.79086 62.2091 6 60 6C57.7909 6 56 7.79086 56 10V101.645L17.7701 65.1144Z" fill="black"/>
</g>
</svg>
