<svg width="120" height="120" viewBox="0 0 120 120" fill="none" xmlns="http://www.w3.org/2000/svg">
<g id="thickness=Standard, mode=default, name=direction_arrowUp">
<path id="S1U" fill-rule="evenodd" clip-rule="evenodd" d="M107.828 49.1715C108.552 49.8954 109 50.8954 109 52C109 54.2091 107.209 56 105 56C103.925 56 102.949 55.5759 102.23 54.8859L64 18.3548V110C64 112.209 62.2091 114 60 114C57.7909 114 56 112.209 56 110V18.4275L18.2881 54.8682C17.5677 55.5686 16.5842 56 15.5 56C13.2909 56 11.5 54.2091 11.5 52C11.5 50.9035 11.9412 49.91 12.6558 49.1874L12.6558 49.1874L51.4991 9.90759C56.1776 5.17657 63.8122 5.15524 68.517 9.86005L107.828 49.1715Z" fill="black"/>
</g>
</svg>
