<svg width="120" height="120" viewBox="0 0 120 120" fill="none" xmlns="http://www.w3.org/2000/svg">
<g id="thickness=Light, mode=default, name=direction_arrowLeftUp">
<path id="S1LU" fill-rule="evenodd" clip-rule="evenodd" d="M23.2907 12.1253L81.033 13.0002C82.6747 13.0178 84.0001 14.3541 84.0001 16C84.0001 17.647 82.6729 18.984 81.0297 18.9999L24.7998 19.8785C24.5865 19.8818 24.3764 19.8985 24.1704 19.9277L107.112 102.869C107.66 103.413 108 104.167 108 105C108 106.657 106.657 108 105 108C104.172 108 103.422 107.664 102.879 107.121L19.9277 24.1704C19.8985 24.3764 19.8819 24.5864 19.8785 24.7997L18.9999 81.031C18.9833 82.6736 17.6466 84 16.0001 84C14.3584 84 13.0247 82.6814 13.0004 81.0455L12.1253 23.2907C12.0313 17.0857 17.0857 12.0313 23.2907 12.1253Z" fill="black"/>
</g>
</svg>
