<svg width="120" height="120" viewBox="0 0 120 120" fill="none" xmlns="http://www.w3.org/2000/svg">
<g id="thickness=Bold, mode=default, name=direction_arrowLeftDown">
<path id="S1LD" fill-rule="evenodd" clip-rule="evenodd" d="M108.182 19.682C108.996 18.8676 109.5 17.7426 109.5 16.5C109.5 14.0147 107.485 12 105 12C103.75 12 102.618 12.5099 101.803 13.333L21.7604 93.3757L20.5827 41.3982L20.4988 41.4001C20.4457 38.9609 18.4518 37 15.9999 37C13.5146 37 11.4999 39.0147 11.4999 41.5C11.4999 41.7834 11.5261 42.0607 11.5762 42.3296L11.0738 97.824C11.0105 104.809 16.6846 110.491 23.6701 110.437L80.0348 110C82.504 109.981 84.4999 107.974 84.4999 105.5C84.4999 103.041 82.5273 101.042 80.078 101.001L28.1105 99.7534L108.182 19.682Z" fill="black"/>
</g>
</svg>
