<svg width="120" height="120" viewBox="0 0 120 120" fill="none" xmlns="http://www.w3.org/2000/svg">
<g id="thickness=Bold, mode=default, name=direction_arrowDown">
<path id="S1D" fill-rule="evenodd" clip-rule="evenodd" d="M18.0898 65.2284C17.2838 64.4669 16.1964 64 15 64C12.5147 64 10.5 66.0147 10.5 68.5C10.5 69.758 11.0162 70.8955 11.8484 71.7121L51.1792 110.606C56.0686 115.441 63.9451 115.419 68.8073 110.557L107.676 71.6875L107.687 71.6765L108.182 71.1819L108.143 71.1426C108.682 70.4006 109 69.4874 109 68.5C109 66.0147 106.985 64 104.5 64C103.549 64 102.667 64.2949 101.941 64.7982L101.891 64.7465L64.5 100.476V10C64.5 7.51472 62.4853 5.5 60 5.5C57.5147 5.5 55.5 7.51472 55.5 10V100.56L18.0898 65.2284L18.0898 65.2284Z" fill="black"/>
</g>
</svg>
