<svg width="120" height="120" viewBox="0 0 120 120" fill="none" xmlns="http://www.w3.org/2000/svg">
<g id="thickness=Light, mode=default, name=direction_arrowLeft">
<path id="S1L" fill-rule="evenodd" clip-rule="evenodd" d="M51.1868 12.2438C51.5196 12.387 51.8318 12.5933 52.1052 12.8627C52.3283 13.0822 52.5099 13.3285 52.6498 13.5917C53.0817 14.4036 53.1141 15.3723 52.747 16.2078C52.6127 16.5134 52.425 16.8013 52.1837 17.0571L15.2878 56.5884C15.1642 56.7208 15.0492 56.8582 14.9427 57H110C111.657 57 113 58.3431 113 60C113 61.6569 111.657 63 110 63H14.9426C15.0492 63.1418 15.1642 63.2792 15.2878 63.4116L52.1817 102.941C52.4317 103.205 52.6244 103.504 52.7598 103.822C52.9158 104.187 52.9955 104.577 52.9998 104.966C53.0085 105.761 52.7034 106.556 52.0914 107.151C51.8387 107.397 51.5534 107.589 51.2497 107.728C50.8233 107.924 50.3616 108.013 49.9033 107.998C49.1609 107.975 48.4275 107.677 47.8677 107.11L8.53554 67.7782C4.23978 63.4824 4.23978 56.5176 8.53555 52.2218L47.8689 12.8885C48.1049 12.65 48.3718 12.4592 48.6571 12.3165C49.4484 11.9203 50.3785 11.8961 51.1868 12.2438Z" fill="black"/>
</g>
</svg>
