<svg width="120" height="120" viewBox="0 0 120 120" fill="none" xmlns="http://www.w3.org/2000/svg">
<g id="thickness=Standard, mode=default, name=direction_arrowLeftDown">
<path id="S1LD" fill-rule="evenodd" clip-rule="evenodd" d="M102.049 13.7992C102.781 13.0007 103.832 12.5 105 12.5C107.209 12.5 109 14.2909 109 16.5C109 17.6059 108.551 18.607 107.826 19.3311L107.828 19.3338L27.3587 99.8036L80.1281 101.497L80.1279 101.502C82.2778 101.57 84 103.334 84 105.5C84 107.709 82.2091 109.5 80 109.5C79.9404 109.5 79.8812 109.499 79.8223 109.496L23.6588 109.941C16.9574 109.994 11.5113 104.548 11.5641 97.8468L12 42.5L12 42.4913C12.0046 40.2862 13.7937 38.5 16 38.5C18.1814 38.5 19.955 40.2463 19.9991 42.4172L21.6954 94.1532L102.049 13.7992Z" fill="black"/>
</g>
</svg>
