<svg width="120" height="120" viewBox="0 0 120 120" fill="none" xmlns="http://www.w3.org/2000/svg">
<g id="thickness=Standard, mode=default, name=direction_Unfold">
<path id="S1" d="M52.0293 67.7344C56.5759 63.6933 63.4272 63.6932 67.9736 67.7344L107.657 103.011C108.481 103.743 109 104.811 109 106C109 108.209 107.209 110 105 110C104.016 110 103.116 109.644 102.419 109.055V109.056L62.582 75.415C61.0917 74.1565 58.9112 74.1566 57.4209 75.415L17.5811 109.057L17.5801 109.055C16.8834 109.644 15.9837 110 15 110C12.7909 110 11 108.209 11 106C11 104.811 11.5191 103.743 12.3428 103.011L52.0293 67.7344ZM105 11C107.209 11 109 12.7909 109 15C109 16.1891 108.48 17.2556 107.656 17.9883L107.657 17.9893L67.9736 53.2656C63.4272 57.3068 56.5759 57.3067 52.0293 53.2656L12.3428 17.9893V17.9883C11.5194 17.2556 11 16.1888 11 15C11 12.7909 12.7909 11 15 11C15.9835 11 16.8835 11.3556 17.5801 11.9443L17.5811 11.9434L57.4209 45.585C58.9113 46.8434 61.0917 46.8435 62.582 45.585L102.419 11.9443C103.116 11.3553 104.016 11 105 11Z" fill="black"/>
</g>
</svg>
