<svg width="120" height="120" viewBox="0 0 120 120" fill="none" xmlns="http://www.w3.org/2000/svg">
<g id="thickness=Bold, mode=default, name=direction_arrowRightUp">
<path id="S1L" fill-rule="evenodd" clip-rule="evenodd" d="M78.9063 109.482C79.9108 109.391 80.8911 108.964 81.6642 108.2C83.416 106.467 83.4469 103.652 81.7447 101.882L44.4896 62.4354C43.2103 61.0808 43.2165 58.9613 44.5037 57.6142L82.2274 18.136C83.9392 16.3752 83.9241 13.5601 82.182 11.818C81.6697 11.3057 81.0646 10.9428 80.4209 10.7292C79.961 10.5765 79.4817 10.5002 79.0028 10.5C78.4677 10.4997 77.9325 10.5942 77.4246 10.7836C76.8266 11.0065 76.2672 11.3606 75.7914 11.8447L36.4434 51.1927C31.5811 56.055 31.5591 63.9315 36.3942 68.8208L75.2729 108.136C75.6836 108.559 76.1579 108.884 76.6664 109.111C77.3743 109.426 78.1472 109.55 78.9063 109.482Z" fill="black"/>
</g>
</svg>
