<svg width="120" height="120" viewBox="0 0 120 120" fill="none" xmlns="http://www.w3.org/2000/svg">
<g id="thickness=Standard, mode=default, name=direction_arrowRightUp">
<path id="S1RU" fill-rule="evenodd" clip-rule="evenodd" d="M104 83C106.203 83 107.99 81.219 108 79.0183L108 79L108.436 23.6586C108.489 16.9572 103.043 11.5114 96.3412 11.5645L40.2638 12.0085C40.1766 12.0028 40.0886 12 40 12C37.7909 12 36 13.7908 36 16C36 18.1663 37.7222 19.9305 39.8722 19.998L39.8718 20.0086L92.6415 21.7017L12.1906 102.153C11.4556 102.878 11 103.886 11 105C11 107.209 12.7909 109 15 109C16.1046 109 17.1047 108.552 17.8285 107.828L17.8286 107.828L98.3046 27.3524L100.001 79.0999C100.054 81.2629 101.824 83 104 83Z" fill="black"/>
</g>
</svg>
