<svg width="120" height="120" viewBox="0 0 120 120" fill="none" xmlns="http://www.w3.org/2000/svg">
<g id="thickness=Bold, mode=default, name=direction_arrowLeftCircle">
<path id="N1" d="M106.5 60C106.5 34.3188 85.6812 13.5 60 13.5C34.3188 13.5 13.5 34.3188 13.5 60C13.5 85.6812 34.3188 106.5 60 106.5C85.6812 106.5 106.5 85.6812 106.5 60ZM115.5 60C115.5 90.6518 90.6518 115.5 60 115.5C29.3482 115.5 4.5 90.6518 4.5 60C4.5 29.3482 29.3482 4.5 60 4.5C90.6518 4.5 115.5 29.3482 115.5 60Z" fill="black"/>
<path id="S1L" d="M54.0456 26.501C54.0785 26.5013 54.1114 26.5019 54.1443 26.5029C54.1808 26.5041 54.2172 26.5057 54.2536 26.5078C54.2967 26.5102 54.3396 26.5139 54.3826 26.5176C54.4066 26.5196 54.4308 26.521 54.4548 26.5234C54.5171 26.5297 54.5793 26.537 54.6413 26.5459C54.6459 26.5465 54.6505 26.5472 54.655 26.5478C54.7167 26.5569 54.7782 26.5675 54.8396 26.5791C54.8526 26.5816 54.8656 26.5843 54.8786 26.5869C54.9267 26.5964 54.9745 26.6071 55.0222 26.6181C55.0493 26.6244 55.0763 26.6309 55.1033 26.6377C55.1405 26.647 55.1776 26.6566 55.2146 26.667C55.2509 26.6771 55.2869 26.6881 55.323 26.6992C55.3563 26.7094 55.3894 26.7204 55.4226 26.7314C55.4456 26.7391 55.469 26.7459 55.4919 26.7539L55.5603 26.7783C55.5963 26.7916 55.632 26.8061 55.6677 26.8203C55.6768 26.8239 55.686 26.8274 55.6951 26.831L55.7634 26.8584C55.7973 26.8728 55.8304 26.889 55.864 26.9043C55.8795 26.9113 55.8954 26.9176 55.9109 26.9248C55.9671 26.9511 56.0226 26.979 56.0779 27.0078C56.0851 27.0116 56.0921 27.0157 56.0993 27.0195C56.1526 27.0476 56.2052 27.077 56.2576 27.1074C56.2718 27.1157 56.2864 27.1234 56.3005 27.1318C56.3489 27.1606 56.3966 27.1909 56.4441 27.2217C56.4583 27.2309 56.4729 27.2396 56.487 27.249C56.6009 27.3247 56.712 27.4061 56.8201 27.4931C56.8289 27.5003 56.8376 27.5074 56.8464 27.5146C56.8915 27.5515 56.9353 27.59 56.9792 27.6289C56.9932 27.6413 57.0074 27.6534 57.0212 27.666C57.0559 27.6975 57.0899 27.7299 57.1238 27.7627C57.15 27.7881 57.1761 27.8137 57.2019 27.8398C57.2127 27.8508 57.2244 27.861 57.2351 27.8721C57.2604 27.8982 57.2848 27.9255 57.3093 27.9521C57.3174 27.9609 57.3257 27.9696 57.3337 27.9785C57.3371 27.9822 57.3401 27.9865 57.3435 27.9902C57.5427 28.2113 57.7164 28.4466 57.864 28.6933C57.8699 28.7031 57.8758 28.7128 57.8816 28.7226C58.0219 28.9615 58.1377 29.2103 58.2302 29.4658C58.24 29.4927 58.2493 29.5198 58.2585 29.5469C58.272 29.5865 58.2852 29.6261 58.2976 29.666C58.3057 29.6923 58.3134 29.7187 58.321 29.7451C58.3541 29.8594 58.3822 29.9747 58.406 30.0908C58.4121 30.1208 58.419 30.1506 58.4245 30.1806C58.4584 30.3646 58.4801 30.5502 58.491 30.7363C58.4925 30.7637 58.4938 30.791 58.4949 30.8183C58.4967 30.8646 58.4974 30.9108 58.4978 30.957C58.498 30.9788 58.4989 31.0006 58.4988 31.0224C58.4978 31.2118 58.4844 31.4009 58.4597 31.5889C58.4555 31.6208 58.4509 31.6527 58.446 31.6846C58.4402 31.7227 58.4343 31.7608 58.4275 31.7988C58.4221 31.8288 58.4169 31.8588 58.4109 31.8887C58.3587 32.1489 58.2827 32.4049 58.1843 32.6543C58.1756 32.6764 58.167 32.6987 58.1579 32.7207C58.1099 32.837 58.057 32.9517 57.9988 33.0644C57.9917 33.0781 57.9845 33.0918 57.9773 33.1055C57.8847 33.2803 57.779 33.4495 57.6618 33.6133C57.6456 33.636 57.6298 33.6591 57.613 33.6816C57.5833 33.7215 57.5524 33.7607 57.5212 33.7998C57.5074 33.8171 57.4934 33.8344 57.4792 33.8515C57.4465 33.8914 57.413 33.9307 57.3786 33.9697C57.362 33.9885 57.3458 34.0077 57.3288 34.0264C57.2899 34.0691 57.2496 34.1108 57.2087 34.1523C57.1979 34.1633 57.1874 34.1746 57.1765 34.1855C57.1601 34.2018 57.1443 34.2192 57.1277 34.2353L35.1296 55.5H91.9997C94.485 55.5 96.4997 57.5147 96.4997 60C96.4997 62.4853 94.485 64.5 91.9997 64.5H34.9958L56.654 85.791C56.6594 85.7963 56.6643 85.8023 56.6697 85.8076C56.713 85.8506 56.7554 85.8941 56.7966 85.9385C56.8065 85.9491 56.8161 85.96 56.8259 85.9707C56.8615 86.0097 56.8964 86.0489 56.9304 86.0889C56.9482 86.1098 56.9667 86.1301 56.9841 86.1514C57.0151 86.1891 57.0444 86.228 57.074 86.2666C57.0915 86.2895 57.1086 86.3127 57.1257 86.3359C57.1507 86.3698 57.1751 86.404 57.199 86.4385C57.2181 86.466 57.2371 86.4936 57.2556 86.5215C57.2792 86.5572 57.3015 86.5936 57.324 86.6299C57.3389 86.654 57.3544 86.6778 57.3689 86.7021C57.3959 86.7476 57.4217 86.7936 57.447 86.8398C57.456 86.8562 57.4656 86.8722 57.4743 86.8887C57.5018 86.9403 57.5281 86.9924 57.5535 87.0449C57.5595 87.0575 57.5651 87.0703 57.571 87.083C57.5922 87.128 57.6129 87.1731 57.6326 87.2187C57.6456 87.2489 57.6583 87.2791 57.6706 87.3096C57.6809 87.3348 57.6902 87.3603 57.6999 87.3857C57.7162 87.428 57.7329 87.47 57.7478 87.5127C57.7584 87.5431 57.7681 87.5739 57.7781 87.6045C57.7911 87.6447 57.8033 87.6851 57.8152 87.7256C57.8225 87.7506 57.8297 87.7756 57.8367 87.8008C57.8479 87.8417 57.8588 87.8827 57.8689 87.9238C57.8789 87.9647 57.8883 88.0057 57.8972 88.0469C57.903 88.0735 57.9085 88.1002 57.9138 88.1269C57.9218 88.1675 57.9284 88.2083 57.9353 88.249C57.941 88.2832 57.9469 88.3173 57.9519 88.3515C57.9572 88.3883 57.9621 88.4251 57.9665 88.4619C57.9704 88.4944 57.9741 88.527 57.9773 88.5596C57.9807 88.5947 57.9834 88.6298 57.9861 88.665C57.9892 88.707 57.9919 88.749 57.9939 88.791C57.9951 88.8167 57.9961 88.8424 57.9968 88.8681C57.9981 88.9121 57.9988 88.956 57.9988 89C57.9988 89.0329 57.9985 89.0657 57.9978 89.0986C57.997 89.1348 57.9965 89.1709 57.9949 89.207C57.9931 89.2464 57.9899 89.2858 57.987 89.3252C57.9846 89.3597 57.9815 89.3942 57.9783 89.4287C57.9748 89.4652 57.9709 89.5016 57.9665 89.5381C57.9626 89.5707 57.9585 89.6032 57.9538 89.6357C57.9476 89.6795 57.9399 89.723 57.9324 89.7666C57.9279 89.7926 57.9236 89.8187 57.9187 89.8447C57.9107 89.8865 57.9024 89.9281 57.8933 89.9697C57.8864 90.001 57.8794 90.0323 57.8718 90.0635C57.8611 90.1076 57.8487 90.1514 57.8367 90.1953C57.83 90.2194 57.8241 90.2436 57.8171 90.2676C57.8058 90.3062 57.7934 90.3444 57.781 90.3828C57.7704 90.4157 57.7601 90.4487 57.7488 90.4814C57.7108 90.5904 57.6685 90.6982 57.6218 90.8047C57.6093 90.8334 57.5969 90.8621 57.5837 90.8906C57.5667 90.9274 57.5481 90.9635 57.53 91C57.516 91.0283 57.5027 91.0569 57.488 91.0849C57.4667 91.1257 57.4443 91.1658 57.4216 91.206C57.4087 91.2289 57.3959 91.2517 57.3826 91.2744C57.3598 91.3131 57.3362 91.3514 57.3122 91.3896C57.2957 91.416 57.2796 91.4427 57.2624 91.4687C57.2344 91.5114 57.2042 91.5528 57.1745 91.5947C57.1619 91.6126 57.1494 91.6307 57.1365 91.6484C57.1105 91.684 57.0835 91.7189 57.0564 91.7539C57.0341 91.7826 57.0121 91.8115 56.989 91.8398C56.9645 91.8698 56.9392 91.8992 56.9138 91.9287C56.8887 91.9578 56.8636 91.987 56.8376 92.0156C56.8283 92.026 56.8198 92.0375 56.8103 92.0478C56.7929 92.0667 56.7742 92.0841 56.7566 92.1025C56.7405 92.1194 56.7252 92.1376 56.7087 92.1543C56.6989 92.1643 56.6884 92.1737 56.6785 92.1836C56.6522 92.2099 56.6252 92.2352 56.5984 92.2607C56.5699 92.2878 56.5414 92.3146 56.5124 92.3408C56.4781 92.3719 56.443 92.4018 56.4079 92.4316C56.3882 92.4484 56.3684 92.465 56.3484 92.4814C56.3085 92.5142 56.2681 92.546 56.2273 92.5771C56.2092 92.591 56.1918 92.6056 56.1736 92.6191C56.1337 92.6487 56.0931 92.677 56.0525 92.7051C56.0278 92.7221 56.0032 92.7393 55.9783 92.7558C55.9459 92.7772 55.9133 92.7979 55.8806 92.8183C55.8502 92.8373 55.8196 92.8558 55.7888 92.874C55.7509 92.8964 55.7129 92.9183 55.6745 92.9394C55.6505 92.9527 55.6265 92.9657 55.6023 92.9785C55.5645 92.9985 55.5263 93.0173 55.488 93.0361C55.4572 93.0513 55.4264 93.0666 55.3952 93.081C55.3603 93.0973 55.3251 93.1126 55.2898 93.1279C55.2608 93.1404 55.232 93.1531 55.2029 93.165C55.1618 93.1818 55.1203 93.1974 55.0788 93.2129C55.0518 93.223 55.025 93.2336 54.9978 93.2431C54.9528 93.259 54.9075 93.2737 54.862 93.2881C54.8406 93.2949 54.8191 93.3011 54.7976 93.3076C54.7548 93.3204 54.7118 93.3322 54.6687 93.3437C54.6352 93.3527 54.6018 93.3619 54.5681 93.3701C54.5428 93.3763 54.5174 93.382 54.4919 93.3877C54.4461 93.398 54.4003 93.4081 54.3542 93.417C54.3143 93.4247 54.2743 93.4319 54.2341 93.4385C54.2123 93.4421 54.1905 93.4459 54.1687 93.4492C54.1193 93.4566 54.0698 93.463 54.0202 93.4687C53.9945 93.4717 53.9689 93.475 53.9431 93.4775C53.8911 93.4827 53.839 93.4859 53.7868 93.4892C53.7706 93.4903 53.7543 93.4913 53.738 93.4922C53.6944 93.4945 53.6508 93.496 53.6072 93.4971C53.573 93.4979 53.5388 93.499 53.5046 93.499C53.4623 93.4991 53.42 93.4982 53.3777 93.4971C53.3516 93.4964 53.3256 93.4953 53.2995 93.4941C53.249 93.4919 53.1986 93.4883 53.1482 93.4844C53.1283 93.4828 53.1085 93.4813 53.0886 93.4795C53.0426 93.4753 52.9968 93.4704 52.9509 93.4648C52.9203 93.4611 52.8897 93.4575 52.8591 93.4531C52.819 93.4474 52.779 93.4404 52.739 93.4336C52.7114 93.4289 52.6836 93.4251 52.656 93.4199C52.608 93.4108 52.5602 93.4003 52.5124 93.3896C52.4876 93.3841 52.4629 93.378 52.4382 93.3721C52.3957 93.3618 52.3535 93.3504 52.3113 93.3389C52.2865 93.3321 52.2617 93.3255 52.237 93.3183C52.1854 93.3033 52.134 93.2875 52.0827 93.2705C52.0642 93.2643 52.0456 93.2583 52.0271 93.2519C51.9868 93.238 51.9469 93.2231 51.907 93.208C51.8737 93.1954 51.8403 93.1833 51.8074 93.1699C51.77 93.1547 51.7331 93.1383 51.696 93.1221C51.6696 93.1105 51.6432 93.099 51.6169 93.0869C51.578 93.0689 51.5393 93.0504 51.5007 93.0312C51.468 93.015 51.4354 92.9985 51.4031 92.9814C51.3785 92.9685 51.3542 92.9548 51.3298 92.9414C51.2883 92.9185 51.2468 92.8954 51.2058 92.8711C51.1804 92.856 51.1557 92.8398 51.1306 92.8242C51.0924 92.8005 51.054 92.7769 51.0163 92.7519C50.9901 92.7345 50.9642 92.7163 50.9382 92.6982C50.9072 92.6767 50.876 92.6552 50.8454 92.6328C50.8079 92.6053 50.771 92.5767 50.7341 92.5478C50.71 92.529 50.6856 92.5106 50.6618 92.4912C50.6281 92.4637 50.5954 92.4349 50.5622 92.4062C50.5391 92.3862 50.5158 92.3663 50.4929 92.3457C50.4796 92.3337 50.4651 92.3227 50.4519 92.3105L25.3952 69.2431C19.9887 64.2655 20.0222 55.7193 25.4675 50.7842L50.9783 27.666C50.9862 27.6588 50.9947 27.6517 51.0027 27.6445C51.0372 27.6136 51.0719 27.5833 51.1072 27.5537C51.1324 27.5325 51.1578 27.5117 51.1833 27.4912C51.2183 27.4631 51.2532 27.4351 51.2888 27.4082C51.3105 27.3917 51.3323 27.3754 51.3542 27.3594C51.4021 27.3245 51.4509 27.2915 51.4997 27.2588C51.511 27.2512 51.5216 27.2428 51.5329 27.2353C51.5843 27.2016 51.6368 27.1701 51.6892 27.1387C51.7007 27.1317 51.7118 27.124 51.7234 27.1172C51.7691 27.0903 51.8156 27.0651 51.862 27.04C51.8877 27.0261 51.9133 27.0123 51.9392 26.999C51.9732 26.9815 52.0074 26.9648 52.0417 26.9482C52.0732 26.933 52.1047 26.9178 52.1365 26.9033C52.1727 26.8868 52.2092 26.8709 52.2458 26.8555C52.2783 26.8417 52.3108 26.8283 52.3435 26.8154C52.3808 26.8007 52.4182 26.7862 52.4558 26.7724C52.4827 26.7626 52.5098 26.7534 52.5368 26.7441C52.5858 26.7273 52.6349 26.7113 52.6843 26.6963C52.7029 26.6906 52.7213 26.6841 52.74 26.6787C52.7873 26.665 52.8349 26.6528 52.8826 26.6406C52.9086 26.634 52.9346 26.6273 52.9607 26.6211C53.0093 26.6096 53.0582 26.5997 53.1072 26.5898C53.1251 26.5862 53.1429 26.5825 53.1609 26.5791C53.2116 26.5695 53.2623 26.5605 53.3132 26.5527C53.337 26.5491 53.3607 26.5452 53.3845 26.542C53.4349 26.5351 53.4854 26.5296 53.5359 26.5244C53.5538 26.5226 53.5717 26.5202 53.5896 26.5185C53.6397 26.514 53.6898 26.5107 53.74 26.5078C53.7657 26.5063 53.7914 26.5049 53.8171 26.5039C53.8559 26.5023 53.8946 26.5015 53.9333 26.501C53.9708 26.5004 54.0082 26.5006 54.0456 26.501Z" fill="black"/>
</g>
</svg>
