<svg width="120" height="120" viewBox="0 0 120 120" fill="none" xmlns="http://www.w3.org/2000/svg">
<g id="thickness=Light, mode=default, name=direction_arrowUpLight">
<path id="S1U" fill-rule="evenodd" clip-rule="evenodd" d="M102.953 81.1932L63.4116 44.2878C61.4905 42.4949 58.5094 42.4949 56.5884 44.2878L17.0546 81.186C16.5178 81.6908 15.795 82 15 82C13.3431 82 12 80.6569 12 79C12 78.1716 12.3358 77.4216 12.8787 76.8787L52.2218 37.5355C56.5176 33.2398 63.4824 33.2398 67.7782 37.5355L107.114 76.8714C107.661 77.4149 108 78.1679 108 79C108 80.6569 106.657 82 105 82C104.209 82 103.489 81.6937 102.953 81.1932Z" fill="black"/>
</g>
</svg>
