<svg width="120" height="120" viewBox="0 0 120 120" fill="none" xmlns="http://www.w3.org/2000/svg">
<g id="thickness=Bold, mode=default, name=direction_fold">
<path id="S1U" fill-rule="evenodd" clip-rule="evenodd" d="M15 54C16.107 54 17.1207 53.6003 17.9045 52.9373L17.9275 52.9641L57.6926 18.9018C59.0089 17.7743 60.9521 17.7799 62.2618 18.915L102.053 53.4006L102.122 53.321C102.812 53.7514 103.627 54 104.5 54C106.985 54 109 51.9853 109 49.5C109 48.4372 108.632 47.4604 108.015 46.6904L108.031 46.6736L107.91 46.5634C107.673 46.2881 107.402 46.0419 107.106 45.8307L68.3887 10.5552C63.6376 6.22641 56.378 6.20624 51.6029 10.5086L12.4165 45.8151C11.2575 46.6291 10.5 47.9761 10.5 49.5C10.5 51.9853 12.5147 54 15 54Z" fill="black"/>
<path id="S1D" fill-rule="evenodd" clip-rule="evenodd" d="M17.9676 67.6171L57.7382 102.085C59.0479 103.22 60.9911 103.226 62.3074 102.098L102.072 68.0359L102.095 68.0628C102.879 67.3997 103.893 67 105 67C107.485 67 109.5 69.0147 109.5 71.5C109.5 73.0239 108.743 74.3709 107.584 75.1849L68.3971 110.491C63.622 114.794 56.3624 114.774 51.6113 110.445L11.9692 74.3264L11.9693 74.3264C11.0665 73.5034 10.5 72.3179 10.5 71C10.5 68.5147 12.5147 66.5 15 66.5C16.137 66.5 17.1755 66.9217 17.9676 67.6171Z" fill="black"/>
</g>
</svg>
