<svg width="120" height="120" viewBox="0 0 120 120" fill="none" xmlns="http://www.w3.org/2000/svg">
<g id="thickness=Bold, mode=default, name=direction_arrowDownLight">
<path id="S1D" fill-rule="evenodd" clip-rule="evenodd" d="M10.5 44.5C10.5 45.7516 11.011 46.8839 11.8358 47.6996L11.8357 47.6997L51.1791 86.6059C56.0684 91.4409 63.9449 91.4189 68.8072 86.5566L107.661 47.7024C107.675 47.6888 107.689 47.6752 107.702 47.6614L108.182 47.1819L108.143 47.1427C108.682 46.4007 109 45.4875 109 44.5C109 42.0147 106.985 40 104.5 40C103.549 40 102.667 40.2949 101.941 40.7982L101.891 40.7465L62.3858 78.496C61.0387 79.7833 58.9192 79.7895 57.5646 78.5101L18.0898 41.2284L18.0898 41.2284C17.2838 40.4669 16.1964 40 15 40C12.5147 40 10.5 42.0147 10.5 44.5Z" fill="black"/>
</g>
</svg>
