<svg width="120" height="120" viewBox="0 0 120 120" fill="none" xmlns="http://www.w3.org/2000/svg">
<g id="thickness=Bold, mode=default, name=direction_arrowRightUp">
<path id="S1RU" fill-rule="evenodd" clip-rule="evenodd" d="M98.9594 80.1019L99.0011 80.101C99.0548 82.5396 101.048 84.5001 103.5 84.5001C105.985 84.5001 108 82.4853 108 80.0001C108 79.8046 107.988 79.6122 107.963 79.4233L108.468 23.676C108.531 16.6906 102.857 11.0091 95.8717 11.0633L39.5071 11.5002L39.5073 11.5267C37.2538 11.7721 35.5 13.6813 35.5 16.0001C35.5 18.294 37.2164 20.1871 39.4351 20.4649L39.4343 20.4987L91.4316 21.7466L12.2059 100.972C11.9341 101.188 11.6878 101.434 11.4723 101.706L11.3602 101.818L11.3751 101.833C10.8251 102.579 10.5 103.502 10.5 104.5C10.5 106.985 12.5147 109 15 109C15.9983 109 16.9206 108.675 17.667 108.125L17.7241 108.182L97.7818 28.1244L98.9594 80.1019Z" fill="black"/>
</g>
</svg>
