<svg width="120" height="120" viewBox="0 0 120 120" fill="none" xmlns="http://www.w3.org/2000/svg">
<g id="thickness=Standard, mode=default, name=direction_arrowRightDown">
<path id="S1RD" fill-rule="evenodd" clip-rule="evenodd" d="M17.9479 13.7963C17.2167 12.9995 16.1667 12.5 15 12.5C12.7909 12.5 11 14.2909 11 16.5C11 17.606 11.4489 18.6071 12.1744 19.3312L92.6419 99.8036L39.8718 101.497L39.872 101.502C37.7221 101.57 36 103.334 36 105.5C36 107.709 37.7909 109.5 40 109.5C40.0595 109.5 40.1187 109.499 40.1776 109.496L96.3412 109.941C103.043 109.994 108.489 104.548 108.436 97.8468L108 42.4739L107.972 42.4741C107.991 42.3186 108 42.1604 108 42C108 39.7909 106.209 38 104 38C101.791 38 100 39.7909 100 42C100 42.1264 100.006 42.2514 100.017 42.3748L100.002 42.3743L98.3046 94.153L17.9479 13.7963Z" fill="black"/>
</g>
</svg>
