<svg width="120" height="120" viewBox="0 0 120 120" fill="none" xmlns="http://www.w3.org/2000/svg">
<g id="thickness=Light, mode=default, name=direction_arrowRightUp">
<path id="S1L" fill-rule="evenodd" clip-rule="evenodd" d="M80.1843 102.944L43.2876 63.4116C41.4946 61.4906 41.4946 58.5095 43.2876 56.5884L80.1871 17.0532C80.4023 16.8242 80.5748 16.5696 80.7046 16.2996C80.9175 15.8567 81.0148 15.3735 80.9979 14.8943C80.9715 14.1438 80.6649 13.4031 80.0842 12.8424C79.8274 12.5942 79.5373 12.4008 79.2285 12.2623C78.8387 12.0873 78.4201 12.0002 78.0021 12C77.2283 11.9996 76.4563 12.2967 75.8722 12.885L36.5353 52.2218C32.2395 56.5176 32.2395 63.4824 36.5353 67.7782L75.8705 107.113C77.0075 108.26 78.858 108.303 80.0467 107.193C80.0546 107.186 80.0625 107.178 80.0703 107.171" fill="black"/>
</g>
</svg>
