<svg width="120" height="120" viewBox="0 0 120 120" fill="none" xmlns="http://www.w3.org/2000/svg">
<g id="thickness=Bold, mode=default, name=direction_arrowRightDown">
<path id="S1RD" fill-rule="evenodd" clip-rule="evenodd" d="M10 16.5C10 14.0147 12.0147 12 14.5 12C15.7534 12 16.887 12.5124 17.703 13.3391L97.7817 93.3785L98.9594 41.3982L99.0011 41.3991C99.0548 38.9604 101.048 37 103.5 37C105.985 37 108 39.0147 108 41.5C108 41.6954 107.988 41.8879 107.963 42.0767L108.468 97.824C108.531 104.809 102.857 110.491 95.8717 110.437L39.5188 110C39.5126 110 39.5063 110 39.5 110C37.0147 110 35 107.985 35 105.5C35 103.018 37.0101 101.005 39.4915 101L91.4316 99.7534L11.7059 20.0277C10.6666 19.2034 10 17.9295 10 16.5Z" fill="black"/>
</g>
</svg>
