<svg width="120" height="120" viewBox="0 0 120 120" fill="none" xmlns="http://www.w3.org/2000/svg">
<g id="thickness=Bold, mode=default, name=direction_arrowRightCircle">
<path id="N1" d="M13.5 60C13.5 34.3188 34.3188 13.5 60 13.5C85.6812 13.5 106.5 34.3188 106.5 60C106.5 85.6812 85.6812 106.5 60 106.5C34.3188 106.5 13.5 85.6812 13.5 60ZM4.5 60C4.5 90.6518 29.3482 115.5 60 115.5C90.6518 115.5 115.5 90.6518 115.5 60C115.5 29.3482 90.6518 4.5 60 4.5C29.3482 4.5 4.5 29.3482 4.5 60Z" fill="black"/>
<path id="S1R" d="M64.042 26.5016C64.0882 26.502 64.1344 26.5027 64.1807 26.5045C64.2139 26.5058 64.2471 26.5073 64.2803 26.5094C64.3158 26.5116 64.3513 26.5142 64.3867 26.5172C64.4232 26.5203 64.4597 26.5239 64.4961 26.528C64.5329 26.532 64.5697 26.5357 64.6064 26.5406C64.6469 26.5461 64.6872 26.5536 64.7275 26.5602C64.7558 26.5648 64.7843 26.5687 64.8125 26.5739C64.849 26.5805 64.8855 26.5878 64.9219 26.5953C64.9587 26.603 64.9955 26.6111 65.0322 26.6198C65.0753 26.6299 65.1183 26.6406 65.1611 26.652C65.1768 26.6561 65.1924 26.6603 65.208 26.6647L65.2783 26.6842C65.3084 26.6931 65.3382 26.703 65.3682 26.7125C65.3946 26.7209 65.4209 26.73 65.4473 26.7389C65.476 26.7486 65.5046 26.7588 65.5332 26.7692C65.6529 26.8125 65.7712 26.8609 65.8877 26.9147C65.8952 26.9182 65.9026 26.9219 65.9102 26.9254C65.9642 26.9508 66.018 26.9769 66.0713 27.0045C66.0903 27.0144 66.1091 27.0246 66.1279 27.0348C66.1774 27.0614 66.2267 27.0883 66.2754 27.1168C66.287 27.1236 66.298 27.1314 66.3096 27.1383C66.3614 27.1693 66.4131 27.2007 66.4639 27.234C66.4764 27.2422 66.4885 27.251 66.501 27.2594C66.6736 27.3751 66.8401 27.5038 66.999 27.6461C67.0064 27.6527 67.0141 27.659 67.0215 27.6656L92.5322 50.7838C97.9778 55.719 98.0112 64.2651 92.6045 69.2428L67.5479 92.3102C67.5365 92.3206 67.5241 92.3301 67.5127 92.3405C67.4902 92.3608 67.4671 92.3802 67.4443 92.4C67.4061 92.4331 67.3681 92.4661 67.3291 92.4977C67.3075 92.5152 67.2856 92.5323 67.2637 92.5494C67.2256 92.5791 67.1872 92.6081 67.1484 92.6364C67.1307 92.6493 67.1126 92.6618 67.0947 92.6744C67.0539 92.7033 67.0132 92.732 66.9717 92.7594C66.9349 92.7836 66.8976 92.8067 66.8604 92.8297C66.8379 92.8436 66.8156 92.8573 66.793 92.8707C66.7632 92.8884 66.7332 92.9056 66.7031 92.9225C66.661 92.9462 66.6189 92.9696 66.5762 92.9918C66.5545 93.0031 66.5326 93.0141 66.5107 93.025C66.4708 93.045 66.431 93.0649 66.3906 93.0836C66.3622 93.0968 66.3334 93.1092 66.3047 93.1217C66.2593 93.1416 66.2138 93.161 66.168 93.1793C66.1556 93.1842 66.1433 93.1892 66.1309 93.194C66.0809 93.2134 66.0309 93.2321 65.9805 93.2496C65.9517 93.2597 65.9225 93.2685 65.8936 93.278C65.8494 93.2923 65.8052 93.306 65.7607 93.319C65.7422 93.3244 65.7236 93.3295 65.7051 93.3346C65.658 93.3476 65.6109 93.3602 65.5635 93.3717C65.5323 93.3793 65.501 93.3863 65.4697 93.3932C65.4282 93.4023 65.3865 93.4106 65.3447 93.4186C65.3187 93.4235 65.2927 93.4278 65.2666 93.4323C65.223 93.4398 65.1795 93.4475 65.1357 93.4537C65.1032 93.4584 65.0707 93.4625 65.0381 93.4664C65.0029 93.4706 64.9678 93.4748 64.9326 93.4781C64.8816 93.483 64.8305 93.4867 64.7793 93.4899C64.7633 93.4909 64.7474 93.492 64.7314 93.4928C64.6813 93.4954 64.6312 93.4968 64.5811 93.4977C64.554 93.4982 64.527 93.4987 64.5 93.4987C64.456 93.4987 64.4121 93.498 64.3682 93.4967C64.3424 93.4959 64.3167 93.495 64.291 93.4938C64.249 93.4918 64.207 93.4891 64.165 93.486C64.1299 93.4833 64.0947 93.4806 64.0596 93.4772C64.027 93.474 63.9944 93.4703 63.9619 93.4664C63.9251 93.462 63.8883 93.4571 63.8516 93.4518C63.8173 93.4468 63.7832 93.4409 63.749 93.4352C63.7083 93.4283 63.6675 93.4217 63.627 93.4137C63.6002 93.4084 63.5735 93.4028 63.5469 93.3971C63.5057 93.3882 63.4647 93.3788 63.4238 93.3688C63.3827 93.3587 63.3417 93.3478 63.3008 93.3365C63.2757 93.3296 63.2506 93.3224 63.2256 93.3151C63.1902 93.3047 63.1552 93.2932 63.1201 93.2819C63.077 93.268 63.034 93.2541 62.9912 93.2389C62.97 93.2313 62.9489 93.2233 62.9277 93.2155C62.8866 93.2002 62.8454 93.1851 62.8047 93.1686C62.7759 93.1569 62.7473 93.1448 62.7188 93.1324C62.6732 93.1128 62.628 93.0921 62.583 93.0709C62.5704 93.065 62.5575 93.0594 62.5449 93.0533C62.4933 93.0285 62.4424 93.0022 62.3916 92.9752C62.3691 92.9633 62.3465 92.9514 62.3242 92.9391C62.2867 92.9184 62.2499 92.8965 62.2129 92.8746C62.1815 92.8561 62.1502 92.8374 62.1191 92.818C62.0864 92.7976 62.0538 92.7768 62.0215 92.7555C61.9936 92.737 61.966 92.718 61.9385 92.6989C61.904 92.6749 61.8698 92.6506 61.8359 92.6256C61.8127 92.6085 61.7895 92.5914 61.7666 92.5739C61.728 92.5443 61.6891 92.515 61.6514 92.484C61.6302 92.4666 61.6098 92.4481 61.5889 92.4303C61.5489 92.3963 61.5097 92.3614 61.4707 92.3258C61.46 92.316 61.4491 92.3064 61.4385 92.2965C61.3942 92.2553 61.3506 92.2129 61.3076 92.1696C61.3023 92.1642 61.2963 92.1593 61.291 92.1539C61.2779 92.1406 61.2658 92.1264 61.2529 92.1129C61.232 92.0911 61.21 92.0698 61.1895 92.0475C61.1798 92.0369 61.1707 92.0259 61.1611 92.0153C61.1349 91.9863 61.1093 91.9569 61.084 91.9274C61.0583 91.8975 61.0325 91.8679 61.0078 91.8375C60.9884 91.8137 60.97 91.7893 60.9512 91.7653C60.9223 91.7283 60.8937 91.6915 60.8662 91.6539C60.8463 91.6268 60.8268 91.5994 60.8076 91.5719C60.7842 91.5384 60.7617 91.5043 60.7393 91.4703C60.7226 91.4451 60.7065 91.4197 60.6904 91.3942C60.6667 91.3565 60.6426 91.3191 60.6201 91.2809C60.6015 91.2493 60.5842 91.2171 60.5664 91.1852C60.5496 91.155 60.5327 91.1249 60.5166 91.0944C60.4999 91.0626 60.4837 91.0307 60.4678 90.9987C60.449 90.9608 60.4307 90.9227 60.4131 90.8844C60.3993 90.8546 60.3861 90.8246 60.373 90.7946C60.3581 90.7601 60.3432 90.7257 60.3291 90.691C60.3165 90.66 60.3048 90.6286 60.293 90.5973C60.2771 90.5554 60.2616 90.5135 60.2471 90.4713C60.2408 90.4531 60.2346 90.4349 60.2285 90.4166C60.2116 90.3654 60.1957 90.314 60.1807 90.2623C60.1735 90.2377 60.1669 90.2129 60.1602 90.1881C60.1486 90.1459 60.1372 90.1036 60.127 90.0612C60.121 90.0364 60.1149 90.0117 60.1094 89.9869C60.0987 89.9392 60.0882 89.8914 60.0791 89.8434C60.0739 89.8158 60.0701 89.788 60.0654 89.7604C60.0586 89.7204 60.0516 89.6804 60.0459 89.6403C60.0416 89.61 60.0379 89.5797 60.0342 89.5494C60.0286 89.5036 60.0237 89.4577 60.0195 89.4117C60.0176 89.3906 60.0163 89.3694 60.0146 89.3483C60.0109 89.2991 60.0071 89.25 60.0049 89.2008C60.0037 89.1741 60.0027 89.1474 60.002 89.1207C60.0012 89.0905 60.0002 89.0602 60 89.0299V88.9615C60.0002 88.9388 60.0014 88.916 60.002 88.8932C60.0046 88.7804 60.0104 88.6676 60.0215 88.5553C60.0241 88.5289 60.0282 88.5026 60.0312 88.4762C60.0369 88.4276 60.0426 88.3791 60.0498 88.3307C60.0531 88.3088 60.057 88.2871 60.0605 88.2653C60.0672 88.2251 60.0743 88.1851 60.082 88.1451C60.0903 88.102 60.0998 88.0591 60.1094 88.0162C60.1164 87.985 60.1232 87.9536 60.1309 87.9225C60.1374 87.896 60.1444 87.8697 60.1514 87.8434C60.1818 87.7284 60.2162 87.6142 60.2559 87.5016C60.2653 87.4747 60.2761 87.4483 60.2861 87.4215C60.3017 87.3798 60.3171 87.3379 60.334 87.2965C60.3471 87.2644 60.3611 87.2327 60.375 87.2008C60.3878 87.1714 60.4006 87.1421 60.4141 87.1129C60.4319 87.0742 60.4507 87.0359 60.4697 86.9977C60.4861 86.9647 60.5023 86.9317 60.5195 86.899C60.5327 86.8741 60.5469 86.8496 60.5605 86.8248C60.5817 86.7866 60.6027 86.7483 60.625 86.7106C60.6432 86.6798 60.6617 86.6492 60.6807 86.6188C60.7011 86.586 60.7218 86.5534 60.7432 86.5211C60.7597 86.4962 60.7769 86.4716 60.7939 86.4469C60.822 86.4063 60.8504 86.3657 60.8799 86.3258C60.8934 86.3076 60.9081 86.2902 60.9219 86.2721C60.953 86.2313 60.9848 86.1909 61.0176 86.151C61.034 86.131 61.0506 86.1112 61.0674 86.0914C61.0979 86.0555 61.1283 86.0192 61.1602 85.984C61.1828 85.959 61.2062 85.9344 61.2295 85.9098C61.2483 85.8899 61.2669 85.8698 61.2861 85.8502L61.3457 85.7906L83.0039 64.4996H26C23.5147 64.4996 21.5 62.4849 21.5 59.9996C21.5002 57.5145 23.5148 55.4996 26 55.4996H82.8701L60.8721 34.235C60.861 34.2243 60.8508 34.2126 60.8398 34.2018C60.8137 34.176 60.7881 34.1499 60.7627 34.1237C60.7312 34.0911 60.7002 34.0583 60.6699 34.025C60.6561 34.0098 60.6425 33.9945 60.6289 33.9791C60.5913 33.9366 60.5543 33.8938 60.5186 33.8502C60.5072 33.8364 60.4965 33.8221 60.4854 33.8082C60.4016 33.7036 60.3221 33.597 60.249 33.4869C60.2396 33.4728 60.2309 33.4582 60.2217 33.444C60.1909 33.3965 60.1607 33.3488 60.1318 33.3004C60.1234 33.2863 60.1157 33.2717 60.1074 33.2574C60.0415 33.1439 59.98 33.0286 59.9248 32.9108C59.9176 32.8953 59.9114 32.8794 59.9043 32.8639C59.8516 32.7479 59.8031 32.6306 59.7607 32.5114C59.7536 32.4913 59.7471 32.471 59.7402 32.4508C59.6303 32.1272 59.5576 31.7937 59.5234 31.4567C59.5208 31.431 59.5188 31.4052 59.5166 31.3795C59.5131 31.3376 59.5102 31.2956 59.5078 31.2535C59.5058 31.2171 59.5041 31.1806 59.5029 31.1442C59.5019 31.1113 59.5013 31.0784 59.501 31.0455C59.5006 31.0081 59.5004 30.9707 59.501 30.9332C59.5015 30.8945 59.5023 30.8557 59.5039 30.817C59.5049 30.7913 59.5063 30.7656 59.5078 30.7399C59.5107 30.6897 59.514 30.6395 59.5186 30.5895C59.5202 30.5715 59.5226 30.5537 59.5244 30.5358C59.5296 30.4853 59.5351 30.4348 59.542 30.3844C59.5453 30.3606 59.5491 30.3369 59.5527 30.3131C59.5606 30.2622 59.5695 30.2114 59.5791 30.1608C59.5825 30.1428 59.5862 30.125 59.5898 30.1071C59.5997 30.0581 59.6096 30.0092 59.6211 29.9606C59.6273 29.9345 59.634 29.9085 59.6406 29.8824C59.6528 29.8348 59.665 29.7872 59.6787 29.7399C59.6841 29.7212 59.6906 29.7028 59.6963 29.6842C59.7113 29.6348 59.7273 29.5857 59.7441 29.5367C59.7534 29.5097 59.7626 29.4826 59.7725 29.4557C59.7862 29.4181 59.8007 29.3807 59.8154 29.3434C59.8284 29.3107 59.8417 29.2782 59.8555 29.2457C59.871 29.2091 59.8868 29.1726 59.9033 29.1364C59.9178 29.1046 59.933 29.0731 59.9482 29.0416C59.9648 29.0073 59.9815 28.973 59.999 28.9391C60.0124 28.9132 60.0262 28.8876 60.04 28.8619C60.0651 28.8155 60.0903 28.769 60.1172 28.7233C60.124 28.7117 60.1317 28.7006 60.1387 28.6891C60.1701 28.6367 60.2016 28.5842 60.2354 28.5328C60.2428 28.5215 60.2512 28.5109 60.2588 28.4996C60.2915 28.4508 60.3245 28.4019 60.3594 28.3541C60.3754 28.3322 60.3918 28.3104 60.4082 28.2887C60.4351 28.2531 60.4631 28.2182 60.4912 28.1832C60.5117 28.1577 60.5325 28.1323 60.5537 28.1071C60.5833 28.0718 60.6137 28.0371 60.6445 28.0026C60.6517 27.9945 60.6588 27.9861 60.666 27.9781C60.675 27.9682 60.6843 27.9587 60.6934 27.9489C60.717 27.9233 60.7403 27.8969 60.7646 27.8717C60.8322 27.8019 60.9018 27.7351 60.9727 27.6705C60.9913 27.6536 61.0105 27.6373 61.0293 27.6207C61.0682 27.5864 61.1076 27.5529 61.1475 27.5201C61.1646 27.506 61.1819 27.492 61.1992 27.4781C61.2383 27.447 61.2775 27.4161 61.3174 27.3864C61.3429 27.3674 61.3687 27.349 61.3945 27.3307C61.4282 27.3068 61.462 27.2833 61.4961 27.2604C61.5213 27.2435 61.5468 27.2269 61.5723 27.2106C61.6184 27.181 61.665 27.1524 61.7119 27.1246C61.7191 27.1204 61.7262 27.1161 61.7334 27.1119C61.7864 27.081 61.8396 27.0507 61.8936 27.0221C61.9098 27.0135 61.9261 27.0051 61.9424 26.9967C61.9861 26.9742 62.0299 26.9522 62.0742 26.9313C62.0842 26.9265 62.0945 26.9223 62.1045 26.9176L62.2363 26.859C62.249 26.8536 62.2617 26.8486 62.2744 26.8434C62.3007 26.8325 62.327 26.8215 62.3535 26.8112C62.3973 26.794 62.4411 26.7771 62.4854 26.7614C62.5083 26.7532 62.5316 26.7457 62.5547 26.7379C62.6043 26.7211 62.654 26.7051 62.7041 26.6901C62.7132 26.6873 62.7224 26.6849 62.7314 26.6823C62.8585 26.645 62.9869 26.6133 63.1162 26.5875C63.1415 26.5825 63.167 26.5785 63.1924 26.5739C63.2334 26.5664 63.2743 26.5587 63.3154 26.5524C63.3538 26.5465 63.3922 26.5416 63.4307 26.5367C63.4515 26.5341 63.4723 26.5313 63.4932 26.5289L63.5635 26.5211C63.5888 26.5187 63.6143 26.5173 63.6396 26.5153C63.6754 26.5124 63.7112 26.5095 63.7471 26.5074C63.776 26.5058 63.805 26.5046 63.834 26.5035C63.8639 26.5024 63.8939 26.5011 63.9238 26.5006H63.9951C64.0107 26.5006 64.0264 26.5014 64.042 26.5016Z" fill="black"/>
</g>
</svg>
