<svg width="120" height="120" viewBox="0 0 120 120" fill="none" xmlns="http://www.w3.org/2000/svg">
<g id="thickness=Standard, mode=default, name=direction_arrowLeftCircle">
<path id="N1" d="M107 60C107 34.0426 85.9574 13 60 13C34.0426 13 13 34.0426 13 60C13 85.9574 34.0426 107 60 107C85.9574 107 107 85.9574 107 60ZM115 60C115 90.3757 90.3757 115 60 115C29.6243 115 5 90.3757 5 60C5 29.6243 29.6243 5 60 5C90.3757 5 115 29.6243 115 60Z" fill="black"/>
<path id="S1L" d="M54.0928 27.5007C54.1052 27.501 54.1175 27.5023 54.1299 27.5027C54.1729 27.5041 54.2159 27.5057 54.2588 27.5085C54.2976 27.511 54.3363 27.5146 54.375 27.5183C54.3978 27.5204 54.4207 27.5216 54.4434 27.5241C54.4897 27.5293 54.5359 27.5359 54.5821 27.5427C54.5984 27.5451 54.6146 27.5479 54.6309 27.5505C54.6642 27.5558 54.6973 27.5619 54.7305 27.5681C54.8308 27.5866 54.9305 27.6083 55.0293 27.6345C55.065 27.6439 55.1004 27.6543 55.1358 27.6648C55.1531 27.6699 55.1703 27.6751 55.1875 27.6804C55.2291 27.6933 55.2704 27.7071 55.3116 27.7214C55.3373 27.7303 55.3631 27.7393 55.3887 27.7487C55.4218 27.7609 55.4546 27.7737 55.4874 27.7868C55.5118 27.7966 55.5364 27.8059 55.5606 27.8161C55.6012 27.8333 55.6415 27.8513 55.6817 27.8698C55.699 27.8778 55.7162 27.886 55.7334 27.8943C55.7751 27.9143 55.8164 27.9352 55.8575 27.9568C55.8754 27.9661 55.8934 27.9754 55.9112 27.9851C55.9411 28.0014 55.9705 28.0188 56 28.0359C56.0341 28.0555 56.068 28.0756 56.1016 28.0964C56.1231 28.1097 56.1448 28.1227 56.1661 28.1364C56.195 28.1551 56.2235 28.1746 56.252 28.1941C56.2782 28.212 56.3043 28.2302 56.3301 28.2487C56.3643 28.2733 56.3982 28.2982 56.4317 28.3239C56.4471 28.3358 56.4623 28.348 56.4776 28.3601C56.5104 28.386 56.5431 28.4121 56.5752 28.4392C56.6023 28.462 56.6287 28.4858 56.6553 28.5095C56.6785 28.5301 56.7018 28.5507 56.7247 28.572C56.7494 28.595 56.7737 28.6185 56.7979 28.6423C56.8235 28.6674 56.849 28.6926 56.8741 28.7185C56.8827 28.7274 56.8919 28.7358 56.9004 28.7448C56.9142 28.7594 56.927 28.7751 56.9405 28.7898C56.9559 28.8065 56.9722 28.8225 56.9874 28.8396C56.9985 28.8521 57.0096 28.8651 57.0206 28.8777C57.0336 28.8927 57.0458 28.9084 57.0586 28.9236C57.0921 28.9632 57.1247 29.0031 57.1563 29.0437C57.1669 29.0572 57.1772 29.071 57.1875 29.0847C57.2157 29.1217 57.2429 29.1592 57.2696 29.197C57.2831 29.2161 57.2965 29.2353 57.3096 29.2546C57.3341 29.2906 57.3587 29.3264 57.3819 29.363C57.3962 29.3856 57.41 29.4085 57.4239 29.4314C57.4444 29.4653 57.464 29.4996 57.4834 29.5339C57.4939 29.5523 57.5036 29.571 57.5137 29.5896C57.5371 29.6324 57.5604 29.675 57.5821 29.7185C57.5887 29.7318 57.5951 29.7452 57.6016 29.7585C57.6221 29.8008 57.6413 29.8436 57.6602 29.8864C57.6725 29.9144 57.6847 29.9423 57.6963 29.9704C57.7075 29.9974 57.719 30.0243 57.7295 30.0515C57.7434 30.0873 57.7558 30.1237 57.7686 30.1599C57.779 30.1891 57.7892 30.2184 57.7989 30.2478C57.8057 30.2686 57.8129 30.2893 57.8194 30.3103C57.8331 30.3544 57.8463 30.3986 57.8584 30.4431C57.865 30.467 57.8699 30.4913 57.876 30.5153C57.8839 30.5466 57.8923 30.5777 57.8995 30.6091C57.9069 30.6419 57.9133 30.6748 57.92 30.7077C57.9273 30.7441 57.9342 30.7806 57.9405 30.8171C57.9441 30.8379 57.948 30.8587 57.9512 30.8796C57.9575 30.9196 57.9628 30.9596 57.9678 30.9997C57.9717 31.031 57.9754 31.0622 57.9786 31.0935C57.9817 31.1244 57.984 31.1553 57.9864 31.1862C57.9889 31.2188 57.9915 31.2513 57.9932 31.2839C57.9949 31.3155 57.9962 31.347 57.9971 31.3786C57.9981 31.4109 57.9989 31.4431 57.9991 31.4753C57.9992 31.5059 57.9996 31.5365 57.9991 31.5671C57.9984 31.6072 57.9961 31.6472 57.9942 31.6872C57.9932 31.709 57.9926 31.7309 57.9913 31.7527C57.9886 31.7944 57.9844 31.836 57.9805 31.8777C57.9784 31.8998 57.9771 31.922 57.9747 31.9441C57.9708 31.9783 57.9657 32.0124 57.961 32.0466C57.9559 32.0838 57.9505 32.1209 57.9444 32.1579C57.9405 32.1811 57.9359 32.2041 57.9317 32.2273C57.9259 32.2588 57.9207 32.2905 57.9141 32.322C57.9056 32.3625 57.8965 32.4028 57.8868 32.4431C57.8803 32.4699 57.8733 32.4965 57.8663 32.5232C57.8595 32.549 57.8521 32.5746 57.8448 32.6003C57.834 32.6382 57.8225 32.676 57.8106 32.7136C57.8047 32.7321 57.7992 32.7508 57.793 32.7693C57.7574 32.8761 57.7177 32.9817 57.6729 33.0857C57.6664 33.1008 57.6591 33.1155 57.6524 33.1306C57.6336 33.1728 57.6142 33.2149 57.5938 33.2566C57.5845 33.2755 57.5751 33.2944 57.5655 33.3132C57.5453 33.3529 57.5245 33.3923 57.503 33.4314C57.4919 33.4514 57.4802 33.4711 57.4688 33.4909C57.4487 33.5259 57.4285 33.5609 57.4073 33.5954C57.3938 33.6172 57.3792 33.6383 57.3653 33.6599C57.3423 33.6956 57.3192 33.7312 57.295 33.7663C57.2812 33.7863 57.2672 33.8061 57.253 33.8259C57.2306 33.8571 57.2079 33.888 57.1846 33.9187C57.1664 33.9426 57.1478 33.9663 57.129 33.99C57.1055 34.0194 57.0821 34.049 57.0577 34.0778C57.0386 34.1004 57.0187 34.1221 56.9991 34.1443C56.9721 34.1747 56.9451 34.2052 56.917 34.2351C56.9005 34.2527 56.8841 34.2704 56.8672 34.2878C56.8389 34.3169 56.8097 34.3453 56.7803 34.3737C56.7716 34.3822 56.7638 34.3917 56.7549 34.4001L34.0186 55.9997H93C95.2091 55.9997 96.9999 57.7907 97 59.9997C97 62.2089 95.2092 63.9997 93 63.9997H33.8936L56.7803 86.1237C56.7882 86.1314 56.7959 86.1395 56.8038 86.1472C56.8348 86.1776 56.8648 86.2088 56.8946 86.24C56.9094 86.2555 56.924 86.2711 56.9385 86.2868C57.0202 86.375 57.0977 86.4656 57.17 86.5593C57.1792 86.5713 57.1882 86.5834 57.1973 86.5954C57.2253 86.6326 57.2518 86.6708 57.2784 86.7087C57.2907 86.7263 57.3034 86.7437 57.3155 86.7614C57.3761 86.8511 57.4328 86.9425 57.4854 87.0359C57.4982 87.0585 57.5102 87.0814 57.5225 87.1042C57.5415 87.1395 57.5603 87.1749 57.5782 87.2107C57.5898 87.234 57.6012 87.2575 57.6124 87.281C57.6271 87.3121 57.6414 87.3433 57.6553 87.3747C57.6675 87.4021 57.68 87.4292 57.6915 87.4568C57.7077 87.4958 57.7223 87.5355 57.7374 87.5749C57.7445 87.5938 57.7519 87.6126 57.7588 87.6316C57.7951 87.7313 57.8265 87.8324 57.8545 87.9343C57.8619 87.961 57.8692 87.9876 57.876 88.0144C57.8838 88.0452 57.8914 88.0761 57.8985 88.1071C57.9054 88.1377 57.9118 88.1683 57.918 88.1989C57.925 88.2334 57.9314 88.2679 57.9375 88.3025C57.9425 88.3304 57.9469 88.3584 57.9512 88.3864C57.9567 88.4222 57.9623 88.458 57.9668 88.4939C57.9702 88.5202 57.9738 88.5465 57.9766 88.573C57.9813 88.6165 57.9841 88.6602 57.9874 88.7038C57.9887 88.7221 57.9902 88.7403 57.9913 88.7585C57.9939 88.8024 57.9959 88.8464 57.9971 88.8903C57.9977 88.9112 57.9978 88.932 57.9981 88.9528C57.9986 88.9952 57.9989 89.0375 57.9981 89.0798C57.9977 89.101 57.9969 89.1221 57.9961 89.1433C57.9902 89.3116 57.9735 89.4794 57.9463 89.6462C57.9417 89.6746 57.9369 89.7029 57.9317 89.7312C57.926 89.7618 57.9205 89.7924 57.9141 89.823C57.9078 89.853 57.9015 89.8829 57.8946 89.9128C57.8861 89.9491 57.8767 89.9851 57.8672 90.0212C57.8606 90.0463 57.8538 90.0714 57.8467 90.0964C57.8361 90.1336 57.8252 90.1707 57.8135 90.2077C57.8045 90.2362 57.7948 90.2644 57.7852 90.2927C57.7754 90.3214 57.7654 90.3501 57.7549 90.3786C57.7443 90.4077 57.7331 90.4366 57.7217 90.4655C57.7052 90.5075 57.6879 90.5491 57.67 90.5905C57.6631 90.6065 57.6566 90.6225 57.6495 90.6384C57.6321 90.6771 57.6135 90.7153 57.5948 90.7536C57.582 90.7798 57.5691 90.8058 57.5557 90.8318C57.5426 90.8572 57.5294 90.8827 57.5157 90.9079C57.4979 90.9407 57.4798 90.9732 57.461 91.0056C57.4452 91.0328 57.4287 91.0597 57.4122 91.0866C57.3927 91.1184 57.373 91.15 57.3526 91.1814C57.3395 91.2014 57.326 91.2211 57.3125 91.2409C57.2899 91.2743 57.267 91.3077 57.2432 91.3405C57.2232 91.3682 57.2025 91.3953 57.1817 91.4226C57.1626 91.4476 57.1439 91.4731 57.1241 91.4978C57.1016 91.5258 57.0781 91.5532 57.0547 91.5808C57.0321 91.6075 57.0088 91.6336 56.9854 91.6599C56.9779 91.6683 56.9715 91.6779 56.9639 91.6862C56.9467 91.7052 56.9277 91.7224 56.9102 91.7409C56.8984 91.7535 56.8881 91.7675 56.876 91.78C56.8713 91.7849 56.8652 91.7888 56.8604 91.7937C56.8335 91.8213 56.8069 91.849 56.7793 91.8757C56.7523 91.9019 56.7249 91.9276 56.6973 91.9529C56.677 91.9714 56.6564 91.9895 56.6358 92.0075C56.606 92.0337 56.5763 92.0596 56.5459 92.0847C56.5209 92.1054 56.4952 92.1252 56.4698 92.1452C56.4438 92.1657 56.418 92.1861 56.3916 92.2058C56.3642 92.2263 56.3366 92.2466 56.3086 92.2663C56.2838 92.284 56.2586 92.3011 56.2334 92.3181C56.2045 92.3376 56.1749 92.356 56.1456 92.3747C56.1169 92.393 56.0887 92.4119 56.0596 92.4294C56.0308 92.4467 56.0019 92.4637 55.9727 92.4802C55.9478 92.4943 55.9226 92.5077 55.8975 92.5212C55.8613 92.5407 55.8248 92.5595 55.7881 92.5779C55.7648 92.5895 55.7413 92.6008 55.7178 92.612C55.6867 92.6268 55.6555 92.6411 55.6241 92.655C55.5967 92.6671 55.5696 92.6796 55.542 92.6911C55.4997 92.7088 55.4569 92.7248 55.4141 92.7409C55.4007 92.746 55.3875 92.7516 55.3741 92.7566C55.3255 92.7743 55.2767 92.7906 55.2276 92.8064C55.2155 92.8102 55.2035 92.8143 55.1915 92.8181C55.1464 92.8321 55.1011 92.8448 55.0557 92.8571C55.0332 92.8633 55.0109 92.87 54.9883 92.8757C54.9641 92.8819 54.9395 92.8866 54.9151 92.8923C54.8064 92.9177 54.6971 92.9395 54.587 92.9558C54.5733 92.9578 54.5596 92.9598 54.5459 92.9616C54.5037 92.9674 54.4614 92.9718 54.419 92.9763C54.392 92.9791 54.365 92.9818 54.3379 92.9841C54.2943 92.9878 54.2508 92.9916 54.2071 92.9939C54.1957 92.9945 54.1843 92.9944 54.1729 92.9948C54.1228 92.997 54.0727 92.9985 54.0225 92.9987C53.9955 92.9989 53.9685 92.9982 53.9415 92.9978C53.9121 92.9973 53.8829 92.9969 53.8536 92.9958C53.8194 92.9946 53.7852 92.993 53.751 92.9909C53.7136 92.9886 53.6761 92.9865 53.6387 92.9831C53.6201 92.9815 53.6016 92.9792 53.5831 92.9773C53.5407 92.9729 53.4983 92.9684 53.4561 92.9626C53.4261 92.9585 53.3962 92.9537 53.3663 92.9489C53.3346 92.9439 53.3031 92.9382 53.2715 92.9323C53.2396 92.9265 53.2077 92.9205 53.1758 92.9138C53.1438 92.9071 53.112 92.8998 53.0801 92.8923C53.0547 92.8863 53.0293 92.8802 53.004 92.8737C52.9624 92.8631 52.9212 92.8516 52.8799 92.8396C52.8609 92.834 52.8422 92.8278 52.8233 92.822C52.7828 92.8096 52.7424 92.7967 52.7022 92.7829C52.6794 92.7751 52.6565 92.7677 52.6338 92.7595C52.5972 92.7462 52.5608 92.7319 52.5245 92.7175C52.4934 92.7052 52.4625 92.6925 52.4317 92.6794C52.4049 92.668 52.3782 92.6563 52.3516 92.6443C52.3149 92.6276 52.2785 92.6103 52.2422 92.5925C52.2211 92.5821 52.1998 92.572 52.1788 92.5612C52.1443 92.5436 52.1102 92.5253 52.0762 92.5066C52.0488 92.4915 52.0213 92.4764 51.9942 92.4607C51.9696 92.4464 51.9453 92.4316 51.9209 92.4167C51.8855 92.3951 51.8503 92.3731 51.8155 92.3503C51.7919 92.3349 51.7685 92.3194 51.7452 92.3034C51.7098 92.2792 51.6745 92.2547 51.6397 92.2292C51.6206 92.2152 51.602 92.2006 51.5831 92.1862C51.5552 92.1651 51.5274 92.1438 51.5 92.1218C51.475 92.1017 51.4505 92.081 51.4258 92.0603C51.3957 92.0349 51.3655 92.0095 51.336 91.9831C51.3287 91.9766 51.3208 91.9702 51.3135 91.9636L25.9122 68.9431C20.6263 64.1523 20.6621 55.8353 25.9893 51.0905L51.3399 28.5124C51.3511 28.5024 51.3628 28.4929 51.3741 28.4831C51.4004 28.4601 51.4273 28.4379 51.4541 28.4157C51.4747 28.3988 51.4949 28.3815 51.5157 28.365C51.5566 28.3325 51.5979 28.3009 51.6397 28.2702C51.65 28.2626 51.6605 28.2552 51.6709 28.2478C51.7621 28.1823 51.8552 28.121 51.9502 28.0642C51.9756 28.049 52.0008 28.0338 52.0264 28.0193C52.0631 27.9984 52.1006 27.9793 52.1377 27.9597C52.1533 27.9515 52.1689 27.9433 52.1846 27.9353C52.2244 27.915 52.2644 27.8955 52.3047 27.8767C52.3292 27.8652 52.3534 27.8534 52.378 27.8425C52.4032 27.8313 52.4287 27.8209 52.4541 27.8103C52.4963 27.7926 52.5385 27.7756 52.5811 27.7595C52.5948 27.7543 52.6084 27.7489 52.6221 27.7439C52.6636 27.7286 52.7052 27.7137 52.7471 27.6999C52.7792 27.6894 52.8115 27.6794 52.8438 27.6696C52.8698 27.6618 52.8958 27.6545 52.9219 27.6472C52.9346 27.6436 52.9473 27.6399 52.96 27.6364L53.085 27.6052C53.0977 27.6022 53.1104 27.5992 53.1231 27.5964C53.1565 27.5889 53.1901 27.5825 53.2237 27.5759C53.2452 27.5717 53.2666 27.5671 53.2881 27.5632C53.3332 27.5551 53.3786 27.5483 53.4239 27.5417C53.4375 27.5397 53.4512 27.5377 53.4649 27.5359L53.5274 27.528C53.5446 27.526 53.5619 27.524 53.5791 27.5222C53.6156 27.5184 53.652 27.5143 53.6885 27.5114C53.721 27.5089 53.7536 27.5073 53.7862 27.5056C53.8168 27.504 53.8474 27.5026 53.878 27.5017C53.905 27.5009 53.932 27.501 53.959 27.5007C54.0036 27.5003 54.0482 27.4997 54.0928 27.5007Z" fill="black"/>
</g>
</svg>
