<svg width="120" height="120" viewBox="0 0 120 120" fill="none" xmlns="http://www.w3.org/2000/svg">
<g id="thickness=Light, mode=default, name=direction_arrowLeftDown">
<path id="S1LD" fill-rule="evenodd" clip-rule="evenodd" d="M108 15.5C108 13.8431 106.657 12.5 105 12.5C104.172 12.5 103.422 12.8358 102.879 13.3787L19.9277 96.3297C19.8985 96.1236 19.8819 95.9136 19.8785 95.7003L18.9999 39.469C18.9833 37.8265 17.6466 36.5 16.0001 36.5C14.3584 36.5 13.0247 37.8186 13.0004 39.4545H13.0004L12.1253 97.2093C12.0313 103.414 17.0857 108.469 23.2907 108.375L81.033 107.5C82.6747 107.482 84.0001 106.146 84.0001 104.5C84.0001 102.853 82.6729 101.516 81.0297 101.5L24.7998 100.622C24.5865 100.618 24.3764 100.602 24.1704 100.572L107.113 17.6302C107.661 17.0866 108 16.3329 108 15.5Z" fill="black"/>
</g>
</svg>
