<svg width="120" height="120" viewBox="0 0 120 120" fill="none" xmlns="http://www.w3.org/2000/svg">
<g id="thickness=Light, mode=default, name=direction_arrowRightDown">
<path id="S1R" fill-rule="evenodd" clip-rule="evenodd" d="M39.8264 102.932L76.7124 63.4116C78.5054 61.4905 78.5054 58.5094 76.7124 56.5884L39.8303 17.0718C39.3159 16.5333 39 15.8035 39 15C39 13.3431 40.3431 12 42 12C42.8285 12 43.5785 12.3358 44.1214 12.8788L44.1215 12.8787L83.4647 52.2218C87.7605 56.5176 87.7605 63.4824 83.4647 67.7782L44.1215 107.121L44.1214 107.121C43.5785 107.664 42.8285 108 42 108C40.3431 108 39 106.657 39 105C39 104.199 39.3143 103.47 39.8264 102.932Z" fill="black"/>
</g>
</svg>
