<svg width="120" height="120" viewBox="0 0 120 120" fill="none" xmlns="http://www.w3.org/2000/svg">
<g id="thickness=Light, mode=default, name=direction_arrowRightUp">
<path id="S1RU" fill-rule="evenodd" clip-rule="evenodd" d="M106.375 23.2907L105.5 81.0455C105.475 82.6814 104.142 84 102.5 84C100.859 84 99.5254 82.6821 99.5004 81.0468H99.5002L98.6213 24.7997C98.618 24.5864 98.6013 24.3764 98.5721 24.1704L15.6423 107.1C15.0978 107.655 14.3392 108 13.5 108C11.8431 108 10.5 106.657 10.5 105C10.5 104.172 10.8357 103.422 11.3786 102.879L11.3785 102.879L94.3295 19.9277C94.1234 19.8985 93.9134 19.8818 93.7 19.8785L37.4697 18.9999C35.8268 18.9836 34.5 17.6468 34.5 16C34.5 14.3541 35.8254 13.0178 37.4671 13.0002L95.2094 12.1253C101.414 12.0313 106.469 17.0857 106.375 23.2907Z" fill="black"/>
</g>
</svg>
