<svg width="120" height="120" viewBox="0 0 120 120" fill="none" xmlns="http://www.w3.org/2000/svg">
<g id="thickness=Bold, mode=default, name=direction_arrowUp">
<path id="S1U" fill-rule="evenodd" clip-rule="evenodd" d="M108.164 48.3003C108.989 49.116 109.5 50.2483 109.5 51.5C109.5 53.9853 107.485 56 105 56C103.797 56 102.705 55.5282 101.897 54.7595L64.5 19.4397V110C64.5 112.485 62.4853 114.5 60 114.5C57.5147 114.5 55.5 112.485 55.5 110V19.5241L18.1088 55.2534L18.0595 55.2017C17.3328 55.7051 16.4509 56 15.5 56C13.0147 56 11 53.9853 11 51.5C11 50.5125 11.3181 49.5994 11.8573 48.8573L11.818 48.818L51.1927 9.44333C56.0549 4.58105 63.9314 4.55904 68.8208 9.39409L108.164 48.3003Z" fill="black"/>
</g>
</svg>
