<svg width="120" height="120" viewBox="0 0 120 120" fill="none" xmlns="http://www.w3.org/2000/svg">
<g id="thickness=Light, mode=default, name=direction_arrowRight">
<path id="S1R" fill-rule="evenodd" clip-rule="evenodd" d="M67.8068 102.953L104.712 63.4116C104.836 63.2792 104.951 63.1418 105.057 63H10C8.34315 63 7 61.6569 7 60C7 58.3431 8.34315 57 10 57H105.057C104.951 56.8582 104.836 56.7208 104.712 56.5884L67.8178 17.0586C67.3108 16.5214 67 15.797 67 15C67 13.3431 68.3431 12 70 12C70.8284 12 71.5784 12.3358 72.1213 12.8787L111.464 52.2218C115.76 56.5176 115.76 63.4824 111.464 67.7782L72.1258 107.117C71.5826 107.662 70.8307 108 70 108C68.3431 108 67 106.657 67 105C67 104.209 67.3063 103.489 67.8068 102.953Z" fill="black"/>
</g>
</svg>
