<svg width="120" height="120" viewBox="0 0 120 120" fill="none" xmlns="http://www.w3.org/2000/svg">
<g id="thickness=Bold, mode=default, name=direction_arrowUpLight">
<path id="S1U" fill-rule="evenodd" clip-rule="evenodd" d="M101.897 80.759L62.4354 43.4898C61.0808 42.2104 58.9613 42.2166 57.6142 43.5038L18.1088 81.2534L18.0595 81.2017C17.3328 81.7051 16.4509 82 15.5 82C13.0147 82 11 79.9853 11 77.5C11 76.5126 11.318 75.5994 11.8573 74.8574L11.818 74.8181L12.3127 74.3233L12.3233 74.3127L51.1927 35.4434C56.0549 30.5811 63.9314 30.5591 68.8208 35.3941L108.152 74.2878C108.984 75.1045 109.5 76.2419 109.5 77.5C109.5 79.9853 107.485 82 105 82C103.797 82 102.704 81.528 101.897 80.759Z" fill="black"/>
</g>
</svg>
