<svg width="120" height="120" viewBox="0 0 120 120" fill="none" xmlns="http://www.w3.org/2000/svg">
<g id="thickness=Light, mode=default, name=direction_arrowDownCircle">
<path id="N1" d="M109 60C109 32.938 87.062 11 60 11C32.938 11 11 32.938 11 60C11 87.062 32.938 109 60 109C87.062 109 109 87.062 109 60ZM115 60C115 90.3757 90.3757 115 60 115C29.6243 115 5 90.3757 5 60C5 29.6243 29.6243 5 60 5C90.3757 5 115 29.6243 115 60Z" fill="black"/>
<path id="S1" d="M60 24C61.6569 24 63 25.3431 63 27V86.0439C63.1431 85.9364 63.2825 85.8212 63.416 85.6963L88.9502 61.8096L88.9521 61.8115C89.4885 61.3095 90.2074 61 91 61C92.6569 61 94 62.3431 94 64C94 64.8113 93.6755 65.545 93.1523 66.085L93.1543 66.0869L67.9004 92.1562C63.5782 96.6177 56.4218 96.6177 52.0996 92.1562L26.8457 66.0869L26.8467 66.085C26.3238 65.545 26 64.811 26 64C26 62.3431 27.3431 61 29 61C29.7924 61 30.5106 61.3097 31.0469 61.8115L31.0498 61.8096L56.584 85.6963C56.7175 85.8212 56.8569 85.9364 57 86.0439V27C57 25.3431 58.3431 24 60 24Z" fill="black"/>
</g>
</svg>
