<svg width="120" height="120" viewBox="0 0 120 120" fill="none" xmlns="http://www.w3.org/2000/svg">
<g id="thickness=Light, mode=default, name=direction_arrowRightDown">
<path id="S1RD" fill-rule="evenodd" clip-rule="evenodd" d="M10.5 15.5C10.5 13.8431 11.8431 12.5 13.5 12.5C14.3392 12.5 15.0979 12.8446 15.6423 13.3999L98.5721 96.3297C98.6013 96.1236 98.618 95.9136 98.6213 95.7003L99.5002 39.4532L99.5004 39.4532C99.5254 37.8179 100.859 36.5 102.5 36.5C104.142 36.5 105.475 37.8186 105.5 39.4545L106.375 97.2093C106.469 103.414 101.414 108.469 95.2094 108.375L37.4671 107.5C35.8254 107.482 34.5 106.146 34.5 104.5C34.5 102.853 35.8268 101.516 37.4697 101.5L93.7 100.622C93.9134 100.618 94.1235 100.602 94.3295 100.572L11.3785 17.6213L11.3786 17.6212C10.8357 17.0783 10.5 16.3284 10.5 15.5Z" fill="black"/>
</g>
</svg>
