<svg width="120" height="120" viewBox="0 0 120 120" fill="none" xmlns="http://www.w3.org/2000/svg">
<g id="thickness=Standard, mode=default, name=direction_arrowUpCircle">
<path id="N1" d="M107 60C107 34.0426 85.9574 13 60 13C34.0426 13 13 34.0426 13 60C13 85.9574 34.0426 107 60 107C85.9574 107 107 85.9574 107 60ZM115 60C115 90.3757 90.3757 115 60 115C29.6243 115 5 90.3757 5 60C5 29.6243 29.6243 5 60 5C90.3757 5 115 29.6243 115 60Z" fill="black"/>
<path id="S1" d="M51.3604 27.2666C56.0623 22.3335 63.9242 22.3015 68.666 27.1963L93.873 53.2168H93.8711C94.5693 53.9369 95 54.9178 95 56C95 58.2092 93.2091 60 91 60C89.9188 60 88.9387 59.5701 88.2188 58.8731V58.874L64 35.4375V91C64 93.2092 62.2091 95 60 95C57.7909 95 56 93.2092 56 91V35.5449L32.3047 58.8516L32.3037 58.8506C31.5818 59.5607 30.5926 60 29.5 60C27.2909 60 25.5 58.2092 25.5 56C25.5 54.9297 25.9208 53.9581 26.6055 53.2402H26.6045L51.3604 27.2666Z" fill="black"/>
</g>
</svg>
