<svg width="120" height="120" viewBox="0 0 120 120" fill="none" xmlns="http://www.w3.org/2000/svg">
<g id="thickness=Standard, mode=default, name=direction_arrowRightDown">
<path id="S1R" fill-rule="evenodd" clip-rule="evenodd" d="M37 15.5C37 16.5842 37.4314 17.5677 38.1319 18.2882L75.7818 57.2514C77.2738 58.7955 77.2806 61.242 75.7972 62.7944L38.1141 102.23C37.4241 102.949 37 103.925 37 105C37 107.209 38.7909 109 41 109C42.1046 109 43.1047 108.552 43.8285 107.828L43.8286 107.828L83.1401 68.5169C87.8449 63.8121 87.8235 56.1775 83.0925 51.4991L43.8128 12.6558L43.8126 12.6559C43.0901 11.9412 42.0966 11.5 41 11.5C38.7909 11.5 37 13.2909 37 15.5Z" fill="black"/>
</g>
</svg>
