<svg width="120" height="120" viewBox="0 0 120 120" fill="none" xmlns="http://www.w3.org/2000/svg">
<g id="thickness=Standard, mode=default, name=direction_arrowLeftUp">
<path id="S1LU" fill-rule="evenodd" clip-rule="evenodd" d="M23.6588 11.5645L79.7361 12.0085C79.8233 12.0028 79.9113 12 80 12C82.2091 12 84 13.7908 84 16C84 18.1663 82.2778 19.9305 80.1278 19.998L80.1281 20.0086L27.3587 21.7017L107.828 102.171L107.828 102.172C108.552 102.895 109 103.895 109 105C109 107.209 107.209 109 105 109C103.886 109 102.879 108.545 102.154 107.81L21.6954 27.3521L19.9987 79.0997C19.9458 81.2628 18.1757 83 16 83C13.7967 83 12.0096 81.2187 12 79.0177L12 79L11.5641 23.6586C11.5113 16.9572 16.9574 11.5114 23.6588 11.5645Z" fill="black"/>
</g>
</svg>
