<svg width="120" height="120" viewBox="0 0 120 120" fill="none" xmlns="http://www.w3.org/2000/svg">
<g id="thickness=Bold, mode=default, name=direction_arrowRight">
<path id="S1R" fill-rule="evenodd" clip-rule="evenodd" d="M72.182 11.818L72.1427 11.8573C71.4006 11.3181 70.4875 11 69.5 11C67.0147 11 65 13.0147 65 15.5C65 16.4508 65.2949 17.3328 65.7982 18.0594L65.7465 18.1088L101.476 55.5H11C8.51472 55.5 6.5 57.5147 6.5 60C6.5 62.4853 8.51472 64.5 11 64.5H101.56L66.2284 101.91C65.4669 102.716 65 103.804 65 105C65 107.485 67.0147 109.5 69.5 109.5C70.7556 109.5 71.891 108.986 72.7073 108.156L111.606 68.8208C116.441 63.9314 116.419 56.0549 111.557 51.1927L72.182 11.818Z" fill="black"/>
</g>
</svg>
