<svg width="120" height="120" viewBox="0 0 120 120" fill="none" xmlns="http://www.w3.org/2000/svg">
<g id="thickness=Standard, mode=default, name=direction_arrowDownCircle">
<path id="N1" d="M107 60C107 34.0426 85.9574 13 60 13C34.0426 13 13 34.0426 13 60C13 85.9574 34.0426 107 60 107C85.9574 107 107 85.9574 107 60ZM115 60C115 90.3757 90.3757 115 60 115C29.6243 115 5 90.3757 5 60C5 29.6243 29.6243 5 60 5C90.3757 5 115 29.6243 115 60Z" fill="black"/>
<path id="S1" d="M60 24C62.2091 24 64 25.7909 64 28V83.5615L88.2188 60.126C88.9386 59.4292 89.919 59 91 59C93.2091 59 95 60.7909 95 63C95 64.082 94.569 65.0622 93.8711 65.7822L93.873 65.7832L68.666 91.8037C63.9242 96.6985 56.0623 96.6665 51.3604 91.7334L26.6045 65.7598L26.6055 65.7588C25.9211 65.041 25.5 64.07 25.5 63C25.5 60.7909 27.2909 59 29.5 59C30.5924 59 31.5818 59.4386 32.3037 60.1484H32.3047L56 83.4541V28C56 25.7909 57.7909 24 60 24Z" fill="black"/>
</g>
</svg>
