<svg width="120" height="120" viewBox="0 0 120 120" fill="none" xmlns="http://www.w3.org/2000/svg">
<g id="thickness=Light, mode=default, name=direction_arrowUp">
<path id="S1U" fill-rule="evenodd" clip-rule="evenodd" d="M107.113 48.8709L67.7782 9.53554C63.4824 5.23978 56.5176 5.23978 52.2218 9.53555L12.8787 48.8787C12.3358 49.4216 12 50.1716 12 51C12 52.6569 13.3431 54 15 54C15.7912 54 16.5109 53.6937 17.047 53.1932L56.5884 16.2878C56.7208 16.1643 56.8582 16.0492 57 15.9427V111C57 112.657 58.3431 114 60 114C61.6569 114 63 112.657 63 111V15.9427C63.1418 16.0492 63.2792 16.1643 63.4116 16.2878L102.95 53.1901C103.486 53.6924 104.207 54 105 54C106.657 54 108 52.6569 108 51C108 50.1676 107.661 49.4144 107.113 48.8709Z" fill="black"/>
</g>
</svg>
