<svg width="120" height="120" viewBox="0 0 120 120" fill="none" xmlns="http://www.w3.org/2000/svg">
<g id="thickness=Bold, mode=default, name=direction_arrowUpCircle">
<path id="N1" d="M106.5 60C106.5 34.3188 85.6812 13.5 60 13.5C34.3188 13.5 13.5 34.3188 13.5 60C13.5 85.6812 34.3188 106.5 60 106.5C85.6812 106.5 106.5 85.6812 106.5 60ZM115.5 60C115.5 90.6518 90.6518 115.5 60 115.5C29.3482 115.5 4.5 90.6518 4.5 60C4.5 29.3482 29.3482 4.5 60 4.5C90.6518 4.5 115.5 29.3482 115.5 60Z" fill="black"/>
<path id="S1" d="M51.0674 26.7539C55.9521 21.7116 64.0298 21.6799 68.9541 26.6836L94.1729 52.3086C94.9926 53.1236 95.5 54.2527 95.5 55.5C95.4999 57.9852 93.4852 60 91 60C89.7972 60 88.7058 59.5266 87.8984 58.7578L87.8975 58.7598L64.5 36.4932V91C64.4999 93.4852 62.4852 95.5 60 95.5C57.5148 95.5 55.5001 93.4852 55.5 91V36.6162L32.1299 59.2334L32.082 59.1836C31.3509 59.697 30.4612 60 29.5 60C27.0148 60 25.0001 57.9852 25 55.5C25 54.5385 25.3017 53.6473 25.8154 52.916L25.7676 52.8691L51.0674 26.7539Z" fill="black"/>
</g>
</svg>
