<svg width="120" height="120" viewBox="0 0 120 120" fill="none" xmlns="http://www.w3.org/2000/svg">
<g id="thickness=Light, mode=default, name=direction_arrowDown">
<path id="S1D" fill-rule="evenodd" clip-rule="evenodd" d="M57 104.057C56.8582 103.951 56.7208 103.836 56.5884 103.712L17.047 66.8068C16.511 66.3063 15.7912 66 15 66C13.3431 66 12 67.3431 12 69C12 69.8322 12.3388 70.5852 12.8861 71.1287L52.2218 110.464C56.5176 114.76 63.4824 114.76 67.7782 110.464L107.121 71.1213C107.664 70.5784 108 69.8284 108 69C108 67.3431 106.657 66 105 66C104.205 66 103.483 66.309 102.946 66.8134L63.4116 103.712C63.2792 103.836 63.1418 103.951 63 104.057V9C63 7.34315 61.6569 6 60 6C58.3431 6 57 7.34315 57 9V104.057Z" fill="black"/>
</g>
</svg>
