<svg width="120" height="120" viewBox="0 0 120 120" fill="none" xmlns="http://www.w3.org/2000/svg">
<g id="thickness=Standard, mode=default, name=direction_arrowRight">
<path id="S1R" fill-rule="evenodd" clip-rule="evenodd" d="M111.092 51.4991L71.8126 12.6558C71.09 11.9412 70.0965 11.5 69 11.5C66.7909 11.5 65 13.2909 65 15.5C65 16.5845 65.4316 17.5682 66.1323 18.2887L102.573 56H11C8.79086 56 7 57.7909 7 60C7 62.2091 8.79086 64 11 64H102.645L66.1138 102.231C65.424 102.949 65 103.925 65 105C65 107.209 66.7909 109 69 109C70.1104 109 71.1151 108.548 71.8398 107.817L111.14 68.5169C115.845 63.8121 115.823 56.1775 111.092 51.4991Z" fill="black"/>
</g>
</svg>
