<svg width="120" height="120" viewBox="0 0 120 120" fill="none" xmlns="http://www.w3.org/2000/svg">
<g id="thickness=Bold, mode=default, name=direction_arrowRightDown">
<path id="S1R" fill-rule="evenodd" clip-rule="evenodd" d="M44.6873 12.3233L83.5566 51.1927C88.4189 56.0549 88.4409 63.9314 83.6059 68.8208L44.7126 108.151C43.896 108.984 42.7583 109.5 41.5 109.5C39.0147 109.5 37 107.485 37 105C37 103.792 37.4762 102.695 38.2512 101.886L75.5104 62.4354C76.7897 61.0808 76.7835 58.9613 75.4963 57.6142L37.7467 18.1088L37.7983 18.0595C37.2949 17.3329 37 16.4509 37 15.5C37 13.0147 39.0147 11 41.5 11C42.4874 11 43.4006 11.318 44.1426 11.8573L44.1819 11.818L44.6767 12.3127L44.6873 12.3233Z" fill="black"/>
</g>
</svg>
