<svg width="120" height="120" viewBox="0 0 120 120" fill="none" xmlns="http://www.w3.org/2000/svg">
<g id="thickness=Light, mode=default, name=direction_arrowDownLight">
<path id="S1D" fill-rule="evenodd" clip-rule="evenodd" d="M12 44C12 44.8325 12.3391 45.5858 12.8867 46.1293L52.2218 85.4645C56.5176 89.7602 63.4824 89.7602 67.7782 85.4645L107.121 46.1213C107.664 45.5784 108 44.8284 108 44C108 42.3431 106.657 41 105 41C104.205 41 103.482 41.3092 102.946 41.8138L63.4116 78.7122C61.4906 80.5051 58.5095 80.5051 56.5884 78.7122L17.047 41.8068L17.047 41.8068C16.5109 41.3063 15.7912 41 15 41C13.3431 41 12 42.3431 12 44Z" fill="black"/>
</g>
</svg>
