<svg width="120" height="120" viewBox="0 0 120 120" fill="none" xmlns="http://www.w3.org/2000/svg">
<g id="thickness=Standard, mode=default, name=direction_arrowUpLight">
<path id="S1U" fill-rule="evenodd" clip-rule="evenodd" d="M102.231 80.8862L62.7944 43.2028C61.242 41.7194 58.7955 41.7262 57.2514 43.2182L18.2879 80.8684C17.5675 81.5687 16.5841 82 15.5 82C13.2909 82 11.5 80.2091 11.5 78C11.5 76.9006 11.9435 75.9048 12.6614 75.1818L51.4991 35.9077C56.1775 31.1767 63.8121 31.1554 68.5169 35.8602L107.811 75.1542C108.545 75.8794 109 76.8866 109 78C109 80.2091 107.209 82 105 82C103.925 82 102.949 81.576 102.231 80.8862Z" fill="black"/>
</g>
</svg>
