<svg width="120" height="120" viewBox="0 0 120 120" fill="none" xmlns="http://www.w3.org/2000/svg">
<g id="thickness=Bold, mode=default, name=direction_Unfold">
<path id="S1" d="M51.9658 68.8945C56.6017 64.9798 63.38 64.9595 68.0391 68.8467L107.442 101.722C108.68 102.523 109.5 103.915 109.5 105.5C109.5 107.985 107.485 110 105 110C103.957 110 102.997 109.644 102.233 109.048L102.211 109.078L62.2012 77.4736C60.923 76.464 59.1167 76.4688 57.8447 77.4863L17.8115 109.514L17.7275 109.408C17.0705 109.784 16.3109 110 15.5 110C13.0147 110 11 107.985 11 105.5C11 103.859 11.8784 102.424 13.1904 101.638L51.9658 68.8945ZM104.5 11C106.985 11 109 13.0147 109 15.5C109 17.1409 108.121 18.5751 106.809 19.3613L68.0342 52.1055C63.3983 56.0202 56.62 56.0405 51.9609 52.1533L12.5566 19.2773C11.3195 18.4755 10.5 17.0841 10.5 15.5C10.5 13.0147 12.5147 11 15 11C16.043 11 17.0025 11.3556 17.7656 11.9512L17.7891 11.9219L57.7988 43.5264C59.077 44.536 60.8833 44.5312 62.1553 43.5137L102.188 11.4863L102.271 11.5898C102.929 11.2146 103.689 11 104.5 11Z" fill="black"/>
</g>
</svg>
