<svg width="120" height="120" viewBox="0 0 120 120" fill="none" xmlns="http://www.w3.org/2000/svg">
<g id="thickness=Light, mode=default, name=direction_arrowRightCircle">
<path id="N1" d="M11 60C11 32.938 32.938 11 60 11C87.062 11 109 32.938 109 60C109 87.062 87.062 109 60 109C32.938 109 11 87.062 11 60ZM5 60C5 90.3757 29.6243 115 60 115C90.3757 115 115 90.3757 115 60C115 29.6243 90.3757 5 60 5C29.6243 5 5 29.6243 5 60Z" fill="black"/>
<path id="S1R" d="M67.082 28.0039C67.1211 28.005 67.1602 28.0062 67.1992 28.0088C67.2557 28.0125 67.3119 28.0185 67.3682 28.0254C67.4103 28.0306 67.4522 28.037 67.4941 28.044C67.5438 28.0522 67.5933 28.0615 67.6426 28.0723C67.6894 28.0825 67.7358 28.094 67.7822 28.1065C67.8278 28.1187 67.8729 28.1321 67.918 28.1465C67.9645 28.1614 68.0107 28.1771 68.0566 28.1944C68.1043 28.2123 68.1514 28.2316 68.1982 28.252C68.2413 28.2707 68.2838 28.2906 68.3262 28.3115C68.371 28.3337 68.4151 28.3573 68.459 28.3819C68.5363 28.425 68.6133 28.4699 68.6875 28.5205C68.79 28.5904 68.8893 28.667 68.9844 28.751C68.9944 28.7598 69.0047 28.7684 69.0147 28.7774L94.4736 51.8496C99.2908 56.2156 99.2907 63.7844 94.4736 68.1504L69.0147 91.2227C69.0049 91.2315 68.9942 91.2394 68.9844 91.2481C68.8724 91.3471 68.7549 91.4362 68.6328 91.5156C68.5739 91.554 68.513 91.5883 68.4522 91.6221C68.4119 91.6444 68.3711 91.6652 68.3301 91.6856C68.2865 91.7072 68.2426 91.7277 68.1982 91.7471C68.1514 91.7675 68.1043 91.7868 68.0566 91.8047C68.0091 91.8226 67.9613 91.8391 67.9131 91.8545C67.8729 91.8673 67.8326 91.8795 67.792 91.8906C67.7407 91.9046 67.6895 91.9175 67.6377 91.9287C67.5919 91.9387 67.5461 91.9473 67.5 91.9551C67.4512 91.9633 67.4025 91.9708 67.3535 91.9766C67.309 91.9818 67.2644 91.986 67.2197 91.9893C67.1686 91.993 67.1176 91.995 67.0664 91.9961C67.0185 91.9972 66.9707 91.9973 66.9229 91.9961C66.8775 91.9949 66.8324 91.9925 66.7871 91.9893C66.7372 91.9857 66.6874 91.9816 66.6377 91.9756C66.5923 91.9701 66.5471 91.9636 66.502 91.9561C66.4496 91.9473 66.3977 91.9364 66.3457 91.9248C66.3032 91.9153 66.2609 91.9049 66.2188 91.8936C66.1712 91.8808 66.1241 91.8667 66.0772 91.8516C66.0309 91.8367 65.985 91.8209 65.9395 91.8037C65.8948 91.7869 65.8506 91.7691 65.8066 91.75C65.7582 91.729 65.7106 91.7063 65.6631 91.6826C65.6247 91.6635 65.5865 91.644 65.5488 91.6231C65.5026 91.5975 65.4572 91.5702 65.4121 91.542C65.355 91.5062 65.2973 91.4707 65.2422 91.4307C65.1169 91.3399 64.9965 91.2393 64.8838 91.127L64.7773 91.0147C64.6715 90.8981 64.5764 90.7754 64.4922 90.6475C64.4501 90.5836 64.4126 90.5174 64.376 90.4512C64.3544 90.4122 64.3342 90.3727 64.3145 90.333C64.2918 90.2875 64.2702 90.2417 64.25 90.1953C64.2301 90.1495 64.2118 90.1032 64.1943 90.0567C64.177 90.0107 64.1605 89.9646 64.1455 89.918C64.1318 89.8752 64.1192 89.8323 64.1074 89.7891C64.0938 89.7391 64.0813 89.6891 64.0703 89.6387C64.0603 89.5923 64.0518 89.5458 64.0439 89.499C64.0359 89.4513 64.0291 89.4035 64.0234 89.3555C64.018 89.31 64.0131 89.2645 64.0098 89.2188C64.0061 89.168 64.004 89.1173 64.0029 89.0664C64.0019 89.0186 64.0017 88.9707 64.0029 88.9229C64.0041 88.8782 64.0066 88.8337 64.0098 88.7891C64.0133 88.7385 64.0173 88.6881 64.0234 88.6377C64.029 88.5916 64.0362 88.5458 64.0439 88.5C64.0524 88.45 64.0623 88.4002 64.0732 88.3506C64.0834 88.3048 64.0942 88.2592 64.1064 88.2139C64.1184 88.1697 64.1315 88.1258 64.1455 88.0821C64.1611 88.0335 64.1782 87.9854 64.1963 87.9375C64.2129 87.8936 64.2303 87.8499 64.249 87.8067C64.27 87.7582 64.2928 87.7106 64.3164 87.6631C64.3355 87.6247 64.3551 87.5865 64.376 87.5488C64.4016 87.5026 64.4288 87.4572 64.457 87.4121C64.4928 87.355 64.5284 87.2973 64.5684 87.2422C64.6593 87.1168 64.7606 86.9966 64.8731 86.8838L88.2217 63.5352C88.3913 63.3656 88.5454 63.1863 88.6856 63H24C22.3431 63 21 61.6569 21 60C21.0001 58.3432 22.3432 57 24 57H88.6856C88.5454 56.8138 88.3912 56.6344 88.2217 56.4649L64.8916 33.1338C64.7718 33.0156 64.6642 32.8893 64.5684 32.7569C64.5279 32.701 64.4912 32.6429 64.4551 32.585C64.4288 32.5428 64.4039 32.5002 64.3799 32.457C64.3566 32.4152 64.3346 32.3728 64.3135 32.3301C64.2913 32.2852 64.2699 32.2401 64.25 32.1944C64.2306 32.1497 64.2124 32.1049 64.1953 32.0596C64.1781 32.014 64.1624 31.9681 64.1475 31.9219C64.1323 31.8749 64.1182 31.8278 64.1055 31.7803C64.0942 31.7381 64.0837 31.6959 64.0742 31.6533C64.0627 31.6014 64.0517 31.5495 64.043 31.4971C64.0355 31.4526 64.0299 31.408 64.0244 31.3633C64.0183 31.3126 64.0133 31.2619 64.0098 31.211C64.0066 31.1664 64.0041 31.1218 64.0029 31.0772C64.0017 31.029 64.0019 30.9808 64.0029 30.9326C64.0041 30.8818 64.0061 30.8311 64.0098 30.7803C64.013 30.7356 64.0172 30.691 64.0225 30.6465C64.0284 30.5965 64.0355 30.5468 64.0439 30.4971C64.0515 30.4527 64.0598 30.4084 64.0693 30.3643C64.0808 30.3112 64.094 30.2586 64.1084 30.2061C64.1194 30.1658 64.1318 30.1259 64.1445 30.086C64.1599 30.0378 64.1764 29.9899 64.1943 29.9424C64.2123 29.8948 64.2315 29.8477 64.252 29.8008C64.2713 29.7564 64.2918 29.7126 64.3135 29.669C64.3338 29.6279 64.3546 29.5871 64.377 29.5469C64.4107 29.4861 64.445 29.4252 64.4834 29.3662C64.5685 29.2355 64.665 29.1102 64.7725 28.9912C64.7741 28.9894 64.7757 28.9872 64.7773 28.9854C64.9215 28.8263 65.0788 28.6862 65.2461 28.5654C65.2963 28.5292 65.3486 28.4966 65.4004 28.4639C65.4502 28.4324 65.5005 28.4023 65.5518 28.374C65.5885 28.3538 65.6258 28.335 65.6631 28.3164C65.7106 28.2928 65.7582 28.27 65.8066 28.249C65.8506 28.23 65.8948 28.2122 65.9395 28.1953C65.985 28.1781 66.0309 28.1624 66.0772 28.1475C66.1225 28.1328 66.168 28.1189 66.2139 28.1065C66.2608 28.0938 66.3081 28.0827 66.3555 28.0723C66.4041 28.0616 66.4529 28.0522 66.502 28.044C66.5439 28.0369 66.5858 28.0307 66.6279 28.0254C66.6822 28.0187 66.7365 28.0136 66.791 28.0098C66.8333 28.0068 66.8756 28.0051 66.918 28.0039C66.9727 28.0024 67.0273 28.0024 67.082 28.0039Z" fill="black"/>
</g>
</svg>
