<svg width="120" height="120" viewBox="0 0 120 120" fill="none" xmlns="http://www.w3.org/2000/svg">
<g id="thickness=Standard, mode=default, name=direction_arrowDownLight">
<path id="S1D" fill-rule="evenodd" clip-rule="evenodd" d="M11 44C11 45.1137 11.4551 46.121 12.1895 46.8462L51.4831 86.1398C56.1879 90.8446 63.8225 90.8233 68.5009 86.0923L107.34 46.8172C108.057 46.0942 108.5 45.0989 108.5 44C108.5 41.7909 106.709 40 104.5 40C103.416 40 102.432 40.4314 101.712 41.132L62.7486 78.7818C61.2045 80.2738 58.758 80.2806 57.2056 78.7972L17.7698 41.1142C17.0511 40.4241 16.0751 40 15 40C12.7909 40 11 41.7909 11 44Z" fill="black"/>
</g>
</svg>
