<svg width="120" height="120" viewBox="0 0 120 120" fill="none" xmlns="http://www.w3.org/2000/svg">
<g id="thickness=Light, mode=default, name=direction_arrowLeftCircle">
<path id="N1" d="M109 60C109 32.938 87.062 11 60 11C32.938 11 11 32.938 11 60C11 87.062 32.938 109 60 109C87.062 109 109 87.062 109 60ZM115 60C115 90.3757 90.3757 115 60 115C29.6243 115 5 90.3757 5 60C5 29.6243 29.6243 5 60 5C90.3757 5 115 29.6243 115 60Z" fill="black"/>
<path id="S1L" d="M53.0826 28.0038C53.124 28.0049 53.1653 28.0068 53.2067 28.0097C53.2618 28.0134 53.3168 28.0185 53.3717 28.0253C53.4145 28.0306 53.457 28.0377 53.4996 28.0448C53.5464 28.0527 53.5929 28.0611 53.6393 28.0712C53.69 28.0822 53.7404 28.0946 53.7906 28.1083C53.8329 28.1198 53.8748 28.132 53.9166 28.1454C53.9669 28.1615 54.0165 28.1794 54.066 28.1981C54.1067 28.2136 54.147 28.2297 54.1871 28.247C54.2382 28.2689 54.2885 28.2924 54.3385 28.3173C54.3752 28.3356 54.4118 28.354 54.4479 28.3739C54.4991 28.4022 54.5494 28.4323 54.5992 28.4638C54.6511 28.4965 54.7034 28.5291 54.7535 28.5653C54.9211 28.6862 55.0789 28.826 55.2233 28.9852C55.3795 29.1577 55.5089 29.3451 55.6178 29.5399C55.6416 29.5826 55.6646 29.6253 55.6862 29.6688C55.7098 29.7165 55.7316 29.7648 55.7526 29.8134C55.769 29.8516 55.7846 29.8899 55.7994 29.9286C55.8193 29.9804 55.8383 30.0323 55.8551 30.0849C55.8689 30.1279 55.8814 30.1712 55.8932 30.2147C55.9062 30.263 55.9177 30.3115 55.9283 30.3602C55.9382 30.4057 55.9469 30.4512 55.9547 30.497C55.9631 30.5467 55.9703 30.5964 55.9762 30.6464C55.9815 30.6909 55.9856 30.7355 55.9889 30.7802C55.9927 30.8329 55.9956 30.8855 55.9967 30.9384C55.9975 30.9794 55.9975 31.0204 55.9967 31.0614C55.9956 31.1162 55.992 31.1708 55.9879 31.2255C55.9846 31.2699 55.9805 31.3141 55.9752 31.3583C55.9695 31.406 55.9627 31.4534 55.9547 31.5009C55.9467 31.5486 55.9377 31.5961 55.9274 31.6435C55.917 31.6909 55.9059 31.7381 55.8932 31.7851C55.8811 31.8297 55.8673 31.8737 55.8531 31.9179C55.8364 31.9701 55.8181 32.0217 55.7985 32.0731C55.7847 32.1091 55.7707 32.145 55.7555 32.1806C55.7333 32.2323 55.7094 32.2832 55.6842 32.3339C55.6643 32.374 55.6435 32.4137 55.6217 32.453C55.5956 32.5002 55.5685 32.5467 55.5397 32.5927C55.5052 32.6475 55.4696 32.7018 55.4313 32.7548C55.3681 32.8421 55.3018 32.9282 55.2281 33.0097C55.1939 33.0475 55.1582 33.0845 55.1217 33.121L31.779 56.4647C31.6095 56.6342 31.4552 56.8137 31.3151 56.9999H96.0006C97.6572 57.0001 99.0005 58.3432 99.0006 59.9999C99.0006 61.6566 97.6572 62.9997 96.0006 62.9999H31.3151C31.4552 63.1862 31.6094 63.3655 31.779 63.5351L55.1217 86.8788C55.2365 86.9934 55.3388 87.1163 55.4313 87.244C55.4693 87.2965 55.5035 87.3509 55.5377 87.4052C55.5682 87.4536 55.5982 87.5019 55.6256 87.5517C55.6452 87.5871 55.6632 87.6231 55.6813 87.6591C55.7077 87.7119 55.7324 87.7652 55.7555 87.8192C55.7704 87.8539 55.785 87.8886 55.7985 87.9237C55.819 87.9773 55.8377 88.0313 55.8551 88.0858C55.8681 88.1267 55.88 88.1676 55.8912 88.2089C55.9049 88.2591 55.9173 88.3095 55.9283 88.3602C55.9381 88.405 55.9461 88.4499 55.9537 88.495C55.9621 88.5444 55.9693 88.5938 55.9752 88.6435C55.9804 88.6867 55.9846 88.7299 55.9879 88.7733C55.9921 88.8283 55.9956 88.8832 55.9967 88.9384C55.9975 88.9794 55.9975 89.0204 55.9967 89.0614C55.9956 89.1139 55.9927 89.1662 55.9889 89.2186C55.9856 89.2644 55.9806 89.3098 55.9752 89.3554C55.9695 89.4034 55.9627 89.4511 55.9547 89.4989C55.9466 89.5473 55.9379 89.5954 55.9274 89.6435C55.9174 89.689 55.9063 89.7341 55.8942 89.7792C55.8816 89.826 55.868 89.8725 55.8531 89.9188C55.8367 89.9701 55.8187 90.0207 55.7994 90.0712C55.7853 90.1083 55.7702 90.1449 55.7545 90.1815C55.7328 90.2322 55.7098 90.2823 55.6852 90.3319C55.6641 90.3744 55.642 90.4163 55.6188 90.4579C55.5346 90.6087 55.4392 90.7555 55.3268 90.8935C55.2934 90.9344 55.2591 90.975 55.2233 91.0145L55.1168 91.1269C55.004 91.2393 54.8829 91.3396 54.7574 91.4306C54.7023 91.4706 54.6447 91.5061 54.5875 91.5419C54.5424 91.5701 54.4971 91.5973 54.4508 91.6229C54.4137 91.6435 54.3762 91.6627 54.3385 91.6815C54.2885 91.7065 54.2382 91.7299 54.1871 91.7519C54.147 91.7691 54.1067 91.7852 54.066 91.8007C54.0165 91.8195 53.9669 91.8373 53.9166 91.8534C53.8732 91.8673 53.8297 91.8806 53.7858 91.8925C53.7404 91.9047 53.6949 91.9156 53.649 91.9257C53.5994 91.9366 53.5497 91.9466 53.4996 91.955C53.4538 91.9627 53.408 91.9699 53.3619 91.9755C53.3119 91.9815 53.2618 91.9856 53.2115 91.9892C53.1666 91.9923 53.1218 91.9948 53.0768 91.996C53.0289 91.9972 52.9811 91.9971 52.9332 91.996C52.8824 91.9949 52.8317 91.9928 52.7809 91.9892C52.7352 91.9858 52.6897 91.9809 52.6442 91.9755C52.5961 91.9698 52.5484 91.963 52.5006 91.955C52.4539 91.9471 52.4073 91.9387 52.361 91.9286C52.3105 91.9176 52.2605 91.9051 52.2106 91.8915C52.1673 91.8797 52.1244 91.8671 52.0817 91.8534C52.035 91.8384 51.989 91.8219 51.943 91.8046C51.8964 91.7871 51.8501 91.7688 51.8043 91.7489C51.7579 91.7287 51.7122 91.7071 51.6666 91.6845C51.6263 91.6644 51.5861 91.644 51.5465 91.622C51.4857 91.5882 51.4248 91.5539 51.3658 91.5155C51.2318 91.4282 51.1028 91.3296 50.9811 91.2186L25.527 68.1503C20.7097 63.7843 20.7098 56.2155 25.527 51.8495L50.986 28.7772C51.0897 28.6831 51.1983 28.5974 51.3112 28.5204C51.3853 28.4698 51.4624 28.4249 51.5397 28.3817C51.5832 28.3574 51.6271 28.3344 51.6715 28.3124C51.7155 28.2906 51.7595 28.2694 51.8043 28.2499C51.8501 28.23 51.8964 28.2117 51.943 28.1942C51.9873 28.1775 52.0319 28.1619 52.0768 28.1474C52.1243 28.132 52.1722 28.1183 52.2203 28.1054C52.2654 28.0933 52.3106 28.0821 52.3561 28.0722C52.406 28.0612 52.4561 28.0522 52.5065 28.0438C52.5475 28.037 52.5883 28.0304 52.6295 28.0253C52.6867 28.0182 52.7439 28.0125 52.8014 28.0087C52.8404 28.0061 52.8795 28.0049 52.9186 28.0038C52.9733 28.0023 53.0279 28.0023 53.0826 28.0038Z" fill="black"/>
</g>
</svg>
