<svg width="120" height="120" viewBox="0 0 120 120" fill="none" xmlns="http://www.w3.org/2000/svg">
<g id="thickness=Light, mode=default, name=direction_Unfold">
<path id="S1" d="M52.5918 68.6914C56.7901 64.8664 63.2099 64.8664 67.4082 68.6914L107.021 104.782L107.018 104.784C107.62 105.333 108 106.121 108 107C108 108.657 106.657 110 105 110C104.262 110 103.587 109.733 103.064 109.291V109.292L63.2256 75.6504C61.3628 74.0776 58.6372 74.0776 56.7744 75.6504L16.9355 109.292L16.9346 109.291C16.4121 109.733 15.7376 110 15 110C13.3431 110 12 108.657 12 107C12 106.121 12.3795 105.333 12.9814 104.784L12.9795 104.782L52.5918 68.6914ZM105 12C106.657 12 108 13.3431 108 15C108 15.8787 107.62 16.6662 107.018 17.2148L107.021 17.2178L67.4082 53.3086C63.2099 57.1336 56.7901 57.1336 52.5918 53.3086L12.9795 17.2178L12.9814 17.2148C12.3798 16.6662 12 15.8784 12 15C12 13.3431 13.3431 12 15 12C15.7374 12 16.4122 12.2666 16.9346 12.708H16.9355L56.7744 46.3496C58.6372 47.9224 61.3628 47.9224 63.2256 46.3496L103.064 12.708C103.587 12.2664 104.262 12 105 12Z" fill="black"/>
</g>
</svg>
