<svg width="120" height="120" viewBox="0 0 120 120" fill="none" xmlns="http://www.w3.org/2000/svg">
<g id="thickness=Bold, mode=default, name=direction_arrowDownCircle">
<path id="N1" d="M106.5 60C106.5 34.3188 85.6812 13.5 60 13.5C34.3188 13.5 13.5 34.3188 13.5 60C13.5 85.6812 34.3188 106.5 60 106.5C85.6812 106.5 106.5 85.6812 106.5 60ZM115.5 60C115.5 90.6518 90.6518 115.5 60 115.5C29.3482 115.5 4.5 90.6518 4.5 60C4.5 29.3482 29.3482 4.5 60 4.5C90.6518 4.5 115.5 29.3482 115.5 60Z" fill="black"/>
<path id="S1" d="M60 23.5C62.4853 23.5 64.5 25.5147 64.5 28V82.5059L87.8975 60.2402L87.8984 60.2412C88.7057 59.4726 89.7974 59 91 59C93.4853 59 95.5 61.0147 95.5 63.5C95.5 64.7297 95.0055 65.843 94.2061 66.6553L94.207 66.6562L68.9541 92.3164C64.0298 97.3201 55.9521 97.2884 51.0674 92.2461L25.7676 66.1309L25.8164 66.083C25.3027 65.3518 25 64.4615 25 63.5C25 61.0147 27.0147 59 29.5 59C30.461 59 31.351 59.3022 32.082 59.8154L32.1299 59.7666L55.5 82.3828V28C55.5 25.5147 57.5147 23.5 60 23.5Z" fill="black"/>
</g>
</svg>
