<svg width="120" height="120" viewBox="0 0 120 120" fill="none" xmlns="http://www.w3.org/2000/svg">
<path fill-rule="evenodd" clip-rule="evenodd" d="M8 18C8 15.7909 9.79086 14 12 14H108C110.209 14 112 15.7909 112 18C112 20.2091 110.209 22 108 22H12C9.79086 22 8 20.2091 8 18ZM8 60C8 57.7909 9.79086 56 12 56H108C110.209 56 112 57.7909 112 60C112 62.2091 110.209 64 108 64H12C9.79086 64 8 62.2091 8 60ZM12 98C9.79086 98 8 99.7909 8 102C8 104.209 9.79086 106 12 106H108C110.209 106 112 104.209 112 102C112 99.7909 110.209 98 108 98H12Z" fill="black"/>
</svg>
