<svg width="120" height="120" viewBox="0 0 120 120" fill="none" xmlns="http://www.w3.org/2000/svg">
<g id="thickness=Standard, mode=default, name=general_transmission">
<path id="S1U" d="M43.748 6.61408C46.7753 3.54609 51.9999 5.68969 52 9.99982V110C52 112.209 50.2091 114 48 114C45.7909 114 44 112.209 44 110V19.3817L13.7695 48.3866L13.7676 48.3846C13.0489 49.0743 12.0748 49.4999 11 49.4999C8.79086 49.4999 7 47.709 7 45.4999C7.00004 44.405 7.43963 43.4125 8.15234 42.6903L43.748 6.61408Z" fill="black"/>
<path id="S1D" d="M72 6C74.2091 6 76 7.79086 76 10V100.618L106.23 71.6133L106.231 71.6143C106.95 70.9246 107.925 70.5 109 70.5C111.209 70.5 113 72.2909 113 74.5C113 75.5949 112.559 76.5863 111.847 77.3086L111.848 77.3096L76.252 113.386C73.2246 116.454 68 114.31 68 110V10C68 7.79086 69.7909 6 72 6Z" fill="black"/>
</g>
</svg>
