<svg width="120" height="120" viewBox="0 0 120 120" fill="none" xmlns="http://www.w3.org/2000/svg">
<g id="thickness=Light, mode=default, name=general_transmission">
<path id="S1U" d="M44.46 7.31622C46.8593 4.88491 50.9999 6.58389 51 9.99981V110C51 111.657 49.6569 113 48 113C46.3431 113 45 111.657 45 110V17.0369L13.0771 47.6649L13.0742 47.662C12.5352 48.1792 11.8061 48.4998 11 48.4998C9.34315 48.4998 8 47.1567 8 45.4998C8.00004 44.6786 8.33063 43.9351 8.86523 43.3934L8.86426 43.3924L44.46 7.31622Z" fill="black"/>
<path id="S1D" d="M72 7C73.6569 7 75 8.34315 75 10V102.963L106.923 72.335L106.925 72.3369C107.464 71.8197 108.194 71.5 109 71.5C110.657 71.5 112 72.8431 112 74.5C112 75.3212 111.668 76.0637 111.134 76.6055L111.136 76.6074L75.54 112.684C73.1407 115.115 69 113.416 69 110V10C69 8.34315 70.3431 7 72 7Z" fill="black"/>
</g>
</svg>
