<svg width="120" height="120" viewBox="0 0 120 120" fill="none" xmlns="http://www.w3.org/2000/svg">
<g id="thickness=Standard, mode=default, name=general_wifiSlash">
<path id="S1" d="M12.1718 11.1723C13.7339 9.61021 16.2659 9.61021 17.828 11.1723L27.8066 21.1508C37.6323 16.5594 48.5268 14.0004 60 14.0004C81.864 14.0006 101.627 23.2918 115.894 38.2387C117.419 39.8368 117.36 42.3688 115.762 43.894C114.164 45.419 111.632 45.3598 110.106 43.7622C97.2455 30.288 79.5315 22.0006 60 22.0004C50.779 22.0004 41.9634 23.8481 33.872 27.2163L47.0458 40.3901C51.1636 39.4744 55.4749 39.0005 60 39.0004C76.3809 39.0005 89.9569 45.2235 101.711 56.0591C103.335 57.5563 103.438 60.0872 101.941 61.7114C100.444 63.3353 97.9133 63.4385 96.2891 61.9419C85.7852 52.2587 74.0828 47.0005 60 47.0005C57.947 47.0005 55.9446 47.1124 53.9892 47.3335L71.5117 64.8559C78.4728 67.0657 83.8942 70.7313 86.543 72.9126C88.248 74.317 88.4921 76.8382 87.0879 78.5434C86.7937 78.9006 86.4496 79.1922 86.0752 79.4194L104.828 98.1724C106.39 99.7345 106.39 102.267 104.828 103.829C103.266 105.39 100.734 105.391 99.1719 103.829L12.1718 16.8286C10.6098 15.2666 10.61 12.7344 12.1718 11.1723ZM60 83.2505C64.2532 83.2505 69.0458 84.7371 72.043 88.4018C73.3396 89.9876 73.2528 92.2544 71.916 93.7397L63.7168 102.85C61.7306 105.057 58.2694 105.057 56.2832 102.85L48.0839 93.7397C46.7471 92.2544 46.6603 89.9876 47.957 88.4018C50.9542 84.7371 55.7468 83.2505 60 83.2505ZM55.6875 71.3442C47.8672 72.57 41.3461 76.7799 38.5429 79.0884C36.8377 80.4924 34.3164 80.2484 32.912 78.5434C31.5078 76.8382 31.7519 74.317 33.457 72.9126C36.1741 70.675 41.8085 66.8746 49.0302 64.687L55.6875 71.3442ZM36.8867 52.5434C32.256 54.9422 27.8881 58.091 23.7109 61.9419C22.0867 63.4387 19.5557 63.3352 18.0585 61.7114C16.5615 60.0872 16.6649 57.5563 18.289 56.0591C22.2975 52.3637 26.5178 49.2045 30.9892 46.646L36.8867 52.5434ZM19.5985 35.2553C16.1274 37.7857 12.8794 40.6339 9.89345 43.7622C8.36825 45.3599 5.83619 45.4189 4.23817 43.894C2.64019 42.3688 2.58123 39.8368 4.10633 38.2387C7.12824 35.0727 10.3969 32.1605 13.8798 29.5366L19.5985 35.2553Z" fill="black"/>
</g>
</svg>
