<svg width="120" height="120" viewBox="0 0 120 120" fill="none" xmlns="http://www.w3.org/2000/svg">
<g id="thickness=Light, mode=default, name=general_upload">
<path id="S1" d="M106 77C107.657 77 109 78.3432 109 80V98C109 104.075 104.075 109 98 109H22C15.9249 109 11 104.075 11 98V80C11 78.3432 12.3432 77 14 77C15.6568 77 17 78.3432 17 80V98C17 100.761 19.2386 103 22 103H98C100.761 103 103 100.761 103 98V80C103 78.3432 104.343 77 106 77ZM52.2217 9.53516C56.5174 5.23958 63.4826 5.23958 67.7783 9.53516L104.121 45.8789C104.664 46.4218 105 47.1716 105 48C105 49.6569 103.657 51 102 51C101.211 51 100.496 50.6929 99.9609 50.1953L99.959 50.1983L63.4023 16.2529C63.2727 16.1326 63.1385 16.0201 63 15.916V91C63 92.6569 61.6569 94 60 94C58.3431 94 57 92.6569 57 91V15.916C56.8615 16.0201 56.7273 16.1326 56.5977 16.2529L20.041 50.1983L20.0381 50.1953C19.5027 50.6926 18.7884 51 18 51C16.3431 51 15 49.6569 15 48C15 47.1716 15.336 46.4218 15.8789 45.8789L52.2217 9.53516Z" fill="black"/>
</g>
</svg>
