<svg width="120" height="120" viewBox="0 0 120 120" fill="none" xmlns="http://www.w3.org/2000/svg">
<g id="thickness=Bold, mode=default, name=general_scanQRcode">
<path id="S1" d="M9.5 98V78C9.5 75.5147 11.5147 73.5 14 73.5C16.4853 73.5 18.5 75.5147 18.5 78V98C18.5 99.933 20.067 101.5 22 101.5H42C44.4853 101.5 46.5 103.515 46.5 106C46.5 108.485 44.4853 110.5 42 110.5H22C15.0964 110.5 9.5 104.904 9.5 98ZM101.5 98V78C101.5 75.5147 103.515 73.5 106 73.5C108.485 73.5 110.5 75.5147 110.5 78V98C110.5 104.904 104.904 110.5 98 110.5H78C75.5147 110.5 73.5 108.485 73.5 106C73.5 103.515 75.5147 101.5 78 101.5H98C99.933 101.5 101.5 99.933 101.5 98ZM9.5 42V22C9.5 15.0964 15.0964 9.5 22 9.5H42C44.4853 9.5 46.5 11.5147 46.5 14C46.5 16.4853 44.4853 18.5 42 18.5H22C20.067 18.5 18.5 20.067 18.5 22V42C18.5 44.4853 16.4853 46.5 14 46.5C11.5147 46.5 9.5 44.4853 9.5 42ZM101.5 42V22C101.5 20.067 99.933 18.5 98 18.5H78C75.5147 18.5 73.5 16.4853 73.5 14C73.5 11.5147 75.5147 9.5 78 9.5H98C104.904 9.5 110.5 15.0964 110.5 22V42C110.5 44.4853 108.485 46.5 106 46.5C103.515 46.5 101.5 44.4853 101.5 42Z" fill="black"/>
<path id="S2" d="M109 55.5C111.485 55.5 113.5 57.5147 113.5 60C113.5 62.4853 111.485 64.5 109 64.5H11C8.51472 64.5 6.5 62.4853 6.5 60C6.5 57.5147 8.51472 55.5 11 55.5H109Z" fill="black"/>
</g>
</svg>
