<svg width="120" height="120" viewBox="0 0 120 120" fill="none" xmlns="http://www.w3.org/2000/svg">
<g id="thickness=Standard, mode=default, name=general_bluetooth">
<path id="S1" d="M51.624 17.3745C51.6241 10.1751 59.6575 5.88984 65.6367 9.89993L88.5684 25.2808C95.8031 30.1336 95.6191 40.8362 88.2217 45.4371L63.1972 61.0006L88.2217 76.5641C95.619 81.1652 95.8032 91.8677 88.5684 96.7204L65.6367 112.101C59.6576 116.111 51.6244 111.826 51.624 104.627V68.1344L29.0877 81.9127C27.2031 83.0649 24.7401 82.471 23.5877 80.5866C22.4359 78.702 23.0295 76.2399 24.9139 75.0875L47.954 61.0006L24.9139 46.9137C23.0293 45.7613 22.4356 43.2984 23.5877 41.4136C24.7401 39.529 27.203 38.9351 29.0877 40.0875L51.624 53.8658V17.3745ZM59.624 104.627C59.6244 105.426 60.5164 105.902 61.1806 105.457L84.1123 90.0758C86.5234 88.4582 86.4616 84.8917 83.9961 83.358L59.624 68.1988V104.627ZM61.1806 16.5445C60.5163 16.0989 59.6241 16.5747 59.624 17.3745V53.8014L83.9961 38.6431C86.4617 37.1096 86.5233 33.5431 84.1123 31.9254L61.1806 16.5445Z" fill="black"/>
</g>
</svg>
