<svg width="120" height="120" viewBox="0 0 120 120" fill="none" xmlns="http://www.w3.org/2000/svg">
<g id="thickness=Bold, mode=default, name=general_CollapseSidebar">
<path id="S1" d="M98 9.5C104.904 9.5 110.5 15.0964 110.5 22V98C110.5 104.904 104.904 110.5 98 110.5H22C15.0964 110.5 9.5 104.904 9.5 98V22C9.5 15.0964 15.0964 9.5 22 9.5H98ZM22 18.5C20.067 18.5 18.5 20.067 18.5 22V98C18.5 99.933 20.067 101.5 22 101.5H38C39.933 101.5 41.5 99.933 41.5 98V22C41.5 20.067 39.933 18.5 38 18.5H22ZM54 18.5C52.067 18.5 50.5 20.067 50.5 22V98C50.5 99.933 52.067 101.5 54 101.5H98C99.933 101.5 101.5 99.933 101.5 98V22C101.5 20.067 99.933 18.5 98 18.5H54ZM86.0605 29.501C86.1052 29.5016 86.1497 29.503 86.1943 29.5049C86.21 29.5056 86.2256 29.506 86.2412 29.5068C86.295 29.5097 86.3487 29.5138 86.4023 29.5186C86.4245 29.5205 86.4466 29.5221 86.4688 29.5244C86.5229 29.53 86.5769 29.5373 86.6309 29.5449C86.6429 29.5466 86.655 29.548 86.667 29.5498C86.7248 29.5584 86.7824 29.5682 86.8398 29.5791C86.8555 29.5821 86.8711 29.5857 86.8867 29.5889C86.9386 29.5992 86.9904 29.6099 87.042 29.6221C87.0681 29.6283 87.0941 29.6349 87.1201 29.6416C87.1625 29.6525 87.2049 29.6637 87.2471 29.6758C87.2709 29.6826 87.2946 29.69 87.3184 29.6973C87.3727 29.7139 87.4267 29.7313 87.4805 29.75C87.4863 29.752 87.4922 29.7538 87.498 29.7559C87.5601 29.7777 87.6214 29.8015 87.6826 29.8262C87.6905 29.8293 87.6982 29.8327 87.7061 29.8359C87.7626 29.8591 87.8192 29.8826 87.875 29.9082C87.8934 29.9166 87.9114 29.9259 87.9297 29.9346C87.9758 29.9564 88.0219 29.9784 88.0674 30.002C88.0857 30.0115 88.1038 30.0215 88.1221 30.0312C88.1713 30.0576 88.2201 30.085 88.2686 30.1133C88.2839 30.1223 88.2992 30.1314 88.3145 30.1406C88.3595 30.1677 88.404 30.1958 88.4482 30.2246C88.4718 30.2399 88.4952 30.2557 88.5186 30.2715C88.5566 30.2973 88.5944 30.3235 88.6318 30.3506C88.6533 30.3661 88.675 30.3815 88.6963 30.3975C88.7401 30.4303 88.7833 30.4643 88.8262 30.499C88.8373 30.508 88.8483 30.5172 88.8594 30.5264C88.9044 30.5636 88.9492 30.6014 88.9932 30.6406C89.0105 30.6561 89.0278 30.6717 89.0449 30.6875C89.0696 30.7102 89.0948 30.7325 89.1191 30.7559C89.1359 30.772 89.1515 30.7893 89.168 30.8057C89.1723 30.81 89.1773 30.814 89.1816 30.8184C89.1873 30.8241 89.1926 30.8302 89.1982 30.8359C89.2983 30.937 89.3929 31.0415 89.4814 31.1494C89.4882 31.1577 89.4943 31.1665 89.501 31.1748C89.5899 31.2847 89.6729 31.3977 89.75 31.5137C89.7573 31.5247 89.7643 31.5358 89.7715 31.5469C89.8012 31.5925 89.8305 31.6381 89.8584 31.6846C89.8719 31.707 89.8854 31.7294 89.8984 31.752C89.9251 31.7981 89.9507 31.8447 89.9756 31.8916C89.9825 31.9046 89.9893 31.9176 89.9961 31.9307C90.124 32.1776 90.2275 32.4339 90.3066 32.6963C90.3127 32.7164 90.3184 32.7366 90.3242 32.7568C90.3379 32.8046 90.3512 32.8523 90.3633 32.9004C90.3683 32.9205 90.3732 32.9407 90.3779 32.9609C90.5235 33.5771 90.5375 34.2179 90.4199 34.8398C90.417 34.8555 90.4133 34.8711 90.4102 34.8867C90.3998 34.9386 90.3892 34.9904 90.377 35.042C90.3708 35.0681 90.3641 35.0941 90.3574 35.1201C90.3466 35.1626 90.3354 35.2049 90.3232 35.2471C90.3164 35.2709 90.309 35.2946 90.3018 35.3184C90.2651 35.4382 90.2236 35.5567 90.1768 35.6738C90.1701 35.6905 90.1631 35.707 90.1562 35.7236C90.1071 35.8423 90.0529 35.9592 89.9932 36.0742C89.9834 36.0929 89.9729 36.1113 89.9629 36.1299C89.9409 36.1708 89.9189 36.2116 89.8955 36.252C89.8818 36.2756 89.8676 36.2989 89.8535 36.3223C89.7482 36.4966 89.6302 36.6652 89.499 36.8271C89.4912 36.8369 89.4835 36.8468 89.4756 36.8564C89.402 36.9458 89.3258 37.0343 89.2441 37.1191L69.5439 57.6064C68.2468 58.9556 68.2409 61.0867 69.5303 62.4434L88.8926 82.8174L88.9111 82.8359C90.4032 84.3451 90.6075 86.6428 89.5352 88.3701C89.5276 88.3823 89.5194 88.3941 89.5117 88.4062C89.333 88.688 89.1223 88.9556 88.875 89.2002C88.8015 89.2729 88.7245 89.3407 88.6475 89.4072C88.6391 89.4145 88.6305 89.4215 88.6221 89.4287C88.5141 89.5206 88.4032 89.6065 88.2891 89.6865C88.2787 89.6938 88.2682 89.7008 88.2578 89.708C88.2048 89.7445 88.1518 89.7805 88.0977 89.8145C88.09 89.8193 88.0819 89.8234 88.0742 89.8281C87.9561 89.9012 87.8359 89.9692 87.7129 90.0303C87.7017 90.0359 87.69 90.0404 87.6787 90.0459C87.6266 90.0713 87.5743 90.0959 87.5215 90.1191C87.5021 90.1277 87.4824 90.1353 87.4629 90.1436C87.4146 90.1639 87.3662 90.1835 87.3174 90.2021C87.2992 90.2091 87.281 90.216 87.2627 90.2227C87.2169 90.2394 87.1712 90.2562 87.125 90.2715C87.0919 90.2824 87.0587 90.2926 87.0254 90.3027C86.9926 90.3127 86.9597 90.3218 86.9268 90.3311C86.8933 90.3404 86.8598 90.3498 86.8262 90.3584C86.782 90.3696 86.7377 90.3798 86.6934 90.3896C86.6731 90.3942 86.6531 90.3991 86.6328 90.4033C86.5841 90.4135 86.5353 90.4231 86.4863 90.4316C86.4606 90.4361 86.4349 90.4403 86.4092 90.4443C86.3689 90.4506 86.3285 90.4567 86.2881 90.4619C86.251 90.4667 86.2139 90.4708 86.1768 90.4746C86.1364 90.4788 86.0961 90.4823 86.0557 90.4854C86.0335 90.487 86.0114 90.4879 85.9893 90.4893C85.943 90.4921 85.8969 90.4947 85.8506 90.4961C85.818 90.4971 85.7855 90.4977 85.7529 90.498C85.7113 90.4984 85.6696 90.4988 85.6279 90.498C85.5996 90.4975 85.5713 90.4962 85.543 90.4951C85.5023 90.4936 85.4616 90.4919 85.4209 90.4893C85.3854 90.487 85.3499 90.4836 85.3145 90.4805C85.2809 90.4775 85.2474 90.4744 85.2139 90.4707C85.1774 90.4667 85.1409 90.4629 85.1045 90.458C85.0673 90.453 85.0302 90.4474 84.9932 90.4414C84.9527 90.4349 84.9124 90.4275 84.8721 90.4199C84.8454 90.4149 84.8186 90.4098 84.792 90.4043C84.756 90.3968 84.7204 90.3882 84.6846 90.3799C84.6408 90.3697 84.5972 90.3592 84.5537 90.3477C84.5306 90.3415 84.5074 90.3356 84.4844 90.3291C84.4439 90.3177 84.4035 90.3056 84.3633 90.293C84.3251 90.281 84.287 90.2688 84.249 90.2559C84.2174 90.245 84.1857 90.2342 84.1543 90.2227C84.117 90.2089 84.08 90.1944 84.043 90.1797C84.0161 90.169 83.9895 90.1577 83.9629 90.1465C83.9124 90.1253 83.8623 90.1032 83.8125 90.0801C83.8027 90.0755 83.7929 90.071 83.7832 90.0664C83.2957 89.8356 82.8411 89.514 82.4473 89.0996L82.4287 89.0801L62.3945 68.8213C57.5595 63.9319 57.5811 56.0547 62.4434 51.1924L82.8184 30.8184C82.8252 30.8115 82.832 30.8046 82.8389 30.7979C82.8807 30.7566 82.9228 30.7161 82.9658 30.6768C82.9834 30.6607 83.0008 30.6446 83.0186 30.6289C83.0612 30.5911 83.1047 30.5545 83.1484 30.5186C83.1581 30.5106 83.168 30.503 83.1777 30.4951C83.2267 30.4556 83.276 30.417 83.3262 30.3799C83.3369 30.372 83.3477 30.3643 83.3584 30.3564C83.4096 30.3192 83.4612 30.2829 83.5137 30.248C83.5233 30.2416 83.5333 30.2358 83.543 30.2295C83.5943 30.196 83.6458 30.1631 83.6982 30.1318C83.713 30.123 83.7283 30.1151 83.7432 30.1064C83.7854 30.082 83.8273 30.0572 83.8701 30.0342C83.903 30.0165 83.9365 30.0002 83.9697 29.9834C84.0023 29.967 84.0345 29.9502 84.0674 29.9346C84.0936 29.9221 84.1201 29.9104 84.1465 29.8984C84.1947 29.8767 84.2432 29.8559 84.292 29.8359C84.3036 29.8312 84.3155 29.8269 84.3271 29.8223C84.3854 29.799 84.4439 29.7766 84.5029 29.7559C84.5097 29.7535 84.5166 29.7514 84.5234 29.749C84.5808 29.7291 84.6383 29.7099 84.6963 29.6924C84.7164 29.6863 84.7366 29.6806 84.7568 29.6748C84.8046 29.6611 84.8523 29.6478 84.9004 29.6357C84.9205 29.6307 84.9407 29.6259 84.9609 29.6211C85.0174 29.6078 85.074 29.5951 85.1309 29.584C85.1386 29.5825 85.1465 29.5816 85.1543 29.5801C85.2156 29.5684 85.2772 29.5579 85.3389 29.5488C85.3506 29.5471 85.3623 29.5456 85.374 29.5439C85.4299 29.5361 85.4859 29.5291 85.542 29.5234C85.5628 29.5213 85.5836 29.5194 85.6045 29.5176C85.6604 29.5127 85.7164 29.5087 85.7725 29.5059C85.7838 29.5053 85.7953 29.5054 85.8066 29.5049C85.8564 29.5027 85.9062 29.5015 85.9561 29.501C85.9909 29.5006 86.0257 29.5005 86.0605 29.501Z" fill="black"/>
</g>
</svg>
