<svg width="120" height="120" viewBox="0 0 120 120" fill="none" xmlns="http://www.w3.org/2000/svg">
<g id="thickness=Light, mode=default, name=general_wifiSlash">
<path id="S1" d="M12.8787 11.8789C14.0503 10.7074 15.9494 10.7074 17.1209 11.8789L27.5985 22.3565C37.4609 17.6362 48.4334 15 59.9999 15C81.572 15.0003 101.079 24.1661 115.17 38.9287C116.313 40.1272 116.269 42.0261 115.071 43.1699C113.873 44.3137 111.974 44.2692 110.83 43.0713C97.7935 29.4132 79.8227 21.0003 59.9999 21C50.1195 21 40.6994 23.0909 32.1209 26.8789L46.7323 41.4903C50.942 40.5106 55.3563 40 59.9999 40C76.0933 40.0002 89.4355 46.1026 101.033 56.794C102.251 57.9169 102.328 59.8152 101.206 61.0332C100.083 62.2511 98.1849 62.3283 96.9667 61.2061C86.3067 51.379 74.3697 46.0002 59.9999 46C57.1939 46 54.4805 46.2062 51.8514 46.6094L71.1884 65.9463C72.7288 66.4516 74.2037 67.0234 75.5839 67.626C80.096 69.5961 83.8427 71.9844 85.9071 73.6846C87.1851 74.7379 87.368 76.6286 86.3153 77.9072C85.7753 78.5629 85.0145 78.9269 84.2294 78.9873L104.121 98.8789C105.292 100.051 105.293 101.95 104.121 103.121C102.949 104.293 101.05 104.293 99.8788 103.121L12.8787 16.1211C11.7072 14.9496 11.7073 13.0505 12.8787 11.8789ZM59.9999 84.25C64.0568 84.2501 68.5185 85.672 71.2684 89.0342V89.0352C72.2483 90.2339 72.1833 91.9474 71.1727 93.0703L62.9735 102.181C61.3847 103.946 58.6153 103.946 57.0262 102.181L48.827 93.0703C47.8162 91.9472 47.751 90.234 48.7313 89.0352L48.994 88.7256C51.7597 85.585 56.0695 84.25 59.9999 84.25ZM58.7928 70.0352C54.7222 70.2491 50.526 71.5045 46.8163 73.1241C42.7401 74.9037 39.4856 77.0157 37.9071 78.3155C36.6284 79.3685 34.7378 79.1854 33.6844 77.9072C32.6312 76.6283 32.8139 74.7379 34.0926 73.6846C36.1574 71.9843 39.9036 69.596 44.4159 67.626C47.1359 66.4385 50.2209 65.3675 53.4598 64.7022L58.7928 70.0352ZM39.1141 50.3565C33.3877 52.9152 28.0681 56.5645 23.033 61.2061C21.815 62.3287 19.9168 62.2508 18.7938 61.0332C17.671 59.815 17.7485 57.9169 18.9666 56.794C23.8462 52.2958 29.0343 48.6095 34.6063 45.8487L39.1141 50.3565ZM21.4803 32.7227C17.0219 35.6948 12.8945 39.169 9.16975 43.0713C8.02598 44.2696 6.12709 44.3132 4.92854 43.1699C3.73008 42.026 3.68595 40.1272 4.82991 38.9287C8.57803 35.0019 12.7085 31.47 17.16 28.4024L21.4803 32.7227Z" fill="black"/>
</g>
</svg>
