<svg width="120" height="120" viewBox="0 0 120 120" fill="none" xmlns="http://www.w3.org/2000/svg">
<g id="thickness=Bold, mode=default, name=general_wifi">
<path id="N1" d="M59.9999 13.5C82.0095 13.5 101.9 22.8538 116.255 37.8926C117.971 39.6903 117.905 42.5389 116.107 44.2549C114.31 45.9707 111.461 45.9049 109.745 44.1074C96.9718 30.7252 79.3857 22.5 59.9999 22.5C40.6142 22.5 23.0279 30.7251 10.2547 44.1074C8.53873 45.9049 5.69011 45.9707 3.89243 44.2549C2.09499 42.5389 2.02912 39.6903 3.74497 37.8926C18.0995 22.8538 37.9904 13.5 59.9999 13.5Z" fill="black"/>
<path id="N2" d="M59.9998 38.5C76.5245 38.5 90.2173 44.7837 102.05 55.6914C103.877 57.3759 103.993 60.2225 102.308 62.0498C100.624 63.8771 97.7773 63.993 95.95 62.3086C85.5242 52.6974 73.9391 47.5 59.9998 47.5C46.0603 47.5 34.4754 52.6974 24.0496 62.3086C22.2223 63.993 19.3757 63.8771 17.6912 62.0498C16.0068 60.2225 16.1228 57.3759 17.95 55.6914C29.7823 44.7837 43.4748 38.5 59.9998 38.5Z" fill="black"/>
<path id="N3" d="M59.9999 62.5C73.5425 62.5 82.9071 69.2708 86.8602 72.5264C88.7786 74.1062 89.0533 76.9419 87.4735 78.8604C85.8936 80.7788 83.058 81.0534 81.1395 79.4736C77.8069 76.7291 70.4567 71.5 59.9999 71.5C49.5431 71.5001 42.1928 76.7292 38.8602 79.4736C36.9418 81.0534 34.1061 80.7788 32.5262 78.8604C30.9465 76.9419 31.2211 74.1062 33.1395 72.5264C37.0927 69.2708 46.4574 62.5001 59.9999 62.5Z" fill="black"/>
<path id="S1" d="M60 82.75C64.3512 82.75 69.3089 84.2691 72.4297 88.085C73.8847 89.8642 73.7878 92.4067 72.2881 94.0732L64.0879 103.185C61.9031 105.612 58.0969 105.612 55.9121 103.185L47.7119 94.0732C46.2121 92.4067 46.1153 89.8641 47.5703 88.085C50.6911 84.2691 55.6488 82.75 60 82.75Z" fill="black"/>
</g>
</svg>
