<svg width="120" height="120" viewBox="0 0 120 120" fill="none" xmlns="http://www.w3.org/2000/svg">
<g id="thickness=Standard, mode=default, name=general_translate">
<path id="S1" d="M28.3584 5.3526C30.3729 4.44608 32.7408 5.34404 33.6475 7.35846L37.0859 15.0001H50.9082C50.9491 14.9992 50.9901 14.9997 51.0312 15.0001H58C60.2091 15.0001 62 16.7909 62 19.0001C61.9999 21.2091 60.2091 23.0001 58 23.0001H54.1631C51.85 31.1882 46.8279 38.5688 40.7373 44.7755C46.1876 49.2429 52.1183 52.9353 57.6035 55.335C59.6271 56.2207 60.5504 58.5798 59.665 60.6036C58.7796 62.6273 56.4202 63.5502 54.3965 62.6651C47.8922 59.8195 40.9989 55.458 34.7812 50.2266C28.4331 55.4653 21.3423 59.7169 14.6035 62.6651C12.5798 63.5502 10.2204 62.6273 9.33496 60.6036C8.44957 58.5798 9.37292 56.2207 11.3965 55.335C17.2069 52.793 23.3238 49.1665 28.8438 44.7452C22.5363 38.3376 17.2087 30.7987 14.8672 23.0001H11C8.79091 23.0001 7.00008 21.2091 7 19.0001C7 16.7909 8.79086 15.0001 11 15.0001H17.9688C18.0099 14.9997 18.0509 14.9992 18.0918 15.0001H28.3135L26.3525 10.6417C25.446 8.62719 26.344 6.25924 28.3584 5.3526ZM23.334 23.0001C25.5004 28.4522 29.5633 34.1255 34.8057 39.3975C39.7757 34.3834 43.6514 28.8198 45.7617 23.0001H23.334Z" fill="black"/>
<path id="S2" d="M85.1584 45C89.2357 45 92.8039 47.7411 93.8546 51.6807L108.865 107.97C109.434 110.104 108.165 112.296 106.03 112.865C103.896 113.434 101.704 112.165 101.135 110.03L97.1271 95H71.8732L67.8654 110.03C67.2962 112.165 65.1043 113.434 62.9699 112.865C60.8355 112.296 59.566 110.104 60.1349 107.97L75.1457 51.6807C76.1964 47.7411 79.7646 45 83.8419 45H85.1584ZM83.8419 53C83.3889 53 82.9919 53.3045 82.8752 53.7422L74.007 87H94.9933L86.1252 53.7422C86.0084 53.3045 85.6114 53 85.1584 53H83.8419Z" fill="black"/>
<path id="S3" d="M14 74C16.2091 74 18 75.7909 18 78V98C18 100.209 19.7909 102 22 102H42C44.2091 102 46 103.791 46 106C46 108.209 44.2091 110 42 110H22C15.3726 110 10 104.627 10 98V78C10 75.7909 11.7909 74 14 74ZM98 10C104.627 10 110 15.3726 110 22V42C110 44.2091 108.209 46 106 46C103.791 46 102 44.2091 102 42V22C102 19.7909 100.209 18 98 18H78C75.7909 18 74 16.2091 74 14C74 11.7909 75.7909 10 78 10H98Z" fill="black"/>
</g>
</svg>
