<svg width="120" height="120" viewBox="0 0 120 120" fill="none" xmlns="http://www.w3.org/2000/svg">
<g id="thickness=Light, mode=default, name=general_refresh">
<path id="S1" d="M60 5C75.6684 5 89.8081 11.5549 99.8223 22.0635L100.257 9.62695C100.315 7.97134 101.704 6.67567 103.359 6.7334C105.015 6.79122 106.311 8.18107 106.253 9.83691L105.694 25.8271C105.559 29.6907 102.318 32.713 98.4541 32.5781L82.4639 32.0195C80.8082 31.9615 79.5135 30.5727 79.5713 28.917C79.6292 27.2612 81.018 25.9656 82.6738 26.0234L95.7383 26.4795C86.7955 16.9486 74.0941 11 60 11C32.938 11 11 32.938 11 60C11 62.8816 11.2486 65.7029 11.7246 68.4443L11.9424 69.6152L11.9688 69.7666C12.1994 71.3371 11.1593 72.8295 9.58496 73.1426C8.01073 73.4555 6.47969 72.4746 6.0918 70.9355L6.05762 70.7852L5.93164 70.1299C5.31973 66.8444 5 63.4582 5 60C5 29.6243 29.6243 5 60 5Z" fill="black"/>
<path id="S2" d="M110.364 47.0579C111.938 46.745 113.469 47.7254 113.857 49.264L113.891 49.4153L114.018 50.0706C114.63 53.3559 114.949 56.7425 114.949 60.2005C114.949 90.5758 90.3242 115.2 59.9488 115.2C43.6091 115.2 28.9325 108.07 18.8629 96.763L17.9928 109.209C17.8771 110.862 16.4434 112.108 14.7906 111.992C13.138 111.877 11.8919 110.443 12.0074 108.79L13.1236 92.8294C13.3933 88.9728 16.7388 86.0656 20.5953 86.3352L36.5563 87.4505C38.2089 87.5662 39.4549 89 39.3395 90.6526C39.2239 92.3054 37.7901 93.5514 36.1373 93.4358L23.1236 92.5257C32.1081 102.752 45.2743 109.2 59.9488 109.2C87.0104 109.2 108.949 87.2621 108.949 60.2005C108.949 57.3187 108.7 54.4967 108.224 51.7552L108.006 50.5852L107.98 50.4329C107.75 48.8627 108.79 47.371 110.364 47.0579Z" fill="black"/>
</g>
</svg>
