<svg width="120" height="120" viewBox="0 0 120 120" fill="none" xmlns="http://www.w3.org/2000/svg">
<g id="thickness=Bold, mode=default, name=general_rewind15s">
<path id="S2R" d="M60 4.5C90.6518 4.5 115.5 29.3482 115.5 60C115.5 90.6518 90.6518 115.5 60 115.5C29.3482 115.5 4.5 90.6518 4.5 60C4.5 56.2798 4.86684 52.6405 5.56738 49.1182C6.05227 46.6808 8.42096 45.0983 10.8584 45.583C13.2959 46.0678 14.8793 48.4365 14.3945 50.874C13.8083 53.8214 13.5 56.8724 13.5 60C13.5 85.6812 34.3188 106.5 60 106.5C85.6812 106.5 106.5 85.6812 106.5 60C106.5 34.3188 85.6812 13.5 60 13.5C47.5552 13.5 36.2547 18.3851 27.9053 26.3525L37.3271 26.0234C38.9827 25.9658 40.3717 27.2615 40.4297 28.917C40.4875 30.5728 39.192 31.9627 37.5361 32.0205L21.5459 32.5791C17.6823 32.714 14.4406 29.6908 14.3057 25.8271L13.7471 9.83691C13.6893 8.18121 14.985 6.79238 16.6406 6.73438C18.2965 6.67655 19.6863 7.97208 19.7441 9.62793L20.1533 21.3682C30.236 10.9711 44.3638 4.5 60 4.5Z" fill="black"/>
<path id="S1" d="M90.8018 46.7598H70.7021L69.8623 55.4004C70.8223 54.7204 71.9622 54.2204 73.2822 53.9004C74.6022 53.5804 76.0621 53.4199 77.6621 53.4199C80.1421 53.4199 82.3623 53.7604 84.3223 54.4404C86.3221 55.1204 88.0024 56.1 89.3623 57.3799C90.7622 58.6598 91.822 60.2198 92.542 62.0596C93.262 63.8996 93.6221 65.9602 93.6221 68.2402C93.622 70.6001 93.2218 72.7598 92.4219 74.7197C91.6619 76.6396 90.562 78.2797 89.1221 79.6396C87.6821 80.9996 85.9423 82.0603 83.9023 82.8203C81.8624 83.5803 79.6021 83.96 77.1221 83.96C74.8421 83.96 72.7217 83.6801 70.7617 83.1201C68.8418 82.6001 67.142 81.7596 65.6621 80.5996C64.2222 79.4397 63.042 77.96 62.1221 76.1602C61.2021 74.3202 60.6218 72.1196 60.3818 69.5596L68.2422 68.7197C68.5222 71.6797 69.3823 73.7795 70.8223 75.0195C72.2623 76.2195 74.3621 76.8203 77.1221 76.8203C78.4821 76.8203 79.7022 76.6197 80.7822 76.2197C81.9019 75.8198 82.8417 75.2402 83.6016 74.4805C84.3615 73.7205 84.9418 72.8201 85.3418 71.7803C85.7818 70.7003 86.0019 69.4801 86.002 68.1201C86.002 66.9602 85.8023 65.92 85.4023 65C85.0023 64.04 84.4417 63.2396 83.7217 62.5996C83.0018 61.9198 82.1218 61.4 81.082 61.04C80.042 60.68 78.862 60.5 77.542 60.5C76.3022 60.5 75.2422 60.5999 74.3623 60.7998C73.4823 60.9598 72.6819 61.2602 71.9619 61.7002C71.242 62.1002 70.5618 62.6599 69.9219 63.3799C69.3219 64.0599 68.6819 64.92 68.002 65.96L61.1016 63.7998L64.042 39.5H90.8018V46.7598ZM46.6797 83.0596H39.1201V47.5996L27.2998 54.8604V46.5801L38.7002 39.5H46.6797V83.0596Z" fill="black"/>
</g>
</svg>
