<svg width="120" height="120" viewBox="0 0 120 120" fill="none" xmlns="http://www.w3.org/2000/svg">
<g id="thickness=Light, mode=default, name=general_history">
<path id="S2R" d="M60 5C75.6681 5 89.8072 11.5553 99.8213 22.0635L100.256 9.62695C100.314 7.97128 101.704 6.67558 103.359 6.7334C105.015 6.79139 106.311 8.18118 106.253 9.83691L105.694 25.8271C105.559 29.6907 102.318 32.713 98.4541 32.5781L82.4639 32.0195C80.808 31.9617 79.5125 30.5728 79.5703 28.917C79.6282 27.2613 81.0172 25.9658 82.6729 26.0234L95.7383 26.4795C86.7955 16.9486 74.0941 11 60 11C32.938 11 11 32.938 11 60C11 71.9361 15.2644 82.8681 22.3555 91.3682C31.3485 102.148 44.8726 109 60 109C87.062 109 109 87.062 109 60C109 56.7065 108.675 53.4914 108.058 50.3848C107.735 48.7599 108.79 47.1806 110.415 46.8574C112.04 46.5344 113.619 47.5899 113.942 49.2148C114.636 52.7048 115 56.3114 115 60C115 90.3757 90.3757 115 60 115C43.0182 115 27.8323 107.3 17.748 95.2119C9.7906 85.6733 5 73.3922 5 60C5 29.6243 29.6243 5 60 5Z" fill="black"/>
<path id="S1" d="M55.4995 26C57.1335 26 58.4611 27.3064 58.4975 28.9316H58.4985L59.4301 69.9062C59.4404 70.3536 59.7478 70.7397 60.1811 70.8516L88.2495 78.0947L88.2485 78.0977C89.5427 78.4305 90.4995 79.6019 90.4995 81C90.4995 82.6569 89.1563 84 87.4995 84C87.3164 84 87.1373 83.9826 86.9633 83.9512V83.9521L59.8393 79.0195C55.0039 78.1402 51.5236 73.8775 51.6303 68.9639L52.5004 28.9346C52.5352 27.3081 53.8647 26.0002 55.4995 26Z" fill="black"/>
</g>
</svg>
