<svg width="120" height="120" viewBox="0 0 120 120" fill="none" xmlns="http://www.w3.org/2000/svg">
<g id="thickness=Standard, mode=default, name=general_scanQRcode">
<path id="S1" d="M10 98V78C10 75.7909 11.7909 74 14 74C16.2091 74 18 75.7909 18 78V98C18 100.209 19.7909 102 22 102H42C44.2091 102 46 103.791 46 106C46 108.209 44.2091 110 42 110H22C15.3726 110 10 104.627 10 98ZM102 98V78C102 75.7909 103.791 74 106 74C108.209 74 110 75.7909 110 78V98C110 104.627 104.627 110 98 110H78C75.7909 110 74 108.209 74 106C74 103.791 75.7909 102 78 102H98C100.209 102 102 100.209 102 98ZM10 42V22C10 15.3726 15.3726 10 22 10H42C44.2091 10 46 11.7909 46 14C46 16.2091 44.2091 18 42 18H22C19.7909 18 18 19.7909 18 22V42C18 44.2091 16.2091 46 14 46C11.7909 46 10 44.2091 10 42ZM102 42V22C102 19.7909 100.209 18 98 18H78C75.7909 18 74 16.2091 74 14C74 11.7909 75.7909 10 78 10H98C104.627 10 110 15.3726 110 22V42C110 44.2091 108.209 46 106 46C103.791 46 102 44.2091 102 42Z" fill="black"/>
<path id="S2" d="M109 56C111.209 56 113 57.7909 113 60C113 62.2091 111.209 64 109 64H11C8.79086 64 7 62.2091 7 60C7 57.7909 8.79086 56 11 56H109Z" fill="black"/>
</g>
</svg>
