<svg width="120" height="120" viewBox="0 0 120 120" fill="none" xmlns="http://www.w3.org/2000/svg">
<g id="thickness=Standard, mode=default, name=general_download">
<path id="S1D" d="M60 6C62.2091 6 64 7.79086 64 10V86.8965L95.584 53.2617C96.3136 52.485 97.3502 52 98.5 52C100.709 52 102.5 53.7909 102.5 56C102.5 57.025 102.114 57.9592 101.479 58.667L101.48 58.668L68.9014 95.0547C64.1521 100.358 55.8562 100.385 51.0732 95.1113L18.0371 58.6875V58.6865C17.3929 57.9765 17 57.0343 17 56C17 53.7909 18.7909 52 21 52C22.1404 52 23.1678 52.4785 23.8965 53.2441L23.8984 53.2432L56 86.9912V10C56 7.79086 57.7909 6 60 6Z" fill="black"/>
<path id="S2" d="M90 104C92.2091 104 94 105.791 94 108C94 110.209 92.2091 112 90 112H30C27.7909 112 26 110.209 26 108C26 105.791 27.7909 104 30 104H90Z" fill="black"/>
</g>
</svg>
