<svg width="120" height="120" viewBox="0 0 120 120" fill="none" xmlns="http://www.w3.org/2000/svg">
<g id="thickness=Bold, mode=default, name=general_upload">
<path id="S1" d="M106 75.5C108.485 75.5 110.5 77.5147 110.5 80V98C110.5 104.904 104.904 110.5 98 110.5H22C15.0964 110.5 9.5 104.904 9.5 98V80C9.5 77.5147 11.5147 75.5 14 75.5C16.4853 75.5 18.5 77.5147 18.5 80V98C18.5 99.933 20.067 101.5 22 101.5H98C99.933 101.5 101.5 99.933 101.5 98V80C101.5 77.5147 103.515 75.5 106 75.5ZM51.1953 9.4414C56.0562 4.58054 63.9294 4.55698 68.8193 9.38867L105.163 45.2988H105.162C105.988 46.1147 106.5 47.2474 106.5 48.5C106.5 50.9853 104.485 53 102 53C100.807 53 99.7234 52.5343 98.918 51.7764L98.917 51.7783L64.5 19.4092V86C64.5 88.4853 62.4853 90.5 60 90.5C57.5147 90.5 55.5 88.4853 55.5 86V19.5L21.1035 52.2588L21.0518 52.2051C20.3264 52.7056 19.4479 53 18.5 53C16.0147 53 14 50.9853 14 48.5C14 47.5125 14.3182 46.5994 14.8574 45.8574L14.8184 45.8184L51.1953 9.4414Z" fill="black"/>
</g>
</svg>
