<svg width="120" height="120" viewBox="0 0 120 120" fill="none" xmlns="http://www.w3.org/2000/svg">
<g id="thickness=Bold, mode=default, name=general_reset">
<path id="S1R" d="M60 4.5C75.6357 4.5 89.7631 10.9707 99.8457 21.3672L100.256 9.62793C100.314 7.97208 101.704 6.67655 103.359 6.73438C105.015 6.79238 106.311 8.18121 106.253 9.83691L105.694 25.8271C105.559 29.6908 102.318 32.714 98.4541 32.5791L82.4639 32.0205C80.808 31.9627 79.5125 30.5728 79.5703 28.917C79.6283 27.2615 81.0173 25.9658 82.6729 26.0234L92.0928 26.3516C83.7435 18.3849 72.4441 13.5 60 13.5C34.3188 13.5 13.5 34.3188 13.5 60C13.5 85.6812 34.3188 106.5 60 106.5C85.6812 106.5 106.5 85.6812 106.5 60C106.5 56.8724 106.192 53.8214 105.605 50.874C105.121 48.4365 106.704 46.0678 109.142 45.583C111.579 45.0983 113.948 46.6808 114.433 49.1182C115.133 52.6405 115.5 56.2798 115.5 60C115.5 90.6518 90.6518 115.5 60 115.5C29.3482 115.5 4.5 90.6518 4.5 60C4.5 29.3482 29.3482 4.5 60 4.5Z" fill="black"/>
</g>
</svg>
