<svg width="120" height="120" viewBox="0 0 120 120" fill="none" xmlns="http://www.w3.org/2000/svg">
<g id="thickness=Bold, mode=default, name=general_bluetooth">
<path id="S1" d="M51.1235 17.374C51.1236 9.77453 59.6031 5.25148 65.9145 9.48432L88.8461 24.8652C96.3823 29.9201 96.1904 41.0686 88.4848 45.8613L64.143 60.9999L88.4848 76.1386C96.1904 80.9313 96.3823 92.0798 88.8461 97.1347L65.9145 112.516C59.6031 116.748 51.1236 112.225 51.1235 104.626V69.0244L29.3481 82.3388C27.2279 83.6351 24.4581 82.9675 23.1616 80.8476C21.8652 78.7272 22.5324 75.9565 24.6528 74.6601L46.9965 60.999L24.6528 47.3388C22.5327 46.0423 21.8652 43.2725 23.1616 41.1523C24.4581 39.0323 27.2279 38.3648 29.3481 39.6611L51.1235 52.9745V17.374ZM60.1235 104.626C60.1235 104.767 60.1567 104.84 60.186 104.887C60.2239 104.947 60.291 105.015 60.3881 105.067C60.4851 105.119 60.5788 105.136 60.6498 105.134C60.705 105.132 60.7849 105.119 60.9018 105.041L83.8325 89.6601C85.9424 88.2447 85.8892 85.1232 83.7319 83.7812L60.1235 69.0976V104.626ZM60.6498 16.8662C60.5787 16.864 60.4851 16.881 60.3881 16.9326C60.2909 16.9844 60.2239 17.0529 60.186 17.1132C60.1567 17.16 60.1235 17.2331 60.1235 17.374V52.9013L83.7319 38.2187C85.8892 36.8767 85.9424 33.7552 83.8325 32.3398L60.9018 16.9589C60.7849 16.8805 60.705 16.8679 60.6498 16.8662Z" fill="black"/>
</g>
</svg>
