<svg width="120" height="120" viewBox="0 0 120 120" fill="none" xmlns="http://www.w3.org/2000/svg">
<g id="thickness=Light, mode=default, name=general_rewind15s">
<path id="S2R" d="M60 5C90.3757 5 115 29.6243 115 60C115 73.3922 110.209 85.6733 102.252 95.2119C92.1677 107.3 76.9818 115 60 115C29.6243 115 5 90.3757 5 60C5 56.3114 5.36352 52.7048 6.05762 49.2148C6.3808 47.5899 7.96003 46.5344 9.58496 46.8574C11.2098 47.1806 12.2653 48.7599 11.9424 50.3848C11.3245 53.4914 11 56.7065 11 60C11 87.062 32.938 109 60 109C75.1274 109 88.6515 102.148 97.6445 91.3682C104.736 82.8681 109 71.9361 109 60C109 32.938 87.062 11 60 11C45.9057 11 33.2035 16.9483 24.2607 26.4795L37.3271 26.0234C38.9828 25.9658 40.3718 27.2613 40.4297 28.917C40.4875 30.5728 39.192 31.9617 37.5361 32.0195L21.5459 32.5781C17.6823 32.713 14.4407 29.6907 14.3057 25.8271L13.7471 9.83691C13.6893 8.18118 14.9849 6.79139 16.6406 6.7334C18.2964 6.67558 19.6861 7.97128 19.7441 9.62695L20.1777 22.0635C30.1919 11.555 44.3316 5 60 5Z" fill="black"/>
<path id="S1" d="M87.5791 45.3799H67.2383L66.0986 57.9805C67.1786 57.0205 68.4586 56.3003 69.9385 55.8203C71.4584 55.3003 73.1787 55.04 75.0986 55.04C77.4586 55.04 79.579 55.3404 81.459 55.9404C83.3388 56.5404 84.9389 57.4398 86.2588 58.6396C87.5787 59.7995 88.5984 61.2598 89.3184 63.0195C90.0383 64.7394 90.3984 66.7397 90.3984 69.0195C90.3984 71.2995 90.0188 73.3602 89.2588 75.2002C88.4988 77.0401 87.4185 78.5999 86.0186 79.8799C84.6586 81.1598 82.9989 82.1599 81.0391 82.8799C79.1191 83.5999 76.9586 83.96 74.5586 83.96C72.1988 83.9599 70.0791 83.68 68.1992 83.1201C66.3592 82.5601 64.7584 81.7196 63.3984 80.5996C62.0786 79.4797 60.9991 78.1194 60.1592 76.5195C59.3593 74.8797 58.8386 73.0202 58.5986 70.9404L64.7188 70.2803C65.0788 72.92 66.0388 74.8998 67.5986 76.2197C69.1586 77.5397 71.4787 78.2002 74.5586 78.2002C76.1186 78.2002 77.4992 77.98 78.6992 77.54C79.939 77.1001 80.9785 76.4796 81.8184 75.6797C82.6983 74.8397 83.3588 73.8602 83.7988 72.7402C84.2388 71.5803 84.4589 70.3002 84.459 68.9004C84.459 67.5405 84.1986 66.3603 83.6787 65.3604C83.1987 64.3204 82.5186 63.4603 81.6387 62.7803C80.7987 62.0603 79.7987 61.5397 78.6387 61.2197C77.4787 60.8598 76.2585 60.6797 74.9785 60.6797C73.7386 60.6797 72.6386 60.7599 71.6787 60.9199C70.7187 61.0799 69.8586 61.3598 69.0986 61.7598C68.3787 62.1597 67.679 62.7 66.999 63.3799C66.319 64.0599 65.6184 64.9004 64.8984 65.9004L59.3184 64.1602L62.1387 39.5H87.5791V45.3799ZM48.3799 83.0596H42.5V45.5L30.5596 52.6396V46.2197L41.4805 39.5H48.3799V83.0596Z" fill="black"/>
</g>
</svg>
