<svg width="120" height="120" viewBox="0 0 120 120" fill="none" xmlns="http://www.w3.org/2000/svg">
<g id="thickness=Light, mode=default, name=general_download">
<path id="S1D" d="M60 6C61.6569 6 63 7.34315 63 9V90.541C63.2029 90.3884 63.3972 90.2188 63.5801 90.0312L96.8516 55.9053L96.8525 55.9062C97.3974 55.3475 98.1579 55 99 55C100.657 55 102 56.3431 102 58C102 58.7759 101.702 59.4801 101.219 60.0127L101.222 60.0156L68.1475 96.4814C63.7818 101.295 56.2182 101.295 51.8525 96.4814L18.7783 60.0156L18.7803 60.0127C18.2971 59.4802 18 58.7757 18 58C18 56.3431 19.3431 55 21 55C21.8418 55 22.6016 55.3478 23.1465 55.9062L23.1484 55.9053L56.4199 90.0312C56.6028 90.2188 56.7971 90.3884 57 90.541V9C57 7.34315 58.3431 6 60 6Z" fill="black"/>
<path id="S2" d="M90 105C91.6569 105 93 106.343 93 108C93 109.657 91.6569 111 90 111H30C28.3431 111 27 109.657 27 108C27 106.343 28.3431 105 30 105H90Z" fill="black"/>
</g>
</svg>
