<svg width="120" height="120" viewBox="0 0 120 120" fill="none" xmlns="http://www.w3.org/2000/svg">
<g id="thickness=Bold, mode=default, name=general_translate">
<path id="S1" d="M28.1533 4.89649C30.4197 3.87665 33.0836 4.88703 34.1035 7.15333L37.4092 14.5H58C60.4853 14.5 62.5 16.5147 62.5 19C62.5 21.4853 60.4853 23.5 58 23.5H54.541C52.205 31.4739 47.3457 38.6609 41.4775 44.7334C46.7772 49.0186 52.5044 52.5585 57.8037 54.877C60.0803 55.8732 61.119 58.527 60.123 60.8037C59.127 63.0805 56.4731 64.1189 54.1963 63.1231C47.7566 60.3057 40.9458 56.0195 34.7773 50.8779C28.4739 56.0266 21.468 60.2074 14.8037 63.1231C12.5269 64.1189 9.87303 63.0805 8.87695 60.8037C7.88103 58.527 8.9197 55.8732 11.1963 54.877C16.818 52.4174 22.7291 48.9347 28.0986 44.6983C22.0261 38.4443 16.8748 31.1178 14.498 23.5H11C8.51472 23.5 6.5 21.4853 6.5 19C6.50002 16.5147 8.51473 14.5 11 14.5H27.54L25.8965 10.8467C24.8766 8.58034 25.887 5.91639 28.1533 4.89649ZM24.0791 23.5C26.2196 28.5333 29.9792 33.7644 34.8057 38.6856C39.3798 33.9965 42.9666 28.8538 45.041 23.5H24.0791Z" fill="black"/>
<path id="S2" d="M85.1579 44.5C89.4617 44.5 93.2285 47.3933 94.3376 51.5518L109.347 107.841C109.988 110.242 108.56 112.707 106.159 113.348C103.758 113.988 101.292 112.56 100.652 110.159L96.7419 95.5H72.2575L68.3474 110.159C67.707 112.56 65.2418 113.988 62.8405 113.348C60.4392 112.707 59.0118 110.242 59.652 107.841L74.6618 51.5518C75.7709 47.3933 79.5376 44.5 83.8415 44.5H85.1579ZM83.8415 53.5C83.615 53.5 83.4165 53.6523 83.3581 53.8711L74.6569 86.5H94.3425L85.6413 53.8711C85.5829 53.6523 85.3844 53.5 85.1579 53.5H83.8415Z" fill="black"/>
<path id="S3" d="M14 73.5C16.4853 73.5 18.5 75.5147 18.5 78V98C18.5 99.933 20.067 101.5 22 101.5H42C44.4853 101.5 46.5 103.515 46.5 106C46.5 108.485 44.4853 110.5 42 110.5H22C15.0964 110.5 9.5 104.904 9.5 98V78C9.5 75.5147 11.5147 73.5 14 73.5ZM98 9.5C104.904 9.5 110.5 15.0964 110.5 22V42C110.5 44.4853 108.485 46.5 106 46.5C103.515 46.5 101.5 44.4853 101.5 42V22C101.5 20.067 99.933 18.5 98 18.5H78C75.5147 18.5 73.5 16.4853 73.5 14C73.5 11.5147 75.5147 9.5 78 9.5H98Z" fill="black"/>
</g>
</svg>
