<svg width="120" height="120" viewBox="0 0 120 120" fill="none" xmlns="http://www.w3.org/2000/svg">
<path fill-rule="evenodd" clip-rule="evenodd" d="M7 18C7 15.2386 9.23858 13 12 13H108C110.761 13 113 15.2386 113 18C113 20.7614 110.761 23 108 23H12C9.23858 23 7 20.7614 7 18ZM7 60C7 57.2386 9.23858 55 12 55H108C110.761 55 113 57.2386 113 60C113 62.7614 110.761 65 108 65H12C9.23858 65 7 62.7614 7 60ZM12 97C9.23858 97 7 99.2386 7 102C7 104.761 9.23858 107 12 107H108C110.761 107 113 104.761 113 102C113 99.2386 110.761 97 108 97H12Z" fill="black"/>
</svg>
