<svg width="120" height="120" viewBox="0 0 120 120" fill="none" xmlns="http://www.w3.org/2000/svg">
<g id="thickness=Standard, mode=default, name=general_CollapseSidebar">
<path id="S1" d="M98 10C98.2489 10 98.496 10.0085 98.7412 10.0234C98.8041 10.0273 98.867 10.0304 98.9297 10.0352C99.1086 10.0489 99.2863 10.0674 99.4629 10.0889C99.4883 10.092 99.5137 10.0944 99.5391 10.0977C99.7161 10.1203 99.8919 10.1474 100.066 10.1777C100.08 10.1801 100.093 10.1822 100.106 10.1846C100.248 10.2096 100.388 10.2386 100.527 10.2686C100.637 10.2921 100.747 10.3181 100.855 10.3447C100.941 10.3655 101.026 10.3865 101.11 10.4092C101.206 10.4348 101.301 10.4614 101.396 10.4893C101.497 10.5192 101.599 10.5504 101.699 10.583C101.785 10.6108 101.87 10.6403 101.955 10.6699C102.043 10.7007 102.131 10.7318 102.219 10.7646C102.323 10.804 102.427 10.8456 102.53 10.8877C102.606 10.9188 102.682 10.9498 102.758 10.9824C102.86 11.0266 102.961 11.0732 103.062 11.1201C103.135 11.1543 103.209 11.188 103.281 11.2236C103.378 11.2714 103.475 11.3208 103.57 11.3711C103.648 11.4118 103.725 11.4528 103.802 11.4951C103.891 11.5445 103.979 11.5959 104.066 11.6475C104.144 11.693 104.222 11.738 104.298 11.7852C104.393 11.844 104.487 11.9054 104.58 11.9668C104.641 12.0069 104.702 12.0467 104.763 12.0879C104.858 12.1528 104.951 12.2196 105.044 12.2871C105.11 12.3349 105.175 12.3826 105.24 12.4316C105.331 12.5004 105.42 12.5713 105.509 12.6426C105.565 12.6877 105.621 12.7322 105.677 12.7783C105.765 12.8518 105.851 12.928 105.937 13.0039C105.999 13.0589 106.062 13.1127 106.123 13.1689C106.19 13.2305 106.255 13.2943 106.32 13.3574C106.395 13.4295 106.47 13.5013 106.543 13.5752C106.6 13.6326 106.655 13.6915 106.71 13.75C106.785 13.8291 106.86 13.9081 106.933 13.9893C106.994 14.058 107.054 14.1281 107.114 14.1982C107.175 14.2691 107.236 14.3398 107.295 14.4121C107.36 14.492 107.423 14.5737 107.486 14.6553C107.541 14.7255 107.596 14.7948 107.649 14.8662C107.714 14.9533 107.775 15.043 107.837 15.1318C107.883 15.1972 107.929 15.2619 107.974 15.3281C108.033 15.4165 108.09 15.5066 108.146 15.5967C108.193 15.6708 108.242 15.7441 108.287 15.8193C108.339 15.9051 108.387 15.9929 108.437 16.0801C108.482 16.1602 108.528 16.24 108.572 16.3213C108.622 16.413 108.668 16.5065 108.715 16.5996C108.754 16.6764 108.794 16.7524 108.831 16.8301C108.878 16.9277 108.921 17.027 108.965 17.126C109 17.2043 109.036 17.2821 109.069 17.3613C109.115 17.4712 109.157 17.5828 109.2 17.6943C109.226 17.7614 109.254 17.8278 109.278 17.8955C109.306 17.9718 109.331 18.049 109.357 18.126C109.395 18.2359 109.433 18.3457 109.468 18.457C109.477 18.4871 109.485 18.5176 109.494 18.5479C109.541 18.7033 109.586 18.8596 109.626 19.0176C109.681 19.2324 109.729 19.4497 109.772 19.6689C109.805 19.8338 109.835 19.9998 109.86 20.167C109.865 20.1998 109.869 20.2328 109.874 20.2656C109.926 20.6235 109.963 20.9862 109.982 21.3535C109.994 21.5676 110 21.7831 110 22V98C110 104.627 104.627 110 98 110H22C15.3726 110 10 104.627 10 98V22C10 15.3726 15.3726 10 22 10H98ZM22 18C19.7909 18 18 19.7909 18 22V98C18 100.209 19.7909 102 22 102H38C40.2091 102 42 100.209 42 98V22C42 19.7909 40.2091 18 38 18H22ZM54 18C51.7909 18 50 19.7909 50 22V98C50 100.209 51.7909 102 54 102H98C100.209 102 102 100.209 102 98V22C102 21.9332 101.998 21.8668 101.995 21.8008C101.99 21.6998 101.98 21.5999 101.968 21.501C101.722 19.5274 100.04 18 98 18H54ZM87.1016 30.252C87.1485 30.2531 87.1953 30.255 87.2422 30.2578C87.3489 30.2642 87.4554 30.2751 87.5615 30.29C87.6617 30.3042 87.7613 30.322 87.8604 30.3438C87.8926 30.3508 87.9249 30.3574 87.957 30.3652C88.0388 30.3853 88.1196 30.4093 88.2002 30.4346C88.2968 30.4649 88.3927 30.4983 88.4873 30.5361C88.5204 30.5494 88.5531 30.5639 88.5859 30.5781C88.6752 30.6167 88.7637 30.6578 88.8506 30.7031C88.8729 30.7148 88.8949 30.7272 88.917 30.7393C88.9539 30.7594 88.991 30.7794 89.0273 30.8008C89.0487 30.8134 89.0696 30.8268 89.0908 30.8398C89.1222 30.8591 89.1536 30.8782 89.1846 30.8984C89.2133 30.9172 89.2412 30.9374 89.2695 30.957C89.2939 30.9739 89.3187 30.9903 89.3428 31.0078C89.3702 31.0277 89.3968 31.0487 89.4238 31.0693C89.4533 31.0918 89.4828 31.1143 89.5117 31.1377C89.5327 31.1547 89.5535 31.172 89.5742 31.1895C89.6031 31.2138 89.6318 31.2384 89.6602 31.2637C89.6821 31.2833 89.704 31.3031 89.7256 31.3232C89.7437 31.3401 89.7624 31.3567 89.7803 31.374C89.7927 31.386 89.8042 31.399 89.8164 31.4111C89.8228 31.4174 89.8296 31.4233 89.8359 31.4297C89.8473 31.4411 89.8579 31.4533 89.8691 31.4648C89.8965 31.493 89.9238 31.521 89.9502 31.5498C89.9671 31.5682 89.9836 31.5868 90 31.6055C90.0771 31.6928 90.1496 31.7828 90.2178 31.875C90.2283 31.8893 90.2387 31.9036 90.249 31.918C90.275 31.9541 90.3005 31.9905 90.3252 32.0273C90.3378 32.0461 90.3501 32.065 90.3623 32.084C90.3881 32.124 90.4132 32.1643 90.4375 32.2051C90.4452 32.218 90.4524 32.2312 90.46 32.2441C90.4831 32.2839 90.5057 32.3238 90.5273 32.3643C90.5381 32.3843 90.5482 32.4046 90.5586 32.4248C90.5756 32.4579 90.5924 32.491 90.6084 32.5244C90.6227 32.5543 90.6369 32.5841 90.6504 32.6143C90.6611 32.6381 90.6705 32.6625 90.6807 32.6865C90.694 32.7178 90.7082 32.7487 90.7207 32.7803C90.7342 32.8145 90.7463 32.8493 90.7588 32.8838C90.768 32.9092 90.7775 32.9344 90.7861 32.96C90.8205 33.0611 90.8499 33.1635 90.876 33.2666C90.8809 33.2861 90.886 33.3056 90.8906 33.3252C90.8998 33.3638 90.908 33.4026 90.916 33.4414C90.9206 33.4636 90.9255 33.4856 90.9297 33.5078C90.9373 33.5481 90.9439 33.5885 90.9502 33.6289C91.0368 34.183 91.007 34.7512 90.8604 35.2949C90.8351 35.3886 90.8056 35.4812 90.7734 35.5732C90.7397 35.6697 90.7025 35.7652 90.6611 35.8594C90.6517 35.8808 90.6426 35.9025 90.6328 35.9238C90.6188 35.9543 90.6037 35.9844 90.5889 36.0146C90.5762 36.0404 90.564 36.0663 90.5508 36.0918C90.5299 36.1319 90.5076 36.1714 90.4854 36.2109C90.4766 36.2265 90.468 36.2423 90.459 36.2578C90.4383 36.2934 90.4164 36.3282 90.3945 36.3633C90.3813 36.3845 90.3682 36.4057 90.3545 36.4268C90.2983 36.5132 90.2384 36.5978 90.1748 36.6807C90.1555 36.7058 90.1362 36.7311 90.1162 36.7559C90.0977 36.7789 90.0787 36.8015 90.0596 36.8242C90.0444 36.8422 90.0302 36.8611 90.0146 36.8789L89.9805 36.915C89.966 36.9311 89.9513 36.947 89.9365 36.9629L89.876 37.0303L70.2227 57.3555C68.7296 58.8998 68.7225 61.3478 70.207 62.9004L89.8906 83.4854L89.9375 83.5361L89.9775 83.5791C89.9853 83.5877 89.9924 83.5968 90 83.6055L90.0293 83.6377C90.0472 83.6584 90.0637 83.6802 90.0811 83.7012C90.0944 83.7172 90.1081 83.7328 90.1211 83.749C90.1454 83.7793 90.1691 83.81 90.1924 83.8408C90.2108 83.8652 90.2293 83.8894 90.2471 83.9141C90.2659 83.9401 90.2837 83.9668 90.3018 83.9932C90.3226 84.0236 90.3433 84.0541 90.3633 84.085C90.3754 84.1037 90.3867 84.1227 90.3984 84.1416C90.4202 84.1765 90.4414 84.2116 90.4619 84.2471C90.4751 84.2698 90.4883 84.2925 90.501 84.3154C90.5175 84.3453 90.5341 84.3751 90.5498 84.4053C90.5671 84.4385 90.5833 84.4722 90.5996 84.5059C90.6094 84.5261 90.6195 84.5461 90.6289 84.5664C90.6457 84.6027 90.662 84.6391 90.6777 84.6758C90.6873 84.6981 90.696 84.7207 90.7051 84.7432C90.7443 84.8397 90.7792 84.9374 90.8105 85.0361C90.8171 85.0567 90.8239 85.077 90.8301 85.0977C90.8421 85.1379 90.8535 85.1782 90.8643 85.2188C90.8687 85.2356 90.8727 85.2526 90.877 85.2695C90.8862 85.3062 90.8951 85.343 90.9033 85.3799C90.911 85.4143 90.9181 85.4488 90.9248 85.4834C90.9292 85.5062 90.9335 85.5289 90.9375 85.5518C90.9434 85.5849 90.9491 85.6181 90.9541 85.6514C90.9587 85.6816 90.9629 85.7119 90.9668 85.7422C90.9712 85.777 90.975 85.8118 90.9785 85.8467C90.9809 85.8701 90.9824 85.8935 90.9844 85.917C90.9878 85.958 90.991 85.999 90.9932 86.04C90.9942 86.0609 90.9953 86.0817 90.9961 86.1025C90.9973 86.1367 90.9977 86.1709 90.998 86.2051C90.9985 86.2415 90.9986 86.278 90.998 86.3145C90.9976 86.3425 90.9962 86.3704 90.9951 86.3984C90.9942 86.4222 90.9935 86.446 90.9922 86.4697C90.9898 86.5134 90.9872 86.557 90.9834 86.6006C90.9821 86.6152 90.9809 86.6299 90.9795 86.6445C90.9693 86.7482 90.9548 86.8514 90.9365 86.9541C90.9315 86.9821 90.9265 87.0101 90.9209 87.0381C90.914 87.0724 90.9062 87.1065 90.8984 87.1406C90.8924 87.167 90.8864 87.1934 90.8799 87.2197C90.8722 87.2504 90.8639 87.281 90.8555 87.3115C90.8472 87.3415 90.839 87.3715 90.8301 87.4014C90.8208 87.4324 90.8109 87.4633 90.8008 87.4941C90.7893 87.5294 90.7772 87.5646 90.7646 87.5996C90.758 87.6182 90.7511 87.6367 90.7441 87.6553C90.7285 87.6971 90.7124 87.7389 90.6953 87.7803C90.6886 87.7966 90.6818 87.8129 90.6748 87.8291C90.6593 87.8652 90.6426 87.9008 90.626 87.9365C90.612 87.9666 90.5978 87.9966 90.583 88.0264C90.573 88.0466 90.5631 88.0668 90.5527 88.0869C90.5341 88.1229 90.5149 88.1588 90.4951 88.1943C90.4833 88.2156 90.4712 88.2367 90.459 88.2578C90.4405 88.2896 90.4218 88.3212 90.4023 88.3525C90.3867 88.3778 90.3707 88.4028 90.3545 88.4277C90.3336 88.4599 90.312 88.4917 90.29 88.5234C90.2782 88.5405 90.266 88.5573 90.2539 88.5742C90.2295 88.6082 90.2052 88.6424 90.1797 88.6758C90.1642 88.696 90.1477 88.7154 90.1318 88.7354C90.1071 88.7664 90.0824 88.7976 90.0566 88.8281C90.0343 88.8545 90.0114 88.8803 89.9883 88.9062C89.9728 88.9236 89.9572 88.9409 89.9414 88.958C89.9121 88.9897 89.882 89.0208 89.8516 89.0518C89.8408 89.0627 89.8312 89.0751 89.8203 89.0859C89.8131 89.0931 89.8051 89.0994 89.7979 89.1064C89.7865 89.1175 89.7761 89.1296 89.7646 89.1406C89.744 89.1604 89.7222 89.179 89.7012 89.1982C89.6879 89.2104 89.6745 89.2224 89.6611 89.2344C89.6239 89.2676 89.586 89.2995 89.5479 89.3311C89.5334 89.343 89.5194 89.3555 89.5049 89.3672C89.4746 89.3916 89.4439 89.4151 89.4131 89.4385C89.3888 89.4569 89.3645 89.4753 89.3398 89.4932C89.3106 89.5143 89.2807 89.5344 89.251 89.5547C89.2292 89.5695 89.2075 89.5843 89.1855 89.5986C89.1545 89.619 89.1233 89.6388 89.0918 89.6582C89.0665 89.6738 89.0412 89.6892 89.0156 89.7041C88.9884 89.72 88.9611 89.7358 88.9336 89.751C88.9054 89.7666 88.8771 89.782 88.8486 89.7969C88.8157 89.8141 88.7824 89.8305 88.749 89.8467C88.7279 89.8569 88.7068 89.8671 88.6855 89.877C88.6526 89.8923 88.6192 89.9065 88.5859 89.9209C88.5586 89.9327 88.5315 89.9449 88.5039 89.9561C88.4728 89.9687 88.4415 89.9804 88.4102 89.9922C88.3855 90.0015 88.3608 90.0107 88.3359 90.0195C88.2958 90.0337 88.2553 90.0467 88.2148 90.0596C88.1956 90.0657 88.1765 90.0723 88.1572 90.0781C88.1271 90.0872 88.0967 90.0952 88.0664 90.1035C88.0306 90.1134 87.995 90.1239 87.959 90.1328C87.9308 90.1397 87.9023 90.1451 87.874 90.1514C87.8466 90.1575 87.8195 90.1644 87.792 90.1699C87.7579 90.1768 87.7237 90.1825 87.6895 90.1885C87.6592 90.1937 87.629 90.1986 87.5986 90.2031C87.5661 90.208 87.5336 90.2127 87.501 90.2168C87.4785 90.2196 87.4561 90.2231 87.4336 90.2256C87.3865 90.2307 87.3392 90.2339 87.292 90.2373C87.2773 90.2384 87.2627 90.2403 87.248 90.2412C87.2106 90.2435 87.1732 90.2448 87.1357 90.2461C87.1071 90.2471 87.0785 90.2477 87.0498 90.248C87.0055 90.2486 86.9613 90.249 86.917 90.248C86.9069 90.2478 86.8968 90.2474 86.8867 90.2471C86.8369 90.2457 86.7871 90.2435 86.7373 90.2402C86.7227 90.2393 86.708 90.2384 86.6934 90.2373C86.6487 90.2339 86.6041 90.2295 86.5596 90.2246C86.5384 90.2223 86.5173 90.2195 86.4961 90.2168C86.4651 90.2129 86.4342 90.2087 86.4033 90.2041C86.3704 90.1992 86.3375 90.1942 86.3047 90.1885C86.2733 90.183 86.2422 90.1762 86.2109 90.1699C86.1754 90.1628 86.1399 90.1556 86.1045 90.1475C86.0908 90.1443 86.0771 90.141 86.0635 90.1377C86.0145 90.126 85.9656 90.1142 85.917 90.1006C85.9033 90.0967 85.8896 90.0928 85.876 90.0889C85.8358 90.0771 85.7957 90.0648 85.7559 90.0518C85.731 90.0437 85.7064 90.035 85.6816 90.0264C85.644 90.0133 85.6066 89.9996 85.5693 89.9854C85.5487 89.9775 85.5283 89.9692 85.5078 89.9609C85.4755 89.948 85.4432 89.9348 85.4111 89.9209C85.3771 89.9062 85.3433 89.8907 85.3096 89.875C85.2881 89.865 85.2665 89.8551 85.2451 89.8447C85.2147 89.8299 85.1844 89.8145 85.1543 89.7988C85.1226 89.7823 85.091 89.7655 85.0596 89.748C85.0383 89.7362 85.0172 89.7241 84.9961 89.7119C84.9643 89.6935 84.9327 89.6746 84.9014 89.6553C84.8695 89.6356 84.838 89.6153 84.8066 89.5947C84.79 89.5838 84.7734 89.5727 84.7568 89.5615C84.7198 89.5364 84.6828 89.5109 84.6465 89.4844C84.6288 89.4715 84.6112 89.4585 84.5938 89.4453C84.5605 89.4202 84.5277 89.3944 84.4951 89.3682C84.4748 89.3518 84.4546 89.3352 84.4346 89.3184C84.4102 89.2979 84.3863 89.2769 84.3623 89.2559C84.3459 89.2414 84.3288 89.2277 84.3125 89.2129L84.2812 89.1826C84.2726 89.1746 84.2634 89.1673 84.2549 89.1592L84.1807 89.0859L84.1641 89.0703L63.8047 68.5977C59.1317 63.8983 59.1532 56.3001 63.8525 51.627L84.1797 31.4141C84.1934 31.4004 84.2078 31.3874 84.2217 31.374L84.2715 31.3252C84.2816 31.3158 84.2916 31.3062 84.3018 31.2969C84.3243 31.2763 84.3473 31.2563 84.3701 31.2363C84.4024 31.2081 84.4358 31.1813 84.4688 31.1543C84.4813 31.144 84.4932 31.1331 84.5059 31.123C84.5988 31.0487 84.6942 30.9789 84.792 30.9141C84.8068 30.9043 84.8221 30.8953 84.8369 30.8857C84.9824 30.792 85.1321 30.7078 85.2861 30.6348C85.3101 30.6234 85.3342 30.6124 85.3584 30.6016C85.3862 30.5891 85.4143 30.5773 85.4424 30.5654C85.4777 30.5505 85.5132 30.5363 85.5488 30.5225C85.5693 30.5145 85.5898 30.5066 85.6104 30.499C85.6452 30.4862 85.6798 30.4728 85.7148 30.4609C85.7659 30.4437 85.8175 30.4282 85.8691 30.4131C85.8718 30.4123 85.8743 30.4109 85.877 30.4102C85.934 30.3935 85.9913 30.3783 86.0488 30.3643C86.053 30.3632 86.0573 30.3623 86.0615 30.3613C86.1108 30.3495 86.1603 30.3391 86.21 30.3291C86.2266 30.3258 86.2431 30.3215 86.2598 30.3184C86.3016 30.3105 86.3437 30.3044 86.3857 30.2979C86.4072 30.2945 86.4287 30.2911 86.4502 30.2881C86.4941 30.282 86.538 30.2771 86.582 30.2725C86.5999 30.2706 86.6178 30.2682 86.6357 30.2666C86.6764 30.2629 86.7171 30.2603 86.7578 30.2578C86.7822 30.2563 86.8066 30.254 86.8311 30.2529C86.8707 30.2513 86.9105 30.2515 86.9502 30.251C86.9704 30.2507 86.9906 30.2499 87.0107 30.25H87.0283C87.0527 30.2502 87.0771 30.2513 87.1016 30.252Z" fill="black"/>
</g>
</svg>
