<svg width="120" height="120" viewBox="0 0 120 120" fill="none" xmlns="http://www.w3.org/2000/svg">
<path fill-rule="evenodd" clip-rule="evenodd" d="M10.8889 18C10.8889 16.3431 12.2321 15 13.8889 15H109.889C111.546 15 112.889 16.3431 112.889 18C112.889 19.6569 111.546 21 109.889 21H13.8889C12.2321 21 10.8889 19.6569 10.8889 18ZM10.8889 60C10.8889 58.3431 12.2321 57 13.8889 57H109.889C111.546 57 112.889 58.3431 112.889 60C112.889 61.6569 111.546 63 109.889 63H13.8889C12.2321 63 10.8889 61.6569 10.8889 60ZM13.8889 99C12.2321 99 10.8889 100.343 10.8889 102C10.8889 103.657 12.2321 105 13.8889 105H109.889C111.546 105 112.889 103.657 112.889 102C112.889 100.343 111.546 99 109.889 99H13.8889Z" fill="black"/>
</svg>
