<svg width="120" height="120" viewBox="0 0 120 120" fill="none" xmlns="http://www.w3.org/2000/svg">
<g id="thickness=Bold, mode=default, name=general_grabber">
<path id="S1" d="M43 85.5C49.3513 85.5 54.5 90.6487 54.5 97C54.5 103.351 49.3513 108.5 43 108.5C36.6487 108.5 31.5 103.351 31.5 97C31.5 90.6487 36.6487 85.5 43 85.5ZM77 85.5C83.3513 85.5 88.5 90.6487 88.5 97C88.5 103.351 83.3513 108.5 77 108.5C70.6487 108.5 65.5 103.351 65.5 97C65.5 90.6487 70.6487 85.5 77 85.5ZM43 48.5C49.3513 48.5 54.5 53.6487 54.5 60C54.5 66.3513 49.3513 71.5 43 71.5C36.6487 71.5 31.5 66.3513 31.5 60C31.5 53.6487 36.6487 48.5 43 48.5ZM77 48.5C83.3513 48.5 88.5 53.6487 88.5 60C88.5 66.3513 83.3513 71.5 77 71.5C70.6487 71.5 65.5 66.3513 65.5 60C65.5 53.6487 70.6487 48.5 77 48.5ZM43 11.5C49.3513 11.5 54.5 16.6487 54.5 23C54.5 29.3513 49.3513 34.5 43 34.5C36.6487 34.5 31.5 29.3513 31.5 23C31.5 16.6487 36.6487 11.5 43 11.5ZM77 11.5C83.3513 11.5 88.5 16.6487 88.5 23C88.5 29.3513 83.3513 34.5 77 34.5C70.6487 34.5 65.5 29.3513 65.5 23C65.5 16.6487 70.6487 11.5 77 11.5Z" fill="black"/>
</g>
</svg>
