<svg width="120" height="120" viewBox="0 0 120 120" fill="none" xmlns="http://www.w3.org/2000/svg">
<g id="thickness=Light, mode=default, name=general_wifi">
<path id="N1" d="M59.9998 15C81.5723 15 101.079 24.1659 115.17 38.9287C116.314 40.1272 116.27 42.0259 115.071 43.1699C113.873 44.3139 111.974 44.2698 110.83 43.0713C97.7932 29.4129 79.823 21 59.9998 21C40.1769 21 22.2065 29.4129 9.16975 43.0713C8.02576 44.2698 6.12705 44.3139 4.92854 43.1699C3.73008 42.0259 3.68595 40.1272 4.82991 38.9287C18.9209 24.1658 38.4276 15 59.9998 15Z" fill="black"/>
<path id="N2" d="M60 40C76.0937 40 89.4353 46.1024 101.033 56.7939C102.251 57.9169 102.329 59.815 101.206 61.0332C100.083 62.2513 98.185 62.3288 96.9668 61.2061C86.3065 51.3788 74.3702 46 60 46C45.6295 46 33.6934 51.3788 23.0332 61.2061C21.815 62.3288 19.9168 62.2513 18.7939 61.0332C17.6711 59.815 17.7487 57.9169 18.9668 56.7939C30.5646 46.1024 43.906 40 60 40Z" fill="black"/>
<path id="N3" d="M59.9998 64C65.5588 64 71.0724 65.6563 75.5838 67.626C80.0963 69.5961 83.8424 71.9843 85.907 73.6846C87.1858 74.7379 87.3685 76.6283 86.3152 77.9072C85.2619 79.186 83.3715 79.3686 82.0926 78.3154C80.5143 77.0157 77.2599 74.9038 73.1834 73.124C69.1056 71.3437 64.4405 70 59.9998 70C55.5591 70 50.8941 71.3437 46.8162 73.124C42.7396 74.9038 39.4854 77.0157 37.907 78.3154C36.6281 79.3686 34.7377 79.186 33.6844 77.9072C32.6312 76.6283 32.8138 74.7379 34.0926 73.6846C36.1572 71.9843 39.9032 69.5961 44.4158 67.626C48.9273 65.6563 54.4408 64 59.9998 64Z" fill="black"/>
<path id="S1" d="M59.9999 84.25C64.0569 84.25 68.5185 85.6719 71.2685 89.0342V89.0352C72.2486 90.2339 72.1834 91.9473 71.1728 93.0703L62.9735 102.181C61.3846 103.946 58.6153 103.946 57.0263 102.181L48.827 93.0703C47.8162 91.9472 47.751 90.234 48.7313 89.0352L48.994 88.7256C51.7597 85.585 56.0695 84.25 59.9999 84.25Z" fill="black"/>
</g>
</svg>
