<svg width="120" height="120" viewBox="0 0 120 120" fill="none" xmlns="http://www.w3.org/2000/svg">
<g id="thickness=Standard, mode=default, name=general_grabber">
<path id="S1" d="M43 88C48.5228 88 53 92.4771 53 98C53 103.523 48.5228 108 43 108C37.4772 108 33 103.523 33 98C33 92.4771 37.4772 88 43 88ZM77 88C82.5228 88 87 92.4771 87 98C87 103.523 82.5228 108 77 108C71.4772 108 67 103.523 67 98C67 92.4771 71.4772 88 77 88ZM43 50C48.5228 50 53 54.4772 53 60C53 65.5228 48.5228 70 43 70C37.4772 70 33 65.5228 33 60C33 54.4772 37.4772 50 43 50ZM77 50C82.5228 50 87 54.4772 87 60C87 65.5228 82.5228 70 77 70C71.4772 70 67 65.5228 67 60C67 54.4772 71.4772 50 77 50ZM43 12C48.5228 12 53 16.4772 53 22C53 27.5228 48.5228 32 43 32C37.4772 32 33 27.5228 33 22C33 16.4772 37.4772 12 43 12ZM77 12C82.5228 12 87 16.4772 87 22C87 27.5228 82.5228 32 77 32C71.4772 32 67 27.5228 67 22C67 16.4772 71.4772 12 77 12Z" fill="black"/>
</g>
</svg>
