<svg width="120" height="120" viewBox="0 0 120 120" fill="none" xmlns="http://www.w3.org/2000/svg">
<g id="thickness=Light, mode=default, name=general_CollapseSidebar">
<path id="S1" d="M98 11C104.075 11 109 15.9249 109 22V98C109 104.075 104.075 109 98 109H22C15.9249 109 11 104.075 11 98V22C11 15.9249 15.9249 11 22 11H98ZM22 17C19.2386 17 17 19.2386 17 22V98C17 100.761 19.2386 103 22 103H38C40.7614 103 43 100.761 43 98V22C43 19.2386 40.7614 17 38 17H22ZM54 17C51.2386 17 49 19.2386 49 22V98C49 100.761 51.2386 103 54 103H98C100.761 103 103 100.761 103 98V22C103 19.2386 100.761 17 98 17H54ZM86.0908 31.0039C86.1348 31.0052 86.1787 31.0065 86.2227 31.0098C86.2772 31.0138 86.3314 31.0203 86.3857 31.0273C86.4242 31.0323 86.4626 31.0375 86.501 31.0439C86.5537 31.0528 86.606 31.0635 86.6582 31.0752C86.7069 31.0861 86.7554 31.0979 86.8037 31.1113C86.8434 31.1223 86.8826 31.1348 86.9219 31.1475C86.9736 31.1641 87.0252 31.1816 87.0762 31.2012C87.1193 31.2177 87.1616 31.2363 87.2041 31.2549C87.2514 31.2756 87.2983 31.297 87.3447 31.3203C87.3846 31.3403 87.4237 31.3619 87.4629 31.3838C87.5183 31.4148 87.5741 31.4456 87.6279 31.4805C87.6815 31.5152 87.7344 31.5514 87.7861 31.5898C87.8029 31.6023 87.8194 31.6151 87.8359 31.6279C87.8615 31.6478 87.8871 31.6677 87.9121 31.6885C87.9538 31.723 87.9949 31.7587 88.0352 31.7959C88.196 31.9444 88.3362 32.1071 88.457 32.2793C88.4868 32.3217 88.5137 32.3656 88.541 32.4092C88.574 32.4618 88.6053 32.5151 88.6348 32.5693C88.6523 32.6015 88.6683 32.6343 88.6846 32.667C88.7094 32.7171 88.7339 32.7672 88.7559 32.8184C88.775 32.8631 88.7917 32.9086 88.8086 32.9541C88.8256 32.9998 88.8418 33.0455 88.8564 33.0918C88.8706 33.1365 88.8835 33.1814 88.8955 33.2266C88.9078 33.2727 88.9196 33.3187 88.9297 33.3652C88.9403 33.4145 88.9489 33.464 88.957 33.5137C88.9648 33.5608 88.9721 33.6079 88.9775 33.6553C88.9827 33.6998 88.9861 33.7444 88.9893 33.7891C88.9929 33.8408 88.9961 33.8925 88.9971 33.9443C88.9979 33.9909 88.9964 34.0374 88.9951 34.084C88.9938 34.1309 88.9927 34.1778 88.9893 34.2246C88.9857 34.2726 88.9805 34.3204 88.9746 34.3682C88.9686 34.4172 88.9616 34.4659 88.9531 34.5146C88.9452 34.5604 88.9359 34.6059 88.9258 34.6514C88.9145 34.7025 88.9017 34.7531 88.8877 34.8037C88.8767 34.8434 88.8642 34.8826 88.8516 34.9219C88.8349 34.9737 88.8175 35.0252 88.7979 35.0762C88.7813 35.1193 88.7628 35.1616 88.7441 35.2041C88.7234 35.2514 88.702 35.2983 88.6787 35.3447C88.6587 35.3846 88.6372 35.4237 88.6152 35.4629C88.5842 35.5183 88.5534 35.5741 88.5186 35.6279C88.5088 35.6429 88.4993 35.658 88.4893 35.6729C88.4468 35.7358 88.4013 35.797 88.3535 35.8574C88.3394 35.8752 88.3261 35.8936 88.3115 35.9111C88.2768 35.953 88.2414 35.9947 88.2041 36.0352L69.2129 56.6084C67.4451 58.5236 67.4451 61.4763 69.2129 63.3916L88.2041 83.9648L88.2139 83.9756L88.2275 83.9902C88.232 83.9952 88.2358 84.0009 88.2402 84.0059L88.3066 84.0811C88.3257 84.1039 88.3421 84.1291 88.3604 84.1523C88.3896 84.1897 88.418 84.2273 88.4453 84.2656C88.4746 84.3068 88.5024 84.3484 88.5293 84.3906C88.5549 84.4307 88.58 84.4707 88.6035 84.5117C88.6285 84.5554 88.6512 84.6 88.6738 84.6445C88.6934 84.6831 88.7127 84.7215 88.7305 84.7607C88.7517 84.8074 88.7704 84.8549 88.7891 84.9023C88.8056 84.9446 88.8223 84.9865 88.8369 85.0293C88.8522 85.074 88.8658 85.1189 88.8789 85.1641C88.8916 85.2078 88.9034 85.2517 88.9141 85.2959C88.9264 85.3471 88.9367 85.3985 88.9463 85.4502C88.9534 85.4883 88.9602 85.5262 88.9658 85.5645C88.9734 85.6168 88.9795 85.6691 88.9844 85.7217C88.9883 85.7643 88.992 85.8069 88.9941 85.8496C88.9966 85.8994 88.9971 85.9492 88.9971 85.999C88.9971 86.0407 88.9968 86.0823 88.9951 86.124C88.9929 86.1769 88.9884 86.2295 88.9834 86.2822C88.9797 86.321 88.9759 86.3598 88.9707 86.3984C88.9638 86.4498 88.9558 86.5008 88.9463 86.5518C88.938 86.5962 88.9293 86.6405 88.9189 86.6846C88.9087 86.7286 88.8961 86.7719 88.8838 86.8154C88.8706 86.8622 88.8573 86.9089 88.8418 86.9551C88.8274 86.9981 88.8113 87.0405 88.7949 87.083C88.778 87.1267 88.7602 87.1699 88.7412 87.2129C88.7204 87.26 88.6981 87.3064 88.6748 87.3525C88.6557 87.3903 88.636 87.4277 88.6152 87.4648C88.5898 87.5103 88.5622 87.5543 88.5342 87.5986C88.511 87.6353 88.4878 87.6721 88.4629 87.708C88.4311 87.7538 88.3979 87.7985 88.3633 87.8428C88.3395 87.8732 88.3161 87.9039 88.291 87.9336C88.2516 87.9802 88.2097 88.0247 88.167 88.0693C88.1511 88.086 88.1374 88.1048 88.1211 88.1211C88.1088 88.1333 88.0944 88.1433 88.082 88.1553C88.0659 88.1709 88.0518 88.1888 88.0352 88.2041C88.0118 88.2257 87.9858 88.244 87.9619 88.2646C87.9267 88.2953 87.8918 88.3258 87.8555 88.3545C87.8143 88.387 87.7719 88.4172 87.7295 88.4473C87.6918 88.474 87.6538 88.4997 87.6152 88.5244C87.5725 88.5518 87.5291 88.5775 87.4854 88.6025C87.4474 88.6242 87.4098 88.6461 87.3711 88.666C87.3244 88.69 87.2771 88.712 87.2295 88.7334C87.1893 88.7515 87.1492 88.769 87.1084 88.7852C87.0628 88.8033 87.017 88.8201 86.9707 88.8359C86.9269 88.8509 86.8831 88.8651 86.8389 88.8779C86.7948 88.8907 86.7506 88.9024 86.7061 88.9131C86.66 88.9242 86.6138 88.9344 86.5674 88.9434C86.519 88.9526 86.4705 88.9599 86.4219 88.9668C86.3799 88.9727 86.338 88.9783 86.2959 88.9824C86.2471 88.9872 86.1983 88.9908 86.1494 88.9932C86.1006 88.9956 86.0518 88.997 86.0029 88.9971C85.9641 88.9971 85.9255 88.9966 85.8867 88.9951C85.8339 88.9931 85.7812 88.9901 85.7285 88.9854C85.6841 88.9813 85.6399 88.9757 85.5957 88.9697C85.549 88.9634 85.5025 88.9568 85.4561 88.9482C85.4135 88.9404 85.3713 88.9315 85.3291 88.9219C85.276 88.9097 85.2234 88.8959 85.1709 88.8809C85.1349 88.8705 85.0992 88.8594 85.0635 88.8477C85.0143 88.8315 84.9654 88.8146 84.917 88.7959C84.8719 88.7785 84.8276 88.759 84.7832 88.7393C84.7412 88.7206 84.6995 88.7013 84.6582 88.6807C84.6181 88.6606 84.5784 88.6401 84.5391 88.6182C84.4936 88.5927 84.4487 88.5661 84.4043 88.5381C84.368 88.5152 84.3324 88.4913 84.2969 88.4668C84.2516 88.4355 84.2069 88.4032 84.1631 88.3691C84.1309 88.3441 84.0998 88.3176 84.0684 88.291C84.0428 88.2694 84.0152 88.2501 83.9902 88.2275L83.918 88.1582C83.9134 88.1538 83.9079 88.15 83.9033 88.1455L83.8789 88.1211L63.5352 67.7783C59.2396 63.4826 59.2396 56.5174 63.5352 52.2217L83.8789 31.8789C83.8817 31.8761 83.8839 31.8729 83.8867 31.8701C83.9494 31.8078 84.0153 31.75 84.082 31.6943C84.0943 31.6841 84.1058 31.6731 84.1182 31.6631C84.1386 31.6466 84.1599 31.6311 84.1807 31.6152C84.2599 31.5546 84.3422 31.4999 84.4258 31.4482C84.4699 31.421 84.5144 31.3949 84.5596 31.3701C84.5972 31.3495 84.6355 31.3304 84.6738 31.3115C84.7218 31.2879 84.7694 31.2641 84.8184 31.2432C84.8631 31.224 84.9087 31.2073 84.9541 31.1904C84.9998 31.1735 85.0455 31.1572 85.0918 31.1426C85.1365 31.1284 85.1814 31.1155 85.2266 31.1035C85.2726 31.0913 85.3187 31.0794 85.3652 31.0693C85.4145 31.0587 85.464 31.0501 85.5137 31.042C85.5595 31.0345 85.6053 31.0269 85.6514 31.0215C85.703 31.0155 85.7548 31.0121 85.8066 31.0088C85.848 31.0061 85.8893 31.0039 85.9307 31.0029C85.9841 31.0017 86.0374 31.0023 86.0908 31.0039Z" fill="black"/>
</g>
</svg>
