<svg width="120" height="120" viewBox="0 0 120 120" fill="none" xmlns="http://www.w3.org/2000/svg">
<g id="thickness=Standard, mode=default, name=general_upload">
<path id="S1" d="M106 76.0001C108.209 76.0001 110 77.791 110 80.0001V98.0001C110 104.628 104.627 110 98 110H22C15.3726 110 10 104.628 10 98.0001V80.0001C10 77.791 11.7909 76.0001 14 76.0001C16.2091 76.0001 18 77.791 18 80.0001V98.0001C18 100.209 19.7909 102 22 102H98C100.209 102 102 100.209 102 98.0001V80.0001C102 77.791 103.791 76.0001 106 76.0001ZM51.498 9.91315C56.1759 5.17909 63.8134 5.1563 68.5195 9.86237L104.828 46.1719C105.552 46.8958 106 47.8955 106 49.0001C106 51.2092 104.209 53.0001 102 53.0001C100.93 53.0001 99.959 52.579 99.2412 51.8946V51.8966L64 18.3331V87.0001C64 89.2092 62.2091 91.0001 60 91.0001C57.7909 91.0001 56 89.2092 56 87.0001V18.4102L21.2764 51.88L21.2744 51.878C20.5551 52.5717 19.5782 53.0001 18.5 53.0001C16.2909 53.0001 14.5 51.2092 14.5 49.0001C14.5 47.9042 14.9405 46.911 15.6543 46.1885L51.498 9.91315Z" fill="black"/>
</g>
</svg>
