<svg width="120" height="120" viewBox="0 0 120 120" fill="none" xmlns="http://www.w3.org/2000/svg">
<g id="thickness=Light, mode=default, name=general_translate">
<path id="S1" d="M28.7686 6.26422C30.2792 5.58448 32.0552 6.25772 32.7354 7.76813L36.4395 15.9996H58C59.6568 15.9996 60.9999 17.3429 61 18.9996C61 20.6564 59.6569 21.9996 58 21.9996H53.3984C51.1551 30.6061 45.8036 38.374 39.2568 44.8453C45.0014 49.683 51.3414 53.6874 57.2021 56.2515C58.7198 56.9156 59.4118 58.684 58.748 60.2017C58.084 61.7196 56.3157 62.4116 54.7979 61.7476C48.1647 58.8457 41.1013 54.3344 34.7881 48.9205C28.3548 54.342 21.0907 58.7339 14.2021 61.7476C12.6843 62.4116 10.916 61.7196 10.252 60.2017C9.58823 58.684 10.2802 56.9156 11.7979 56.2515C17.9883 53.5432 24.519 49.6217 30.334 44.8219C30.2239 44.713 30.1132 44.605 30.0039 44.4957C23.3577 37.8495 17.8248 30.0088 15.6191 21.9996H11C9.34315 21.9996 8 20.6564 8 18.9996C8.00015 17.3429 9.34324 15.9996 11 15.9996H29.8604L27.2646 10.231C26.585 8.7203 27.258 6.94425 28.7686 6.26422ZM21.8975 21.9996C23.9887 28.1064 28.4525 34.4599 34.2461 40.2535C34.4315 40.4389 34.618 40.6234 34.8057 40.8072C40.5618 35.1733 45.026 28.7681 47.1572 21.9996H21.8975Z" fill="black"/>
<path id="S2" d="M86.0712 46C89.123 46.0002 91.8228 47.9774 92.7441 50.8867L110.86 108.095C111.36 109.674 110.485 111.36 108.905 111.86C107.326 112.36 105.64 111.485 105.14 109.905L99.4697 92H71.5302L65.8603 109.905C65.3602 111.485 63.6741 112.36 62.0947 111.86C60.5153 111.36 59.6397 109.674 60.1396 108.095L78.2558 50.8867C79.1771 47.9774 81.8769 46.0002 84.9287 46H86.0712ZM84.9287 52C84.4928 52.0002 84.1071 52.2827 83.9755 52.6982L73.4296 86H97.5703L87.0244 52.6982C86.8928 52.2827 86.5071 52.0002 86.0712 52H84.9287Z" fill="black"/>
<path id="S3" d="M14 75C15.6569 75 17 76.3431 17 78V98C17 100.761 19.2386 103 22 103H42C43.6569 103 45 104.343 45 106C45 107.657 43.6569 109 42 109H22C15.9249 109 11 104.075 11 98V78C11 76.3431 12.3431 75 14 75ZM98 11C104.075 11 109 15.9249 109 22V42C109 43.6569 107.657 45 106 45C104.343 45 103 43.6569 103 42V22C103 19.2386 100.761 17 98 17H78C76.3431 17 75 15.6569 75 14C75 12.3431 76.3431 11 78 11H98Z" fill="black"/>
</g>
</svg>
