<svg width="120" height="120" viewBox="0 0 120 120" fill="none" xmlns="http://www.w3.org/2000/svg">
<g id="thickness=Light, mode=default, name=general_reset">
<path id="S1R" d="M60 5C75.6684 5 89.8081 11.5549 99.8223 22.0635L100.257 9.62695C100.315 7.97134 101.704 6.67567 103.359 6.7334C105.015 6.79122 106.311 8.18107 106.253 9.83691L105.694 25.8271C105.559 29.6907 102.318 32.713 98.4541 32.5781L82.4639 32.0195C80.8082 31.9615 79.5135 30.5727 79.5713 28.917C79.6292 27.2612 81.018 25.9656 82.6738 26.0234L95.7383 26.4795C86.7955 16.9486 74.0941 11 60 11C32.938 11 11 32.938 11 60C11 71.9361 15.2644 82.8681 22.3555 91.3682L22.7803 91.8711C31.7715 102.361 45.1091 109 60 109C87.062 109 109 87.062 109 60C109 57.1184 108.751 54.2971 108.275 51.5557L108.058 50.3848L108.031 50.2334C107.801 48.6629 108.841 47.1705 110.415 46.8574C111.989 46.5445 113.52 47.5254 113.908 49.0645L113.942 49.2148L114.068 49.8701C114.68 53.1556 115 56.5418 115 60C115 90.3757 90.3757 115 60 115C43.2836 115 28.3074 107.539 18.2246 95.7754L17.748 95.2119C9.7906 85.6733 5 73.3922 5 60C5 29.6243 29.6243 5 60 5Z" fill="black"/>
</g>
</svg>
