<svg width="120" height="120" viewBox="0 0 120 120" fill="none" xmlns="http://www.w3.org/2000/svg">
<g id="thickness=Bold, mode=default, name=general_refresh">
<path id="S1" d="M60 4.5C75.6357 4.5 89.7631 10.9707 99.8457 21.3672L100.256 9.62793C100.314 7.97208 101.704 6.67655 103.359 6.73438C105.015 6.79238 106.311 8.18121 106.253 9.83691L105.694 25.8271C105.559 29.6908 102.318 32.714 98.4541 32.5791L82.4639 32.0205C80.808 31.9627 79.5125 30.5728 79.5703 28.917C79.6283 27.2615 81.0173 25.9658 82.6729 26.0234L92.0928 26.3516C83.7435 18.3849 72.4441 13.5 60 13.5C34.3188 13.5 13.5 34.3188 13.5 60C13.5 63.1276 13.8083 66.1786 14.3945 69.126C14.8793 71.5635 13.2959 73.9322 10.8584 74.417C8.42096 74.9017 6.05227 73.3192 5.56738 70.8818C4.86684 67.3595 4.5 63.7202 4.5 60C4.5 29.3482 29.3482 4.5 60 4.5Z" fill="black"/>
<path id="S2" d="M109.14 45.5827C111.502 45.113 113.799 46.5838 114.381 48.8922L114.432 49.1178L114.559 49.7799C115.177 53.0955 115.5 56.5121 115.5 59.9997C115.5 90.6513 90.6512 115.499 59.9996 115.5C44.0091 115.5 29.5955 108.732 19.4733 97.9186L18.6598 109.559C18.544 111.212 17.1103 112.458 15.4576 112.342C13.8048 112.227 12.5589 110.793 12.6744 109.14L13.7906 93.1794C14.0603 89.3228 17.4048 86.4147 21.2613 86.6842L37.2223 87.8004C38.8751 87.916 40.1211 89.3498 40.0055 91.0026C39.8899 92.6553 38.457 93.9012 36.8043 93.7858L27.3678 93.1256C35.7665 101.401 47.2858 106.5 59.9996 106.5C85.6807 106.499 106.5 85.6807 106.5 59.9997C106.5 57.2633 106.263 54.5851 105.811 51.984L105.605 50.8737L105.565 50.6452C105.22 48.2902 106.78 46.0526 109.14 45.5827Z" fill="black"/>
</g>
</svg>
