<svg width="120" height="120" viewBox="0 0 120 120" fill="none" xmlns="http://www.w3.org/2000/svg">
<g id="thickness=Standard, mode=default, name=general_history">
<path id="S2R" d="M60 5C75.6682 5 89.8082 11.5559 99.8213 22.0625L100.256 9.62793C100.314 7.97208 101.704 6.67655 103.359 6.73438C105.015 6.79238 106.311 8.18121 106.253 9.83691L105.694 25.8271C105.559 29.6908 102.318 32.714 98.4541 32.5791L82.4639 32.0205C80.808 31.9627 79.5125 30.5728 79.5703 28.917C79.6283 27.2615 81.0173 25.9658 82.6729 26.0234L92.8408 26.3779C84.3647 18.0967 72.7791 13 60 13C34.0426 13 13 34.0426 13 60C13 85.9574 34.0426 107 60 107C85.9574 107 107 85.9574 107 60C107 56.8395 106.688 53.7557 106.096 50.7764C105.665 48.6097 107.073 46.5042 109.239 46.0732C111.406 45.6425 113.511 47.0492 113.942 49.2158C114.637 52.7062 115 56.3127 115 60C115 90.3757 90.3757 115 60 115C29.6243 115 5 90.3757 5 60C5 29.6243 29.6243 5 60 5Z" fill="black"/>
<path id="S1" d="M54.4999 26C56.6771 26 58.4462 27.7394 58.497 29.9043H58.499L59.4101 68.1914C59.4206 68.6323 59.7193 69.0135 60.1445 69.1309L85.5624 76.1436C87.2557 76.6091 88.4999 78.1588 88.4999 80C88.4999 82.2091 86.7091 84 84.4999 84C84.2118 84 83.9309 83.969 83.6601 83.9111L58.5419 79.0508C53.2763 78.0315 49.5138 73.362 49.6357 68L50.5019 29.9092C50.5502 27.742 52.3212 26 54.4999 26Z" fill="black"/>
</g>
</svg>
