<svg width="120" height="120" viewBox="0 0 120 120" fill="none" xmlns="http://www.w3.org/2000/svg">
<g id="thickness=Light, mode=default, name=general_ExpandSidebar">
<path id="S1" d="M98 11C104.075 11 109 15.9249 109 22V98C109 104.075 104.075 109 98 109H22C15.9249 109 11 104.075 11 98V22C11 15.9249 15.9249 11 22 11H98ZM22 17C19.2386 17 17 19.2386 17 22V98C17 100.761 19.2386 103 22 103H38C40.7614 103 43 100.761 43 98V22C43 19.2386 40.7614 17 38 17H22ZM54 17C51.2386 17 49 19.2386 49 22V98C49 100.761 51.2386 103 54 103H98C100.761 103 103 100.761 103 98V22C103 19.2386 100.761 17 98 17H54ZM66.0684 31.0029C66.1098 31.0039 66.151 31.0061 66.1924 31.0088C66.2442 31.0121 66.296 31.0155 66.3477 31.0215C66.3938 31.0268 66.4395 31.0345 66.4854 31.042C66.535 31.0501 66.5845 31.0587 66.6338 31.0693C66.6803 31.0794 66.7264 31.0913 66.7725 31.1035C66.8176 31.1155 66.8625 31.1284 66.9072 31.1426C66.9535 31.1572 66.9993 31.1735 67.0449 31.1904C67.0904 31.2073 67.1359 31.224 67.1807 31.2432C67.2296 31.2641 67.2772 31.2879 67.3252 31.3115C67.3635 31.3304 67.4018 31.3495 67.4395 31.3701C67.4847 31.3949 67.5291 31.421 67.5732 31.4482C67.6289 31.4826 67.6845 31.5173 67.7383 31.5557C67.7448 31.5603 67.7514 31.5647 67.7578 31.5693C67.7783 31.5842 67.7982 31.5998 67.8184 31.6152C67.8392 31.6311 67.8604 31.6466 67.8809 31.6631C67.8934 31.6732 67.9055 31.684 67.918 31.6943C67.979 31.7452 68.039 31.7981 68.0967 31.8545L68.1211 31.8789L88.4648 52.2217C92.7604 56.5174 92.7604 63.4826 88.4648 67.7783L68.1211 88.1211L68.1113 88.1299L68.0967 88.1455C68.0919 88.1501 68.0858 88.1536 68.0811 88.1582L68.0098 88.2275C67.9846 88.2503 67.9564 88.2693 67.9307 88.291C67.8993 88.3176 67.8682 88.3441 67.8359 88.3691C67.7921 88.4032 67.7474 88.4355 67.7021 88.4668C67.6667 88.4913 67.631 88.5152 67.5947 88.5381C67.5503 88.5661 67.5055 88.5928 67.46 88.6182C67.4207 88.6401 67.3809 88.6606 67.3408 88.6807C67.2995 88.7013 67.2578 88.7206 67.2158 88.7393C67.1714 88.7589 67.1272 88.7785 67.082 88.7959C67.0336 88.8146 66.9847 88.8316 66.9355 88.8477C66.8999 88.8593 66.8642 88.8705 66.8281 88.8809C66.7756 88.8959 66.723 88.9098 66.6699 88.9219C66.6277 88.9315 66.5855 88.9404 66.543 88.9482C66.4966 88.9567 66.45 88.9634 66.4033 88.9697C66.3591 88.9757 66.3149 88.9813 66.2705 88.9854C66.2178 88.9901 66.1651 88.9932 66.1123 88.9951C66.0736 88.9966 66.0349 88.9971 65.9961 88.9971C65.9472 88.997 65.8985 88.9956 65.8496 88.9932C65.8007 88.9907 65.7519 88.9872 65.7031 88.9824C65.661 88.9782 65.6191 88.9727 65.5771 88.9668C65.5285 88.9599 65.48 88.9526 65.4316 88.9434C65.3852 88.9344 65.339 88.9242 65.293 88.9131C65.2485 88.9023 65.2042 88.8907 65.1602 88.8779C65.1159 88.8651 65.0721 88.8509 65.0283 88.8359C64.9821 88.8201 64.9362 88.8033 64.8906 88.7852C64.8499 88.7689 64.8097 88.7515 64.7695 88.7334C64.722 88.712 64.6746 88.6901 64.6279 88.666C64.5893 88.6461 64.5516 88.6243 64.5137 88.6025C64.4699 88.5775 64.4265 88.5518 64.3838 88.5244C64.3452 88.4997 64.3072 88.474 64.2695 88.4473C64.2271 88.4172 64.1847 88.387 64.1436 88.3545C64.1073 88.3258 64.0723 88.2953 64.0371 88.2646C64.0135 88.2441 63.988 88.2255 63.9648 88.2041C63.9481 88.1886 63.9333 88.171 63.917 88.1553C63.9048 88.1434 63.891 88.1332 63.8789 88.1211C63.8624 88.1046 63.8481 88.0861 63.832 88.0693C63.7894 88.0247 63.7474 87.9802 63.708 87.9336C63.6829 87.9039 63.6595 87.8732 63.6357 87.8428C63.6012 87.7985 63.5679 87.7537 63.5361 87.708C63.5112 87.6721 63.488 87.6353 63.4648 87.5986C63.4369 87.5544 63.4092 87.5102 63.3838 87.4648C63.363 87.4278 63.3433 87.3903 63.3242 87.3525C63.3009 87.3064 63.2786 87.26 63.2578 87.2129C63.2388 87.1699 63.221 87.1266 63.2041 87.083C63.1877 87.0406 63.1716 86.9981 63.1572 86.9551C63.1417 86.9089 63.1284 86.8622 63.1152 86.8154C63.103 86.7719 63.0904 86.7285 63.0801 86.6846C63.0698 86.6405 63.061 86.5962 63.0527 86.5518C63.0432 86.5008 63.0352 86.4497 63.0283 86.3984C63.0232 86.3598 63.0193 86.321 63.0156 86.2822C63.0107 86.2295 63.0061 86.1769 63.0039 86.124C63.0022 86.0824 63.0019 86.0407 63.002 85.999C63.0019 85.9492 63.0024 85.8994 63.0049 85.8496C63.007 85.8069 63.0107 85.7643 63.0146 85.7217C63.0195 85.6691 63.0256 85.6168 63.0332 85.5645C63.0388 85.5262 63.0457 85.4882 63.0527 85.4502C63.0623 85.3986 63.0727 85.3471 63.085 85.2959C63.0956 85.2517 63.1075 85.2078 63.1201 85.1641C63.1332 85.1189 63.1469 85.0739 63.1621 85.0293C63.1767 84.9865 63.1934 84.9445 63.21 84.9023C63.2286 84.8549 63.2474 84.8074 63.2686 84.7607C63.2863 84.7215 63.3057 84.6831 63.3252 84.6445C63.3478 84.6 63.3705 84.5554 63.3955 84.5117C63.419 84.4707 63.4442 84.4307 63.4697 84.3906C63.4966 84.3484 63.5245 84.3067 63.5537 84.2656C63.581 84.2273 63.6094 84.1897 63.6387 84.1523C63.6571 84.1289 63.6742 84.1041 63.6934 84.0811L63.7588 84.0059C63.7634 84.0007 63.7678 83.9954 63.7725 83.9902L63.7852 83.9756L63.7959 83.9648L82.7871 63.3916C84.5549 61.4763 84.5549 58.5236 82.7871 56.6084L63.7959 36.0352C63.7584 35.9946 63.7223 35.9532 63.6875 35.9111C63.673 35.8936 63.6596 35.8752 63.6455 35.8574C63.5978 35.797 63.5522 35.7358 63.5098 35.6729C63.4998 35.658 63.4902 35.6429 63.4805 35.6279C63.4456 35.5741 63.4148 35.5183 63.3838 35.4629C63.3619 35.4237 63.3403 35.3846 63.3203 35.3447C63.297 35.2983 63.2756 35.2514 63.2549 35.2041C63.2363 35.1616 63.2177 35.1193 63.2012 35.0762C63.1816 35.0252 63.1642 34.9736 63.1475 34.9219C63.1348 34.8826 63.1223 34.8434 63.1113 34.8037C63.0973 34.7531 63.0846 34.7024 63.0732 34.6514C63.0632 34.6059 63.0538 34.5604 63.0459 34.5146C63.0375 34.4659 63.0304 34.4171 63.0244 34.3682C63.0185 34.3204 63.0133 34.2726 63.0098 34.2246C63.0063 34.1778 63.0052 34.1309 63.0039 34.084C63.0026 34.0374 63.0011 33.9909 63.002 33.9443C63.0029 33.8925 63.0061 33.8408 63.0098 33.7891C63.0129 33.7444 63.0164 33.6998 63.0215 33.6553C63.0269 33.6079 63.0343 33.5608 63.042 33.5137C63.0501 33.464 63.0587 33.4145 63.0693 33.3652C63.0794 33.3187 63.0913 33.2726 63.1035 33.2266C63.1155 33.1814 63.1284 33.1365 63.1426 33.0918C63.1572 33.0455 63.1735 32.9998 63.1904 32.9541C63.2073 32.9087 63.224 32.8631 63.2432 32.8184C63.2651 32.7672 63.2896 32.7171 63.3145 32.667C63.3307 32.6343 63.3468 32.6015 63.3643 32.5693C63.3937 32.5151 63.425 32.4618 63.458 32.4092C63.4853 32.3657 63.5122 32.3217 63.542 32.2793C63.6629 32.1069 63.8039 31.9445 63.9648 31.7959C64.0049 31.7589 64.0454 31.7229 64.0869 31.6885C64.1119 31.6677 64.1375 31.6478 64.1631 31.6279C64.1796 31.6151 64.1961 31.6023 64.2129 31.5898C64.2646 31.5514 64.3176 31.5152 64.3711 31.4805C64.4249 31.4456 64.4807 31.4148 64.5361 31.3838C64.5753 31.3619 64.6144 31.3404 64.6543 31.3203C64.7007 31.297 64.7477 31.2756 64.7949 31.2549C64.8374 31.2362 64.8797 31.2177 64.9229 31.2012C64.9738 31.1816 65.0254 31.1642 65.0771 31.1475C65.1164 31.1348 65.1556 31.1223 65.1953 31.1113C65.2436 31.0979 65.2921 31.0861 65.3408 31.0752C65.3931 31.0635 65.4454 31.0528 65.498 31.0439C65.5364 31.0375 65.5748 31.0323 65.6133 31.0273C65.6676 31.0203 65.7218 31.0138 65.7764 31.0098C65.8203 31.0065 65.8642 31.0052 65.9082 31.0039C65.9616 31.0023 66.0149 31.0017 66.0684 31.0029Z" fill="black"/>
</g>
</svg>
