<svg width="120" height="120" viewBox="0 0 120 120" fill="none" xmlns="http://www.w3.org/2000/svg">
<g id="thickness=Standard, mode=default, name=general_wifi">
<path id="N1" d="M59.9999 14C81.864 14 101.627 23.2913 115.894 38.2383C117.419 39.8363 117.36 42.3683 115.762 43.8936C114.164 45.4188 111.632 45.3597 110.106 43.7617C97.2454 30.2875 79.5315 22 59.9999 22C40.4686 22 22.7545 30.2874 9.89351 43.7617C8.36822 45.3597 5.83628 45.4188 4.23823 43.8936C2.64021 42.3683 2.58116 39.8363 4.1064 38.2383C18.3731 23.2913 38.1361 14 59.9999 14Z" fill="black"/>
<path id="N2" d="M60 39C76.381 39 89.9568 45.223 101.711 56.0586C103.335 57.5558 103.438 60.0867 101.941 61.7109C100.444 63.3351 97.9133 63.4384 96.289 61.9414C85.7851 52.2582 74.0829 47 60 47C45.9168 47 34.2148 52.2582 23.7109 61.9414C22.0866 63.4384 19.5558 63.3351 18.0585 61.7109C16.5615 60.0867 16.6649 57.5558 18.289 56.0586C30.0431 45.2231 43.6187 39 60 39Z" fill="black"/>
<path id="N3" d="M60.0003 63C72.3219 63 82.5628 69.6341 86.5432 72.9121C88.2485 74.3165 88.4925 76.8377 87.0882 78.543C85.6838 80.2483 83.1626 80.4923 81.4573 79.0879C78.1521 76.3659 69.6783 71 60.0003 71C50.3223 71.0001 41.8484 76.366 38.5432 79.0879C36.8379 80.4923 34.3167 80.2483 32.9124 78.543C31.508 76.8377 31.752 74.3165 33.4573 72.9121C37.4378 69.6341 47.6788 63.0001 60.0003 63Z" fill="black"/>
<path id="S1" d="M60 83.25C64.2532 83.25 69.0458 84.7366 72.043 88.4014C73.3398 89.9871 73.2529 92.2539 71.916 93.7393L63.7168 102.85C61.7306 105.057 58.2694 105.057 56.2832 102.85L48.084 93.7393C46.7471 92.2539 46.6602 89.9871 47.957 88.4014C50.9542 84.7366 55.7468 83.25 60 83.25Z" fill="black"/>
</g>
</svg>
