<svg width="120" height="120" viewBox="0 0 120 120" fill="none" xmlns="http://www.w3.org/2000/svg">
<g id="thickness=Bold, mode=default, name=general_transmission">
<path id="S1U" d="M43.3916 6.26322C46.7329 2.87675 52.5 5.24316 52.5 10.0005V110.001C52.4998 112.486 50.4851 114.501 48 114.501C45.5149 114.501 43.5002 112.486 43.5 110.001V20.5542L14.1152 48.7476L14.1133 48.7456C13.3048 49.5214 12.209 50.0005 11 50.0005C8.51487 50.0005 6.50025 47.9856 6.5 45.5005C6.5 44.2523 7.00829 43.1224 7.8291 42.3072L43.3916 6.26322Z" fill="black"/>
<path id="S1D" d="M72 5.5C74.4853 5.5 76.5 7.51472 76.5 10V99.4463L105.885 71.2529L105.886 71.2539C106.694 70.478 107.791 70 109 70C111.485 70 113.5 72.0147 113.5 74.5C113.5 75.7317 113.004 76.8466 112.202 77.6592L112.203 77.6602L76.6084 113.737C73.2671 117.124 67.5 114.757 67.5 110V10C67.5 7.51472 69.5147 5.5 72 5.5Z" fill="black"/>
</g>
</svg>
