<svg width="120" height="120" viewBox="0 0 120 120" fill="none" xmlns="http://www.w3.org/2000/svg">
<g id="thickness=Standard, mode=default, name=general_refresh">
<path id="S1" d="M60 5C75.6682 5 89.8083 11.5559 99.8213 22.0625L100.256 9.62793C100.314 7.97208 101.704 6.67655 103.359 6.73438C105.015 6.79238 106.311 8.18121 106.253 9.83691L105.694 25.8271C105.559 29.6908 102.318 32.714 98.4541 32.5791L82.4639 32.0205C80.808 31.9627 79.5125 30.5728 79.5703 28.917C79.6283 27.2615 81.0173 25.9658 82.6729 26.0234L92.8408 26.3779C84.3646 18.0968 72.7791 13 60 13C34.0426 13 13 34.0426 13 60C13 63.1605 13.3118 66.2443 13.9043 69.2236C14.3351 71.3903 12.9274 73.4958 10.7607 73.9268C8.59415 74.3575 6.48856 72.9508 6.05762 70.7842C5.36342 67.2938 5 63.6873 5 60C5 29.6243 29.6243 5 60 5Z" fill="black"/>
<path id="S2" d="M109.238 46.0727C111.337 45.6553 113.378 46.9626 113.896 49.0141L113.942 49.2153L114.068 49.8715C114.68 53.157 115 56.5429 115 59.9995C115 90.375 90.3751 114.999 59.9996 114.999C44.4731 114.999 30.4479 108.561 20.4518 98.2202L19.6598 109.559C19.544 111.212 18.1103 112.458 16.4576 112.342C14.8048 112.227 13.5588 110.793 13.6744 109.14L14.7906 93.1792C15.0603 89.3226 18.4048 86.4145 22.2613 86.684L38.2223 87.8003C39.8751 87.9158 41.121 89.3496 41.0055 91.0024C40.8899 92.6551 39.457 93.901 37.8043 93.7856L26.5318 92.9965C35.059 101.645 46.9023 106.999 59.9996 106.999C85.9568 106.999 107 85.9567 107 59.9995C107 57.2342 106.761 54.5271 106.304 51.8979L106.095 50.7758L106.06 50.5727C105.753 48.4794 107.14 46.4904 109.238 46.0727Z" fill="black"/>
</g>
</svg>
