<svg width="120" height="120" viewBox="0 0 120 120" fill="none" xmlns="http://www.w3.org/2000/svg">
<g id="thickness=Bold, mode=default, name=general_download">
<path id="S1D" d="M60 5.5C62.4853 5.5 64.5 7.51472 64.5 10V83.7393L94.9854 51.6904C95.1466 51.489 95.3246 51.3018 95.5176 51.1309L95.7393 50.8984L95.7666 50.9248C96.5243 50.3446 97.4719 50 98.5 50C100.985 50 103 52.0147 103 54.5C103 55.4091 102.729 56.2543 102.266 56.9619L102.333 57.0234L69.2246 93.5273C64.2832 98.9756 55.729 99.0005 50.7559 93.5811L17.6846 57.543V57.542C16.9492 56.741 16.5 55.6731 16.5 54.5C16.5 52.0147 18.5147 50 21 50C22.2729 50 23.4217 50.5293 24.2402 51.3789H24.2412L55.5 83.8389V10C55.5 7.51472 57.5147 5.5 60 5.5Z" fill="black"/>
<path id="S2" d="M90 103C92.7614 103 95 105.239 95 108C95 110.761 92.7614 113 90 113H30C27.2386 113 25 110.761 25 108C25 105.239 27.2386 103 30 103H90Z" fill="black"/>
</g>
</svg>
