<svg width="120" height="120" viewBox="0 0 120 120" fill="none" xmlns="http://www.w3.org/2000/svg">
<g id="thickness=Bold, mode=default, name=general_wifiSlash">
<path id="S1" d="M13.8182 10.8178C15.5754 9.06068 18.4241 9.0608 20.1815 10.8178L29.2928 19.9291C38.7333 15.7916 49.1072 13.5004 59.9998 13.5004C82.0092 13.5007 101.9 22.8544 116.255 37.893C117.97 39.6906 117.904 42.5394 116.107 44.2553C114.31 45.9709 111.461 45.9047 109.745 44.1078C96.972 30.7258 79.3854 22.5007 59.9998 22.5004C51.651 22.5004 43.635 24.0247 36.1942 26.8305L48.8738 39.5102C52.4364 38.8458 56.1408 38.5004 59.9998 38.5004C76.5242 38.5006 90.2176 44.7843 102.05 55.6918C103.876 57.3763 103.992 60.2231 102.308 62.0502C100.624 63.8771 97.7773 63.9927 95.95 62.309C85.5244 52.698 73.9387 47.5006 59.9998 47.5004C58.9703 47.5004 57.9534 47.5299 56.949 47.5863L74.6385 65.2758C80.3945 67.5262 84.5511 70.6252 86.8602 72.5268C88.6379 73.9913 89.002 76.5336 87.7879 78.4252L107.181 97.8188C108.939 99.5761 108.939 102.425 107.181 104.182C105.424 105.939 102.575 105.939 100.818 104.182L13.8182 17.1811C12.0612 15.4237 12.0609 12.575 13.8182 10.8178ZM59.9998 82.7504C64.351 82.7504 69.3088 84.2696 72.4295 88.0854C73.8842 89.8645 73.7876 92.4072 72.2879 94.0736L64.0877 103.185C61.903 105.612 58.0968 105.612 55.9119 103.185L47.7117 94.0736C46.212 92.4072 46.1153 89.8645 47.5701 88.0854C50.6909 84.2695 55.6487 82.7504 59.9998 82.7504ZM56.3524 71.7162C47.8281 72.727 41.7908 77.0606 38.8602 79.474C36.9419 81.0536 34.1062 80.7786 32.5262 78.8607C30.9464 76.9423 31.2211 74.1066 33.1395 72.5268C35.8802 70.2698 41.2219 66.3253 48.7528 64.1166L56.3524 71.7162ZM37.449 52.8129C32.7362 55.2103 28.2969 58.3937 24.0496 62.309C22.2225 63.9931 19.3758 63.8768 17.6912 62.0502C16.0069 60.2229 16.1228 57.3763 17.95 55.6918C22.005 51.9537 26.2783 48.7584 30.8094 46.1732L37.449 52.8129ZM20.1258 35.4897C16.591 38.0443 13.2872 40.9307 10.2547 44.1078C8.5389 45.905 5.6901 45.9705 3.8924 44.2553C2.09498 42.5393 2.02914 39.6907 3.74494 37.893C6.81743 34.674 10.144 31.7162 13.6903 29.0541L20.1258 35.4897Z" fill="black"/>
</g>
</svg>
