<svg width="120" height="120" viewBox="0 0 120 120" fill="none" xmlns="http://www.w3.org/2000/svg">
<g id="thickness=Light, mode=default, name=general_scanQRcode">
<path id="S1" d="M11 98V78C11 76.3431 12.3431 75 14 75C15.6569 75 17 76.3431 17 78V98C17 100.761 19.2386 103 22 103H42C43.6569 103 45 104.343 45 106C45 107.657 43.6569 109 42 109H22C15.9249 109 11 104.075 11 98ZM103 98V78C103 76.3431 104.343 75 106 75C107.657 75 109 76.3431 109 78V98C109 104.075 104.075 109 98 109H78C76.3431 109 75 107.657 75 106C75 104.343 76.3431 103 78 103H98C100.761 103 103 100.761 103 98ZM11 42V22C11 15.9249 15.9249 11 22 11H42C43.6569 11 45 12.3431 45 14C45 15.6569 43.6569 17 42 17H22C19.2386 17 17 19.2386 17 22V42C17 43.6569 15.6569 45 14 45C12.3431 45 11 43.6569 11 42ZM103 42V22C103 19.2386 100.761 17 98 17H78C76.3431 17 75 15.6569 75 14C75 12.3431 76.3431 11 78 11H98C104.075 11 109 15.9249 109 22V42C109 43.6569 107.657 45 106 45C104.343 45 103 43.6569 103 42Z" fill="black"/>
<path id="S2" d="M109 57C110.657 57 112 58.3431 112 60C112 61.6569 110.657 63 109 63H11C9.34315 63 8 61.6569 8 60C8 58.3431 9.34315 57 11 57H109Z" fill="black"/>
</g>
</svg>
