<svg width="120" height="120" viewBox="0 0 120 120" fill="none" xmlns="http://www.w3.org/2000/svg">
<g id="thickness=Light, mode=default, name=general_bluetooth">
<path id="S1" d="M52.6231 17.3737C52.6236 10.9745 59.7645 7.16589 65.0792 10.7302L88.0099 26.111C94.6419 30.5593 94.4735 40.3691 87.6925 44.5867L61.3028 60.9998L87.6925 77.4129C94.4735 81.6305 94.6419 91.4402 88.0099 95.8885L65.0792 111.269C59.7644 114.834 52.6233 111.025 52.6231 104.626V66.3494L28.5645 81.0594C27.151 81.9232 25.3047 81.4777 24.4405 80.0642C23.5768 78.6508 24.0224 76.8044 25.4356 75.9402L49.8712 60.9998L25.4356 46.0593C24.0225 45.195 23.5766 43.3487 24.4405 41.9353C25.3046 40.5221 27.1511 40.0766 28.5645 40.9402L52.6231 55.6492V17.3737ZM58.6232 104.626C58.6233 106.225 60.4078 107.178 61.7364 106.287L84.6681 90.9061C87.6827 88.8841 87.6059 84.4247 84.5236 82.5076L58.6232 66.3982V104.626ZM61.7364 15.7126C60.408 14.8225 58.6236 15.7745 58.6232 17.3737V55.6003L84.5236 39.4919C87.6059 37.5749 87.6827 33.1154 84.6681 31.0935L61.7364 15.7126Z" fill="black"/>
</g>
</svg>
