<svg width="120" height="120" viewBox="0 0 120 120" fill="none" xmlns="http://www.w3.org/2000/svg">
<g id="thickness=Standard, mode=default, name=general_rewind15s">
<path id="S2R" d="M60 5C90.3757 5 115 29.6243 115 60C115 90.3757 90.3757 115 60 115C29.6243 115 5 90.3757 5 60C5 56.3127 5.36343 52.7062 6.05762 49.2158C6.48856 47.0492 8.59415 45.6425 10.7607 46.0732C12.9274 46.5042 14.3351 48.6097 13.9043 50.7764C13.3118 53.7557 13 56.8395 13 60C13 85.9574 34.0426 107 60 107C85.9574 107 107 85.9574 107 60C107 34.0426 85.9574 13 60 13C47.2206 13 35.6344 18.0964 27.1582 26.3779L37.3271 26.0234C38.9827 25.9658 40.3717 27.2615 40.4297 28.917C40.4875 30.5728 39.192 31.9627 37.5361 32.0205L21.5459 32.5791C17.6823 32.714 14.4406 29.6908 14.3057 25.8271L13.7471 9.83691C13.6893 8.18121 14.985 6.79238 16.6406 6.73438C18.2965 6.67655 19.6863 7.97208 19.7441 9.62793L20.1777 22.0625C30.1908 11.5556 44.3316 5 60 5Z" fill="black"/>
<path id="S1" d="M90.915 46.6396H70.8145L69.9746 55.6396C70.9346 54.9597 72.0746 54.4596 73.3945 54.1396C74.7545 53.7796 76.235 53.5996 77.835 53.5996C80.1598 53.5996 82.2562 53.8985 84.124 54.4961L84.8662 54.7441C86.7036 55.3816 88.2602 56.3001 89.5352 57.5C90.8949 58.7799 91.9343 60.34 92.6543 62.1797C93.3743 63.9796 93.7344 66.0199 93.7344 68.2998C93.7344 70.6598 93.3547 72.8203 92.5947 74.7803C91.8347 76.7002 90.7349 78.3403 89.2949 79.7002C87.8549 81.0202 86.1142 82.0603 84.0742 82.8203C82.0344 83.5802 79.7746 83.9599 77.2949 83.96C75.0149 83.96 72.8946 83.6801 70.9346 83.1201C69.0146 82.6001 67.3345 81.7596 65.8945 80.5996C64.4547 79.4397 63.2744 77.96 62.3545 76.1602C61.4745 74.3602 60.9148 72.1997 60.6748 69.6797L68.3545 68.9004C68.6345 71.82 69.4948 73.8997 70.9346 75.1396C72.4146 76.3396 74.5349 76.9404 77.2949 76.9404C78.6947 76.9404 79.9544 76.7397 81.0742 76.3398C82.1942 75.9398 83.1345 75.3596 83.8945 74.5996C84.6545 73.8396 85.2348 72.9198 85.6348 71.8398C86.0747 70.7599 86.2949 69.5396 86.2949 68.1797C86.2949 67.0198 86.0943 65.9599 85.6943 65C85.2943 64.0401 84.715 63.2396 83.9551 62.5996C83.2351 61.9196 82.3348 61.4 81.2549 61.04C80.2149 60.6801 79.0348 60.5 77.7148 60.5C76.4751 60.5 75.4151 60.5999 74.5352 60.7998C73.6552 60.9598 72.8548 61.2602 72.1348 61.7002C71.4148 62.1002 70.7347 62.6599 70.0947 63.3799C69.4947 64.0599 68.8548 64.92 68.1748 65.96L61.3945 63.8604L64.2744 39.5H90.915V46.6396ZM47.3799 83.0596H39.9404V47.4199L28.1201 54.6201V46.5195L39.46 39.5H47.3799V83.0596Z" fill="black"/>
</g>
</svg>
