<svg width="120" height="120" viewBox="0 0 120 120" fill="none" xmlns="http://www.w3.org/2000/svg">
<g id="thickness=Light, mode=default, name=general_fastForward15s">
<path id="S2R" d="M60 5C75.6681 5 89.8072 11.5553 99.8213 22.0635L100.256 9.62695C100.314 7.97128 101.704 6.67558 103.359 6.7334C105.015 6.79139 106.311 8.18118 106.253 9.83691L105.694 25.8271C105.559 29.6907 102.318 32.713 98.4541 32.5781L82.4639 32.0195C80.808 31.9617 79.5125 30.5728 79.5703 28.917C79.6282 27.2613 81.0172 25.9658 82.6729 26.0234L95.7383 26.4795C86.7955 16.9486 74.0941 11 60 11C32.938 11 11 32.938 11 60C11 71.9361 15.2644 82.8681 22.3555 91.3682C31.3485 102.148 44.8726 109 60 109C87.062 109 109 87.062 109 60C109 56.7065 108.675 53.4914 108.058 50.3848C107.735 48.7599 108.79 47.1806 110.415 46.8574C112.04 46.5344 113.619 47.5899 113.942 49.2148C114.636 52.7048 115 56.3114 115 60C115 90.3757 90.3757 115 60 115C43.0182 115 27.8323 107.3 17.748 95.2119C9.7906 85.6733 5 73.3922 5 60C5 29.6243 29.6243 5 60 5Z" fill="black"/>
<path id="S1" d="M88.5791 45.3799H68.2383L67.0986 57.9805C68.1786 57.0205 69.4586 56.3003 70.9385 55.8203C72.4584 55.3003 74.1787 55.04 76.0986 55.04C78.4586 55.04 80.579 55.3404 82.459 55.9404C84.3388 56.5404 85.9389 57.4398 87.2588 58.6396C88.5787 59.7995 89.5984 61.2598 90.3184 63.0195C91.0383 64.7394 91.3984 66.7397 91.3984 69.0195C91.3984 71.2995 91.0188 73.3602 90.2588 75.2002C89.4988 77.0401 88.4185 78.5999 87.0186 79.8799C85.6586 81.1598 83.9989 82.1599 82.0391 82.8799C80.1191 83.5999 77.9586 83.96 75.5586 83.96C73.1988 83.9599 71.0791 83.68 69.1992 83.1201C67.3592 82.5601 65.7584 81.7196 64.3984 80.5996C63.0786 79.4797 61.9991 78.1194 61.1592 76.5195C60.3593 74.8797 59.8386 73.0202 59.5986 70.9404L65.7188 70.2803C66.0788 72.92 67.0388 74.8998 68.5986 76.2197C70.1586 77.5397 72.4787 78.2002 75.5586 78.2002C77.1186 78.2002 78.4992 77.98 79.6992 77.54C80.939 77.1001 81.9785 76.4796 82.8184 75.6797C83.6983 74.8397 84.3588 73.8602 84.7988 72.7402C85.2388 71.5803 85.4589 70.3002 85.459 68.9004C85.459 67.5405 85.1986 66.3603 84.6787 65.3604C84.1987 64.3204 83.5186 63.4603 82.6387 62.7803C81.7987 62.0603 80.7987 61.5397 79.6387 61.2197C78.4787 60.8598 77.2585 60.6797 75.9785 60.6797C74.7386 60.6797 73.6386 60.7599 72.6787 60.9199C71.7187 61.0799 70.8586 61.3598 70.0986 61.7598C69.3787 62.1597 68.679 62.7 67.999 63.3799C67.319 64.0599 66.6184 64.9004 65.8984 65.9004L60.3184 64.1602L63.1387 39.5H88.5791V45.3799ZM49.3799 83.0596H43.5V45.5L31.5596 52.6396V46.2197L42.4805 39.5H49.3799V83.0596Z" fill="black"/>
</g>
</svg>
