<svg width="120" height="120" viewBox="0 0 120 120" fill="none" xmlns="http://www.w3.org/2000/svg">
<g id="thickness=Light, mode=default, name=general_grabber">
<path id="S1" d="M43.5 88.5C48.7467 88.5 53 92.7533 53 98C53 103.247 48.7467 107.5 43.5 107.5C38.2533 107.5 34 103.247 34 98C34 92.7533 38.2533 88.5 43.5 88.5ZM76.5 88.5C81.7467 88.5 86 92.7533 86 98C86 103.247 81.7467 107.5 76.5 107.5C71.2533 107.5 67 103.247 67 98C67 92.7533 71.2533 88.5 76.5 88.5ZM43.5 50.5C48.7467 50.5 53 54.7533 53 60C53 65.2467 48.7467 69.5 43.5 69.5C38.2533 69.5 34 65.2467 34 60C34 54.7533 38.2533 50.5 43.5 50.5ZM76.5 50.5C81.7467 50.5 86 54.7533 86 60C86 65.2467 81.7467 69.5 76.5 69.5C71.2533 69.5 67 65.2467 67 60C67 54.7533 71.2533 50.5 76.5 50.5ZM43.5 12.5C48.7467 12.5 53 16.7533 53 22C53 27.2467 48.7467 31.5 43.5 31.5C38.2533 31.5 34 27.2467 34 22C34 16.7533 38.2533 12.5 43.5 12.5ZM76.5 12.5C81.7467 12.5 86 16.7533 86 22C86 27.2467 81.7467 31.5 76.5 31.5C71.2533 31.5 67 27.2467 67 22C67 16.7533 71.2533 12.5 76.5 12.5Z" fill="black"/>
</g>
</svg>
