<svg width="120" height="120" viewBox="0 0 120 120" fill="none" xmlns="http://www.w3.org/2000/svg">
<g id="thickness=Bold, mode=default, name=general_ExpandSidebar">
<path id="S1" d="M98 9.5C104.904 9.5 110.5 15.0964 110.5 22V98C110.5 104.904 104.904 110.5 98 110.5H22C15.0964 110.5 9.5 104.904 9.5 98V22C9.5 15.0964 15.0964 9.5 22 9.5H98ZM22 18.5C20.067 18.5 18.5 20.067 18.5 22V98C18.5 99.933 20.067 101.5 22 101.5H38C39.933 101.5 41.5 99.933 41.5 98V22C41.5 20.067 39.933 18.5 38 18.5H22ZM54 18.5C52.067 18.5 50.5 20.067 50.5 22V98C50.5 99.933 52.067 101.5 54 101.5H98C99.933 101.5 101.5 99.933 101.5 98V22C101.5 20.067 99.933 18.5 98 18.5H54ZM66.043 29.501C66.0928 29.5015 66.1426 29.5028 66.1924 29.5049C66.2038 29.5054 66.2152 29.5053 66.2266 29.5059C66.2826 29.5087 66.3386 29.5127 66.3945 29.5176C66.4154 29.5194 66.4362 29.5213 66.457 29.5234C66.5131 29.5291 66.5691 29.5361 66.625 29.5439C66.6367 29.5456 66.6484 29.5471 66.6602 29.5488C66.7219 29.5579 66.7834 29.5684 66.8447 29.5801C66.8525 29.5816 66.8604 29.5825 66.8682 29.584C66.925 29.5951 66.9816 29.6078 67.0381 29.6211C67.0491 29.6237 67.0602 29.6262 67.0713 29.6289L67.1572 29.6504C67.1857 29.6579 67.2138 29.6667 67.2422 29.6748C67.2624 29.6806 67.2826 29.6863 67.3027 29.6924C67.3607 29.7099 67.4182 29.7292 67.4756 29.749C67.4824 29.7514 67.4893 29.7535 67.4961 29.7559C67.5551 29.7766 67.6136 29.799 67.6719 29.8223C67.6835 29.8269 67.6954 29.8312 67.707 29.8359C67.7558 29.8559 67.8043 29.8767 67.8525 29.8984C67.8789 29.9104 67.9054 29.9221 67.9316 29.9346C67.9645 29.9502 67.9968 29.967 68.0293 29.9834C68.0625 30.0002 68.096 30.0165 68.1289 30.0342C68.1717 30.0572 68.2136 30.082 68.2559 30.1064C68.2707 30.1151 68.286 30.123 68.3008 30.1318C68.3532 30.163 68.4047 30.196 68.4561 30.2295C68.4657 30.2358 68.4757 30.2416 68.4854 30.248C68.5378 30.2829 68.5894 30.3192 68.6406 30.3564C68.6514 30.3642 68.6622 30.372 68.6729 30.3799C68.723 30.417 68.7723 30.4556 68.8213 30.4951C68.831 30.503 68.8409 30.5106 68.8506 30.5186C68.8944 30.5545 68.9378 30.5911 68.9805 30.6289C68.9982 30.6446 69.0157 30.6607 69.0332 30.6768C69.0762 30.7161 69.1184 30.7566 69.1602 30.7979C69.1672 30.8048 69.1746 30.8114 69.1816 30.8184L89.5566 51.1924C94.4189 56.0547 94.4405 63.9319 89.6055 68.8213L69.5703 89.0801L69.5527 89.0996C69.1587 89.5142 68.7037 89.8356 68.2158 90.0664C68.2061 90.071 68.1963 90.0755 68.1865 90.0801C68.1367 90.1032 68.0866 90.1253 68.0361 90.1465C68.0098 90.1576 67.9836 90.1691 67.957 90.1797C67.9197 90.1945 67.8823 90.2089 67.8447 90.2227C67.8136 90.2341 67.7823 90.2451 67.751 90.2559C67.7127 90.2689 67.6742 90.2809 67.6357 90.293C67.5955 90.3056 67.5552 90.3177 67.5146 90.3291C67.4916 90.3356 67.4684 90.3415 67.4453 90.3477C67.4018 90.3592 67.3582 90.3697 67.3145 90.3799C67.2787 90.3882 67.243 90.3969 67.207 90.4043C67.1804 90.4098 67.1537 90.4149 67.127 90.4199C67.0866 90.4275 67.0463 90.4349 67.0059 90.4414C66.9688 90.4474 66.9317 90.453 66.8945 90.458C66.8581 90.4629 66.8216 90.4667 66.7852 90.4707C66.7517 90.4744 66.7181 90.4775 66.6846 90.4805C66.6491 90.4836 66.6137 90.487 66.5781 90.4893C66.5375 90.4919 66.4968 90.4936 66.4561 90.4951C66.4277 90.4962 66.3994 90.4975 66.3711 90.498C66.3294 90.4988 66.2878 90.4984 66.2461 90.498C66.2135 90.4977 66.181 90.4971 66.1484 90.4961C66.1025 90.4947 66.0566 90.4921 66.0107 90.4893C65.9883 90.4879 65.9658 90.4871 65.9434 90.4854C65.903 90.4823 65.8626 90.4788 65.8223 90.4746C65.7851 90.4707 65.748 90.4667 65.7109 90.4619C65.6708 90.4567 65.6308 90.4506 65.5908 90.4443C65.5648 90.4403 65.5387 90.4362 65.5127 90.4316C65.4637 90.4231 65.4149 90.4135 65.3662 90.4033C65.346 90.3991 65.3259 90.3942 65.3057 90.3896C65.2613 90.3798 65.217 90.3697 65.1729 90.3584C65.1392 90.3498 65.1058 90.3404 65.0723 90.3311C65.0393 90.3218 65.0064 90.3127 64.9736 90.3027C64.9404 90.2926 64.9071 90.2824 64.874 90.2715C64.8278 90.2562 64.7821 90.2395 64.7363 90.2227C64.7181 90.2159 64.6998 90.2091 64.6816 90.2021C64.6328 90.1835 64.5844 90.1639 64.5361 90.1436C64.5167 90.1353 64.4969 90.1277 64.4775 90.1191C64.4247 90.0959 64.3724 90.0713 64.3203 90.0459C64.3091 90.0404 64.2973 90.0359 64.2861 90.0303C64.1632 89.9691 64.0429 89.9012 63.9248 89.8281C63.9171 89.8234 63.909 89.8193 63.9014 89.8145C63.8472 89.7805 63.7942 89.7445 63.7412 89.708C63.7308 89.7008 63.7203 89.6938 63.71 89.6865C63.5959 89.6065 63.4849 89.5206 63.377 89.4287C63.3685 89.4215 63.36 89.4145 63.3516 89.4072C63.2747 89.3408 63.1983 89.2727 63.125 89.2002C62.8776 88.9555 62.666 88.6882 62.4873 88.4062C62.4796 88.3941 62.4714 88.3823 62.4639 88.3701C61.3919 86.6428 61.5969 84.345 63.0889 82.8359L63.1064 82.8174L82.4697 62.4434C83.7591 61.0867 83.7532 58.9556 82.4561 57.6064L62.7559 37.1191C62.6741 37.0341 62.5972 36.946 62.5234 36.8564C62.5155 36.8468 62.5079 36.8369 62.5 36.8271C62.3689 36.6652 62.2507 36.4966 62.1455 36.3223C62.1314 36.2989 62.1172 36.2756 62.1035 36.252C62.0802 36.2116 62.0581 36.1707 62.0361 36.1299C62.0261 36.1113 62.0156 36.0929 62.0059 36.0742C61.9614 35.9886 61.9195 35.9021 61.8809 35.8145L61.8301 35.6934C61.8274 35.6869 61.8249 35.6803 61.8223 35.6738C61.7754 35.5568 61.7339 35.4382 61.6973 35.3184C61.69 35.2946 61.6826 35.2709 61.6758 35.2471C61.6637 35.2049 61.6525 35.1625 61.6416 35.1201C61.6349 35.0941 61.6283 35.0681 61.6221 35.042C61.6099 34.9904 61.5992 34.9386 61.5889 34.8867C61.5857 34.8711 61.5821 34.8555 61.5791 34.8398C61.4616 34.218 61.4756 33.5769 61.6211 32.9609C61.6259 32.9407 61.6307 32.9205 61.6357 32.9004C61.6478 32.8523 61.6611 32.8046 61.6748 32.7568C61.6806 32.7366 61.6863 32.7164 61.6924 32.6963C61.7715 32.4339 61.8751 32.1776 62.0029 31.9307C62.0097 31.9176 62.0165 31.9046 62.0234 31.8916C62.0484 31.8446 62.0748 31.7983 62.1016 31.752C62.1145 31.7295 62.1272 31.7068 62.1406 31.6846C62.1685 31.6381 62.1978 31.5925 62.2275 31.5469C62.2347 31.5358 62.2417 31.5247 62.249 31.5137C62.3261 31.3977 62.4092 31.2847 62.498 31.1748C62.5048 31.1665 62.5108 31.1577 62.5176 31.1494C62.6296 31.0129 62.7504 30.8813 62.8809 30.7559C62.905 30.7327 62.9296 30.71 62.9541 30.6875C62.9712 30.6717 62.9885 30.6561 63.0059 30.6406C63.0498 30.6014 63.0946 30.5636 63.1396 30.5264C63.1507 30.5172 63.1617 30.508 63.1729 30.499C63.2157 30.4643 63.2589 30.4303 63.3027 30.3975C63.324 30.3815 63.3457 30.3661 63.3672 30.3506C63.4046 30.3235 63.4424 30.2973 63.4805 30.2715C63.5038 30.2557 63.5272 30.2399 63.5508 30.2246C63.5951 30.1958 63.6395 30.1677 63.6846 30.1406C63.6998 30.1314 63.7151 30.1223 63.7305 30.1133C63.7789 30.0849 63.8277 30.0576 63.877 30.0312C63.8952 30.0215 63.9133 30.0115 63.9316 30.002C63.9771 29.9784 64.0233 29.9565 64.0693 29.9346C64.0876 29.9259 64.1056 29.9166 64.124 29.9082C64.1798 29.8826 64.2364 29.8591 64.293 29.8359C64.3008 29.8327 64.3086 29.8293 64.3164 29.8262C64.3776 29.8015 64.439 29.7777 64.501 29.7559C64.5068 29.7538 64.5127 29.752 64.5186 29.75C64.5723 29.7313 64.6264 29.7139 64.6807 29.6973C64.7044 29.69 64.7281 29.6826 64.752 29.6758C64.7941 29.6637 64.8365 29.6525 64.8789 29.6416C64.9049 29.6349 64.9309 29.6283 64.957 29.6221C65.0086 29.6098 65.0604 29.5993 65.1123 29.5889C65.128 29.5857 65.1435 29.5821 65.1592 29.5791C65.2167 29.5682 65.2743 29.5584 65.332 29.5498C65.3441 29.548 65.3561 29.5466 65.3682 29.5449C65.4221 29.5373 65.4761 29.5301 65.5303 29.5244C65.5524 29.5221 65.5746 29.5205 65.5967 29.5186C65.6503 29.5138 65.704 29.5097 65.7578 29.5068C65.7734 29.506 65.7891 29.5056 65.8047 29.5049C65.8493 29.503 65.8939 29.5016 65.9385 29.501C65.9733 29.5005 66.0081 29.5006 66.043 29.501Z" fill="black"/>
</g>
</svg>
