<svg width="120" height="120" viewBox="0 0 120 120" fill="none" xmlns="http://www.w3.org/2000/svg">
<g id="thickness=Standard, mode=default, name=general_ExpandSidebar">
<path id="S1" d="M98 10C98.2489 10 98.496 10.0085 98.7412 10.0234C98.8041 10.0273 98.867 10.0304 98.9297 10.0352C99.1086 10.0489 99.2863 10.0674 99.4629 10.0889C99.4883 10.092 99.5137 10.0944 99.5391 10.0977C99.7161 10.1203 99.8919 10.1474 100.066 10.1777C100.08 10.1801 100.093 10.1822 100.106 10.1846C100.248 10.2096 100.388 10.2386 100.527 10.2686C100.637 10.2921 100.747 10.3181 100.855 10.3447C100.941 10.3655 101.026 10.3865 101.11 10.4092C101.206 10.4348 101.301 10.4614 101.396 10.4893C101.497 10.5192 101.599 10.5504 101.699 10.583C101.785 10.6108 101.87 10.6403 101.955 10.6699C102.043 10.7007 102.131 10.7318 102.219 10.7646C102.323 10.804 102.427 10.8456 102.53 10.8877C102.606 10.9188 102.682 10.9498 102.758 10.9824C102.86 11.0266 102.961 11.0732 103.062 11.1201C103.135 11.1543 103.209 11.188 103.281 11.2236C103.378 11.2714 103.475 11.3208 103.57 11.3711C103.648 11.4118 103.725 11.4528 103.802 11.4951C103.891 11.5445 103.979 11.5959 104.066 11.6475C104.144 11.693 104.222 11.738 104.298 11.7852C104.393 11.844 104.487 11.9054 104.58 11.9668C104.641 12.0069 104.702 12.0467 104.763 12.0879C104.858 12.1528 104.951 12.2196 105.044 12.2871C105.11 12.3349 105.175 12.3826 105.24 12.4316C105.331 12.5004 105.42 12.5713 105.509 12.6426C105.565 12.6877 105.621 12.7322 105.677 12.7783C105.765 12.8518 105.851 12.928 105.937 13.0039C105.999 13.0589 106.062 13.1127 106.123 13.1689C106.19 13.2305 106.255 13.2943 106.32 13.3574C106.395 13.4295 106.47 13.5013 106.543 13.5752C106.6 13.6326 106.655 13.6915 106.71 13.75C106.785 13.8291 106.86 13.9081 106.933 13.9893C106.994 14.058 107.054 14.1281 107.114 14.1982C107.175 14.2691 107.236 14.3398 107.295 14.4121C107.36 14.492 107.423 14.5737 107.486 14.6553C107.541 14.7255 107.596 14.7948 107.649 14.8662C107.714 14.9533 107.775 15.043 107.837 15.1318C107.883 15.1972 107.929 15.2619 107.974 15.3281C108.033 15.4165 108.09 15.5066 108.146 15.5967C108.193 15.6708 108.242 15.7441 108.287 15.8193C108.339 15.9051 108.387 15.9929 108.437 16.0801C108.482 16.1602 108.528 16.24 108.572 16.3213C108.622 16.413 108.668 16.5065 108.715 16.5996C108.754 16.6764 108.794 16.7524 108.831 16.8301C108.878 16.9277 108.921 17.027 108.965 17.126C109 17.2043 109.036 17.2821 109.069 17.3613C109.115 17.4712 109.157 17.5828 109.2 17.6943C109.226 17.7614 109.254 17.8278 109.278 17.8955C109.306 17.9718 109.331 18.049 109.357 18.126C109.395 18.2359 109.433 18.3457 109.468 18.457C109.477 18.4871 109.485 18.5176 109.494 18.5479C109.541 18.7033 109.586 18.8596 109.626 19.0176C109.681 19.2324 109.729 19.4497 109.772 19.6689C109.805 19.8338 109.835 19.9998 109.86 20.167C109.865 20.1998 109.869 20.2328 109.874 20.2656C109.926 20.6235 109.963 20.9862 109.982 21.3535C109.994 21.5676 110 21.7831 110 22V98C110 104.627 104.627 110 98 110H22C15.3726 110 10 104.627 10 98V22C10 15.3726 15.3726 10 22 10H98ZM22 18C19.7909 18 18 19.7909 18 22V98C18 100.209 19.7909 102 22 102H38C40.2091 102 42 100.209 42 98V22C42 19.7909 40.2091 18 38 18H22ZM54 18C51.7909 18 50 19.7909 50 22V98C50 100.209 51.7909 102 54 102H98C100.209 102 102 100.209 102 98V22C102 21.9332 101.998 21.8668 101.995 21.8008C101.99 21.6998 101.98 21.5999 101.968 21.501C101.722 19.5274 100.04 18 98 18H54ZM67.0488 30.251C67.0885 30.2515 67.1283 30.2513 67.168 30.2529C67.1924 30.254 67.2168 30.2563 67.2412 30.2578C67.2819 30.2603 67.3226 30.2629 67.3633 30.2666C67.3812 30.2682 67.3991 30.2706 67.417 30.2725C67.461 30.2771 67.505 30.282 67.5488 30.2881C67.5704 30.2911 67.5918 30.2945 67.6133 30.2979C67.6553 30.3043 67.6974 30.3105 67.7393 30.3184C67.7559 30.3215 67.7724 30.3258 67.7891 30.3291C67.8242 30.3361 67.8595 30.3426 67.8945 30.3506L67.9414 30.3623C67.9443 30.363 67.9473 30.3635 67.9502 30.3643C68.0078 30.3783 68.0651 30.3936 68.1221 30.4102C68.125 30.411 68.1279 30.4122 68.1309 30.4131C68.1822 30.4282 68.2334 30.4438 68.2842 30.4609C68.3193 30.4728 68.3539 30.4862 68.3887 30.499C68.4093 30.5066 68.4297 30.5145 68.4502 30.5225C68.4858 30.5363 68.5213 30.5505 68.5566 30.5654C68.5847 30.5773 68.6128 30.5891 68.6406 30.6016C68.6648 30.6124 68.6889 30.6234 68.7129 30.6348C68.8672 30.7079 69.0174 30.7919 69.1631 30.8857C69.1777 30.8952 69.1925 30.9044 69.207 30.9141C69.3049 30.9789 69.4002 31.0487 69.4932 31.123C69.506 31.1333 69.5185 31.1439 69.5312 31.1543C69.564 31.1812 69.5968 31.2083 69.6289 31.2363C69.6518 31.2563 69.6747 31.2763 69.6973 31.2969C69.7076 31.3064 69.7182 31.3156 69.7285 31.3252L69.7783 31.374C69.7922 31.3874 69.8066 31.4004 69.8203 31.4141L90.1475 51.627C94.8468 56.3001 94.8683 63.8983 90.1953 68.5977L69.8359 89.0703L69.8193 89.0859L69.7451 89.1592C69.7364 89.1674 69.7266 89.1745 69.7178 89.1826L69.6875 89.2129C69.6712 89.2277 69.6541 89.2414 69.6377 89.2559C69.6135 89.2771 69.589 89.2978 69.5645 89.3184C69.5444 89.3352 69.5242 89.3518 69.5039 89.3682C69.4713 89.3944 69.4385 89.4202 69.4053 89.4453C69.3878 89.4585 69.3702 89.4715 69.3525 89.4844C69.3162 89.5109 69.2792 89.5364 69.2422 89.5615C69.2257 89.5727 69.209 89.5838 69.1924 89.5947C69.161 89.6153 69.1295 89.6356 69.0977 89.6553C69.0663 89.6746 69.0347 89.6935 69.0029 89.7119C68.9818 89.7241 68.9607 89.7362 68.9395 89.748C68.9081 89.7655 68.8765 89.7823 68.8447 89.7988C68.8146 89.8145 68.7844 89.8299 68.7539 89.8447C68.7325 89.8551 68.711 89.865 68.6895 89.875C68.6557 89.8907 68.622 89.9062 68.5879 89.9209C68.5558 89.9348 68.5236 89.948 68.4912 89.9609C68.4707 89.9692 68.4503 89.9775 68.4297 89.9854C68.3924 89.9996 68.355 90.0133 68.3174 90.0264C68.2927 90.035 68.268 90.0437 68.2432 90.0518C68.2033 90.0648 68.1632 90.0771 68.123 90.0889C68.1094 90.0928 68.0957 90.0968 68.082 90.1006C68.0338 90.1141 67.9852 90.126 67.9365 90.1377C67.9229 90.141 67.9092 90.1443 67.8955 90.1475C67.8598 90.1556 67.824 90.1628 67.7881 90.1699C67.7568 90.1762 67.7257 90.183 67.6943 90.1885C67.6615 90.1942 67.6286 90.1992 67.5957 90.2041C67.5648 90.2087 67.5339 90.2129 67.5029 90.2168C67.4818 90.2195 67.4606 90.2223 67.4395 90.2246C67.3949 90.2295 67.3503 90.2339 67.3057 90.2373C67.2913 90.2384 67.277 90.2393 67.2627 90.2402C67.2129 90.2435 67.1631 90.2457 67.1133 90.2471C67.1029 90.2474 67.0925 90.2478 67.082 90.248C67.0378 90.249 66.9935 90.2486 66.9492 90.248C66.9206 90.2477 66.8919 90.2471 66.8633 90.2461C66.8258 90.2448 66.7884 90.2435 66.751 90.2412C66.7363 90.2403 66.7217 90.2384 66.707 90.2373C66.6598 90.2339 66.6125 90.2307 66.5654 90.2256C66.5429 90.2231 66.5205 90.2196 66.498 90.2168C66.4654 90.2127 66.4329 90.208 66.4004 90.2031C66.3701 90.1985 66.3398 90.1938 66.3096 90.1885C66.2754 90.1825 66.2411 90.1768 66.207 90.1699C66.1796 90.1644 66.1524 90.1575 66.125 90.1514C66.097 90.1451 66.0689 90.1397 66.041 90.1328C66.0047 90.1239 65.9687 90.1135 65.9326 90.1035C65.9023 90.0952 65.8719 90.0872 65.8418 90.0781C65.8225 90.0723 65.8034 90.0657 65.7842 90.0596C65.7437 90.0467 65.7032 90.0337 65.6631 90.0195C65.6382 90.0107 65.6136 90.0015 65.5889 89.9922C65.5575 89.9804 65.5262 89.9687 65.4951 89.9561C65.4676 89.9449 65.4404 89.9327 65.4131 89.9209C65.3798 89.9065 65.3464 89.8923 65.3135 89.877C65.2925 89.8672 65.2718 89.8568 65.251 89.8467C65.2174 89.8303 65.1836 89.8142 65.1504 89.7969C65.1219 89.782 65.0936 89.7666 65.0654 89.751C65.0379 89.7357 65.0106 89.72 64.9834 89.7041C64.9578 89.6892 64.9325 89.6738 64.9072 89.6582C64.8757 89.6388 64.8445 89.619 64.8135 89.5986C64.7915 89.5843 64.7698 89.5695 64.748 89.5547C64.7184 89.5344 64.6884 89.5143 64.6592 89.4932C64.6345 89.4753 64.6103 89.4569 64.5859 89.4385C64.5552 89.4151 64.5244 89.3916 64.4941 89.3672C64.4796 89.3555 64.4656 89.343 64.4512 89.3311C64.4131 89.2995 64.3751 89.2676 64.3379 89.2344C64.3245 89.2224 64.3111 89.2104 64.2979 89.1982C64.277 89.1792 64.2559 89.1602 64.2354 89.1406C64.2237 89.1295 64.2127 89.1177 64.2012 89.1064C64.1941 89.0995 64.1867 89.0929 64.1797 89.0859C64.1686 89.0749 64.1584 89.0629 64.1475 89.0518C64.117 89.0208 64.0869 88.9897 64.0576 88.958C64.0418 88.9409 64.0262 88.9236 64.0107 88.9062C63.9877 88.8803 63.9647 88.8545 63.9424 88.8281C63.9166 88.7976 63.8919 88.7664 63.8672 88.7354C63.8513 88.7154 63.8348 88.696 63.8193 88.6758C63.7938 88.6424 63.7695 88.6082 63.7451 88.5742C63.733 88.5573 63.7208 88.5405 63.709 88.5234C63.687 88.4917 63.6655 88.4599 63.6445 88.4277C63.6283 88.4028 63.6123 88.3778 63.5967 88.3525C63.5773 88.3212 63.5585 88.2896 63.54 88.2578C63.5278 88.2367 63.5157 88.2156 63.5039 88.1943C63.4841 88.1588 63.4649 88.1229 63.4463 88.0869C63.4359 88.0668 63.426 88.0466 63.416 88.0264C63.4012 87.9966 63.387 87.9666 63.373 87.9365C63.3564 87.9008 63.3397 87.8652 63.3242 87.8291C63.3172 87.8129 63.3105 87.7966 63.3037 87.7803C63.2866 87.7389 63.2706 87.6971 63.2549 87.6553C63.2479 87.6367 63.241 87.6182 63.2344 87.5996C63.2219 87.5646 63.2098 87.5294 63.1982 87.4941C63.1882 87.4633 63.1782 87.4324 63.1689 87.4014C63.16 87.3715 63.1518 87.3415 63.1436 87.3115C63.1352 87.281 63.1268 87.2504 63.1191 87.2197C63.1126 87.1934 63.1066 87.167 63.1006 87.1406C63.0928 87.1065 63.085 87.0724 63.0781 87.0381C63.0725 87.0102 63.0675 86.9821 63.0625 86.9541C63.0442 86.8514 63.0298 86.7481 63.0195 86.6445C63.0181 86.6299 63.0169 86.6152 63.0156 86.6006C63.0118 86.557 63.0092 86.5134 63.0068 86.4697C63.0055 86.446 63.0048 86.4222 63.0039 86.3984C63.0029 86.3704 63.0014 86.3425 63.001 86.3145C63.0004 86.278 63.0006 86.2415 63.001 86.2051C63.0014 86.1709 63.0017 86.1367 63.0029 86.1025C63.0037 86.0817 63.0048 86.0609 63.0059 86.04C63.008 85.999 63.0112 85.958 63.0146 85.917C63.0166 85.8936 63.0182 85.8701 63.0205 85.8467C63.024 85.8118 63.0278 85.777 63.0322 85.7422C63.0361 85.7119 63.0404 85.6816 63.0449 85.6514C63.0499 85.6181 63.0557 85.5849 63.0615 85.5518C63.0655 85.5289 63.0698 85.5062 63.0742 85.4834C63.0809 85.4488 63.0881 85.4143 63.0957 85.3799C63.1039 85.343 63.1128 85.3062 63.1221 85.2695C63.1263 85.2526 63.1303 85.2356 63.1348 85.2188C63.1455 85.1783 63.1569 85.1379 63.1689 85.0977C63.1751 85.0771 63.182 85.0566 63.1885 85.0361C63.2198 84.9375 63.2547 84.8397 63.2939 84.7432C63.3031 84.7207 63.3118 84.6981 63.3213 84.6758C63.337 84.6391 63.3533 84.6027 63.3701 84.5664C63.3795 84.5461 63.3896 84.5261 63.3994 84.5059C63.4157 84.4722 63.4319 84.4385 63.4492 84.4053C63.4649 84.3751 63.4815 84.3453 63.498 84.3154C63.5107 84.2925 63.5239 84.2698 63.5371 84.2471C63.5576 84.2116 63.5789 84.1765 63.6006 84.1416C63.6123 84.1227 63.6237 84.1037 63.6357 84.085C63.6557 84.0541 63.6764 84.0236 63.6973 83.9932C63.7153 83.9668 63.7332 83.9401 63.752 83.9141C63.7697 83.8894 63.7882 83.8652 63.8066 83.8408C63.8299 83.81 63.8536 83.7793 63.8779 83.749C63.8909 83.7328 63.9047 83.7172 63.918 83.7012C63.9355 83.68 63.9527 83.6586 63.9707 83.6377L63.999 83.6055C64.0068 83.5967 64.0146 83.5879 64.0225 83.5791L64.0615 83.5361L64.1094 83.4854L83.793 62.9004C85.2775 61.3478 85.2704 58.8998 83.7773 57.3555L64.124 37.0303L64.0625 36.9629C64.0478 36.947 64.033 36.9311 64.0186 36.915L63.9854 36.8789C63.9697 36.8609 63.9548 36.8424 63.9395 36.8242C63.9203 36.8015 63.9013 36.7789 63.8828 36.7559C63.8628 36.7311 63.8435 36.7058 63.8242 36.6807C63.7607 36.5978 63.7007 36.5132 63.6445 36.4268C63.6309 36.4058 63.6177 36.3845 63.6045 36.3633C63.5826 36.3282 63.5607 36.2934 63.54 36.2578C63.531 36.2423 63.5225 36.2265 63.5137 36.2109C63.4914 36.1714 63.4691 36.1319 63.4482 36.0918C63.435 36.0663 63.4228 36.0404 63.4102 36.0146C63.3953 35.9844 63.3803 35.9543 63.3662 35.9238C63.3635 35.918 63.3611 35.9121 63.3584 35.9062L63.2969 35.7656C63.2709 35.7022 63.2481 35.6377 63.2256 35.5732C63.1934 35.4812 63.1639 35.3886 63.1387 35.2949C62.9921 34.7513 62.9622 34.1828 63.0488 33.6289C63.0551 33.5885 63.0618 33.5481 63.0693 33.5078C63.0735 33.4856 63.0785 33.4636 63.083 33.4414C63.091 33.4026 63.0993 33.3638 63.1084 33.3252C63.113 33.3056 63.1181 33.2861 63.123 33.2666C63.1491 33.1635 63.1786 33.0611 63.2129 32.96C63.2216 32.9344 63.231 32.9092 63.2402 32.8838C63.2528 32.8493 63.2648 32.8145 63.2783 32.7803C63.2908 32.7487 63.3051 32.7178 63.3184 32.6865C63.3285 32.6625 63.338 32.6381 63.3486 32.6143C63.3621 32.5841 63.3763 32.5543 63.3906 32.5244C63.4066 32.491 63.4235 32.4579 63.4404 32.4248C63.4508 32.4046 63.461 32.3843 63.4717 32.3643C63.4933 32.3238 63.516 32.2839 63.5391 32.2441C63.5466 32.2312 63.5538 32.218 63.5615 32.2051C63.5858 32.1643 63.6109 32.124 63.6367 32.084C63.6489 32.065 63.6613 32.0461 63.6738 32.0273C63.6985 31.9905 63.724 31.9541 63.75 31.918C63.7603 31.9036 63.7707 31.8893 63.7812 31.875C63.8494 31.7828 63.9219 31.6928 63.999 31.6055C64.0155 31.5868 64.032 31.5682 64.0488 31.5498C64.0752 31.521 64.1025 31.493 64.1299 31.4648C64.1413 31.4531 64.1525 31.4413 64.1641 31.4297L64.2197 31.374C64.2374 31.3569 64.2555 31.34 64.2734 31.3232C64.2951 31.3031 64.3169 31.2833 64.3389 31.2637C64.3672 31.2384 64.396 31.2138 64.4248 31.1895C64.4455 31.172 64.4663 31.1547 64.4873 31.1377C64.5162 31.1143 64.5458 31.0918 64.5752 31.0693C64.6536 31.0094 64.7329 30.9518 64.8145 30.8984C64.8454 30.8782 64.8769 30.8591 64.9082 30.8398C64.9294 30.8268 64.9503 30.8134 64.9717 30.8008C65.0083 30.7792 65.0459 30.7596 65.083 30.7393C65.1051 30.7272 65.1271 30.7148 65.1494 30.7031C65.236 30.6579 65.3241 30.6166 65.4131 30.5781C65.4462 30.5638 65.4793 30.5495 65.5127 30.5361C65.607 30.4984 65.7025 30.4648 65.7988 30.4346C65.8794 30.4093 65.9603 30.3853 66.042 30.3652C66.0741 30.3574 66.1064 30.3508 66.1387 30.3438C66.238 30.3219 66.338 30.3042 66.4385 30.29C66.5442 30.2751 66.6504 30.2642 66.7568 30.2578C66.8037 30.255 66.8506 30.2531 66.8975 30.252C66.9222 30.2513 66.9469 30.2502 66.9717 30.25H66.9893C67.0091 30.2499 67.029 30.2507 67.0488 30.251Z" fill="black"/>
</g>
</svg>
