<svg width="120" height="120" viewBox="0 0 120 120" fill="none" xmlns="http://www.w3.org/2000/svg">
<g id="thickness=Bold, name=communicate_messages, mode=fill">
<path id="S1" d="M99 42.5C105.904 42.5 111.5 48.0964 111.5 55V99.5449C111.5 108.86 101.677 114.902 93.3633 110.702L77.8721 102.876C77.3827 102.629 76.8421 102.5 76.2939 102.5H45C38.0964 102.5 32.5 96.9036 32.5 90V81.0732L41.8477 76H74C85.0457 76 94 67.0457 94 56V42.5H99ZM74 8.5C80.9036 8.5 86.5 14.0964 86.5 21V56C86.5 62.9036 80.9036 68.5 74 68.5H40.8311C40.2479 68.5001 39.6736 68.6456 39.1611 68.9238L25.9639 76.0889C17.765 80.5398 7.81681 74.7662 7.50781 65.5449L7.5 65.1035V21C7.5 14.0964 13.0964 8.5 20 8.5H74Z" fill="black"/>
</g>
</svg>
