<svg width="120" height="120" viewBox="0 0 120 120" fill="none" xmlns="http://www.w3.org/2000/svg">
<g id="thickness=Light, name=communicate_messageAdd, mode=default">
<path id="N1" d="M102 15C108.075 15 113 19.9249 113 26V82C113 82.5742 112.955 83.138 112.87 83.6885C111.422 81.9781 109.348 80.8162 107 80.5566V26C107 23.2386 104.761 21 102 21H18C15.2386 21 13 23.2386 13 26V82C13 82.1063 13.0034 82.2115 13.0098 82.3154L13.0215 82.5L13.0098 82.6846C13.0034 82.7885 13 82.8937 13 83V97.3506C13 101.171 17.1105 103.58 20.4434 101.714L44.2129 88.4023C45.8549 87.4828 47.7059 87 49.5879 87H59.3545C59.1253 87.7939 59 88.6323 59 89.5C59 90.7414 59.2515 91.9241 59.7061 93H49.5879C48.7324 93 47.8909 93.2197 47.1445 93.6377L23.375 106.948C16.0426 111.054 7 105.754 7 97.3506V83C7 82.8326 7.00524 82.6659 7.0127 82.5C7.00524 82.334 7 82.1674 7 82V26C7 19.9249 11.9249 15 18 15H102ZM70 60C71.6569 60 73 61.3431 73 63C73 64.6569 71.6569 66 70 66H30C28.3431 66 27 64.6569 27 63C27 61.3431 28.3431 60 30 60H70ZM90 44C91.6569 44 93 45.3431 93 47C93 48.6569 91.6569 50 90 50H30C28.3431 50 27 48.6569 27 47C27 45.3431 28.3431 44 30 44H90Z" fill="black"/>
<path id="S1" d="M87 67.5C88.6569 67.5 90 68.8431 90 70.5V86.5H106C107.657 86.5 109 87.8431 109 89.5C109 91.1569 107.657 92.5 106 92.5H90V108.5C90 110.157 88.6569 111.5 87 111.5C85.3431 111.5 84 110.157 84 108.5V92.5H68C66.3431 92.5 65 91.1569 65 89.5C65 87.8431 66.3431 86.5 68 86.5H84V70.5C84 68.8431 85.3431 67.5 87 67.5Z" fill="black"/>
</g>
</svg>
