<svg width="120" height="120" viewBox="0 0 120 120" fill="none" xmlns="http://www.w3.org/2000/svg">
<g id="thickness=Standard, name=communicate_send, mode=default">
<path id="S1" d="M10.0684 23.4844C8.21717 13.7655 18.2608 6.10733 27.1426 10.4658L106.128 49.2275C115.079 53.6204 115.079 66.3796 106.128 70.7725L27.1426 109.534C18.2608 113.893 8.21715 106.235 10.0684 96.5156L14.3272 74.1563C15.0785 70.2115 18.1166 67.0986 22.042 66.252L46.4961 60.9775C46.8723 60.8964 47.0171 60.7498 47.0928 60.6484C47.1959 60.5103 47.2852 60.2845 47.2852 60C47.2852 59.7155 47.1959 59.4897 47.0928 59.3516C47.0171 59.2503 46.8723 59.1036 46.4961 59.0225L22.042 53.7481C18.1166 52.9014 15.0785 49.7885 14.3272 45.8438L10.0684 23.4844ZM23.6182 17.6484C20.6576 16.1956 17.3097 18.7477 17.9268 21.9873L22.1856 44.3467C22.3358 45.1356 22.9435 45.7583 23.7285 45.9277L48.1826 51.2022C57.6526 53.2447 57.6525 66.7553 48.1826 68.7979L23.7285 74.0723C22.9435 74.2417 22.3358 74.8644 22.1856 75.6533L17.9268 98.0127C17.3097 101.252 20.6575 103.804 23.6182 102.352L102.604 63.5908C105.587 62.1265 105.587 57.8735 102.604 56.4092L23.6182 17.6484Z" fill="black"/>
</g>
</svg>
