<svg width="120" height="120" viewBox="0 0 120 120" fill="none" xmlns="http://www.w3.org/2000/svg">
<g id="thickness=Bold, name=communicate_mention, mode=default">
<path id="Union" fill-rule="evenodd" clip-rule="evenodd" d="M13.5 60C13.5 34.3188 34.3188 13.5 60 13.5C85.6812 13.5 106.5 34.3188 106.5 60C106.5 63.2487 105.707 68.9215 103.822 73.6366C101.776 78.753 99.4474 80.5 97.5 80.5C95.8962 80.5 94.0229 79.5738 92.3086 75.9939C90.5805 72.3852 89.5 66.8768 89.5 60C89.5 54.7822 89.6294 51.8611 90.1216 49.0174C90.6189 46.1438 91.5128 43.1917 93.2691 37.923C94.055 35.5653 92.7808 33.0168 90.423 32.2309C88.0653 31.445 85.5168 32.7192 84.7309 35.077C83.9892 37.302 83.3629 39.2225 82.8397 40.974C77.2509 33.9803 68.6487 29.5 59 29.5C42.1553 29.5 28.5 43.1553 28.5 60C28.5 76.8447 42.1553 90.5 59 90.5C69.0147 90.5 77.902 85.6733 83.4626 78.2193C83.6917 78.7904 83.9345 79.3447 84.1914 79.8811C86.7271 85.1762 91.1038 89.5 97.5 89.5C105.553 89.5 109.974 82.4902 112.178 76.9781C114.543 71.0647 115.5 64.2376 115.5 60C115.5 29.3482 90.6518 4.5 60 4.5C29.3482 4.5 4.5 29.3482 4.5 60C4.5 90.6518 29.3482 115.5 60 115.5C70.5543 115.5 80.4333 112.55 88.8416 107.426C90.9639 106.133 91.636 103.364 90.3428 101.242C89.0496 99.1194 86.2808 98.4473 84.1584 99.7405C77.1209 104.029 68.8559 106.5 60 106.5C34.3188 106.5 13.5 85.6812 13.5 60ZM80.5 60C80.5 48.1259 70.8741 38.5 59 38.5C47.1259 38.5 37.5 48.1259 37.5 60C37.5 71.8741 47.1259 81.5 59 81.5C70.8741 81.5 80.5 71.8741 80.5 60Z" fill="black"/>
</g>
</svg>
