<svg width="120" height="120" viewBox="0 0 120 120" fill="none" xmlns="http://www.w3.org/2000/svg">
<g id="thickness=Standard, name=communicate_like, mode=fill">
<path id="S1" d="M19.5 49C24.7467 49 29 53.2533 29 58.5V100.5C29 105.747 24.7467 110 19.5 110C14.2533 110 10 105.747 10 100.5V58.5C10 53.2533 14.2533 49 19.5 49ZM62.5 9.5C68.0229 9.5 72.5 13.9772 72.5 19.5V47C72.5 48.1046 73.3954 49 74.5 49H100C106.627 49 112 54.3726 112 61V71.5908C112 72.8146 111.812 74.03 111.445 75.1953L111.277 75.6914L104.067 95.5186C100.906 104.212 92.6435 110 83.3926 110H49C42.3726 110 37 104.627 37 98V54.5137C37 53.0135 37.2811 51.5264 37.8291 50.1299L50.7842 17.1162L50.9609 16.6904C52.8647 12.3362 57.1738 9.5 61.9551 9.5H62.5Z" fill="black"/>
</g>
</svg>
