<svg width="120" height="120" viewBox="0 0 120 120" fill="none" xmlns="http://www.w3.org/2000/svg">
<g id="thickness=Standard, name=communicate_send, mode=fill">
<path id="S1" d="M10.0684 23.4844C8.21717 13.7655 18.2608 6.10733 27.1426 10.4658L106.128 49.2275C115.079 53.6204 115.079 66.3796 106.128 70.7725L27.1426 109.534C18.2608 113.893 8.21715 106.235 10.0684 96.5156L14.3272 74.1563C15.0785 70.2115 18.1166 67.0986 22.042 66.252L46.4961 60.9775C46.8723 60.8964 47.0171 60.7498 47.0928 60.6484C47.1959 60.5103 47.2852 60.2845 47.2852 60C47.2852 59.7155 47.1959 59.4897 47.0928 59.3516C47.0171 59.2503 46.8723 59.1036 46.4961 59.0225L22.042 53.7481C18.1166 52.9014 15.0785 49.7885 14.3272 45.8438L10.0684 23.4844Z" fill="black"/>
</g>
</svg>
