<svg width="120" height="120" viewBox="0 0 120 120" fill="none" xmlns="http://www.w3.org/2000/svg">
<g id="thickness=Light, name=communicate_mailOpen, mode=fill">
<path id="S1" d="M53.9854 10.3446C57.6399 7.95804 62.3601 7.95803 66.0146 10.3446L77.7373 17.9999H87C93.0751 17.9999 98 22.9248 98 28.9999V31.2323L107.015 37.12C110.125 39.1512 112 42.6153 112 46.33V98.9999C112 105.075 107.075 110 101 110H19C12.925 110 8.00016 105.075 8 98.9999V46.33C8.00011 42.6153 9.87516 39.1512 12.9854 37.12L22 31.2323V28.9999C22 22.9248 26.9249 17.9999 33 17.9999H42.2627L53.9854 10.3446ZM33 23.9999C30.2386 23.9999 28 26.2385 28 28.9999V60.5741L57.4531 78.0068C59.0236 78.9362 60.9764 78.9362 62.5469 78.0068L92 60.5741V28.9999C92 26.2385 89.7614 23.9999 87 23.9999H33ZM16.2656 42.1435C14.852 43.0667 14.0001 44.6416 14 46.33V49.4384C14.0001 51.2053 14.9327 52.8411 16.4531 53.7411L22 57.0234V38.3984L16.2656 42.1435ZM98 57.0234L103.547 53.7411C105.067 52.8411 106 51.2053 106 49.4384V46.33C106 44.6416 105.148 43.0667 103.734 42.1435L98 38.3984V57.0234ZM62.7344 15.3681C61.0732 14.2832 58.9268 14.2832 57.2656 15.3681L53.2354 17.9999H66.7646L62.7344 15.3681Z" fill="black"/>
</g>
</svg>
