<svg width="120" height="120" viewBox="0 0 120 120" fill="none" xmlns="http://www.w3.org/2000/svg">
<g id="thickness=Bold, name=communicate_messageVoice, mode=default">
<path id="N1" fill-rule="evenodd" clip-rule="evenodd" d="M19 22.5C17.067 22.5 15.5 24.067 15.5 26V82C15.5 82.0755 15.5023 82.1498 15.5068 82.223L15.5239 82.5L15.5068 82.777C15.5023 82.8502 15.5 82.9245 15.5 83V97.8404C15.5 100.465 18.2813 102.156 20.6111 100.947L47.6968 86.9031C49.4747 85.9812 51.4481 85.5 53.4507 85.5H101C102.933 85.5 104.5 83.933 104.5 82V26C104.5 24.067 102.933 22.5 101 22.5H19ZM6.5 26C6.5 19.0964 12.0964 13.5 19 13.5H101C107.904 13.5 113.5 19.0964 113.5 26V82C113.5 88.9036 107.904 94.5 101 94.5H53.4507C52.89 94.5 52.3375 94.6347 51.8396 94.8929L24.754 108.937C16.4333 113.252 6.5 107.213 6.5 97.8404V83C6.5 82.8328 6.50331 82.6661 6.50988 82.5C6.50331 82.3339 6.5 82.1672 6.5 82V26Z" fill="black"/>
<path id="S4W" fill-rule="evenodd" clip-rule="evenodd" d="M76 36C78.4853 36 80.5 38.0147 80.5 40.5V70.5C80.5 72.9853 78.4853 75 76 75C73.5147 75 71.5 72.9853 71.5 70.5V40.5C71.5 38.0147 73.5147 36 76 36Z" fill="black"/>
<path id="S2W" fill-rule="evenodd" clip-rule="evenodd" d="M44 39C41.5147 39 39.5 41.0147 39.5 43.5V67.5C39.5 69.9853 41.5147 72 44 72C46.4853 72 48.5 69.9853 48.5 67.5V43.5C48.5 41.0147 46.4853 39 44 39Z" fill="black"/>
<path id="S3W" fill-rule="evenodd" clip-rule="evenodd" d="M60 44C62.4853 44 64.5 46.0147 64.5 48.5V62.5C64.5 64.9853 62.4853 67 60 67C57.5147 67 55.5 64.9853 55.5 62.5V48.5C55.5 46.0147 57.5147 44 60 44Z" fill="black"/>
<path id="S5W" fill-rule="evenodd" clip-rule="evenodd" d="M92 45C94.4853 45 96.5 47.0147 96.5 49.5V61.5C96.5 63.9853 94.4853 66 92 66C89.5147 66 87.5 63.9853 87.5 61.5V49.5C87.5 47.0147 89.5147 45 92 45Z" fill="black"/>
<path id="S1W" fill-rule="evenodd" clip-rule="evenodd" d="M28 47C25.5147 47 23.5 49.0147 23.5 51.5V59.5C23.5 61.9853 25.5147 64 28 64C30.4853 64 32.5 61.9853 32.5 59.5V51.5C32.5 49.0147 30.4853 47 28 47Z" fill="black"/>
</g>
</svg>
