<svg width="120" height="120" viewBox="0 0 120 120" fill="none" xmlns="http://www.w3.org/2000/svg">
<g id="thickness=Light, name=communicate_mention, mode=default">
<path id="Union" fill-rule="evenodd" clip-rule="evenodd" d="M11 60C11 32.938 32.938 11 60 11C87.062 11 109 32.938 109 60C109 63.4869 108.163 69.4747 106.156 74.4936C104.042 79.7802 101.298 82.4902 98.2353 82.4902C95.6771 82.4902 93.0765 80.8516 90.9556 76.8769C88.84 72.9121 87.5 67.064 87.5 60C87.5 54.8074 87.8625 51.75 88.608 48.7411C89.157 46.5255 89.9024 44.3541 90.933 41.3519L90.9331 41.3518C91.3727 40.071 91.8643 38.639 92.4147 36.9879C92.9386 35.4161 92.0891 33.7171 90.5173 33.1932C88.9455 32.6692 87.2465 33.5187 86.7226 35.0905C86.2338 36.5567 85.7753 37.8927 85.3494 39.1333L85.3494 39.1334C84.5838 41.3637 83.9241 43.2856 83.3854 45.1013C78.3169 36.6535 69.0687 31 58.5 31C42.4837 31 29.5 43.9837 29.5 60C29.5 76.0163 42.4837 89 58.5 89C69.1856 89 78.5214 83.2207 83.5521 74.6172C84.1364 76.4596 84.8414 78.1635 85.662 79.7015C88.3696 84.7758 92.6367 88.4902 98.2353 88.4902C105.368 88.4902 109.507 82.2717 111.727 76.7214C114.053 70.9035 115 64.1462 115 60C115 29.6243 90.3757 5 60 5C29.6243 5 5 29.6243 5 60C5 90.3757 29.6243 115 60 115C70.4615 115 80.2494 112.076 88.5806 107C89.9955 106.138 90.4436 104.292 89.5815 102.877C88.7193 101.462 86.8735 101.014 85.4586 101.876C78.0412 106.396 69.3293 109 60 109C32.938 109 11 87.062 11 60ZM35.5 60C35.5 47.2975 45.7975 37 58.5 37C71.2025 37 81.5 47.2975 81.5 60C81.5 72.7025 71.2025 83 58.5 83C45.7975 83 35.5 72.7025 35.5 60Z" fill="black"/>
</g>
</svg>
