<svg width="120" height="120" viewBox="0 0 120 120" fill="none" xmlns="http://www.w3.org/2000/svg">
<g id="thickness=Light, name=communicate_like, mode=default">
<path id="S1" d="M60.5 10.5C65.4706 10.5 69.5 14.5294 69.5 19.5V47C69.5 48.6569 70.8431 50 72.5 50H101C107.075 50 112 54.9249 112 61V71.5908C112 72.7124 111.829 73.8265 111.492 74.8945L111.338 75.3496L104.128 95.1768C101.11 103.476 93.2231 109 84.3926 109H22C15.9249 109 11 104.075 11 98V61C11 54.9249 15.9249 50 22 50H36.9541L49.7148 17.4814L49.877 17.0908C51.6222 13.0996 55.5723 10.5 59.9551 10.5H60.5ZM22 56C19.2386 56 17 58.2386 17 61V98C17 100.761 19.2386 103 22 103H36V56H22ZM59.9551 16.5C58.0272 16.5 56.2836 17.6067 55.4541 19.3223L55.2998 19.6738L42 53.5674V103H84.3926C90.7001 103 96.3337 99.0537 98.4893 93.126L105.699 73.2988L105.77 73.0928C105.922 72.6073 106 72.1007 106 71.5908V61C106 58.2386 103.761 56 101 56H72.5C67.5294 56 63.5 51.9706 63.5 47V19.5C63.5 17.8431 62.1569 16.5 60.5 16.5H59.9551Z" fill="black"/>
</g>
</svg>
