<svg width="120" height="120" viewBox="0 0 120 120" fill="none" xmlns="http://www.w3.org/2000/svg">
<g id="thickness=Bold, name=communicate_messageAdd, mode=fill">
<path id="N1" d="M101 13.5C107.904 13.5 113.5 19.0964 113.5 26V80.1357C111.445 78.488 108.839 77.5 106 77.5H99V70.5C99 63.8726 93.6274 58.5 87 58.5C80.3726 58.5 75 63.8726 75 70.5V77.5H68C61.3726 77.5 56 82.8726 56 89.5C56 91.285 56.3928 92.9775 57.0918 94.5H53.4512C52.8905 94.5 52.3376 94.6345 51.8398 94.8926L24.7539 108.938C16.4334 113.252 6.50033 107.213 6.5 97.8408V83C6.5 82.8327 6.50514 82.6661 6.51172 82.5C6.50514 82.3339 6.5 82.1673 6.5 82V26C6.5 19.0964 12.0964 13.5 19 13.5H101ZM33 61.5C30.5147 61.5 28.5 63.5147 28.5 66C28.5 68.4853 30.5147 70.5 33 70.5H67C69.4853 70.5 71.5 68.4853 71.5 66C71.5 63.5147 69.4853 61.5 67 61.5H33ZM33 41.5C30.5147 41.5 28.5 43.5147 28.5 46C28.5 48.4853 30.5147 50.5 33 50.5H87C89.4853 50.5 91.5 48.4853 91.5 46C91.5 43.5147 89.4853 41.5 87 41.5H33Z" fill="black"/>
<path id="S1" d="M87 66C89.4853 66 91.5 68.0147 91.5 70.5V85H106C108.485 85 110.5 87.0147 110.5 89.5C110.5 91.9853 108.485 94 106 94H91.5V108.5C91.5 110.985 89.4853 113 87 113C84.5147 113 82.5 110.985 82.5 108.5V94H68C65.5147 94 63.5 91.9853 63.5 89.5C63.5 87.0147 65.5147 85 68 85H82.5V70.5C82.5 68.0147 84.5147 66 87 66Z" fill="black"/>
</g>
</svg>
