<svg width="120" height="120" viewBox="0 0 120 120" fill="none" xmlns="http://www.w3.org/2000/svg">
<g id="thickness=Standard, name=communicate_phone-default&#38;Light, mode=fill">
<path id="S1" d="M35.1415 12.7959C40.3302 12.1157 45.3615 14.8763 47.5751 19.6182L52.413 29.9824C53.4681 31.8743 54.1513 33.913 54.1513 36.0889C54.1512 38.3052 53.4409 40.3153 52.2724 42.1172C52.2693 42.1225 52.2669 42.1289 52.2636 42.1348C52.2308 42.1918 52.1811 42.2772 52.1181 42.3877C51.9917 42.6094 51.8095 42.932 51.5888 43.3272C51.1462 44.1197 50.5547 45.1978 49.953 46.3486C49.3472 47.5074 48.7518 48.7011 48.2909 49.7334C48.0605 50.2495 47.8783 50.6907 47.7499 51.0449C47.6096 51.4319 47.5822 51.5805 47.5868 51.5527C47.5948 51.505 47.547 51.8651 47.7391 52.7256C47.9183 53.5279 48.2678 54.5897 48.8632 55.8555C50.0514 58.3814 52.1566 61.5834 55.5741 64.9795C62.5915 71.9527 67.4432 72.7438 69.1835 72.5264C70.1081 72.4107 71.9032 71.6722 73.8876 70.625C74.7852 70.1513 75.5901 69.687 76.1708 69.3398C76.4596 69.1672 76.6897 69.0251 76.8446 68.9287C76.9219 68.8806 76.9803 68.8439 77.0175 68.8203C77.036 68.8086 77.0497 68.7999 77.0575 68.7949L77.0643 68.791V68.792C79.2725 67.3428 81.8783 66.9629 83.9452 66.9629C86.0613 66.9629 88.1945 67.3595 89.8085 68.002H89.8095L101.289 72.54C107.298 74.9155 110.348 81.6231 108.187 87.7129L104.425 98.3154C101.927 105.353 94.8927 109.727 87.4764 108.854L82.1141 108.224L81.9989 108.203C71.2965 106.303 63.1906 103.279 56.0448 98.9717C49.3959 94.9639 43.7255 89.9295 37.6942 84.001L36.4823 82.8037C23.0494 69.4556 12.8644 49.3226 11.2362 33.2891L11.2186 33.1192L11.2157 32.9492L11.1728 30.2354C11.0422 22.1061 17.0285 15.1715 25.0897 14.1143L35.1415 12.7959Z" fill="black"/>
</g>
</svg>
