<svg width="120" height="120" viewBox="0 0 120 120" fill="none" xmlns="http://www.w3.org/2000/svg">
<g id="thickness=Bold, name=communicate_mailOpen, mode=default">
<path id="S1" d="M52.7744 6.60365C57.1033 3.53739 62.8968 3.53739 67.2256 6.60365L81.1973 16.5001H86C92.8211 16.5001 98.3645 21.9635 98.4961 28.7531L107.226 34.9366C110.534 37.2801 112.5 41.0827 112.5 45.1368V100C112.5 106.904 106.903 112.5 100 112.5H20C13.0965 112.5 7.50013 106.904 7.5 100V45.1368C7.50008 41.0827 9.46618 37.2801 12.7744 34.9366L21.5029 28.7531C21.6345 21.9635 27.1789 16.5001 34 16.5001H38.8018L52.7744 6.60365ZM94 68.7159V68.715L66.4639 85.3517C62.4891 87.7531 57.5109 87.7531 53.5361 85.3517L26 68.715V68.7159L16.5 62.9757V100C16.5001 101.933 18.0671 103.5 20 103.5H100C101.933 103.5 103.5 101.933 103.5 100V62.9757L94 68.7159ZM34 25.5001C32.067 25.5001 30.5 27.0671 30.5 29.0001V60.9191L58.1904 77.6485C59.3033 78.3208 60.6967 78.3208 61.8096 77.6485L89.5 60.9191V29.0001C89.5 27.0671 87.933 25.5001 86 25.5001H34ZM17.9766 42.2814C17.0506 42.9375 16.5001 44.0019 16.5 45.1368V50.4864C16.5 50.563 16.5029 50.6392 16.5078 50.715C16.5227 50.9425 16.5588 51.1662 16.6162 51.3829C16.6544 51.5271 16.7019 51.6684 16.7578 51.8058C16.8138 51.9434 16.8792 52.077 16.9521 52.2062C17.0616 52.4001 17.1892 52.5837 17.334 52.754C17.575 53.0375 17.8628 53.2846 18.1904 53.4825L21.5 55.4816V39.7853L17.9766 42.2814ZM98.5 55.4816L101.81 53.4825C102.137 53.2846 102.425 53.0375 102.666 52.754C102.811 52.5837 102.938 52.4001 103.048 52.2062C103.121 52.077 103.186 51.9434 103.242 51.8058C103.298 51.6684 103.346 51.5271 103.384 51.3829C103.441 51.1662 103.477 50.9425 103.492 50.715C103.497 50.6392 103.5 50.563 103.5 50.4864V45.1368C103.5 44.0019 102.949 42.9375 102.023 42.2814L98.5 39.7853V55.4816ZM62.0234 13.9474C60.8114 13.0888 59.1886 13.0888 57.9766 13.9474L54.373 16.5001H65.627L62.0234 13.9474Z" fill="black"/>
</g>
</svg>
