<svg width="120" height="120" viewBox="0 0 120 120" fill="none" xmlns="http://www.w3.org/2000/svg">
<g id="thickness=Light, name=communicate_messageAdd, mode=fill">
<path id="N1" d="M102 15C108.075 15 113 19.9249 113 26V82C113 82.5742 112.955 83.138 112.87 83.6885C111.219 81.7388 108.755 80.5 106 80.5H96V70.5C96 65.5294 91.9706 61.5 87 61.5C82.0294 61.5 78 65.5294 78 70.5V80.5H68C63.0294 80.5 59 84.5294 59 89.5C59 90.7414 59.2515 91.9241 59.7061 93H49.5879C48.7324 93 47.8909 93.2197 47.1445 93.6377L23.375 106.948C16.0426 111.054 7 105.754 7 97.3506V83C7 82.8326 7.00524 82.6659 7.0127 82.5C7.00524 82.334 7 82.1674 7 82V26C7 19.9249 11.9249 15 18 15H102ZM30 60C28.3431 60 27 61.3431 27 63C27 64.6569 28.3431 66 30 66H70C71.6569 66 73 64.6569 73 63C73 61.3431 71.6569 60 70 60H30ZM30 44C28.3431 44 27 45.3431 27 47C27 48.6569 28.3431 50 30 50H90C91.6569 50 93 48.6569 93 47C93 45.3431 91.6569 44 90 44H30Z" fill="black"/>
<path id="S1" d="M87 67.5C88.6569 67.5 90 68.8431 90 70.5V86.5H106C107.657 86.5 109 87.8431 109 89.5C109 91.1569 107.657 92.5 106 92.5H90V108.5C90 110.157 88.6569 111.5 87 111.5C85.3431 111.5 84 110.157 84 108.5V92.5H68C66.3431 92.5 65 91.1569 65 89.5C65 87.8431 66.3431 86.5 68 86.5H84V70.5C84 68.8431 85.3431 67.5 87 67.5Z" fill="black"/>
</g>
</svg>
