<svg width="120" height="120" viewBox="0 0 120 120" fill="none" xmlns="http://www.w3.org/2000/svg">
<g id="thickness=Bold, name=communicate_like, mode=fill">
<path id="S1" d="M19.25 48.5C24.6348 48.5 29 52.8652 29 58.25V100.75C29 106.135 24.6348 110.5 19.25 110.5C13.8652 110.5 9.5 106.135 9.5 100.75V58.25C9.5 52.8652 13.8652 48.5 19.25 48.5ZM63 9C68.799 9 73.5 13.701 73.5 19.5V47C73.5 47.8284 74.1716 48.5 75 48.5H99C105.904 48.5 111.5 54.0964 111.5 61V71.5908C111.5 72.8656 111.305 74.1318 110.923 75.3457L110.747 75.8623L103.538 95.6895C100.305 104.581 91.8538 110.5 82.3926 110.5H49.5C42.5964 110.5 37 104.904 37 98V54.5137C37 52.951 37.2934 51.4019 37.8643 49.9473L50.8184 16.9336L51.0029 16.4902C52.986 11.9545 57.4745 9 62.4551 9H63Z" fill="black"/>
</g>
</svg>
