<svg width="120" height="120" viewBox="0 0 120 120" fill="none" xmlns="http://www.w3.org/2000/svg">
<g id="thickness=Standard, name=communicate_emoji, mode=fill">
<path id="S1" fill-rule="evenodd" clip-rule="evenodd" d="M5 60C5 29.6243 29.6243 5 60 5C90.3757 5 115 29.6243 115 60C115 90.3757 90.3757 115 60 115C29.6243 115 5 90.3757 5 60ZM43 51C46.3137 51 49 48.3137 49 45C49 41.6863 46.3137 39 43 39C39.6863 39 37 41.6863 37 45C37 48.3137 39.6863 51 43 51ZM83 45C83 48.3137 80.3137 51 77 51C73.6863 51 71 48.3137 71 45C71 41.6863 73.6863 39 77 39C80.3137 39 83 41.6863 83 45ZM31.0392 63.1171C33.1837 62.5864 35.3522 63.8947 35.8829 66.0392C38.5823 76.9489 48.3754 85 60 85C71.6246 85 81.4176 76.9489 84.1171 66.0392C84.6477 63.8947 86.8163 62.5864 88.9607 63.1171C91.1052 63.6477 92.4135 65.8163 91.8829 67.9607C88.3288 82.3244 75.4214 93 60 93C44.5785 93 31.6712 82.3244 28.1171 67.9607C27.5864 65.8163 28.8947 63.6477 31.0392 63.1171Z" fill="black"/>
</g>
</svg>
