<svg width="120" height="120" viewBox="0 0 120 120" fill="none" xmlns="http://www.w3.org/2000/svg">
<g id="thickness=Light, name=communicate_mention, mode=default">
<path id="S1" fill-rule="evenodd" clip-rule="evenodd" d="M18 21C15.2386 21 13 23.2386 13 26V82C13 84.7614 15.2386 87 18 87H35.6863C38.6037 87 41.4016 88.1589 43.4645 90.2218L56.3248 103.082C58.3112 105.069 61.5437 105.029 63.481 102.995L75.4631 90.4138C77.5392 88.2338 80.4181 87 83.4286 87H102C104.761 87 107 84.7614 107 82V26C107 23.2386 104.761 21 102 21H18ZM7 26C7 19.9249 11.9249 15 18 15H102C108.075 15 113 19.9249 113 26V82C113 88.0751 108.075 93 102 93H83.4286C82.0602 93 80.7516 93.5608 79.8079 94.5517L67.8259 107.133C63.5637 111.608 56.4522 111.695 52.0822 107.325L39.2218 94.4645C38.2841 93.5268 37.0124 93 35.6863 93H18C11.9249 93 7 88.0751 7 82V26Z" fill="black"/>
</g>
</svg>
