<svg width="120" height="120" viewBox="0 0 120 120" fill="none" xmlns="http://www.w3.org/2000/svg">
<g id="thickness=Light, name=communicate_hashtag, mode=default">
<path id="S1" d="M39.0459 11.4769C39.3349 9.84558 40.8921 8.75734 42.5234 9.04622C44.1547 9.33526 45.243 10.8924 44.9541 12.5238L41.5049 32.0003H89.4111L93.0459 11.4769C93.3349 9.84558 94.8921 8.75734 96.5234 9.04622C98.1547 9.33526 99.243 10.8924 98.9541 12.5238L95.5049 32.0003H108C109.657 32.0003 111 33.3435 111 35.0003C111 36.657 109.657 38.0003 108 38.0003H94.4424L86.6504 82.0003H101C102.657 82.0003 104 83.3435 104 85.0003C104 86.657 102.657 88.0003 101 88.0003H85.5889L81.9541 108.524C81.6649 110.155 80.1078 111.243 78.4766 110.954C76.8454 110.665 75.7572 109.108 76.0459 107.477L79.4951 88.0003H31.5889L27.9541 108.524C27.6649 110.155 26.1078 111.243 24.4766 110.954C22.8454 110.665 21.7572 109.108 22.0459 107.477L25.4951 88.0003H12C10.3433 88.0003 9.00023 86.657 9 85.0003C9 83.3435 10.3431 82.0003 12 82.0003H26.5576L34.3486 38.0003H19C17.3433 38.0003 16.0002 36.657 16 35.0003C16 33.3435 17.3431 32.0003 19 32.0003H35.4111L39.0459 11.4769ZM32.6504 82.0003H80.5576L88.3486 38.0003H40.4424L32.6504 82.0003Z" fill="black"/>
</g>
</svg>
