<svg width="120" height="120" viewBox="0 0 120 120" fill="none" xmlns="http://www.w3.org/2000/svg">
<g id="thickness=Standard, name=communicate_messages, mode=default">
<path id="S1" d="M74 9C80.6274 9 86 14.3726 86 21V43H99C105.627 43 111 48.3726 111 55V100.339C111 109.354 101.43 115.15 93.4404 110.974L79.0586 103.455L78.8438 103.351C78.4085 103.155 77.9418 103.04 77.4658 103.009L77.2275 103H45C38.3726 103 33 97.6274 33 91V72.3105L25.8896 76.3164C17.8903 80.8221 8 75.0414 8 65.8604V21C8 14.3726 13.3726 9 20 9H74ZM86 57C86 63.6274 80.6274 69 74 69H41V91C41 93.2091 42.7909 95 45 95H77.2705C79.0646 95.0098 80.8325 95.4219 82.4443 96.2041L82.7646 96.3652L97.1465 103.884C99.8097 105.276 103 103.344 103 100.339V55C103 52.7909 101.209 51 99 51H86V57ZM20 17C17.7909 17 16 18.7909 16 21V65.8604C16 68.9207 19.2965 70.8476 21.9629 69.3457L34.0381 62.5439L34.375 62.3623C36.0682 61.4785 37.9493 61.0104 39.8623 61H74C76.2091 61 78 59.2091 78 57V21C78 18.7909 76.2091 17 74 17H20Z" fill="black"/>
</g>
</svg>
