<svg width="120" height="120" viewBox="0 0 120 120" fill="none" xmlns="http://www.w3.org/2000/svg">
<g id="thickness=Light, name=communicate_message, mode=default">
<path id="S1" fill-rule="evenodd" clip-rule="evenodd" d="M18 21C15.2386 21 13 23.2386 13 26V82C13 82.1063 13.0033 82.2114 13.0097 82.3154L13.0211 82.5L13.0097 82.6847C13.0033 82.7886 13 82.8937 13 83V97.351C13 101.171 17.1101 103.58 20.443 101.714L44.2129 88.4024C45.8549 87.4829 47.7055 87 49.5875 87H102C104.761 87 107 84.7614 107 82V26C107 23.2386 104.761 21 102 21H18ZM7 26C7 19.9249 11.9249 15 18 15H102C108.075 15 113 19.9249 113 26V82C113 88.0751 108.075 93 102 93H49.5875C48.732 93 47.8909 93.2195 47.1445 93.6375L23.3746 106.949C16.0423 111.055 7 105.755 7 97.351V83C7 82.8326 7.00376 82.6659 7.01122 82.5C7.00376 82.3341 7 82.1674 7 82V26Z" fill="black"/>
<path id="N1" fill-rule="evenodd" clip-rule="evenodd" d="M30 44C28.3431 44 27 45.3431 27 47C27 48.6569 28.3431 50 30 50H90C91.6569 50 93 48.6569 93 47C93 45.3431 91.6569 44 90 44H30ZM30 60C28.3431 60 27 61.3431 27 63C27 64.6569 28.3431 66 30 66H70C71.6569 66 73 64.6569 73 63C73 61.3431 71.6569 60 70 60H30Z" fill="black"/>
</g>
</svg>
