<svg width="120" height="120" viewBox="0 0 120 120" fill="none" xmlns="http://www.w3.org/2000/svg">
<g id="thickness=Bold, name=communicate_message, mode=default">
<path id="S1" fill-rule="evenodd" clip-rule="evenodd" d="M19 22.5C17.067 22.5 15.5 24.067 15.5 26V82C15.5 82.0755 15.5023 82.1498 15.5068 82.223L15.5239 82.5L15.5068 82.777C15.5023 82.8502 15.5 82.9245 15.5 83V97.8404C15.5 100.465 18.2813 102.156 20.6111 100.947L47.6968 86.9031C49.4747 85.9812 51.4481 85.5 53.4507 85.5H101C102.933 85.5 104.5 83.933 104.5 82V26C104.5 24.067 102.933 22.5 101 22.5H19ZM6.5 26C6.5 19.0964 12.0964 13.5 19 13.5H101C107.904 13.5 113.5 19.0964 113.5 26V82C113.5 88.9036 107.904 94.5 101 94.5H53.4507C52.89 94.5 52.3375 94.6347 51.8396 94.8929L24.754 108.937C16.4333 113.252 6.5 107.213 6.5 97.8404V83C6.5 82.8328 6.50331 82.6661 6.50988 82.5C6.50331 82.3339 6.5 82.1672 6.5 82V26Z" fill="black"/>
<path id="N1" fill-rule="evenodd" clip-rule="evenodd" d="M33 41.5C30.5147 41.5 28.5 43.5147 28.5 46C28.5 48.4853 30.5147 50.5 33 50.5H87C89.4853 50.5 91.5 48.4853 91.5 46C91.5 43.5147 89.4853 41.5 87 41.5H33ZM33 61.5C30.5147 61.5 28.5 63.5147 28.5 66C28.5 68.4853 30.5147 70.5 33 70.5H67C69.4853 70.5 71.5 68.4853 71.5 66C71.5 63.5147 69.4853 61.5 67 61.5H33Z" fill="black"/>
</g>
</svg>
