<svg width="120" height="120" viewBox="0 0 120 120" fill="none" xmlns="http://www.w3.org/2000/svg">
<g id="thickness=Bold, name=communicate_messageVoice, mode=fill">
<path id="S1" fill-rule="evenodd" clip-rule="evenodd" d="M6.5 26C6.5 19.0964 12.0964 13.5 19 13.5H101C107.904 13.5 113.5 19.0964 113.5 26V82C113.5 88.9036 107.904 94.5 101 94.5H53.4507C52.89 94.5 52.3375 94.6347 51.8396 94.8929L24.754 108.937C16.4333 113.252 6.5 107.213 6.5 97.8404V83C6.5 82.8328 6.50331 82.6661 6.50988 82.5C6.50331 82.3339 6.5 82.1672 6.5 82V26ZM80.5 40.5C80.5 38.0147 78.4853 36 76 36C73.5147 36 71.5 38.0147 71.5 40.5V70.5C71.5 72.9853 73.5147 75 76 75C78.4853 75 80.5 72.9853 80.5 70.5V40.5ZM39.5 43.5C39.5 41.0147 41.5147 39 44 39C46.4853 39 48.5 41.0147 48.5 43.5V67.5C48.5 69.9853 46.4853 72 44 72C41.5147 72 39.5 69.9853 39.5 67.5V43.5ZM60 44C62.4853 44 64.5 46.0147 64.5 48.5V62.5C64.5 64.9853 62.4853 67 60 67C57.5147 67 55.5 64.9853 55.5 62.5V48.5C55.5 46.0147 57.5147 44 60 44ZM96.5 49.5C96.5 47.0147 94.4853 45 92 45C89.5147 45 87.5 47.0147 87.5 49.5V61.5C87.5 63.9853 89.5147 66 92 66C94.4853 66 96.5 63.9853 96.5 61.5V49.5ZM28 47C25.5147 47 23.5 49.0147 23.5 51.5V59.5C23.5 61.9853 25.5147 64 28 64C30.4853 64 32.5 61.9853 32.5 59.5V51.5C32.5 49.0147 30.4853 47 28 47Z" fill="black"/>
</g>
</svg>
