<svg width="120" height="120" viewBox="0 0 120 120" fill="none" xmlns="http://www.w3.org/2000/svg">
<g id="thickness=Light, name=communicate_messageVoice, mode=fill">
<path id="S1" fill-rule="evenodd" clip-rule="evenodd" d="M7 26C7 19.9249 11.9249 15 18 15H102C108.075 15 113 19.9249 113 26V82C113 88.0751 108.075 93 102 93H49.5875C48.732 93 47.8909 93.2195 47.1445 93.6375L23.3746 106.949C16.0423 111.055 7 105.755 7 97.351V83C7 82.8326 7.00376 82.6659 7.01122 82.5C7.00376 82.3341 7 82.1674 7 82V26ZM78 40.5C78 38.8431 76.6569 37.5 75 37.5C73.3431 37.5 72 38.8431 72 40.5V70.5C72 72.1569 73.3431 73.5 75 73.5C76.6569 73.5 78 72.1569 78 70.5V40.5ZM42 43.5C42 41.8431 43.3431 40.5 45 40.5C46.6569 40.5 48 41.8431 48 43.5V67.5C48 69.1569 46.6569 70.5 45 70.5C43.3431 70.5 42 69.1569 42 67.5V43.5ZM60 45.5C61.6569 45.5 63 46.8431 63 48.5V62.5C63 64.1569 61.6569 65.5 60 65.5C58.3431 65.5 57 64.1569 57 62.5V48.5C57 46.8431 58.3431 45.5 60 45.5ZM92.5 49.5C92.5 47.8431 91.1569 46.5 89.5 46.5C87.8431 46.5 86.5 47.8431 86.5 49.5V61.5C86.5 63.1569 87.8431 64.5 89.5 64.5C91.1569 64.5 92.5 63.1569 92.5 61.5V49.5ZM30 48.5C28.3431 48.5 27 49.8431 27 51.5V59.5C27 61.1569 28.3431 62.5 30 62.5C31.6569 62.5 33 61.1569 33 59.5V51.5C33 49.8431 31.6569 48.5 30 48.5Z" fill="black"/>
</g>
</svg>
