<svg width="120" height="120" viewBox="0 0 120 120" fill="none" xmlns="http://www.w3.org/2000/svg">
<g id="thickness=Bold, name=communicate_like, mode=default">
<path id="S1" d="M60.5 9C66.299 9 71 13.701 71 19.5V47C71 47.8284 71.6716 48.5 72.5 48.5H99C105.904 48.5 111.5 54.0964 111.5 61V71.5908C111.5 72.8656 111.305 74.1318 110.923 75.3457L110.747 75.8623L103.538 95.6895C100.305 104.581 91.8538 110.5 82.3926 110.5H22C15.0964 110.5 9.5 104.904 9.5 98V61C9.5 54.0964 15.0964 48.5 22 48.5H35.9316L48.3184 16.9336L48.5029 16.4902C50.486 11.9545 54.9745 9 59.9551 9H60.5ZM22 57.5C20.067 57.5 18.5 59.067 18.5 61V98C18.5 99.933 20.067 101.5 22 101.5H34.5V57.5H22ZM59.9551 18C58.5155 18 57.2221 18.8816 56.6963 20.2217L43.5 53.8516V101.5H82.3926C88.0693 101.5 93.1391 97.9482 95.0791 92.6133L102.289 72.7871L102.381 72.4951C102.46 72.2006 102.5 71.8966 102.5 71.5908V61C102.5 59.067 100.933 57.5 99 57.5H72.5C66.701 57.5 62 52.799 62 47V19.5C62 18.6716 61.3284 18 60.5 18H59.9551Z" fill="black"/>
</g>
</svg>
