<svg width="120" height="120" viewBox="0 0 120 120" fill="none" xmlns="http://www.w3.org/2000/svg">
<g id="thickness=Standard, name=communicate_mention, mode=default">
<path id="Union" fill-rule="evenodd" clip-rule="evenodd" d="M13 60C13 34.0426 34.0426 13 60 13C85.9574 13 107 34.0426 107 60C107 63.3036 106.198 69.0406 104.286 73.8222C102.231 78.9606 99.7866 81 97.5 81C95.6299 81 93.6176 79.885 91.8577 76.2099C90.0854 72.5091 89 66.9183 89 60C89 54.7786 89.1289 51.821 89.6289 48.9322C90.1335 46.0167 91.0392 43.0315 92.7947 37.7649C93.4933 35.6691 92.3607 33.4039 90.2649 32.7053C88.1691 32.0067 85.9039 33.1393 85.2053 35.2351C84.3278 37.8676 83.6148 40.0652 83.0439 42.0556C77.5732 34.7373 68.8399 30 59 30C42.4315 30 29 43.4315 29 60C29 76.5685 42.4315 90 59 90C69.1795 90 78.1749 84.93 83.5986 77.1774C83.9163 78.0446 84.264 78.8751 84.6423 79.6651C87.1324 84.865 91.3701 89 97.5 89C105.213 89 109.519 82.2825 111.714 76.7925C114.052 70.9457 115 64.1827 115 60C115 29.6243 90.3757 5 60 5C29.6243 5 5 29.6243 5 60C5 90.3757 29.6243 115 60 115C70.46 115 80.2493 112.076 88.5814 106.999C90.4679 105.85 91.0653 103.388 89.9158 101.502C88.7663 99.6154 86.3051 99.018 84.4186 100.167C77.3049 104.502 68.9503 107 60 107C34.0426 107 13 85.9574 13 60ZM81 60C81 47.8497 71.1503 38 59 38C46.8497 38 37 47.8497 37 60C37 72.1503 46.8497 82 59 82C71.1503 82 81 72.1503 81 60Z" fill="black"/>
</g>
</svg>
