<svg width="120" height="120" viewBox="0 0 120 120" fill="none" xmlns="http://www.w3.org/2000/svg">
<g id="thickness=Bold, name=communicate_send, mode=fill">
<path id="S1" d="M10.5776 23.5785C8.64927 13.4545 19.1119 5.47762 28.3638 10.0179L107.348 48.7787C116.672 53.3546 116.672 66.6462 107.348 71.222L28.3638 109.983C19.1119 114.523 8.64948 106.546 10.5776 96.4222L14.8394 74.0453C15.6254 69.9188 18.7954 66.6578 22.898 65.7552L46.8374 60.4886C46.9865 60.4557 47.058 60.4146 47.0825 60.3988C47.108 60.3823 47.1233 60.3666 47.1372 60.348C47.1712 60.3023 47.2299 60.1837 47.23 60.0003C47.23 59.8174 47.1713 59.6987 47.1372 59.6527C47.1234 59.6341 47.1078 59.6183 47.0825 59.6019C47.058 59.5861 46.9865 59.5449 46.8374 59.5121L22.898 54.2455C18.7955 53.3429 15.6255 50.0817 14.8394 45.9554L10.5776 23.5785Z" fill="black"/>
</g>
</svg>
