<svg width="120" height="120" viewBox="0 0 120 120" fill="none" xmlns="http://www.w3.org/2000/svg">
<g id="thickness=Bold, name=communicate_emoji, mode=fill">
<path id="S1" fill-rule="evenodd" clip-rule="evenodd" d="M4.5 60C4.5 29.3482 29.3482 4.5 60 4.5C90.6518 4.5 115.5 29.3482 115.5 60C115.5 90.6518 90.6518 115.5 60 115.5C29.3482 115.5 4.5 90.6518 4.5 60ZM42 52C45.866 52 49 48.866 49 45C49 41.134 45.866 38 42 38C38.134 38 35 41.134 35 45C35 48.866 38.134 52 42 52ZM85 45C85 48.866 81.866 52 78 52C74.134 52 71 48.866 71 45C71 41.134 74.134 38 78 38C81.866 38 85 41.134 85 45ZM30.9191 62.6318C33.3316 62.0349 35.7713 63.5067 36.3682 65.9192C39.0143 76.6131 48.6127 84.5001 60 84.5001C71.3873 84.5001 80.9856 76.6131 83.6317 65.9192C84.2286 63.5067 86.6683 62.0349 89.0808 62.6318C91.4934 63.2288 92.9652 65.6684 92.3682 68.081C88.7607 82.6605 75.6587 93.5001 60 93.5001C44.3412 93.5001 31.2392 82.6605 27.6317 68.0809C27.0347 65.6684 28.5066 63.2288 30.9191 62.6318Z" fill="black"/>
</g>
</svg>
