<svg width="120" height="120" viewBox="0 0 120 120" fill="none" xmlns="http://www.w3.org/2000/svg">
<g id="thickness=Standard, name=communicate_phone-default&#38;Light, mode=default">
<path id="S1" d="M35.1415 12.7959C40.3302 12.1157 45.3615 14.8763 47.5751 19.6182L52.413 29.9824C53.4681 31.8743 54.1513 33.913 54.1513 36.0889C54.1512 38.3052 53.4409 40.3153 52.2724 42.1172C52.2693 42.1225 52.2669 42.1289 52.2636 42.1348C52.2308 42.1918 52.1811 42.2772 52.1181 42.3877C51.9917 42.6094 51.8095 42.932 51.5888 43.3272C51.1462 44.1197 50.5547 45.1978 49.953 46.3486C49.3472 47.5074 48.7518 48.7011 48.2909 49.7334C48.0605 50.2495 47.8783 50.6907 47.7499 51.0449C47.6096 51.4319 47.5822 51.5805 47.5868 51.5527C47.5948 51.505 47.547 51.8651 47.7391 52.7256C47.9183 53.5279 48.2678 54.5897 48.8632 55.8555C50.0514 58.3814 52.1566 61.5834 55.5741 64.9795C62.5915 71.9527 67.4432 72.7438 69.1835 72.5264C70.1081 72.4107 71.9032 71.6722 73.8876 70.625C74.7852 70.1513 75.5901 69.687 76.1708 69.3398C76.4596 69.1672 76.6897 69.0251 76.8446 68.9287C76.9219 68.8806 76.9803 68.8439 77.0175 68.8203C77.036 68.8086 77.0497 68.7999 77.0575 68.7949L77.0643 68.791C79.2725 67.3418 81.8783 66.9629 83.9452 66.9629C86.0613 66.9629 88.1945 67.3595 89.8085 68.002L101.289 72.54C107.298 74.9155 110.348 81.6231 108.187 87.7129L104.425 98.3154C101.927 105.353 94.8927 109.727 87.4764 108.854L82.1141 108.224L81.9989 108.203C71.2965 106.303 63.1906 103.279 56.0448 98.9717C49.3959 94.9639 43.7255 89.9295 37.6942 84.001L36.4823 82.8037C23.0494 69.4556 12.8644 49.3226 11.2362 33.2891L11.2186 33.1192L11.2157 32.9492L11.1728 30.2354C11.0422 22.1061 17.0285 15.1715 25.0897 14.1143L35.1415 12.7959ZM40.3261 23.002C39.5883 21.4214 37.911 20.5009 36.1815 20.7276L26.1298 22.0459C22.0993 22.5746 19.1055 26.042 19.1708 30.1065L19.2108 32.6318C20.6744 46.527 29.8321 64.9176 42.121 77.1289C48.5127 83.4806 53.9373 88.3604 60.1747 92.1201C66.3363 95.8341 73.4585 98.5508 83.2919 100.307L88.411 100.909C92.1191 101.345 95.6367 99.1582 96.8856 95.6396L100.647 85.0381C101.368 83.0081 100.352 80.7713 98.3485 79.9795L86.869 75.4424L86.8612 75.4395L86.8544 75.4365C86.3005 75.215 85.1851 74.9629 83.9452 74.9629C82.667 74.963 81.8289 75.2288 81.4452 75.4844L81.4169 75.5029L81.3895 75.5215C79.0977 71.9595 79.2016 72.1175 81.3895 75.5215L81.3876 75.5225C81.3846 75.524 81.3816 75.5255 81.3788 75.5273C81.3741 75.5304 81.3677 75.5343 81.3602 75.5391C81.3448 75.5489 81.3234 75.5632 81.2968 75.5801C81.2433 75.6139 81.1675 75.6613 81.0722 75.7207C80.8813 75.8395 80.61 76.007 80.2753 76.207C79.6084 76.6057 78.676 77.1435 77.621 77.7002C75.7002 78.7138 72.7226 80.1454 70.1757 80.4639C64.9725 81.1141 57.8062 78.4754 49.9354 70.6543C45.9092 66.6534 43.2397 62.6964 41.6239 59.2617C40.0977 56.0173 39.2801 52.7344 39.6962 50.2373C39.8989 49.0215 40.4854 47.5913 40.9852 46.4717C41.5413 45.2263 42.2215 43.87 42.8632 42.6426C43.509 41.4073 44.1384 40.2612 44.6044 39.4268C44.8378 39.0087 45.0315 38.666 45.1679 38.4268C45.2359 38.3075 45.2897 38.2134 45.327 38.1484C45.3456 38.1161 45.3609 38.0898 45.371 38.0723C45.3758 38.064 45.38 38.0575 45.3827 38.0527L45.3866 38.0449L45.3876 38.044L45.4511 37.9346L45.5214 37.8291C46.0303 37.0658 46.1512 36.5231 46.1513 36.0889C46.1513 35.6156 46.0042 34.8886 45.3759 33.7891L45.2938 33.6455L45.2245 33.4961L40.3261 23.002Z" fill="black"/>
</g>
</svg>
