<svg width="120" height="120" viewBox="0 0 120 120" fill="none" xmlns="http://www.w3.org/2000/svg">
<g id="thickness=Standard, name=communicate_messageVoice, mode=default">
<path id="N1" fill-rule="evenodd" clip-rule="evenodd" d="M19 22C16.7909 22 15 23.7909 15 26V82C15 82.0857 15.0026 82.1704 15.0078 82.2538L15.023 82.5L15.0078 82.7462C15.0026 82.8297 15 82.9143 15 83V97.6865C15 100.704 18.2135 102.635 20.8777 101.218L46.8613 87.4044C48.5957 86.4822 50.5301 86 52.4944 86H101C103.209 86 105 84.2091 105 82V26C105 23.7909 103.209 22 101 22H19ZM7 26C7 19.3726 12.3726 14 19 14H101C107.627 14 113 19.3726 113 26V82C113 88.6274 107.627 94 101 94H52.4944C51.8396 94 51.1949 94.1607 50.6167 94.4681L24.6331 108.282C16.6404 112.531 7 106.739 7 97.6865V83C7 82.8327 7.00345 82.666 7.01029 82.5C7.00345 82.334 7 82.1673 7 82V26Z" fill="black"/>
<path id="S4W" fill-rule="evenodd" clip-rule="evenodd" d="M76 36.5C78.2091 36.5 80 38.2909 80 40.5V70.5C80 72.7091 78.2091 74.5 76 74.5C73.7909 74.5 72 72.7091 72 70.5V40.5C72 38.2909 73.7909 36.5 76 36.5Z" fill="black"/>
<path id="S2W" fill-rule="evenodd" clip-rule="evenodd" d="M44 39.5C41.7909 39.5 40 41.2909 40 43.5V67.5C40 69.7091 41.7909 71.5 44 71.5C46.2091 71.5 48 69.7091 48 67.5V43.5C48 41.2909 46.2091 39.5 44 39.5Z" fill="black"/>
<path id="S3W" fill-rule="evenodd" clip-rule="evenodd" d="M60 44.5C62.2091 44.5 64 46.2909 64 48.5V62.5C64 64.7091 62.2091 66.5 60 66.5C57.7909 66.5 56 64.7091 56 62.5V48.5C56 46.2909 57.7909 44.5 60 44.5Z" fill="black"/>
<path id="S5W" fill-rule="evenodd" clip-rule="evenodd" d="M92 45.5C94.2091 45.5 96 47.2909 96 49.5V61.5C96 63.7091 94.2091 65.5 92 65.5C89.7909 65.5 88 63.7091 88 61.5V49.5C88 47.2909 89.7909 45.5 92 45.5Z" fill="black"/>
<path id="S1W" fill-rule="evenodd" clip-rule="evenodd" d="M28 47.5C25.7909 47.5 24 49.2909 24 51.5V59.5C24 61.7091 25.7909 63.5 28 63.5C30.2091 63.5 32 61.7091 32 59.5V51.5C32 49.2909 30.2091 47.5 28 47.5Z" fill="black"/>
</g>
</svg>
