<svg width="120" height="120" viewBox="0 0 120 120" fill="none" xmlns="http://www.w3.org/2000/svg">
<g id="thickness=Standard, name=communicate_messages, mode=fill">
<path id="S1" d="M99 43C105.627 43 111 48.3726 111 55V100.339C111 109.354 101.43 115.15 93.4404 110.974L79.0586 103.455C78.5638 103.196 78.0211 103.045 77.4658 103.009L77.2275 103H45C38.3726 103 33 97.6274 33 91V80.3438L40.7139 76H74C84.4934 76 93 67.4934 93 57V43H99ZM74 9C80.6274 9 86 14.3726 86 21V57C86 63.6274 80.6274 69 74 69H39.9062L39.6514 69.0098C39.0598 69.0507 38.4835 69.2225 37.9648 69.5146L25.8896 76.3164C17.8903 80.8221 8 75.0414 8 65.8604V21C8 14.3726 13.3726 9 20 9H74Z" fill="black"/>
</g>
</svg>
