<svg width="120" height="120" viewBox="0 0 120 120" fill="none" xmlns="http://www.w3.org/2000/svg">
<g id="thickness=Light, name=communicate_send, mode=default">
<path id="S1" d="M11.0497 23.2968C9.35321 14.388 18.5605 7.36884 26.7021 11.3642L105.687 50.125C113.892 54.1516 113.892 65.8482 105.687 69.875L26.7021 108.636C18.5605 112.631 9.35304 105.612 11.0497 96.7031L15.3095 74.3428C15.986 70.7928 18.7202 67.9914 22.2529 67.2295L51.2392 60.9775C51.587 60.9024 51.7453 60.7586 51.8349 60.6387C51.9451 60.491 52.0283 60.2673 52.0283 60C52.0282 59.7327 51.9451 59.5089 51.8349 59.3613C51.7453 59.2414 51.587 59.0975 51.2392 59.0224L22.2529 52.7705C18.7201 52.0085 15.9859 49.2073 15.3095 45.6572L11.0497 23.2968ZM24.0585 16.75C20.3579 14.9341 16.1731 18.1254 16.9443 22.1748L21.2031 44.5342C21.4285 45.7175 22.34 46.6512 23.5175 46.9053L52.5039 53.1572C59.8693 54.7459 59.8691 65.254 52.5039 66.8428L23.5175 73.0947C22.3401 73.3488 21.4285 74.2826 21.2031 75.4658L16.9443 97.8252C16.1729 101.875 20.3578 105.066 24.0585 103.25L103.044 64.4883C106.773 62.6578 106.773 57.3421 103.044 55.5117L24.0585 16.75Z" fill="black"/>
</g>
</svg>
