<svg width="120" height="120" viewBox="0 0 120 120" fill="none" xmlns="http://www.w3.org/2000/svg">
<g id="thickness=Bold, name=communicate_love, mode=default">
<path id="S1B" fill-rule="evenodd" clip-rule="evenodd" d="M103.07 33.0973C96.1954 22.4036 81.4319 20.3011 71.8454 28.6506L63.1871 36.1917C61.3603 37.7829 58.6397 37.7829 56.8128 36.1917L48.1546 28.6506C38.5681 20.3011 23.8045 22.4035 16.93 33.0973C11.5906 41.403 12.8111 52.3154 19.8534 59.2363L60 98.6907L100.147 59.2363C107.189 52.3154 108.409 41.403 103.07 33.0973ZM65.9344 21.8639C79.66 9.90931 100.798 12.9196 110.641 28.2305C118.285 40.1223 116.538 55.7463 106.455 65.6554L63.8468 107.529C61.7115 109.627 58.2885 109.627 56.1532 107.529L13.545 65.6554C3.46206 55.7463 1.71465 40.1223 9.35938 28.2305C19.2021 12.9196 40.34 9.90931 54.0656 21.8639L60 27.0326L65.9344 21.8639Z" fill="black"/>
</g>
</svg>
