<svg width="120" height="120" viewBox="0 0 120 120" fill="none" xmlns="http://www.w3.org/2000/svg">
<g id="thickness=Bold, name=communicate_emoji, mode=default">
<path id="S1" fill-rule="evenodd" clip-rule="evenodd" d="M13.5 60C13.5 34.3188 34.3188 13.5 60 13.5C85.6812 13.5 106.5 34.3188 106.5 60C106.5 85.6812 85.6812 106.5 60 106.5C34.3188 106.5 13.5 85.6812 13.5 60ZM60 4.5C29.3482 4.5 4.5 29.3482 4.5 60C4.5 90.6518 29.3482 115.5 60 115.5C90.6518 115.5 115.5 90.6518 115.5 60C115.5 29.3482 90.6518 4.5 60 4.5ZM42 52C45.866 52 49 48.866 49 45C49 41.134 45.866 38 42 38C38.134 38 35 41.134 35 45C35 48.866 38.134 52 42 52ZM85 45C85 48.866 81.866 52 78 52C74.134 52 71 48.866 71 45C71 41.134 74.134 38 78 38C81.866 38 85 41.134 85 45ZM36.3682 65.9192C35.7713 63.5067 33.3316 62.0349 30.9191 62.6318C28.5066 63.2288 27.0347 65.6684 27.6317 68.0809C31.2392 82.6605 44.3412 93.5001 60 93.5001C75.6587 93.5001 88.7607 82.6605 92.3682 68.081C92.9652 65.6684 91.4934 63.2288 89.0808 62.6318C86.6683 62.0349 84.2286 63.5067 83.6317 65.9192C80.9856 76.6131 71.3873 84.5001 60 84.5001C48.6127 84.5001 39.0143 76.6131 36.3682 65.9192Z" fill="black"/>
</g>
</svg>
