<svg width="120" height="120" viewBox="0 0 120 120" fill="none" xmlns="http://www.w3.org/2000/svg">
<g id="thickness=Light, name=communicate_mailOpen, mode=default">
<path id="S1" d="M53.9854 10.3447C57.6399 7.95803 62.3601 7.95803 66.0146 10.3447L77.7373 17.9999H87C93.0751 17.9999 98 22.9248 98 28.9999V31.2323L107.015 37.12C110.125 39.1512 112 42.6153 112 46.33V98.9999C112 105.075 107.075 110 101 110H19C12.925 110 8.00016 105.075 8 98.9999V46.33C8.0001 42.6153 9.87519 39.1512 12.9854 37.12L22 31.2323V28.9999C22 22.9248 26.9249 17.9999 33 17.9999H42.2627L53.9854 10.3447ZM106 59.2616L95 65.7704L65.6025 83.1698C62.1474 85.2147 57.8526 85.2147 54.3975 83.1698L25 65.7704V65.7714L14 59.2616V98.9999C14.0002 101.761 16.2387 104 19 104H101C103.761 104 106 101.761 106 98.9999V59.2616ZM33 23.9999C30.2386 23.9999 28 26.2385 28 28.9999V60.5741L57.4531 78.0068C59.0236 78.9362 60.9764 78.9362 62.5469 78.0068L92 60.5741V28.9999C92 26.2385 89.7614 23.9999 87 23.9999H33ZM16.2656 42.1435C14.8521 43.0667 14.0001 44.6416 14 46.33V49.4384C14 50.1009 14.1309 50.745 14.375 51.3388C14.4157 51.4379 14.4599 51.5356 14.5068 51.6318C14.7412 52.1118 15.0522 52.5531 15.4287 52.9374C15.7299 53.2449 16.073 53.5161 16.4531 53.7411L22 57.0234V38.3984L16.2656 42.1435ZM98 57.0234L103.547 53.7411C103.927 53.5161 104.27 53.2449 104.571 52.9374C104.948 52.5531 105.259 52.1118 105.493 51.6318C105.54 51.5356 105.584 51.4379 105.625 51.3388C105.869 50.745 106 50.1009 106 49.4384V46.33C106 44.6416 105.148 43.0667 103.734 42.1435L98 38.3984V57.0234ZM62.7344 15.3681C61.0732 14.2832 58.9268 14.2832 57.2656 15.3681L53.2354 17.9999H66.7646L62.7344 15.3681Z" fill="black"/>
</g>
</svg>
