<svg width="120" height="120" viewBox="0 0 120 120" fill="none" xmlns="http://www.w3.org/2000/svg">
<g id="thickness=Bold, name=communicate_phone-default&#38;Light, mode=fill">
<path id="S1" d="M35.0761 12.2997C40.481 11.591 45.7224 14.4668 48.0283 19.4062L52.8613 29.7616C53.9389 31.7001 54.6513 33.8144 54.6513 36.0888C54.6513 38.411 53.9082 40.5089 52.7021 42.3739C52.7004 42.377 52.6991 42.3805 52.6972 42.3837C52.6647 42.4403 52.6155 42.5254 52.5527 42.6357C52.4269 42.8563 52.2453 43.1774 52.0254 43.5712C51.5842 44.3612 50.9944 45.4345 50.3955 46.58C49.7919 47.7345 49.202 48.9175 48.747 49.9364C48.5195 50.4461 48.3437 50.8764 48.2207 51.2157C48.1286 51.4697 48.0909 51.6047 48.08 51.6435C48.0868 51.7667 48.1314 53.1266 49.3154 55.6435C50.4769 58.1126 52.5473 61.2667 55.9267 64.6249C62.8905 71.5448 67.597 72.2205 69.1211 72.0302C69.9441 71.9273 71.6657 71.2328 73.6543 70.1835C74.5421 69.715 75.3387 69.254 75.914 68.9101C76.1997 68.7393 76.4274 68.5998 76.58 68.5048C76.656 68.4575 76.7137 68.4213 76.75 68.3984C76.7677 68.3871 76.7807 68.3786 76.7881 68.3739C76.7916 68.3717 76.794 68.3697 76.7949 68.3691L76.7939 68.37C79.1149 66.8484 81.8297 66.4629 83.9453 66.4628C86.1162 66.4628 88.3131 66.8684 89.9931 67.537L101.474 72.0751C107.733 74.5497 110.909 81.5372 108.658 87.8808L104.895 98.4823C102.32 105.74 95.0661 110.25 87.4179 109.351L82.041 108.718L81.9111 108.695C71.1578 106.786 62.992 103.743 55.7861 99.3993C48.6406 95.0922 42.6271 89.6146 36.1298 83.1581C22.6283 69.7418 12.3798 49.5057 10.7382 33.3398L10.7187 33.1484L10.6728 30.2431C10.5382 21.8598 16.7122 14.7083 25.0254 13.6181L35.0761 12.2997Z" fill="black"/>
</g>
</svg>
