<svg width="120" height="120" viewBox="0 0 120 120" fill="none" xmlns="http://www.w3.org/2000/svg">
<g id="thickness=Bold, name=communicate_messageAdd, mode=default">
<path id="N1" d="M101 13.5C107.904 13.5 113.5 19.0964 113.5 26V80.1357C111.445 78.488 108.839 77.5 106 77.5H104.5V26C104.5 24.067 102.933 22.5 101 22.5H19C17.067 22.5 15.5 24.067 15.5 26V82C15.5 82.0753 15.5023 82.1496 15.5068 82.2227L15.5234 82.5L15.5068 82.7773C15.5023 82.8504 15.5 82.9247 15.5 83V97.8408C15.5003 100.465 18.2817 102.155 20.6113 100.947L47.6973 86.9033C49.4751 85.9815 51.4486 85.5 53.4512 85.5H56.6855C56.2431 86.7514 56 88.0971 56 89.5C56 91.285 56.3928 92.9775 57.0918 94.5H53.4512C52.8905 94.5 52.3376 94.6345 51.8398 94.8926L24.7539 108.938C16.4334 113.252 6.50033 107.213 6.5 97.8408V83C6.5 82.8327 6.50514 82.6661 6.51172 82.5C6.50514 82.3339 6.5 82.1673 6.5 82V26C6.5 19.0964 12.0964 13.5 19 13.5H101ZM67 61.5C69.4853 61.5 71.5 63.5147 71.5 66C71.5 68.4853 69.4853 70.5 67 70.5H33C30.5147 70.5 28.5 68.4853 28.5 66C28.5 63.5147 30.5147 61.5 33 61.5H67ZM87 41.5C89.4853 41.5 91.5 43.5147 91.5 46C91.5 48.4853 89.4853 50.5 87 50.5H33C30.5147 50.5 28.5 48.4853 28.5 46C28.5 43.5147 30.5147 41.5 33 41.5H87Z" fill="black"/>
<path id="S1" d="M87 66C89.4853 66 91.5 68.0147 91.5 70.5V85H106C108.485 85 110.5 87.0147 110.5 89.5C110.5 91.9853 108.485 94 106 94H91.5V108.5C91.5 110.985 89.4853 113 87 113C84.5147 113 82.5 110.985 82.5 108.5V94H68C65.5147 94 63.5 91.9853 63.5 89.5C63.5 87.0147 65.5147 85 68 85H82.5V70.5C82.5 68.0147 84.5147 66 87 66Z" fill="black"/>
</g>
</svg>
