<svg width="120" height="120" viewBox="0 0 120 120" fill="none" xmlns="http://www.w3.org/2000/svg">
<g id="thickness=Standard, name=communicate_mailOpen, mode=default">
<path id="S1" d="M53.2012 7.81939C57.2961 5.00422 62.7039 5.00421 66.7988 7.81939L80.1523 17.0001H86C92.6274 17.0001 98 22.3727 98 29.0001V29.2696L106.799 35.3194C110.055 37.558 112 41.2568 112 45.2081V99.0001C112 105.627 106.627 111 100 111H20C13.3727 111 8.00013 105.627 8 99.0001V45.2081C8.0002 41.2568 9.94517 37.558 13.2012 35.3194L22 29.2696V29.0001C22 22.3727 27.3726 17.0001 34 17.0001H39.8477L53.2012 7.81939ZM66.2051 83.9239C62.3894 86.2291 57.6106 86.2291 53.7949 83.9239L16 61.0899V99.0001C16.0001 101.209 17.7909 103 20 103H100C102.209 103 104 101.209 104 99.0001V61.0899L66.2051 83.9239ZM34 25.0001C31.7909 25.0001 30 26.791 30 29.0001V60.2012L57.9316 77.0772C59.2034 77.8455 60.7966 77.8455 62.0684 77.0772L90 60.2012V29.0001C90 26.791 88.2091 25.0001 86 25.0001H34ZM17.7334 41.9122C16.6484 42.6583 16.0002 43.8913 16 45.2081V49.4864C16 50.0991 16.1404 50.6925 16.3984 51.2266C16.4722 51.3793 16.5559 51.5269 16.6484 51.669C16.9722 52.1663 17.4071 52.5933 17.9316 52.9102L22 55.3673V38.9786L17.7334 41.9122ZM98 55.3673L102.068 52.9102C102.218 52.8197 102.36 52.7199 102.495 52.6124C102.832 52.3434 103.12 52.0243 103.352 51.669C103.444 51.5269 103.528 51.3793 103.602 51.2266C103.86 50.6925 104 50.0991 104 49.4864V45.2081C104 43.8913 103.352 42.6583 102.267 41.9122L98 38.9786V55.3673ZM62.2656 14.4122C60.9007 13.4741 59.0982 13.4739 57.7334 14.4122L53.9697 17.0001H66.0303L62.2656 14.4122Z" fill="black"/>
</g>
</svg>
