<svg width="120" height="120" viewBox="0 0 120 120" fill="none" xmlns="http://www.w3.org/2000/svg">
<g id="thickness=Bold, name=communicate_mailOpen, mode=fill">
<path id="S1" d="M52.7744 6.60365C57.1033 3.53739 62.8968 3.53739 67.2256 6.60365L81.1973 16.5001H86C92.8211 16.5001 98.3645 21.9635 98.4961 28.7531L107.226 34.9366C110.534 37.2801 112.5 41.0827 112.5 45.1368V100C112.5 106.904 106.903 112.5 100 112.5H20C13.0965 112.5 7.50013 106.904 7.5 100V45.1368C7.50008 41.0827 9.46621 37.2801 12.7744 34.9366L21.5029 28.7531C21.6345 21.9635 27.1789 16.5001 34 16.5001H38.8018L52.7744 6.60365ZM34 25.5001C32.067 25.5001 30.5 27.0671 30.5 29.0001V60.9191L58.1904 77.6485C59.3033 78.3208 60.6967 78.3208 61.8096 77.6485L89.5 60.9191V29.0001C89.5 27.0671 87.933 25.5001 86 25.5001H34ZM17.9766 42.2814C17.0506 42.9375 16.5001 44.0019 16.5 45.1368V50.4864C16.5001 51.712 17.1415 52.8488 18.1904 53.4825L21.5 55.4816V39.7853L17.9766 42.2814ZM98.5 55.4816L101.81 53.4825C102.859 52.8488 103.5 51.712 103.5 50.4864V45.1368C103.5 44.0019 102.949 42.9375 102.023 42.2814L98.5 39.7853V55.4816ZM62.0234 13.9474C60.8114 13.0888 59.1886 13.0888 57.9766 13.9474L54.373 16.5001H65.627L62.0234 13.9474Z" fill="black"/>
</g>
</svg>
