<svg width="120" height="120" viewBox="0 0 120 120" fill="none" xmlns="http://www.w3.org/2000/svg">
<g id="thickness=Bold, name=communicate_messages, mode=default">
<path id="S1" d="M74 8.5C80.9036 8.5 86.5 14.0964 86.5 21V42.5H99C105.904 42.5 111.5 48.0964 111.5 55V99.5449C111.5 108.86 101.677 114.902 93.3633 110.702L77.8721 102.876L77.6865 102.789C77.2477 102.599 76.7737 102.5 76.2939 102.5H45C38.0964 102.5 32.5 96.9036 32.5 90V72.54L25.9639 76.0889C17.765 80.5398 7.81681 74.7662 7.50781 65.5449L7.5 65.1035V21C7.5 14.0964 13.0964 8.5 20 8.5H74ZM86.5 56C86.5 62.9036 80.9036 68.5 74 68.5H41.5V90C41.5 91.933 43.067 93.5 45 93.5H76.2939C78.1296 93.5 79.9412 93.9046 81.6006 94.6826L81.9307 94.8428L97.4219 102.669C99.7497 103.845 102.5 102.153 102.5 99.5449V55C102.5 53.067 100.933 51.5 99 51.5H86.5V56ZM20 17.5C18.067 17.5 16.5 19.067 16.5 21V65.1035L16.5078 65.3486C16.6762 67.8592 19.4105 69.4053 21.6699 68.1787L34.8682 61.0146L35.2139 60.834C36.955 59.958 38.8784 59.5001 40.8311 59.5H74C75.933 59.5 77.5 57.933 77.5 56V21C77.5 19.067 75.933 17.5 74 17.5H20Z" fill="black"/>
</g>
</svg>
