<svg width="120" height="120" viewBox="0 0 120 120" fill="none" xmlns="http://www.w3.org/2000/svg">
<g id="thickness=Standard, name=communicate_mailOpen, mode=fill">
<path id="S1" d="M53.2012 7.81942C57.2961 5.0042 62.7039 5.0042 66.7988 7.81942L80.1523 17.0001H86C92.6274 17.0001 98 22.3727 98 29.0001V29.2696L106.799 35.3194C110.055 37.558 112 41.2568 112 45.2081V99.0001C112 105.627 106.627 111 100 111H20C13.3727 111 8.00013 105.627 8 99.0001V45.2081C8.00016 41.2568 9.94515 37.558 13.2012 35.3194L22 29.2696V29.0001C22 22.3727 27.3726 17.0001 34 17.0001H39.8477L53.2012 7.81942ZM34 25.0001C31.7909 25.0001 30 26.791 30 29.0001V60.2013L57.9316 77.0772C59.2034 77.8455 60.7966 77.8455 62.0684 77.0772L90 60.2013V29.0001C90 26.791 88.2091 25.0001 86 25.0001H34ZM17.7334 41.9122C16.6483 42.6584 16.0002 43.8912 16 45.2081V49.4864C16 50.887 16.7329 52.1859 17.9316 52.9102L22 55.3673V38.9786L17.7334 41.9122ZM98 55.3673L102.068 52.9102C103.267 52.1859 104 50.887 104 49.4864V45.2081C104 43.8912 103.352 42.6584 102.267 41.9122L98 38.9786V55.3673ZM62.2656 14.4122C60.9007 13.4741 59.0983 13.4739 57.7334 14.4122L53.9697 17.0001H66.0303L62.2656 14.4122Z" fill="black"/>
</g>
</svg>
