<svg width="120" height="120" viewBox="0 0 120 120" fill="none" xmlns="http://www.w3.org/2000/svg">
<g id="thickness=Bold, name=communicate_mention, mode=default">
<path id="S1" fill-rule="evenodd" clip-rule="evenodd" d="M19 22.5C17.067 22.5 15.5 24.067 15.5 26V82C15.5 83.933 17.067 85.5 19 85.5H35.6863C39.0015 85.5 42.1809 86.817 44.5251 89.1612L57.3855 102.022C58.7759 103.412 61.0387 103.384 62.3948 101.96L74.3768 89.3793C76.7361 86.9021 80.0076 85.5 83.4286 85.5H101C102.933 85.5 104.5 83.933 104.5 82V26C104.5 24.067 102.933 22.5 101 22.5H19ZM6.5 26C6.5 19.0964 12.0964 13.5 19 13.5H101C107.904 13.5 113.5 19.0964 113.5 26V82C113.5 88.9036 107.904 94.5 101 94.5H83.4286C82.4707 94.5 81.5547 94.8926 80.8941 95.5862L68.9121 108.167C64.0687 113.253 55.9875 113.351 51.0215 108.385L38.1612 95.5251C37.5048 94.8688 36.6145 94.5 35.6863 94.5H19C12.0964 94.5 6.5 88.9036 6.5 82V26Z" fill="black"/>
</g>
</svg>
