<svg width="120" height="120" viewBox="0 0 120 120" fill="none" xmlns="http://www.w3.org/2000/svg">
<g id="thickness=Light, name=communicate_like, mode=fill">
<path id="S1" d="M20.5 50C25.7467 50 30 54.2533 30 59.5V99.5C30 104.747 25.7467 109 20.5 109C15.2533 109 11 104.747 11 99.5V59.5C11 54.2533 15.2533 50 20.5 50ZM62.5 10.5C67.4706 10.5 71.5 14.5294 71.5 19.5V47C71.5 48.6569 72.8431 50 74.5 50H101C107.075 50 112 54.9249 112 61V71.5908C112 72.7124 111.829 73.8265 111.492 74.8945L111.338 75.3496L104.128 95.1768C101.11 103.476 93.2231 109 84.3926 109H47C42.0294 109 38 104.971 38 100V54.5137C38 53.1385 38.2575 51.7752 38.7598 50.4951L51.7148 17.4814L51.877 17.0908C53.6222 13.0996 57.5723 10.5 61.9551 10.5H62.5Z" fill="black"/>
</g>
</svg>
