<svg width="120" height="120" viewBox="0 0 120 120" fill="none" xmlns="http://www.w3.org/2000/svg">
<g id="thickness=Bold, name=communicate_mail, mode=default">
<path id="S1" d="M100 11.5C106.904 11.5 112.5 17.0964 112.5 24V96C112.5 102.904 106.904 108.5 100 108.5H20C13.0964 108.5 7.5 102.904 7.5 96V24C7.5 17.0964 13.0964 11.5 20 11.5H100ZM102.963 47.1611C102.922 47.1632 102.868 47.1708 102.793 47.21L102.714 47.2578L67.2256 72.3965C62.8968 75.4627 57.1033 75.4627 52.7744 72.3965L17.2852 47.2578C17.1692 47.1766 17.0906 47.1638 17.0371 47.1611C16.966 47.1576 16.8706 47.1729 16.7705 47.2246C16.6704 47.2764 16.6017 47.3451 16.5635 47.4053C16.5344 47.451 16.5 47.5241 16.5 47.6689V96C16.5 97.933 18.067 99.5 20 99.5H100C101.933 99.5 103.5 97.933 103.5 96V47.6689C103.5 47.5241 103.466 47.451 103.437 47.4053C103.398 47.3451 103.33 47.2764 103.229 47.2246C103.129 47.1729 103.034 47.1576 102.963 47.1611ZM20 20.5C18.067 20.5 16.5 22.067 16.5 24V33.8633C16.5001 34.9982 17.0505 36.0626 17.9766 36.7188L57.9766 65.0527C59.1886 65.9113 60.8114 65.9113 62.0234 65.0527L102.023 36.7188L102.192 36.5918C103.016 35.93 103.5 34.9275 103.5 33.8633V24C103.5 22.067 101.933 20.5 100 20.5H20Z" fill="black"/>
</g>
</svg>
