<svg width="120" height="120" viewBox="0 0 120 120" fill="none" xmlns="http://www.w3.org/2000/svg">
<g id="thickness=Light, name=communicate_love, mode=default">
<path id="S1B" fill-rule="evenodd" clip-rule="evenodd" d="M104.271 32.898C96.7436 20.9903 80.3068 18.7299 69.844 28.1636L62.239 35.0206C60.9667 36.1677 59.0333 36.1677 57.761 35.0206L50.156 28.1636C39.6932 18.7299 23.2564 20.9903 15.7286 32.898C9.97049 42.0063 11.4005 53.9062 19.1525 61.3909L60 100.83L100.847 61.3909C108.6 53.9061 110.03 42.0063 104.271 32.898ZM65.8262 23.7074C79.0513 11.7832 99.8276 14.6404 109.343 29.6919C116.621 41.2049 114.814 56.2465 105.015 65.7073L62.7635 106.502C61.2218 107.99 58.7782 107.99 57.2365 106.502L14.985 65.7073C5.18626 56.2465 3.37872 41.2049 10.657 29.6919C20.1724 14.6404 40.9487 11.7832 54.1738 23.7074L60 28.9606L65.8262 23.7074Z" fill="black"/>
</g>
</svg>
