<svg width="120" height="120" viewBox="0 0 120 120" fill="none" xmlns="http://www.w3.org/2000/svg">
<g id="thickness=Light, name=communicate_message, mode=fill">
<path id="S1" fill-rule="evenodd" clip-rule="evenodd" d="M7 26C7 19.9249 11.9249 15 18 15H102C108.075 15 113 19.9249 113 26V82C113 88.0751 108.075 93 102 93H49.5875C48.732 93 47.8909 93.2195 47.1445 93.6375L23.3746 106.949C16.0423 111.055 7 105.755 7 97.351V83C7 82.8326 7.00376 82.6659 7.01122 82.5C7.00376 82.3341 7 82.1674 7 82V26ZM27 47C27 45.3431 28.3431 44 30 44H90C91.6569 44 93 45.3431 93 47C93 48.6569 91.6569 50 90 50H30C28.3431 50 27 48.6569 27 47ZM27 63C27 61.3431 28.3431 60 30 60H70C71.6569 60 73 61.3431 73 63C73 64.6569 71.6569 66 70 66H30C28.3431 66 27 64.6569 27 63Z" fill="black"/>
</g>
</svg>
