<svg width="120" height="120" viewBox="0 0 120 120" fill="none" xmlns="http://www.w3.org/2000/svg">
<g id="thickness=Light, name=communicate_mail, mode=default">
<path id="S1" d="M101 15C107.075 15 112 19.9249 112 26V94C112 100.075 107.075 105 101 105H19C12.9249 105 8 100.075 8 94V26C8 19.9249 12.9249 15 19 15H101ZM106 47.2373C106 45.6485 104.237 44.6938 102.906 45.5625L86.1406 56.5117L66.0146 69.6553C62.3601 72.0419 57.6399 72.0419 53.9854 69.6553L33.8594 56.5117L17.0938 45.5625C15.7635 44.6938 14 45.6485 14 47.2373V94C14 96.7614 16.2386 99 19 99H101C103.761 99 106 96.7614 106 94V47.2373ZM19 21C16.2386 21 14 23.2386 14 26V33.6699C14.0001 35.3583 14.852 36.9332 16.2656 37.8564L20.3584 40.5293C20.3635 40.5326 20.3689 40.5357 20.374 40.5391L37.1406 51.4883H37.1396L57.2656 64.6318C58.9268 65.7167 61.0732 65.7167 62.7344 64.6318L82.8594 51.4883L99.626 40.5391C99.6309 40.5359 99.6357 40.5325 99.6406 40.5293L103.734 37.8564C105.148 36.9332 106 35.3583 106 33.6699V26C106 23.2386 103.761 21 101 21H19Z" fill="black"/>
</g>
</svg>
