<svg width="120" height="120" viewBox="0 0 120 120" fill="none" xmlns="http://www.w3.org/2000/svg">
<g id="thickness=Bold, name=communicate_message, mode=fill">
<path id="S1" fill-rule="evenodd" clip-rule="evenodd" d="M6.5 26C6.5 19.0964 12.0964 13.5 19 13.5H101C107.904 13.5 113.5 19.0964 113.5 26V82C113.5 88.9036 107.904 94.5 101 94.5H53.4507C52.89 94.5 52.3375 94.6347 51.8396 94.8929L24.754 108.937C16.4333 113.252 6.5 107.213 6.5 97.8404V83C6.5 82.8328 6.50331 82.6661 6.50988 82.5C6.50331 82.3339 6.5 82.1672 6.5 82V26ZM28.5 46C28.5 43.5147 30.5147 41.5 33 41.5H87C89.4853 41.5 91.5 43.5147 91.5 46C91.5 48.4853 89.4853 50.5 87 50.5H33C30.5147 50.5 28.5 48.4853 28.5 46ZM28.5 66C28.5 63.5147 30.5147 61.5 33 61.5H67C69.4853 61.5 71.5 63.5147 71.5 66C71.5 68.4853 69.4853 70.5 67 70.5H33C30.5147 70.5 28.5 68.4853 28.5 66Z" fill="black"/>
</g>
</svg>
