<svg width="120" height="120" viewBox="0 0 120 120" fill="none" xmlns="http://www.w3.org/2000/svg">
<g id="thickness=Standard, name=communicate_emoji, mode=default">
<path id="S1" fill-rule="evenodd" clip-rule="evenodd" d="M13 60C13 34.0426 34.0426 13 60 13C85.9574 13 107 34.0426 107 60C107 85.9574 85.9574 107 60 107C34.0426 107 13 85.9574 13 60ZM60 5C29.6243 5 5 29.6243 5 60C5 90.3757 29.6243 115 60 115C90.3757 115 115 90.3757 115 60C115 29.6243 90.3757 5 60 5ZM43 51C46.3137 51 49 48.3137 49 45C49 41.6863 46.3137 39 43 39C39.6863 39 37 41.6863 37 45C37 48.3137 39.6863 51 43 51ZM83 45C83 48.3137 80.3137 51 77 51C73.6863 51 71 48.3137 71 45C71 41.6863 73.6863 39 77 39C80.3137 39 83 41.6863 83 45ZM35.8829 66.0392C35.3522 63.8947 33.1837 62.5864 31.0392 63.1171C28.8947 63.6477 27.5864 65.8163 28.1171 67.9607C31.6712 82.3244 44.5785 93 60 93C75.4214 93 88.3288 82.3244 91.8829 67.9607C92.4135 65.8163 91.1052 63.6477 88.9607 63.1171C86.8163 62.5864 84.6477 63.8947 84.1171 66.0392C81.4176 76.9489 71.6246 85 60 85C48.3754 85 38.5823 76.9489 35.8829 66.0392Z" fill="black"/>
</g>
</svg>
