<svg width="120" height="120" viewBox="0 0 120 120" fill="none" xmlns="http://www.w3.org/2000/svg">
<g id="thickness=Light, name=communicate_phone-default&#38;Light, mode=default">
<path id="S1" d="M35.2715 13.7871C40.0278 13.1636 44.6398 15.6944 46.669 20.041L51.5205 30.4366C52.528 32.2331 53.1514 34.1152 53.1514 36.0889C53.1513 38.0921 52.509 39.9259 51.416 41.6016C51.4103 41.6115 51.4038 41.623 51.3965 41.6358C51.3631 41.6938 51.3128 41.7807 51.249 41.8926C51.1214 42.1165 50.9382 42.4417 50.7158 42.8399C50.2703 43.6377 49.6736 44.7244 49.0664 45.8858C48.4562 47.053 47.8507 48.2664 47.3779 49.3252C46.863 50.4784 46.6385 51.1617 46.6006 51.3887C46.5331 51.794 46.6495 53.4995 47.958 56.2813C49.1997 58.9209 51.3754 62.2177 54.8692 65.6895C61.9934 72.7688 67.1345 73.7902 69.3076 73.5186C70.435 73.3776 72.378 72.5528 74.3545 71.5098C75.2718 71.0257 76.0921 70.5518 76.6836 70.1983C76.9782 70.0222 77.2137 69.8776 77.3731 69.7784C77.4527 69.7288 77.5135 69.6899 77.5527 69.6651C77.5719 69.653 77.586 69.6443 77.5947 69.6387C77.5991 69.6359 77.603 69.6338 77.6045 69.6328L77.9404 69.4219C79.8523 68.2882 82.0857 67.963 83.9453 67.9629C85.9579 67.9629 87.9701 68.3435 89.4531 68.9366L100.922 73.4698C106.431 75.6473 109.226 81.7965 107.245 87.3789L103.482 97.9805C101.141 104.578 94.5467 108.679 87.5938 107.861L82.3477 107.244L82.2608 107.233L82.1738 107.218C71.573 105.336 63.5862 102.35 56.5606 98.1153C49.5753 93.9047 43.6661 88.5327 37.1875 82.0948C23.8921 68.8833 13.8317 48.9569 12.2305 33.1885L12.2178 33.0606L12.1719 30.2188C12.0496 22.5978 17.6625 16.0967 25.2197 15.1055L35.2715 13.7871ZM41.2324 22.5791C40.3102 20.6035 38.2136 19.4531 36.0518 19.7364L26 21.0547C21.4656 21.6494 18.0985 25.5504 18.1719 30.1231L18.2119 32.6944C19.6891 46.8584 28.979 65.4784 41.417 77.8379C47.8212 84.202 53.314 89.1524 59.6582 92.9766C65.946 96.7667 73.1953 99.5221 83.1455 101.296L88.2949 101.902C92.4666 102.393 96.4233 99.9322 97.8281 95.9737L101.59 85.3721C102.49 82.8346 101.22 80.0396 98.7158 79.0498L87.2363 74.5127L87.2256 74.5078C86.539 74.2332 85.2957 73.9629 83.9453 73.9629C82.5663 73.963 81.5038 74.2438 80.8906 74.6524L80.8692 74.666L80.8486 74.6797L79.2266 72.1563L80.8477 74.6807L80.8457 74.6817C80.8443 74.6826 80.842 74.6842 80.8399 74.6856C80.8355 74.6884 80.8295 74.6917 80.8223 74.6963C80.8078 74.7056 80.7874 74.7191 80.7617 74.7354C80.7103 74.7679 80.637 74.8142 80.544 74.8721C80.3576 74.9881 80.0908 75.152 79.7617 75.3487C79.1057 75.7408 78.1904 76.2702 77.1553 76.8164C75.2265 77.8342 72.396 79.1786 70.0518 79.4717C65.2815 80.0679 58.4038 77.6606 50.6397 69.9453C46.6896 66.0201 44.0916 62.157 42.5293 58.836C41.0341 55.6576 40.3163 52.6006 40.6826 50.4024C40.8618 49.3276 41.3963 48.0036 41.8984 46.8789C42.4427 45.6601 43.1118 44.3244 43.749 43.1055C44.3894 41.8807 45.0145 40.7433 45.4776 39.9141C45.7094 39.4989 45.902 39.1589 46.0371 38.9219C46.1046 38.8035 46.1576 38.7104 46.1943 38.6465C46.2127 38.6146 46.2275 38.5894 46.2373 38.5723C46.2421 38.564 46.2454 38.5573 46.2481 38.5528C46.2494 38.5505 46.2502 38.5482 46.251 38.5469L46.2529 38.545L46.3008 38.4629L46.3526 38.3838C46.9513 37.4858 47.1513 36.7535 47.1514 36.0889C47.1514 35.395 46.9324 34.4973 46.2442 33.293L46.1826 33.1856L46.1309 33.0733L41.2324 22.5791Z" fill="black"/>
</g>
</svg>
