<svg width="120" height="120" viewBox="0 0 120 120" fill="none" xmlns="http://www.w3.org/2000/svg">
<g id="thickness=Standard, name=communicate_mail, mode=default">
<path id="S1" d="M100 13C106.627 13 112 18.3726 112 25V95C112 101.627 106.627 107 100 107H20C13.3726 107 8 101.627 8 95V25C8 18.3726 13.3726 13 20 13H100ZM17.5576 46.6758C16.895 46.2296 16.0002 46.7033 16 47.5049V95C16 97.2091 17.7909 99 20 99H100C102.209 99 104 97.2091 104 95V47.5049C104 46.7502 103.206 46.2858 102.561 46.6064L102.44 46.6758L66.7988 71.1807C62.7038 73.996 57.2962 73.996 53.2012 71.1807L17.5576 46.6758ZM20 21C17.7909 21 16 22.7909 16 25V33.792C16.0001 35.109 16.6483 36.3417 17.7334 37.0879L22.0928 40.085C22.0947 40.0863 22.0967 40.0875 22.0986 40.0889L38.2666 51.2041H38.2656L57.7334 64.5879C59.0983 65.5263 60.9007 65.5261 62.2656 64.5879L87.5293 47.2197L97.9014 40.0889L97.9033 40.0869L102.267 37.0879L102.465 36.9424C103.43 36.1873 104 35.0267 104 33.792V25C104 22.7909 102.209 21 100 21H20Z" fill="black"/>
</g>
</svg>
