<svg width="120" height="120" viewBox="0 0 120 120" fill="none" xmlns="http://www.w3.org/2000/svg">
<g id="thickness=Bold, name=communicate_phone-default&#38;Light, mode=default">
<path id="S1" d="M35.0761 12.2997C40.481 11.591 45.7224 14.4668 48.0283 19.4062L52.8613 29.7616C53.9389 31.7001 54.6513 33.8144 54.6513 36.0888C54.6513 38.411 53.9082 40.5089 52.7021 42.3739C52.7004 42.377 52.6991 42.3805 52.6972 42.3837C52.6647 42.4403 52.6155 42.5254 52.5527 42.6357C52.4269 42.8563 52.2453 43.1774 52.0254 43.5712C51.5842 44.3612 50.9944 45.4345 50.3955 46.58C49.7919 47.7345 49.202 48.9175 48.747 49.9364C48.5195 50.4461 48.3437 50.8764 48.2207 51.2157C48.1286 51.4697 48.0909 51.6047 48.08 51.6435C48.0868 51.7667 48.1314 53.1266 49.3154 55.6435C50.4769 58.1126 52.5473 61.2667 55.9267 64.6249C62.8905 71.5448 67.597 72.2205 69.1211 72.0302C69.9441 71.9273 71.6657 71.2328 73.6543 70.1835C74.5421 69.715 75.3387 69.254 75.914 68.9101C76.1997 68.7393 76.4274 68.5998 76.58 68.5048C76.656 68.4575 76.7137 68.4213 76.75 68.3984C76.7677 68.3871 76.7807 68.3786 76.7881 68.3739C76.7916 68.3717 76.794 68.3697 76.7949 68.3691L76.7939 68.37C79.1149 66.8484 81.8297 66.4629 83.9453 66.4628C86.1162 66.4628 88.3131 66.8684 89.9931 67.537L101.474 72.0751C107.733 74.5497 110.909 81.5372 108.658 87.8808L104.895 98.4823C102.32 105.74 95.0661 110.25 87.4179 109.351L82.041 108.718L81.9111 108.695C71.1578 106.786 62.992 103.743 55.7861 99.3993C48.6406 95.0922 42.6271 89.6146 36.1298 83.1581C22.6283 69.7418 12.3798 49.5057 10.7382 33.3398L10.7187 33.1484L10.6728 30.2431C10.5382 21.8598 16.7122 14.7083 25.0254 13.6181L35.0761 12.2997ZM39.873 23.2138C39.2273 21.8308 37.7594 21.0251 36.2461 21.2236L26.1953 22.5419C22.4166 23.0375 19.6097 26.288 19.6709 30.0986L19.7109 32.6044C21.1688 46.3649 30.2604 64.6382 42.4736 76.7743C48.8591 83.1198 54.2487 87.9638 60.4326 91.6913C66.5291 95.3661 73.5849 98.0626 83.3545 99.8095L88.4697 100.412C91.9462 100.821 95.2433 98.7704 96.414 95.4716L100.177 84.87C100.807 83.094 99.9175 81.1382 98.165 80.4452L86.6855 75.9071L86.6767 75.9042L86.6689 75.9003C86.1813 75.7053 85.1299 75.4628 83.9453 75.4628C82.7177 75.4629 81.9917 75.7211 81.7226 75.9003L81.6914 75.9218L81.6591 75.9413L81.6572 75.9423L81.6552 75.9443C81.6535 75.9454 81.6509 75.9466 81.6484 75.9482C81.6434 75.9514 81.6367 75.9558 81.6289 75.9609C81.613 75.971 81.5914 75.9848 81.5644 76.0019C81.51 76.0364 81.4334 76.0853 81.3369 76.1454C81.1437 76.2657 80.8688 76.4339 80.5312 76.6357C79.8589 77.0375 78.9192 77.5806 77.8545 78.1425C75.9375 79.154 72.8857 80.6289 70.2373 80.9599C64.8178 81.6371 57.5069 78.8836 49.583 71.0097C45.5187 66.9709 42.8143 62.9651 41.1718 59.4736C39.6302 56.1962 38.762 52.8015 39.2031 50.1552C39.4176 48.8685 40.0304 47.3849 40.5293 46.2675C41.0914 45.0086 41.7758 43.642 42.4199 42.4101C43.0685 41.1694 43.7005 40.0196 44.1679 39.1825C44.4022 38.763 44.5964 38.4189 44.7334 38.1786C44.8018 38.0585 44.8559 37.9638 44.8935 37.8984C44.9122 37.8659 44.9272 37.8409 44.9375 37.8232C44.9426 37.8143 44.9463 37.8067 44.9492 37.8017C44.9506 37.7992 44.9522 37.7973 44.9531 37.7958L44.9541 37.7939L44.955 37.7929L45.0263 37.6698L45.1054 37.5517C45.5696 36.8556 45.6513 36.4079 45.6513 36.0888C45.6513 35.7258 45.5407 35.0841 44.9423 34.037L44.8496 33.8759L44.7715 33.707L39.873 23.2138Z" fill="black"/>
</g>
</svg>
