<svg width="120" height="120" viewBox="0 0 120 120" fill="none" xmlns="http://www.w3.org/2000/svg">
<g id="thickness=Standard, name=communicate_mention, mode=default">
<path id="S1" fill-rule="evenodd" clip-rule="evenodd" d="M19 22C16.7909 22 15 23.7909 15 26V82C15 84.2091 16.7909 86 19 86H35.6863C38.8689 86 41.9211 87.2643 44.1716 89.5147L57.0319 102.375C58.621 103.964 61.207 103.933 62.7569 102.305L74.7389 89.7241C77.0038 87.346 80.1445 86 83.4286 86H101C103.209 86 105 84.2091 105 82V26C105 23.7909 103.209 22 101 22H19ZM7 26C7 19.3726 12.3726 14 19 14H101C107.627 14 113 19.3726 113 26V82C113 88.6274 107.627 94 101 94H83.4286C82.3339 94 81.287 94.4487 80.532 95.2414L68.55 107.823C63.9004 112.705 56.1424 112.799 51.3751 108.032L38.5147 95.1716C37.7646 94.4214 36.7472 94 35.6863 94H19C12.3726 94 7 88.6274 7 82V26Z" fill="black"/>
</g>
</svg>
