<svg width="120" height="120" viewBox="0 0 120 120" fill="none" xmlns="http://www.w3.org/2000/svg">
<g id="thickness=Light, name=communicate_send, mode=fill">
<path id="S1" d="M11.0497 23.2968C9.35321 14.388 18.5605 7.36884 26.7021 11.3642L105.687 50.125C113.892 54.1516 113.892 65.8482 105.687 69.875L26.7021 108.636C18.5605 112.631 9.35304 105.612 11.0497 96.7031L15.3095 74.3428C15.986 70.7928 18.7202 67.9914 22.2529 67.2295L51.2392 60.9775C51.587 60.9024 51.7453 60.7586 51.8349 60.6387C51.9451 60.491 52.0283 60.2673 52.0283 60C52.0282 59.7327 51.9451 59.5089 51.8349 59.3613C51.7453 59.2414 51.587 59.0975 51.2392 59.0224L22.2529 52.7705C18.7201 52.0085 15.9859 49.2073 15.3095 45.6572L11.0497 23.2968Z" fill="black"/>
</g>
</svg>
