<svg width="120" height="120" viewBox="0 0 120 120" fill="none" xmlns="http://www.w3.org/2000/svg">
<g id="thickness=Standard, name=communicate_love, mode=default">
<path id="S1B" fill-rule="evenodd" clip-rule="evenodd" d="M49.7491 29.1555C39.8853 20.2782 24.401 22.4389 17.3443 33.6773C11.9659 42.2429 13.3265 53.4056 20.6048 60.4285L60 98.4414L99.3952 60.4285C106.674 53.4056 108.034 42.2429 102.656 33.6774C95.599 22.4389 80.1147 20.2782 70.251 29.1555L62.9013 35.7702C61.2519 37.2547 58.7481 37.2547 57.0987 35.7702L49.7491 29.1555ZM10.5692 29.4232C20.2668 13.979 41.5457 11.0096 55.1008 23.2092L60 27.6185L64.8992 23.2092C78.4543 11.0096 99.7333 13.979 109.431 29.4232C116.822 41.1943 114.952 56.5343 104.95 66.1855L63.4469 106.232C61.5237 108.088 58.4764 108.088 56.5531 106.232L15.0499 66.1855C5.04776 56.5343 3.17807 41.1943 10.5692 29.4232Z" fill="black"/>
</g>
</svg>
