<svg width="120" height="120" viewBox="0 0 120 120" fill="none" xmlns="http://www.w3.org/2000/svg">
<g id="thickness=Light, name=communicate_messages, mode=default">
<path id="S1" d="M73 10C79.0751 10 84 14.9249 84 21V44H98C104.075 44 109 48.9249 109 55V100.198C109 108.564 100.032 113.867 92.7012 109.838L79.5693 102.618L79.2881 102.476C78.6236 102.163 77.8971 102 77.1602 102H44C37.9249 102 33 97.0751 33 91V70.1445L24.6182 75.125C17.4002 79.4128 8.28952 74.3587 8.00684 66.0645L8 65.667V21C8 14.9249 12.9249 10 19 10H73ZM84 57C84 63.0751 79.0751 68 73 68H39V91C39 93.7614 41.2386 96 44 96H77.1602C78.897 96 80.6076 96.4115 82.1523 97.1982L82.459 97.3604L95.5908 104.58C98.923 106.412 103 104.001 103 100.198V55C103 52.2386 100.761 50 98 50H84V57ZM19 16C16.2386 16 14 18.2386 14 21V65.667L14.0127 66.0264C14.2634 69.6899 18.3249 71.8839 21.5537 69.9658L32.3662 63.543L32.6875 63.3594C34.3088 62.4686 36.1306 62 37.9844 62H73C75.7614 62 78 59.7614 78 57V21C78 18.2386 75.7614 16 73 16H19Z" fill="black"/>
</g>
</svg>
