<svg width="120" height="120" viewBox="0 0 120 120" fill="none" xmlns="http://www.w3.org/2000/svg">
<g id="thickness=Standard, name=communicate_message, mode=fill">
<path id="S1" fill-rule="evenodd" clip-rule="evenodd" d="M7 26C7 19.3726 12.3726 14 19 14H101C107.627 14 113 19.3726 113 26V82C113 88.6274 107.627 94 101 94H52.4944C51.8396 94 51.1949 94.1607 50.6167 94.4681L24.6331 108.282C16.6404 112.531 7 106.739 7 97.6865V83C7 82.8327 7.00345 82.666 7.01029 82.5C7.00345 82.334 7 82.1673 7 82V26ZM28 47C28 44.7909 29.7909 43 32 43H88C90.2091 43 92 44.7909 92 47C92 49.2091 90.2091 51 88 51H32C29.7909 51 28 49.2091 28 47ZM28 65C28 62.7909 29.7909 61 32 61H68C70.2091 61 72 62.7909 72 65C72 67.2091 70.2091 69 68 69H32C29.7909 69 28 67.2091 28 65Z" fill="black"/>
</g>
</svg>
