<svg width="120" height="120" viewBox="0 0 120 120" fill="none" xmlns="http://www.w3.org/2000/svg">
<g id="thickness=Standard, name=communicate_messageAdd, mode=default">
<path id="N1" d="M101 14C107.627 14 113 19.3726 113 26V81.0137C111.098 79.4431 108.659 78.5 106 78.5H105V26C105 23.7909 103.209 22 101 22H19C16.7909 22 15 23.7909 15 26V82C15 82.0857 15.0027 82.1705 15.0078 82.2539L15.0234 82.5L15.0078 82.7461C15.0027 82.8296 15 82.9143 15 83V97.6865C15 100.704 18.2137 102.635 20.8779 101.219L46.8613 87.4043L47.1885 87.2363C48.8373 86.4235 50.6526 86 52.4941 86H57.5713C57.2024 87.0997 57 88.2761 57 89.5C57 91.1037 57.3459 92.626 57.9629 94H52.4941C51.8397 94 51.1951 94.1606 50.6172 94.4678L24.6328 108.282C16.6401 112.531 7.00001 106.739 7 97.6865V83C7 82.8327 7.00585 82.6661 7.0127 82.5C7.00585 82.3339 7 82.1673 7 82V26C7 19.3726 12.3726 14 19 14H101ZM68 61C70.2091 61 72 62.7909 72 65C72 67.2091 70.2091 69 68 69H32C29.7909 69 28 67.2091 28 65C28 62.7909 29.7909 61 32 61H68ZM88 43C90.2091 43 92 44.7909 92 47C92 49.2091 90.2091 51 88 51H32C29.7909 51 28 49.2091 28 47C28 44.7909 29.7909 43 32 43H88Z" fill="black"/>
<path id="S1" d="M87 66.5C89.2091 66.5 91 68.2909 91 70.5V85.5H106C108.209 85.5 110 87.2909 110 89.5C110 91.7091 108.209 93.5 106 93.5H91V108.5C91 110.709 89.2091 112.5 87 112.5C84.7909 112.5 83 110.709 83 108.5V93.5H68C65.7909 93.5 64 91.7091 64 89.5C64 87.2909 65.7909 85.5 68 85.5H83V70.5C83 68.2909 84.7909 66.5 87 66.5Z" fill="black"/>
</g>
</svg>
