<svg width="120" height="120" viewBox="0 0 120 120" fill="none" xmlns="http://www.w3.org/2000/svg">
<g id="thickness=Standard, name=communicate_like, mode=default">
<path id="S1" d="M60.5 9.5C66.0228 9.5 70.5 13.9772 70.5 19.5V47C70.5 48.1046 71.3954 49 72.5 49H100C106.627 49 112 54.3726 112 61V71.5908C112 72.8146 111.812 74.03 111.445 75.1953L111.277 75.6914L104.067 95.5186C100.906 104.212 92.6435 110 83.3926 110H22C15.3726 110 10 104.627 10 98V61C10 54.3726 15.3726 49 22 49H36.2725L48.7842 17.1162L48.9609 16.6904C50.8647 12.3362 55.1738 9.5 59.9551 9.5H60.5ZM22 57C19.7909 57 18 58.7909 18 61V98C18 100.209 19.7909 102 22 102H35V57H22ZM59.9551 17.5C58.3099 17.5 56.8324 18.5076 56.2314 20.0391L43 53.7559V102H83.3926C89.2796 102 94.538 98.3167 96.5498 92.7842L103.759 72.958L103.815 72.792C103.938 72.4037 104 71.9986 104 71.5908V61C104 58.7909 102.209 57 100 57H72.5C66.9772 57 62.5 52.5228 62.5 47V19.5C62.5 18.3954 61.6046 17.5 60.5 17.5H59.9551Z" fill="black"/>
</g>
</svg>
