<svg width="120" height="120" viewBox="0 0 120 120" fill="none" xmlns="http://www.w3.org/2000/svg">
<g id="thickness=Light, name=communicate_phone-default&#38;Light, mode=fill">
<path id="S1" d="M35.2715 13.7871C40.0278 13.1636 44.6398 15.6944 46.669 20.041L51.5205 30.4366C52.528 32.2331 53.1514 34.1152 53.1514 36.0889C53.1513 38.0921 52.509 39.9259 51.416 41.6016C51.4103 41.6115 51.4038 41.623 51.3965 41.6358C51.3631 41.6938 51.3128 41.7807 51.249 41.8926C51.1214 42.1165 50.9382 42.4417 50.7158 42.8399C50.2703 43.6377 49.6736 44.7244 49.0664 45.8858C48.4562 47.053 47.8507 48.2664 47.3779 49.3252C46.863 50.4784 46.6385 51.1617 46.6006 51.3887C46.5331 51.794 46.6495 53.4995 47.958 56.2813C49.1997 58.9209 51.3754 62.2177 54.8692 65.6895C61.9934 72.7688 67.1345 73.7902 69.3076 73.5186C70.435 73.3776 72.378 72.5528 74.3545 71.5098C75.2718 71.0257 76.0921 70.5518 76.6836 70.1983C76.9782 70.0222 77.2137 69.8776 77.3731 69.7784C77.4527 69.7288 77.5135 69.6899 77.5527 69.6651C77.5719 69.653 77.586 69.6443 77.5947 69.6387C77.5991 69.6359 77.603 69.6338 77.6045 69.6328L77.9404 69.4219C79.8523 68.2882 82.0857 67.963 83.9453 67.9629C85.9579 67.9629 87.9701 68.3435 89.4531 68.9366L100.922 73.4698C106.431 75.6473 109.226 81.7965 107.245 87.3789L103.482 97.9805C101.141 104.578 94.5467 108.679 87.5938 107.861L82.3477 107.244L82.2608 107.233L82.1738 107.218C71.573 105.336 63.5862 102.35 56.5606 98.1153C49.5753 93.9047 43.6661 88.5327 37.1875 82.0948C23.8921 68.8833 13.8317 48.9569 12.2305 33.1885L12.2178 33.0606L12.1719 30.2188C12.0496 22.5978 17.6625 16.0967 25.2197 15.1055L35.2715 13.7871Z" fill="black"/>
</g>
</svg>
