<svg width="120" height="120" viewBox="0 0 120 120" fill="none" xmlns="http://www.w3.org/2000/svg">
<g id="thickness=Standard, name=communicate_hashtag, mode=default">
<path id="S1" d="M37.0615 11.3024C37.4469 9.12733 39.5221 7.6761 41.6973 8.06118C43.8724 8.44638 45.3234 10.5218 44.9385 12.6969L41.6973 30.9997H89.5732L93.0615 11.3024C93.4469 9.12733 95.5221 7.6761 97.6973 8.06118C99.8724 8.44638 101.323 10.5218 100.938 12.6969L97.6973 30.9997H108C110.209 30.9997 112 32.7907 112 34.9997C112 37.2088 110.209 38.9997 108 38.9997H96.2803L88.8428 80.9996H101C103.209 80.9996 105 82.7907 105 84.9996C105 87.2088 103.209 88.9996 101 88.9996H87.4268L83.9385 108.697C83.5533 110.872 81.478 112.323 79.3027 111.938C77.1275 111.553 75.6764 109.478 76.0615 107.302L79.3027 88.9996H31.4268L27.9385 108.697C27.5533 110.872 25.478 112.323 23.3027 111.938C21.1275 111.553 19.6764 109.478 20.0615 107.302L23.3027 88.9996H12C9.79086 88.9996 8 87.2088 8 84.9996C8.00021 82.7907 9.79099 80.9996 12 80.9996H24.7197L32.1572 38.9997H19C16.7909 38.9997 15 37.2088 15 34.9997C15.0002 32.7907 16.791 30.9997 19 30.9997H33.5732L37.0615 11.3024ZM32.8428 80.9996H80.7197L88.1572 38.9997H40.2803L32.8428 80.9996Z" fill="black"/>
</g>
</svg>
