<svg width="120" height="120" viewBox="0 0 120 120" fill="none" xmlns="http://www.w3.org/2000/svg">
<g id="thickness=Light, name=communicate_emoji, mode=default">
<path id="S1" fill-rule="evenodd" clip-rule="evenodd" d="M11 60C11 32.938 32.938 11 60 11C87.062 11 109 32.938 109 60C109 87.062 87.062 109 60 109C32.938 109 11 87.062 11 60ZM60 5C29.6243 5 5 29.6243 5 60C5 90.3757 29.6243 115 60 115C90.3757 115 115 90.3757 115 60C115 29.6243 90.3757 5 60 5ZM43 50C45.2091 50 47 48.2091 47 46C47 43.7909 45.2091 42 43 42C40.7909 42 39 43.7909 39 46C39 48.2091 40.7909 50 43 50ZM81 46C81 48.2091 79.2091 50 77 50C74.7909 50 73 48.2091 73 46C73 43.7909 74.7909 42 77 42C79.2091 42 81 43.7909 81 46ZM33.9233 66.3256C33.5508 64.7111 31.9401 63.7043 30.3257 64.0767C28.7112 64.4492 27.7044 66.0599 28.0768 67.6743C31.4244 82.1853 44.4466 92.9999 60.0001 92.9999C75.5535 92.9999 88.5757 82.1853 91.9233 67.6743C92.2957 66.0599 91.2889 64.4492 89.6744 64.0767C88.06 63.7043 86.4493 64.7111 86.0768 66.3256C83.3456 78.165 72.7075 86.9999 60.0001 86.9999C47.2926 86.9999 36.6546 78.165 33.9233 66.3256Z" fill="black"/>
</g>
</svg>
