<svg width="120" height="120" viewBox="0 0 120 120" fill="none" xmlns="http://www.w3.org/2000/svg">
<g id="thickness=Standard, name=communicate_message, mode=default">
<path id="S1" fill-rule="evenodd" clip-rule="evenodd" d="M19 22C16.7909 22 15 23.7909 15 26V82C15 82.0857 15.0026 82.1704 15.0078 82.2538L15.023 82.5L15.0078 82.7462C15.0026 82.8297 15 82.9143 15 83V97.6865C15 100.704 18.2135 102.635 20.8777 101.218L46.8613 87.4044C48.5957 86.4822 50.5301 86 52.4944 86H101C103.209 86 105 84.2091 105 82V26C105 23.7909 103.209 22 101 22H19ZM7 26C7 19.3726 12.3726 14 19 14H101C107.627 14 113 19.3726 113 26V82C113 88.6274 107.627 94 101 94H52.4944C51.8396 94 51.1949 94.1607 50.6167 94.4681L24.6331 108.282C16.6404 112.531 7 106.739 7 97.6865V83C7 82.8327 7.00345 82.666 7.01029 82.5C7.00345 82.334 7 82.1673 7 82V26Z" fill="black"/>
<path id="N1" fill-rule="evenodd" clip-rule="evenodd" d="M32 43C29.7909 43 28 44.7909 28 47C28 49.2091 29.7909 51 32 51H88C90.2091 51 92 49.2091 92 47C92 44.7909 90.2091 43 88 43H32ZM32 61C29.7909 61 28 62.7909 28 65C28 67.2091 29.7909 69 32 69H68C70.2091 69 72 67.2091 72 65C72 62.7909 70.2091 61 68 61H32Z" fill="black"/>
</g>
</svg>
