<svg width="120" height="120" viewBox="0 0 120 120" fill="none" xmlns="http://www.w3.org/2000/svg">
<g id="thickness=Bold, name=communicate_hashtag, mode=default">
<path id="S1" d="M93.5693 11.2156C94.0028 8.76873 96.3372 7.13604 98.7842 7.56912C101.231 8.0025 102.864 10.3371 102.431 12.784L99.3818 29.9998H108C110.761 29.9998 113 32.2385 113 34.9998C113 37.7612 110.761 39.9998 108 39.9998H97.6113L90.5283 79.9998H101C103.761 79.9998 106 82.2385 106 84.9998C106 87.7612 103.761 89.9998 101 89.9998H88.7568L85.4307 108.784C84.9973 111.231 82.6628 112.863 80.2158 112.43C77.7687 111.997 76.1362 109.663 76.5693 107.216L79.6182 89.9998H30.7568L27.4307 108.784C26.9973 111.231 24.6628 112.863 22.2158 112.43C19.7687 111.997 18.1362 109.663 18.5693 107.216L21.6182 89.9998H12C9.23858 89.9998 7 87.7612 7 84.9998C7.00015 82.2385 9.23867 79.9998 12 79.9998H23.3887L30.4717 39.9998H19C16.2386 39.9998 14 37.7612 14 34.9998C14.0002 32.2385 16.2387 29.9998 19 29.9998H32.2432L35.5693 11.2156C36.0028 8.76873 38.3372 7.13604 40.7842 7.56912C43.2311 8.0025 44.8635 10.3371 44.4307 12.784L41.3818 29.9998H90.2432L93.5693 11.2156ZM32.5283 79.9998H81.3887L88.4717 39.9998H39.6113L32.5283 79.9998Z" fill="black"/>
</g>
</svg>
