<svg width="120" height="120" viewBox="0 0 120 120" fill="none" xmlns="http://www.w3.org/2000/svg">
<g id="thickness=Light, name=communicate_messages, mode=fill">
<path id="S1" d="M98 44C104.075 44 109 48.9249 109 55V100.198C109 108.564 100.032 113.867 92.7012 109.838L79.5693 102.618C78.8313 102.212 78.0023 102 77.1602 102H44C37.9249 102 33 97.0751 33 91V77.124L38.2588 74H73C82.3888 74 90 66.3888 90 57V44H98ZM73 10C79.0751 10 84 14.9249 84 21V57C84 63.0751 79.0751 68 73 68H37.9844C37.0857 68 36.2033 68.2422 35.4307 68.7012L24.6182 75.125C17.4002 79.4128 8.28952 74.3587 8.00684 66.0645L8 65.667V21C8 14.9249 12.9249 10 19 10H73Z" fill="black"/>
</g>
</svg>
