<svg width="120" height="120" viewBox="0 0 120 120" fill="none" xmlns="http://www.w3.org/2000/svg">
<g id="name=symbol_resize, thickness=Light, mode=default">
<path id="S1" fill-rule="evenodd" clip-rule="evenodd" d="M63 10C63 8.34315 61.6569 7 60 7C58.3431 7 57 8.34315 57 10V57H10C8.34315 57 7 58.3431 7 60C7 61.6569 8.34315 63 10 63H57V110C57 111.657 58.3431 113 60 113C61.6569 113 63 111.657 63 110V63H110C111.657 63 113 61.6569 113 60C113 58.3431 111.657 57 110 57H63V10Z" fill="black"/>
</g>
</svg>
