<svg width="120" height="120" viewBox="0 0 120 120" fill="none" xmlns="http://www.w3.org/2000/svg">
<g id="thickness=Standard, mode=default, name=symbol_rightCircle">
<path id="N1" d="M107 60C107 34.0426 85.9574 13 60 13C34.0426 13 13 34.0426 13 60C13 85.9574 34.0426 107 60 107C85.9574 107 107 85.9574 107 60ZM115 60C115 90.3757 90.3757 115 60 115C29.6243 115 5 90.3757 5 60C5 29.6243 29.6243 5 60 5C90.3757 5 115 29.6243 115 60Z" fill="black"/>
<path id="S1" d="M91 34C93.2091 34 95 35.7909 95 38C95 38.8254 94.7487 39.5915 94.3203 40.2285L94.3213 40.2295L63.3232 86.3975C58.9479 92.914 49.5976 93.5448 44.3867 87.6748L23.5088 64.1553V64.1543C22.8816 63.448 22.5 62.5188 22.5 61.5C22.5 59.2909 24.2909 57.5 26.5 57.5C27.6751 57.5 28.732 58.0066 29.4639 58.8135L50.9541 82.5195C52.253 83.952 54.5485 83.7998 55.6465 82.208L87.707 35.7285H87.708C88.4298 34.6845 89.6347 34 91 34Z" fill="black"/>
</g>
</svg>
