<svg width="120" height="120" viewBox="0 0 120 120" fill="none" xmlns="http://www.w3.org/2000/svg">
<g id="thickness=Standard, mode=default, name=symbol_informationCircle">
<path id="N1" d="M107 60C107 34.0426 85.9574 13 60 13C34.0426 13 13 34.0426 13 60C13 85.9574 34.0426 107 60 107C85.9574 107 107 85.9574 107 60ZM115 60C115 90.3757 90.3757 115 60 115C29.6243 115 5 90.3757 5 60C5 29.6243 29.6243 5 60 5C90.3757 5 115 29.6243 115 60Z" fill="black"/>
<path id="S1" d="M60 42C60.0707 42 60.1411 42.0013 60.2109 42.0049C62.6138 42.1158 64.5203 44.1126 64.4941 46.543L64.0439 88H70C72.2091 88 74 89.7909 74 92C74 94.2091 72.2091 96 70 96H50C47.7909 96 46 94.2091 46 92C46 89.7909 47.7909 88 50 88H55.9561L55.543 50H53C50.7909 50 49 48.2091 49 46C49 43.7909 50.7909 42 53 42H60ZM60 25C63.3137 25 66 27.6863 66 31C66 34.3137 63.3137 37 60 37C56.6863 37 54 34.3137 54 31C54 27.6863 56.6863 25 60 25Z" fill="black"/>
</g>
</svg>
