<svg width="120" height="120" viewBox="0 0 120 120" fill="none" xmlns="http://www.w3.org/2000/svg">
<g id="thickness=Standard, mode=default, name=symbol_mindmap">
<path id="S1" d="M104 10C106.209 10 108 11.7909 108 14C108 16.2091 106.209 18 104 18H93.708C83.7871 18 74.8889 24.1046 71.3174 33.3604L62.9512 55.04C62.825 55.367 62.6865 55.6869 62.5381 56H112C114.209 56 116 57.7909 116 60C116 62.2091 114.209 64 112 64H62.5381C62.6865 64.3131 62.825 64.633 62.9512 64.96L71.3174 86.6396C74.8889 95.8954 83.7871 102 93.708 102H104C106.209 102 108 103.791 108 106C108 108.209 106.209 110 104 110H93.708C80.4801 110 68.6155 101.861 63.8535 89.5195L55.4873 67.8398C54.5943 65.5261 52.3698 64 49.8896 64H43.7012C42.0403 73.6544 33.6285 81 23.5 81C12.1782 81 3 71.8218 3 60.5C3 49.1782 12.1782 40 23.5 40C33.2758 40 41.4518 46.843 43.5029 56H49.8896C52.3698 56 54.5943 54.4739 55.4873 52.1602L63.8535 30.4805C68.6155 18.1394 80.4801 10 93.708 10H104ZM23.5 48C16.5964 48 11 53.5964 11 60.5C11 67.4036 16.5964 73 23.5 73C30.4036 73 36 67.4036 36 60.5C36 53.5964 30.4036 48 23.5 48Z" fill="black"/>
</g>
</svg>
