<svg width="120" height="120" viewBox="0 0 120 120" fill="none" xmlns="http://www.w3.org/2000/svg">
<g id="thickness=Light, mode=default, name=symbol_rightCircle">
<path id="S1" fill-rule="evenodd" clip-rule="evenodd" d="M12.8787 17.1213C12.3358 16.5784 12 15.8284 12 15C12 13.3431 13.3431 12 15 12C15.8284 12 16.5784 12.3358 17.1213 12.8787L60 55.7573L102.879 12.8787C103.422 12.3358 104.172 12 105 12C106.657 12 108 13.3431 108 15C108 15.8325 107.661 16.5857 107.113 17.1292L64.2426 60L107.121 102.879C107.664 103.422 108 104.172 108 105C108 106.657 106.657 108 105 108C104.172 108 103.422 107.664 102.879 107.121L60 64.2426L17.1292 107.113C16.5857 107.661 15.8325 108 15 108C13.3431 108 12 106.657 12 105C12 104.172 12.3358 103.422 12.8787 102.879L55.7573 60L12.8787 17.1213Z" fill="black"/>
</g>
</svg>
