<svg width="120" height="120" viewBox="0 0 120 120" fill="none" xmlns="http://www.w3.org/2000/svg">
<g id="thickness=Light, mode=default, name=symbol_infinite">
<path id="S1" d="M113 60C113 46.293 104.38 35 91 35C85.0203 35 80.1049 37.8995 75.5059 42.8027C71.185 47.4095 67.4066 53.5014 63.5 60C67.4066 66.4986 71.185 72.5905 75.5059 77.1973C80.1049 82.1005 85.0203 85 91 85C104.38 85 113 73.707 113 60ZM7 60C7 73.707 15.6195 85 29 85C34.9797 85 39.8951 82.1005 44.4941 77.1973C48.8149 72.5906 52.5925 66.4985 56.499 60C52.5925 53.5015 48.8149 47.4094 44.4941 42.8027C39.8951 37.8995 34.9797 35 29 35C15.6195 35 7 46.293 7 60ZM119 60C119 75.9838 108.644 91 91 91C82.7676 91 76.3793 86.8994 71.1299 81.3027C66.9997 76.8994 63.3953 71.3702 60 65.8037C56.6047 71.3702 53.0003 76.8994 48.8701 81.3027C43.6207 86.8994 37.2324 91 29 91C11.3562 91 1 75.9838 1 60C1 44.0162 11.3562 29 29 29C37.2324 29 43.6207 33.1006 48.8701 38.6973C53.0001 43.1005 56.6048 48.6291 60 54.1953C63.3952 48.6291 66.9999 43.1005 71.1299 38.6973C76.3793 33.1006 82.7676 29 91 29C108.644 29 119 44.0162 119 60Z" fill="black"/>
</g>
</svg>
