<svg width="120" height="120" viewBox="0 0 120 120" fill="none" xmlns="http://www.w3.org/2000/svg">
<g id="thickness=Bold, mode=default, name=symbol_informationCircle">
<path id="N1" d="M106.5 60C106.5 34.3188 85.6812 13.5 60 13.5C34.3188 13.5 13.5 34.3188 13.5 60C13.5 85.6812 34.3188 106.5 60 106.5C85.6812 106.5 106.5 85.6812 106.5 60ZM115.5 60C115.5 90.6518 90.6518 115.5 60 115.5C29.3482 115.5 4.5 90.6518 4.5 60C4.5 29.3482 29.3482 4.5 60 4.5C90.6518 4.5 115.5 29.3482 115.5 60Z" fill="black"/>
<path id="S1" d="M60 42C60.0793 42 60.1581 42.0018 60.2363 42.0059C62.9054 42.1301 65.0229 44.3479 64.9941 47.0479L64.5479 89H70C72.4853 89 74.5 91.0147 74.5 93.5C74.5 95.9853 72.4853 98 70 98H50C47.5147 98 45.5 95.9853 45.5 93.5C45.5 91.0147 47.5147 89 50 89H55.4521L55.0479 51H53C50.5147 51 48.5 48.9853 48.5 46.5C48.5 44.0147 50.5147 42 53 42H60ZM60 24C63.866 24 67 27.134 67 31C67 34.866 63.866 38 60 38C56.134 38 53 34.866 53 31C53 27.134 56.134 24 60 24Z" fill="black"/>
</g>
</svg>
