<svg width="120" height="120" viewBox="0 0 120 120" fill="none" xmlns="http://www.w3.org/2000/svg">
<g id="thickness=Standard, mode=default, name=symbol_warningCircle">
<path id="S1" d="M60 5C90.3757 5 115 29.6243 115 60C115 90.3757 90.3757 115 60 115C29.6243 115 5 90.3757 5 60C5 29.6243 29.6243 5 60 5ZM60 13C34.0426 13 13 34.0426 13 60C13 85.9574 34.0426 107 60 107C85.9574 107 107 85.9574 107 60C107 34.0426 85.9574 13 60 13ZM60 85C63.3137 85 66 87.6863 66 91C66 94.3137 63.3137 97 60 97C56.6863 97 54 94.3137 54 91C54 87.6863 56.6863 85 60 85ZM60 22C62.7905 22.0001 65.0366 24.2931 64.9785 27.083L63.999 74.083H63.998C63.9538 76.2538 62.1814 78 60 78C57.8186 78 56.0462 76.2538 56.002 74.083H56.001L55.0215 27.083C54.9634 24.293 57.2094 22 60 22Z" fill="black"/>
</g>
</svg>
