<svg width="120" height="120" viewBox="0 0 120 120" fill="none" xmlns="http://www.w3.org/2000/svg">
<g id="thickness=Standard, mode=fill, name=symbol_warningTriangular">
<path id="S1" d="M49.5005 10.953C54.1131 2.56742 66.3476 2.70224 70.7143 11.3583L114.719 98.5956L114.901 98.9706C118.562 106.868 112.804 115.999 104.005 116H15.9957C7.05695 116 1.25634 106.577 5.2818 98.5956L49.2866 11.3583L49.5005 10.953ZM59.9995 86.9999C56.686 87.0001 53.9996 89.6863 53.9995 92.9999C53.9995 96.3135 56.686 98.9997 59.9995 98.9999C63.3132 98.9999 65.9995 96.3136 65.9995 92.9999C65.9994 89.6862 63.3132 86.9999 59.9995 86.9999ZM59.9995 27.9999C57.2057 28.0001 54.9591 30.2996 55.0239 33.0927L56.0005 75.0927H56.0015C56.0508 77.2588 57.8216 78.9997 59.9995 78.9999C62.1776 78.9999 63.9482 77.2589 63.9976 75.0927H63.9985L64.9751 33.0927C65.04 30.2995 62.7935 27.9999 59.9995 27.9999Z" fill="black"/>
</g>
</svg>
