<svg width="120" height="120" viewBox="0 0 120 120" fill="none" xmlns="http://www.w3.org/2000/svg">
<g id="thickness=Bold, mode=default, name=symbol_more">
<path id="S1" d="M19 48.5C25.3513 48.5 30.5 53.6487 30.5 60C30.5 66.3513 25.3513 71.5 19 71.5C12.6487 71.5 7.5 66.3513 7.5 60C7.5 53.6487 12.6487 48.5 19 48.5ZM60 48.5C66.3513 48.5 71.5 53.6487 71.5 60C71.5 66.3513 66.3513 71.5 60 71.5C53.6487 71.5 48.5 66.3513 48.5 60C48.5 53.6487 53.6487 48.5 60 48.5ZM101 48.5C107.351 48.5 112.5 53.6487 112.5 60C112.5 66.3513 107.351 71.5 101 71.5C94.6487 71.5 89.5 66.3513 89.5 60C89.5 53.6487 94.6487 48.5 101 48.5Z" fill="black"/>
</g>
</svg>
