<svg width="120" height="120" viewBox="0 0 120 120" fill="none" xmlns="http://www.w3.org/2000/svg">
<g id="thickness=Bold, mode=default, name=symbol_resize">
<path id="S1" fill-rule="evenodd" clip-rule="evenodd" d="M64.5 11C64.5 8.51472 62.4853 6.5 60 6.5C57.5147 6.5 55.5 8.51472 55.5 11V55.5H11C8.51472 55.5 6.5 57.5147 6.5 60C6.5 62.4853 8.51472 64.5 11 64.5H55.5V109C55.5 111.485 57.5147 113.5 60 113.5C62.4853 113.5 64.5 111.485 64.5 109V64.5H109C111.485 64.5 113.5 62.4853 113.5 60C113.5 57.5147 111.485 55.5 109 55.5H64.5V11Z" fill="black"/>
</g>
</svg>
