<svg width="120" height="120" viewBox="0 0 120 120" fill="none" xmlns="http://www.w3.org/2000/svg">
<g id="thickness=Light, mode=fill, name=symbol_wrongCircle">
<path id="S1" d="M60 5C90.3757 5 115 29.6243 115 60C115 90.3757 90.3757 115 60 115C29.6243 115 5 90.3757 5 60C5 29.6243 29.6243 5 60 5ZM89 28C88.2753 28 87.6103 28.2567 87.0918 28.6846C87.0176 28.7458 86.9469 28.811 86.8789 28.8789L60 55.7578L33.1211 28.8789C33.0531 28.811 32.9824 28.7458 32.9082 28.6846C32.3897 28.2567 31.7247 28 31 28C29.3431 28 28 29.3431 28 31C28 31.7247 28.2567 32.3897 28.6846 32.9082C28.7458 32.9824 28.811 33.0531 28.8789 33.1211L55.7578 60L28.8789 86.8789C28.336 87.4218 28 88.1716 28 89C28 90.6569 29.3431 92 31 92C31.8284 92 32.5782 91.664 33.1211 91.1211L60 64.2422L86.8789 91.1211C87.4218 91.664 88.1716 92 89 92C90.6569 92 92 90.6569 92 89C92 88.1716 91.664 87.4218 91.1211 86.8789L64.2422 60L91.1211 33.1211C91.664 32.5782 92 31.8284 92 31C92 29.3431 90.6569 28 89 28Z" fill="black"/>
</g>
</svg>
