<svg width="120" height="120" viewBox="0 0 120 120" fill="none" xmlns="http://www.w3.org/2000/svg">
<g id="thickness=Bold, mode=fill, name=symbol_informationCircle">
<path id="S1" fill-rule="evenodd" clip-rule="evenodd" d="M51.3312 111.975L51.3313 111.975L54.2874 115.21C56.1655 115.402 58.0713 115.5 60 115.5C61.9287 115.5 63.8345 115.402 65.7126 115.21L68.6687 111.975L68.6688 111.975L68.6703 111.973L68.6703 111.973L68.6842 111.957C68.6944 111.946 68.7094 111.929 68.7291 111.906C68.7451 111.888 68.7641 111.866 68.7861 111.84C68.8846 111.726 69.0426 111.539 69.2515 111.28C69.6694 110.761 70.2905 109.956 71.0463 108.871C72.5586 106.699 74.6057 103.413 76.6459 99.0638C78.8295 94.4093 81.0066 88.5359 82.513 81.5H37.487C38.9934 88.5359 41.1705 94.4093 43.3541 99.0638C45.3943 103.413 47.4414 106.699 48.9537 108.871C49.7095 109.956 50.3306 110.761 50.7485 111.28C50.9574 111.539 51.1154 111.726 51.2139 111.84C51.2631 111.898 51.2974 111.937 51.3158 111.957L51.3297 111.973L51.3297 111.973L51.3312 111.975ZM79.8879 111.83C94.0003 106.412 105.338 95.3955 111.182 81.5H91.6972C90.0368 90.0941 87.4369 97.2523 84.7937 102.886C83.0965 106.504 81.3821 109.492 79.8879 111.83ZM114.087 72.5C115.011 68.4825 115.5 64.2983 115.5 60C115.5 55.7017 115.011 51.5175 114.087 47.5H92.5462C93.0712 51.5789 93.4053 55.9068 93.484 60.4725C93.5568 64.7001 93.3783 68.7111 93.0045 72.5H114.087ZM111.182 38.5C105.268 24.4388 93.729 13.3257 79.3817 7.97816C80.8615 10.4721 82.6197 13.7493 84.3845 17.7642C86.8207 23.3067 89.2716 30.2603 91.0178 38.5H111.182ZM66.0868 4.82996C64.0878 4.6119 62.057 4.5 60 4.5C57.943 4.5 55.9122 4.6119 53.9132 4.82996L51.5125 7.81281L51.512 7.81347L51.5117 7.8138L51.5094 7.81671L51.5077 7.81886L51.5056 7.82146L51.4953 7.83471C51.4766 7.85858 51.4429 7.90184 51.3953 7.96432C51.3001 8.08929 51.1491 8.29105 50.95 8.56827C50.5518 9.1228 49.9616 9.97848 49.2413 11.1245C47.8 13.4174 45.8412 16.8665 43.8547 21.3858C41.824 26.0056 39.766 31.7395 38.2004 38.5H81.7996C80.234 31.7395 78.176 26.0056 76.1453 21.3858C74.1588 16.8665 72.2 13.4174 70.7587 11.1245C70.0384 9.97848 69.4482 9.1228 69.05 8.56827C68.8509 8.29105 68.6999 8.08929 68.6047 7.96432C68.5571 7.90184 68.5234 7.85858 68.5047 7.83471L68.4944 7.82146L68.4923 7.81886L68.4906 7.81671L68.4883 7.8138L68.488 7.81347L68.4875 7.81281L66.0868 4.82996ZM40.6183 7.97816C26.271 13.3257 14.7318 24.4388 8.81797 38.5H28.9822C30.7284 30.2603 33.1793 23.3067 35.6155 17.7642C37.3803 13.7493 39.1385 10.4721 40.6183 7.97816ZM5.91335 47.5C4.98862 51.5175 4.5 55.7017 4.5 60C4.5 64.2983 4.98863 68.4825 5.91336 72.5H26.9955C26.6217 68.7111 26.4432 64.7001 26.516 60.4725C26.5947 55.9068 26.9288 51.5789 27.4538 47.5H5.91335ZM8.81799 81.5C14.6621 95.3955 25.9997 106.412 40.1121 111.83C38.6179 109.492 36.9035 106.504 35.2063 102.886C32.5631 97.2523 29.9632 90.0941 28.3028 81.5H8.81799ZM84.4853 60.6276C84.5577 64.8292 84.3589 68.7886 83.9563 72.5H36.0437C35.6411 68.7886 35.4423 64.8292 35.5147 60.6276C35.5949 55.9738 35.9619 51.5934 36.5346 47.5H83.4654C84.0381 51.5934 84.4051 55.9738 84.4853 60.6276Z" fill="black"/>
</g>
</svg>
