<svg width="120" height="120" viewBox="0 0 120 120" fill="none" xmlns="http://www.w3.org/2000/svg">
<g id="thickness=Light, mode=default, name=symbol_informationCircle">
<path id="S1" fill-rule="evenodd" clip-rule="evenodd" d="M60 11C57.3401 11 54.7297 11.2119 52.1848 11.6198C51.9287 12.0278 51.6387 12.5029 51.3212 13.0442C50.0218 15.2593 48.2637 18.5778 46.483 22.9185C44.5098 27.7285 42.5097 33.7915 41.0741 41H78.9259C77.4903 33.7915 75.4902 27.7285 73.517 22.9185C71.7363 18.5778 69.9782 15.2593 68.6788 13.0442C68.3613 12.5029 68.0713 12.0278 67.8152 11.6198C65.2703 11.2119 62.6599 11 60 11ZM40.9319 20.6414C38.7198 26.0338 36.492 32.8641 34.9628 41H14.8199C20.2179 28.1796 30.9135 18.1375 44.1656 13.6149C43.1517 15.5836 42.0437 17.9312 40.9319 20.6414ZM34.0031 47H12.7431C11.6068 51.14 11 55.4991 11 60C11 64.5009 11.6068 68.86 12.7431 73H33.5615C33.1484 69.0857 32.9426 64.9072 33.0139 60.4717C33.0907 55.6969 33.4468 51.2014 34.0031 47ZM34.3825 79H14.8199C20.1457 91.6491 30.6285 101.594 43.6357 106.201C42.652 104.415 41.6015 102.327 40.5579 99.9432C38.166 94.4801 35.8119 87.4685 34.3825 79ZM40.4732 79H79.5268C78.1747 86.4935 76.0653 92.6959 73.9458 97.5367C72.1118 101.726 70.2692 104.897 68.9014 107.001C68.5673 107.516 68.2616 107.966 67.9916 108.352C65.3909 108.778 62.7214 109 60 109C57.2786 109 54.6091 108.778 52.0084 108.352C51.7384 107.966 51.4327 107.516 51.0986 107.001C49.7308 104.897 47.8882 101.726 46.0542 97.5367C43.9347 92.6959 41.8253 86.4935 40.4732 79ZM80.4029 73H39.5971C39.1631 69.1393 38.942 64.9929 39.0131 60.5682C39.0909 55.733 39.4701 51.2047 40.0585 47H79.9415C80.5299 51.2047 80.9091 55.733 80.9869 60.5682C81.058 64.9929 80.8369 69.1393 80.4029 73ZM85.6175 79C84.1881 87.4685 81.834 94.4801 79.4421 99.9432C78.3985 102.327 77.348 104.415 76.3643 106.201C89.3715 101.594 99.8543 91.6491 105.18 79H85.6175ZM107.257 73H86.4385C86.8515 69.0857 87.0574 64.9072 86.9861 60.4717C86.9093 55.6969 86.5532 51.2014 85.9969 47H107.257C108.393 51.14 109 55.4991 109 60C109 64.5009 108.393 68.86 107.257 73ZM75.8344 13.6149C89.0865 18.1375 99.7821 28.1796 105.18 41H85.0372C83.5079 32.8641 81.2802 26.0338 79.0681 20.6414C77.9563 17.9312 76.8483 15.5836 75.8344 13.6149ZM71.3887 113.819C96.2994 108.574 115 86.471 115 60C115 29.6243 90.3757 5 60 5C29.6243 5 5 29.6243 5 60C5 86.471 23.7006 108.574 48.6113 113.819L48.6447 113.86L48.6791 113.901L48.6921 113.917L48.7076 113.935L48.7132 113.942L48.7155 113.944C48.7158 113.945 48.7161 113.945 48.8146 113.862C52.4262 114.608 56.1673 115 60 115C63.8327 115 67.5738 114.608 71.1854 113.862C71.2264 113.897 71.2504 113.917 71.2645 113.928C71.2841 113.945 71.2843 113.945 71.2845 113.944L71.2868 113.942L71.2924 113.935L71.3079 113.917C71.32 113.902 71.3359 113.883 71.3553 113.86L71.3887 113.819Z" fill="black"/>
</g>
</svg>
