<svg width="120" height="120" viewBox="0 0 120 120" fill="none" xmlns="http://www.w3.org/2000/svg">
<g id="thickness=Bold, mode=default, name=symbol_warningCircle">
<path id="S1" d="M60 4.5C90.6518 4.5 115.5 29.3482 115.5 60C115.5 90.6518 90.6518 115.5 60 115.5C29.3482 115.5 4.5 90.6518 4.5 60C4.5 29.3482 29.3482 4.5 60 4.5ZM60 13.5C34.3188 13.5 13.5 34.3188 13.5 60C13.5 85.6812 34.3188 106.5 60 106.5C85.6812 106.5 106.5 85.6812 106.5 60C106.5 34.3188 85.6812 13.5 60 13.5ZM60 85C63.866 85 67 88.134 67 92C67 95.866 63.866 99 60 99C56.134 99 53 95.866 53 92C53 88.134 56.134 85 60 85ZM60 21.5C63.0708 21.5 65.5425 24.0236 65.4785 27.0938L64.499 74.0938H64.498C64.4481 76.5357 62.4539 78.5 60 78.5C57.5461 78.5 55.5519 76.5357 55.502 74.0938H55.501L54.5215 27.0938C54.4575 24.0236 56.9291 21.5 60 21.5Z" fill="black"/>
</g>
</svg>
