<svg width="120" height="120" viewBox="0 0 120 120" fill="none" xmlns="http://www.w3.org/2000/svg">
<g id="thickness=Bold, mode=default, name=symbol_right">
<path id="S1" fill-rule="evenodd" clip-rule="evenodd" d="M114.5 18C114.5 18.904 114.233 19.7457 113.775 20.4508L62.2626 102.422C57.702 109.679 47.3564 110.298 41.9634 103.636L6.52077 59.8541C5.8829 59.0775 5.5 58.0835 5.5 57C5.5 54.5147 7.51472 52.5 10 52.5C11.403 52.5 12.656 53.142 13.4812 54.1483L49.377 97.3086C50.4549 98.6047 52.4803 98.4843 53.397 97.0696L106.184 15.6141C106.979 14.3443 108.391 13.5 110 13.5C112.485 13.5 114.5 15.5147 114.5 18Z" fill="black"/>
</g>
</svg>
