<svg width="120" height="120" viewBox="0 0 120 120" fill="none" xmlns="http://www.w3.org/2000/svg">
<g id="thickness=Standard, mode=fill, name=symbol_informationCircle">
<path id="S1" d="M60 5C90.3757 5 115 29.6243 115 60C115 90.3757 90.3757 115 60 115C29.6243 115 5 90.3757 5 60C5 29.6243 29.6243 5 60 5ZM53 42C50.7909 42 49 43.7909 49 46C49 48.2091 50.7909 50 53 50H55.543L55.9561 88H50C47.7909 88 46 89.7909 46 92C46 94.2091 47.7909 96 50 96H70C72.2091 96 74 94.2091 74 92C74 89.7909 72.2091 88 70 88H64.0439L64.4941 46.543C64.5203 44.1126 62.6138 42.1158 60.2109 42.0049C60.1411 42.0013 60.0707 42 60 42H53ZM60 25C56.6863 25 54 27.6863 54 31C54 34.3137 56.6863 37 60 37C63.3137 37 66 34.3137 66 31C66 27.6863 63.3137 25 60 25Z" fill="black"/>
</g>
</svg>
