<svg width="120" height="120" viewBox="0 0 120 120" fill="none" xmlns="http://www.w3.org/2000/svg">
<g id="thickness=Standard, mode=fill, name=symbol_wrongCircle">
<path id="S1" d="M60 5C90.3757 5 115 29.6243 115 60C115 90.3757 90.3757 115 60 115C29.6243 115 5 90.3757 5 60C5 29.6243 29.6243 5 60 5ZM88 28C86.9645 28 86.0209 28.3935 85.3105 29.0391C85.2632 29.0821 85.2171 29.1266 85.1719 29.1719L60 54.3438L34.8281 29.1719C34.7829 29.1266 34.7368 29.0821 34.6895 29.0391C33.9791 28.3935 33.0355 28 32 28C29.7909 28 28 29.7909 28 32C28 33.0355 28.3935 33.9791 29.0391 34.6895C29.0821 34.7368 29.1266 34.7829 29.1719 34.8281L54.3438 60L29.1719 85.1719C28.448 85.8957 28 86.8954 28 88C28 90.2091 29.7909 92 32 92C33.1046 92 34.1043 91.552 34.8281 90.8281L60 65.6562L85.1719 90.8281C85.8957 91.552 86.8954 92 88 92C90.2091 92 92 90.2091 92 88C92 86.8954 91.552 85.8957 90.8281 85.1719L65.6562 60L90.8281 34.8281C91.552 34.1043 92 33.1046 92 32C92 29.7909 90.2091 28 88 28Z" fill="black"/>
</g>
</svg>
