<svg width="120" height="120" viewBox="0 0 120 120" fill="none" xmlns="http://www.w3.org/2000/svg">
<g id="thickness=Light, mode=default, name=symbol_questionCircle">
<path id="N1" d="M109 60C109 32.938 87.062 11 60 11C32.938 11 11 32.938 11 60C11 87.062 32.938 109 60 109C87.062 109 109 87.062 109 60ZM115 60C115 90.3757 90.3757 115 60 115C29.6243 115 5 90.3757 5 60C5 29.6243 29.6243 5 60 5C90.3757 5 115 29.6243 115 60Z" fill="black"/>
<path id="S1" d="M60 89C62.2091 89 64 90.7909 64 93C64 95.2091 62.2091 97 60 97C57.7909 97 56 95.2091 56 93C56 90.7909 57.7909 89 60 89ZM60 22C74.6994 22 84.9998 32.4008 85 46.3584C85 52.0224 83.4846 56.6755 80.4912 60.2002C77.5158 63.7037 73.3413 65.7848 68.5869 66.8232C65.2187 67.5591 63.0002 70.0586 63 72.6689V80C63 81.6569 61.6569 83 60 83C58.3431 83 57 81.6569 57 80V72.6689C57.0002 66.4433 62.0425 62.1108 67.3066 60.9609C71.1672 60.1178 74.0208 58.5502 75.918 56.3164C77.7972 54.1037 79 50.9295 79 46.3584C78.9998 35.7983 71.4702 28 60 28C48.5298 28 41.0002 35.7983 41 46.3584C41 48.0153 39.6569 49.3584 38 49.3584C36.3431 49.3584 35 48.0153 35 46.3584C35.0002 32.4008 45.3006 22 60 22Z" fill="black"/>
</g>
</svg>
