<svg width="120" height="120" viewBox="0 0 120 120" fill="none" xmlns="http://www.w3.org/2000/svg">
<g id="thickness=Standard, mode=default, name=symbol_infinite">
<path id="S1" d="M111 60C111 66.8948 109.422 73.0085 106.441 77.2764C103.58 81.3735 99.2916 84 93 84C87.4739 84 82.553 81.2763 77.624 76.4053C73.1746 72.0082 69.0869 66.2342 64.8369 60C69.0869 53.7658 73.1746 47.9918 77.624 43.5947C82.553 38.7237 87.4739 36 93 36C99.2916 36 103.58 38.6265 106.441 42.7236C109.422 46.9915 111 53.1052 111 60ZM9 60C9 53.1052 10.5777 46.9915 13.5586 42.7236C16.4203 38.6265 20.7084 36 27 36C32.5261 36 37.447 38.7237 42.376 43.5947C46.8253 47.9917 50.9122 53.766 55.1621 60C50.9122 66.234 46.8253 72.0083 42.376 76.4053C37.447 81.2763 32.5261 84 27 84C20.7084 84 16.4203 81.3735 13.5586 77.2764C10.5777 73.0085 9 66.8948 9 60ZM119 60C119 52.0495 117.205 44.1634 113 38.1426C108.675 31.9511 101.963 28 93 28C84.5261 28 77.6969 32.2763 72.001 37.9053C67.6625 42.1927 63.722 47.5298 60 52.9092C56.278 47.5298 52.3375 42.1927 47.999 37.9053C42.3031 32.2763 35.4739 28 27 28C18.0368 28 11.3246 31.9511 7 38.1426C2.79473 44.1634 1 52.0495 1 60C1 67.9505 2.79473 75.8366 7 81.8574C11.3246 88.0489 18.0368 92 27 92C35.4739 92 42.3031 87.7236 47.999 82.0947C52.3373 77.8074 56.2781 72.471 60 67.0918C63.7219 72.471 67.6627 77.8074 72.001 82.0947C77.6969 87.7236 84.5261 92 93 92C101.963 92 108.675 88.0489 113 81.8574C117.205 75.8366 119 67.9505 119 60Z" fill="black"/>
</g>
</svg>
