<svg width="120" height="120" viewBox="0 0 120 120" fill="none" xmlns="http://www.w3.org/2000/svg">
<g id="thickness=Bold, mode=default, name=symbol_wrongCircle">
<path id="N1" d="M106.5 60C106.5 34.3188 85.6812 13.5 60 13.5C34.3188 13.5 13.5 34.3188 13.5 60C13.5 85.6812 34.3188 106.5 60 106.5C85.6812 106.5 106.5 85.6812 106.5 60ZM115.5 60C115.5 90.6518 90.6518 115.5 60 115.5C29.3482 115.5 4.5 90.6518 4.5 60C4.5 29.3482 29.3482 4.5 60 4.5C90.6518 4.5 115.5 29.3482 115.5 60Z" fill="black"/>
<path id="S1" d="M86.5 29C88.9853 29 91 31.0147 91 33.5C91 34.9979 90.2673 36.3236 89.1416 37.1416L89.1816 37.1816L66.3633 60L89.1816 82.8184L89.1416 82.8574C90.2675 83.6754 91 85.0019 91 86.5C91 88.9853 88.9853 91 86.5 91C85.0019 91 83.6754 90.2675 82.8574 89.1416L82.8184 89.1816L60 66.3633L37.1816 89.1816L37.1416 89.1416C36.3236 90.2673 34.9979 91 33.5 91C31.0147 91 29 88.9853 29 86.5C29 85.0022 29.7319 83.6754 30.8574 82.8574L30.8184 82.8184L53.6367 60L30.8184 37.1816L30.8574 37.1416C29.7321 36.3236 29 34.9976 29 33.5C29 31.0147 31.0147 29 33.5 29C34.9976 29 36.3236 29.7321 37.1416 30.8574L37.1816 30.8184L60 53.6367L82.8184 30.8184L82.8574 30.8574C83.6754 29.7319 85.0022 29 86.5 29Z" fill="black"/>
</g>
</svg>
