<svg width="120" height="120" viewBox="0 0 120 120" fill="none" xmlns="http://www.w3.org/2000/svg">
<g id="thickness=Light, mode=default, name=symbol_link">
<path id="S2" d="M67.8034 104.573L50.1257 86.8952C48.9542 85.7236 48.9542 83.8241 50.1257 82.6525C51.2973 81.481 53.1968 81.481 54.3684 82.6525L72.0461 100.33C79.8565 108.141 92.5198 108.141 100.33 100.33C108.141 92.5197 108.141 79.8564 100.33 72.0459L82.6527 54.3683C81.4811 53.1967 81.4811 51.2972 82.6527 50.1256C83.8242 48.9541 85.7237 48.9541 86.8953 50.1256L104.573 67.8033C114.727 77.9569 114.727 94.4192 104.573 104.573C94.4193 114.726 77.9571 114.726 67.8034 104.573Z" fill="black"/>
<path id="S1" d="M41.8789 40.8789C43.0504 39.7074 44.9495 39.7074 46.121 40.8789L80.121 74.8789C81.2926 76.0505 81.2926 77.9495 80.121 79.1211C78.9494 80.2925 77.0504 80.2926 75.8788 79.1211L41.8789 45.1211C40.7073 43.9496 40.7074 42.0505 41.8789 40.8789ZM15.4277 15.4268C25.5813 5.27328 42.0436 5.27324 52.1972 15.4268L69.8749 33.1045C71.0464 34.276 71.0462 36.1751 69.8749 37.3467C68.7034 38.5183 66.8033 38.5183 65.6318 37.3467L47.954 19.67C40.1436 11.8595 27.4804 11.8595 19.6699 19.67C11.8598 27.4805 11.8596 40.1438 19.6699 47.9541L37.3476 65.6319C38.5191 66.8034 38.5192 68.7025 37.3476 69.874C36.176 71.0455 34.277 71.0455 33.1054 69.874L15.4277 52.1963C5.27411 42.0427 5.27409 25.5804 15.4277 15.4268Z" fill="black"/>
</g>
</svg>
