<svg width="120" height="120" viewBox="0 0 120 120" fill="none" xmlns="http://www.w3.org/2000/svg">
<g id="thickness=Bold, mode=default, name=symbol_right">
<path id="S1" fill-rule="evenodd" clip-rule="evenodd" d="M101.818 11.818C102.632 11.0037 103.757 10.5 105 10.5C107.485 10.5 109.5 12.5147 109.5 15C109.5 16.2489 108.991 17.3789 108.17 18.1942L66.3639 60L108.182 101.818L108.143 101.857C108.682 102.599 109 103.513 109 104.5C109 106.985 106.985 109 104.5 109C103.513 109 102.599 108.682 101.857 108.143L101.818 108.182L60 66.3639L18.6942 107.67L18.6697 107.694L18.182 108.182L18.1427 108.143C17.4006 108.682 16.4875 109 15.5 109C13.0147 109 11 106.985 11 104.5C11 103.513 11.3181 102.599 11.8573 101.857L11.818 101.818L53.636 60L12.3193 18.6832L12.3168 18.6807L11.818 18.182L11.8573 18.1426C11.318 17.4006 11 16.4875 11 15.5C11 13.0147 13.0147 11 15.5 11C16.4875 11 17.4006 11.318 18.1426 11.8573L18.182 11.818L18.6807 12.3168L18.6832 12.3193L60 53.636L101.818 11.818Z" fill="black"/>
</g>
</svg>
