<svg width="120" height="120" viewBox="0 0 120 120" fill="none" xmlns="http://www.w3.org/2000/svg">
<g id="thickness=Light, mode=default, name=symbol_more">
<path id="S1" d="M20 51C24.9706 51 29 55.0294 29 60C29 64.9706 24.9706 69 20 69C15.0294 69 11 64.9706 11 60C11 55.0294 15.0294 51 20 51ZM60 51C64.9706 51 69 55.0294 69 60C69 64.9706 64.9706 69 60 69C55.0294 69 51 64.9706 51 60C51 55.0294 55.0294 51 60 51ZM100 51C104.971 51 109 55.0294 109 60C109 64.9706 104.971 69 100 69C95.0294 69 91 64.9706 91 60C91 55.0294 95.0294 51 100 51Z" fill="black"/>
</g>
</svg>
