<svg width="120" height="120" viewBox="0 0 120 120" fill="none" xmlns="http://www.w3.org/2000/svg">
<g id="thickness=Standard, mode=default, name=symbol_question">
<path id="Union" fill-rule="evenodd" clip-rule="evenodd" d="M29 44C29 27.0295 42.7258 14 60 14C77.2742 14 91 27.0295 91 44C91 58.3947 81.1042 68.6569 67.2016 71.3269C61.4517 72.4312 56 77.2194 56 84V94.5C56 96.7091 57.7909 98.5 60 98.5C62.2091 98.5 64 96.7091 64 94.5V84C64 81.944 65.7823 79.7457 68.7104 79.1834C85.8018 75.9009 99 62.7918 99 44C99 22.3106 81.3858 6 60 6C38.6142 6 21 22.3106 21 44C21 46.2091 22.7909 48 25 48C27.2091 48 29 46.2091 29 44ZM60 102C63.3137 102 66 104.686 66 108C66 111.314 63.3137 114 60 114C56.6863 114 54 111.314 54 108C54 104.686 56.6863 102 60 102Z" fill="black"/>
</g>
</svg>
