<svg width="120" height="120" viewBox="0 0 120 120" fill="none" xmlns="http://www.w3.org/2000/svg">
<g id="thickness=Standard, mode=default, name=symbol_right">
<path id="S1" fill-rule="evenodd" clip-rule="evenodd" d="M17.8415 12.1847C17.1167 11.4531 16.1112 11 15 11C12.7909 11 11 12.7909 11 15C11 16.1046 11.4477 17.1046 12.1716 17.8285L12.1716 17.8285L54.3431 60.0001L12.184 102.159C11.4528 102.884 11 103.889 11 105C11 107.209 12.7909 109 15 109C16.1046 109 17.1046 108.552 17.8284 107.828L60 65.6569L102.172 107.828C102.895 108.552 103.895 109 105 109C107.209 109 109 107.209 109 105C109 103.889 108.547 102.884 107.816 102.159L65.6568 60.0001L107.828 17.8285C108.552 17.1046 109 16.1046 109 15C109 12.7909 107.209 11 105 11C103.889 11 102.884 11.4528 102.159 12.184L60 54.3432L17.8415 12.1847Z" fill="black"/>
</g>
</svg>
