<svg width="120" height="120" viewBox="0 0 120 120" fill="none" xmlns="http://www.w3.org/2000/svg">
<g id="thickness=Light, mode=default, name=symbol_mindmap">
<path id="S1" d="M104 11C105.657 11 107 12.3431 107 14C107 15.6569 105.657 17 104 17H93.708C83.3737 17 74.1041 23.3586 70.3838 33L62.0186 54.6797C61.7014 55.5017 61.3049 56.2768 60.8428 57H113C114.657 57 116 58.3431 116 60C116 61.6569 114.657 63 113 63H60.8428C61.3049 63.7232 61.7014 64.4983 62.0186 65.3203L70.3838 87C74.1041 96.6414 83.3737 103 93.708 103H104C105.657 103 107 104.343 107 106C107 107.657 105.657 109 104 109H93.708C80.8935 109 69.3994 101.115 64.7861 89.1602L56.4209 67.4805C55.3792 64.7809 52.7833 63 49.8896 63H42.7764C41.3289 72.6225 33.0261 80 23 80C11.9543 80 3 71.0457 3 60C3 48.9543 11.9543 40 23 40C33.0261 40 41.3289 47.3775 42.7764 57H49.8896C52.7833 57 55.3792 55.2191 56.4209 52.5195L64.7861 30.8398C69.3994 18.8845 80.8935 11 93.708 11H104ZM23 46C15.268 46 9 52.268 9 60C9 67.732 15.268 74 23 74C30.732 74 37 67.732 37 60C37 52.268 30.732 46 23 46Z" fill="black"/>
</g>
</svg>
