<svg width="120" height="120" viewBox="0 0 120 120" fill="none" xmlns="http://www.w3.org/2000/svg">
<g id="thickness=Light, mode=fill, name=symbol_rightCircle">
<path id="S1" d="M60 5C90.3757 5 115 29.6243 115 60C115 90.3757 90.3757 115 60 115C29.6243 115 5 90.3757 5 60C5 29.6243 29.6243 5 60 5ZM91 35C89.9647 35 89.0519 35.5245 88.5127 36.3223C88.5099 36.3264 88.5076 36.3308 88.5049 36.335L57.79 82.3682C56.3154 84.5782 53.1358 84.7635 51.415 82.7393L31.2861 59.0566L31.2842 59.0576C30.7339 58.4111 29.9155 58 29 58C27.3431 58 26 59.3431 26 61C26 61.73 26.261 62.3988 26.6943 62.9189V62.9199L46.1904 86.3301C50.932 92.0237 59.8324 91.4961 63.8682 85.2822L93.5156 39.6338L93.5137 39.6328C93.5569 39.5664 93.5997 39.4996 93.6377 39.4297C93.8686 39.0046 94 38.5177 94 38C94 36.3431 92.6569 35 91 35Z" fill="black"/>
</g>
</svg>
