<svg width="120" height="120" viewBox="0 0 120 120" fill="none" xmlns="http://www.w3.org/2000/svg">
<g id="thickness=Bold, mode=default, name=symbol_mindmap">
<path id="S1" d="M104 9C106.761 9 109 11.2386 109 14C109 16.7614 106.761 19 104 19H93.708C84.3489 19 75.9393 24.6686 72.4141 33.3066L72.25 33.7197L64.0391 55H112C114.761 55 117 57.2386 117 60C117 62.7614 114.761 65 112 65H64.0391L72.25 86.2803L72.4141 86.6934C75.9393 95.3314 84.3489 101 93.708 101H104C106.761 101 109 103.239 109 106C109 108.761 106.761 111 104 111H93.708C80.28 111 68.2143 102.867 63.1562 90.4736L62.9209 89.8799L54.5547 68.2002C53.8106 66.2719 51.9565 65 49.8896 65H44.0146C41.9545 74.4353 33.5532 81.5 23.5 81.5C11.902 81.5 2.5 72.098 2.5 60.5C2.5 48.902 11.902 39.5 23.5 39.5C33.1947 39.5 41.3533 46.0699 43.7705 55H49.8896C51.9565 55 53.8106 53.7281 54.5547 51.7998L62.9209 30.1201L63.1562 29.5264C68.2143 17.133 80.28 9 93.708 9H104ZM23.5 48.5C16.8726 48.5 11.5 53.8726 11.5 60.5C11.5 67.1274 16.8726 72.5 23.5 72.5C30.1274 72.5 35.5 67.1274 35.5 60.5C35.5 53.8726 30.1274 48.5 23.5 48.5Z" fill="black"/>
</g>
</svg>
