<svg width="120" height="120" viewBox="0 0 120 120" fill="none" xmlns="http://www.w3.org/2000/svg">
<g id="thickness=Light, mode=default, name=symbol_information">
<path id="S1" d="M60 34C60.0534 34 60.1065 34.0012 60.1592 34.0039C62.0258 34.0876 63.5096 35.6341 63.4961 37.5215L63.0215 103H70C71.6569 103 73 104.343 73 106C73 107.657 71.6569 109 70 109H50C48.3431 109 47 107.657 47 106C47 104.343 48.3431 103 50 103H56.9785L56.5215 40H53C51.3431 40 50 38.6569 50 37C50 35.3431 51.3431 34 53 34H60ZM60 15C63.3137 15 66 17.6863 66 21C66 24.3137 63.3137 27 60 27C56.6863 27 54 24.3137 54 21C54 17.6863 56.6863 15 60 15Z" fill="black"/>
</g>
</svg>
