<svg width="120" height="120" viewBox="0 0 120 120" fill="none" xmlns="http://www.w3.org/2000/svg">
<g id="thickness=Bold, mode=fill, name=symbol_warningTriangular">
<path id="S1" d="M49.0624 10.7109C53.8671 1.97558 66.6113 2.11683 71.16 11.1337L115.165 98.3701L115.354 98.7607C119.169 106.988 113.171 116.5 104.005 116.5H15.995C6.684 116.499 0.641504 106.684 4.83488 98.3701L48.8397 11.1337L49.0624 10.7109ZM59.9999 86C56.134 86.0001 52.9999 89.1341 52.9999 93L53.0087 93.3603C53.0204 93.5913 53.0444 93.8193 53.078 94.0439C53.0821 94.0709 53.0864 94.098 53.0907 94.125C53.1055 94.2163 53.1213 94.3073 53.1395 94.3974C53.1441 94.4199 53.1494 94.4424 53.1542 94.4648C53.1716 94.5464 53.1906 94.6275 53.2108 94.708C53.2205 94.7465 53.2308 94.7849 53.2411 94.8232C53.2598 94.8926 53.279 94.9617 53.2997 95.0302C53.3155 95.0823 53.3326 95.134 53.3495 95.1855C53.366 95.2358 53.3827 95.2861 53.4003 95.3359C53.4179 95.3856 53.4363 95.4351 53.455 95.4843C53.4768 95.5419 53.499 95.5994 53.5224 95.6562C53.5413 95.7024 53.5611 95.7483 53.581 95.7939C53.6049 95.849 53.6298 95.9037 53.6552 95.958C53.6756 96.0018 53.6963 96.0455 53.7177 96.0888C53.7448 96.144 53.7731 96.1986 53.8017 96.2529C53.8261 96.2993 53.8505 96.3458 53.8759 96.3916C53.9034 96.4412 53.9321 96.4902 53.9608 96.539C53.984 96.5785 54.0072 96.6182 54.0311 96.6572C54.0678 96.7168 54.1061 96.7755 54.1444 96.8339C54.1703 96.8734 54.1959 96.9132 54.2226 96.9521C54.2509 96.9935 54.2802 97.0344 54.3095 97.0752C54.3442 97.1236 54.379 97.1722 54.4149 97.2197C54.4474 97.2626 54.4812 97.3046 54.5145 97.3466C54.5426 97.382 54.5698 97.4183 54.5985 97.4531L54.6249 97.4853C54.8999 97.8144 55.2049 98.1178 55.5351 98.3916C55.5682 98.419 55.603 98.4448 55.6366 98.4716C55.6838 98.5094 55.731 98.5474 55.7792 98.5839C55.8267 98.6199 55.8753 98.6547 55.9237 98.6894C55.9645 98.7187 56.0054 98.7479 56.0468 98.7763C56.0857 98.803 56.1255 98.8286 56.1649 98.8545C56.2234 98.8928 56.2821 98.9311 56.3417 98.9677C56.373 98.987 56.4048 99.0056 56.4364 99.0244C56.4929 99.0579 56.5498 99.0911 56.6073 99.123C56.6512 99.1474 56.6957 99.1709 56.7401 99.1943C56.7963 99.2239 56.853 99.2531 56.9101 99.2812C56.9495 99.3007 56.9893 99.3201 57.0292 99.3388C57.0873 99.3661 57.1461 99.3922 57.205 99.4179C57.2483 99.4368 57.292 99.4555 57.3358 99.4736C57.3949 99.4979 57.4547 99.5212 57.5145 99.5439C57.5602 99.5613 57.6062 99.5783 57.6522 99.5947C57.7056 99.6137 57.7595 99.6317 57.8134 99.6494C57.8643 99.6661 57.9153 99.6836 57.9667 99.6992C58.0358 99.7201 58.1057 99.7389 58.1757 99.7578C58.2098 99.767 58.2439 99.7765 58.2782 99.7851C58.3629 99.8065 58.4482 99.8264 58.5341 99.8447C58.5565 99.8495 58.579 99.8548 58.6015 99.8593C58.6916 99.8776 58.7826 99.8934 58.8739 99.9082C58.8983 99.9121 58.9227 99.9162 58.9472 99.9199C59.1746 99.9542 59.4055 99.9793 59.6395 99.9912C59.7588 99.9972 59.8791 100 59.9999 100C60.2102 100 60.4183 99.9888 60.6239 99.9707C60.6483 99.9685 60.6729 99.9672 60.6972 99.9648C60.7636 99.9582 60.8296 99.9488 60.8954 99.9404C60.9459 99.9339 60.9966 99.9284 61.0468 99.9209C61.0961 99.9135 61.1452 99.9039 61.1942 99.8955C61.2608 99.884 61.3275 99.8736 61.3935 99.8603C61.4291 99.8531 61.4644 99.8437 61.4999 99.8359C61.5787 99.8187 61.6575 99.802 61.7352 99.7822C61.7746 99.7722 61.8134 99.7597 61.8524 99.749C61.9151 99.7318 61.9779 99.7151 62.0399 99.6963C62.1062 99.6761 62.1718 99.6539 62.2372 99.6318C62.2793 99.6176 62.3215 99.6038 62.3632 99.5888C62.4281 99.5655 62.4925 99.5407 62.5565 99.5156C62.5946 99.5006 62.633 99.4863 62.6708 99.4707C62.7319 99.4454 62.7922 99.4185 62.8524 99.3916C62.8978 99.3713 62.9433 99.3512 62.9882 99.33C63.0387 99.3061 63.0887 99.2809 63.1386 99.2558C63.1879 99.231 63.2374 99.2065 63.286 99.1806C63.3359 99.154 63.3853 99.1264 63.4345 99.0986C63.4839 99.0707 63.5333 99.0427 63.5819 99.0136C63.628 98.9861 63.6733 98.9572 63.7186 98.9287C63.7638 98.9003 63.809 98.8721 63.8534 98.8427C63.9011 98.8112 63.9481 98.7787 63.995 98.7461C64.0419 98.7134 64.0886 98.6802 64.1347 98.6464C64.1783 98.6144 64.2216 98.5818 64.2645 98.5488C64.3062 98.5167 64.3476 98.4841 64.3886 98.4511C64.4354 98.4134 64.4814 98.3748 64.5272 98.3359C64.5659 98.303 64.6045 98.27 64.6425 98.2363C64.6838 98.1996 64.725 98.1626 64.7655 98.125C64.8055 98.0878 64.8446 98.0498 64.8837 98.0117C64.9308 97.9657 64.9775 97.9193 65.0233 97.872C65.0482 97.8464 65.0731 97.8209 65.0975 97.7949C65.1454 97.744 65.1918 97.6919 65.2382 97.6396C65.27 97.6037 65.3018 97.5678 65.3329 97.5312C65.3709 97.4865 65.4083 97.4412 65.4452 97.3955C65.4812 97.351 65.5168 97.3061 65.5517 97.2607C65.5805 97.2231 65.6095 97.1856 65.6376 97.1474C65.6786 97.0918 65.7183 97.0353 65.7577 96.9785C65.7815 96.944 65.8058 96.9098 65.829 96.875C65.8686 96.8155 65.9064 96.755 65.9442 96.6943C65.9659 96.6594 65.9885 96.6251 66.0097 96.5898C66.0421 96.5355 66.0724 96.48 66.1034 96.4248C66.1273 96.3822 66.1516 96.3399 66.1747 96.2968C66.2075 96.2355 66.2394 96.1737 66.2704 96.1113C66.2876 96.0766 66.3045 96.0418 66.3212 96.0068C66.3504 95.9454 66.3787 95.8836 66.4061 95.8213C66.4256 95.7771 66.4452 95.733 66.4638 95.6884C66.4897 95.6262 66.5138 95.5631 66.538 95.5C66.5522 95.4628 66.5674 95.4261 66.5809 95.3886C66.6049 95.3225 66.6263 95.2554 66.6483 95.1884C66.6632 95.1432 66.6793 95.0983 66.6933 95.0527C66.8585 94.5133 66.9614 93.9465 66.9911 93.3603L66.9999 93C66.9999 92.6901 66.9774 92.3851 66.9384 92.0859C66.9325 92.0413 66.9275 91.9965 66.9208 91.9521C66.9127 91.8982 66.9028 91.8445 66.8934 91.791C66.8827 91.729 66.8727 91.6669 66.8602 91.6054C66.853 91.5697 66.8436 91.5345 66.8358 91.499C66.8186 91.4202 66.802 91.3414 66.7821 91.2636C66.7721 91.2243 66.7596 91.1855 66.7489 91.1464C66.7317 91.0837 66.715 91.0209 66.6962 90.9589C66.676 90.8927 66.6538 90.8271 66.6317 90.7617C66.6175 90.7196 66.6037 90.6774 66.5888 90.6357C66.5601 90.556 66.5303 90.4768 66.4989 90.3984C66.4895 90.375 66.4802 90.3514 66.4706 90.3281C66.4444 90.2647 66.4166 90.202 66.3886 90.1396C66.3693 90.0965 66.3501 90.0533 66.33 90.0107C66.3061 89.9602 66.2808 89.9102 66.2558 89.8603C66.231 89.811 66.2065 89.7615 66.1806 89.7129C66.1541 89.6632 66.1261 89.6143 66.0985 89.5654C66.0705 89.5157 66.0428 89.4658 66.0136 89.417C65.9861 89.3709 65.9571 89.3256 65.9286 89.2802C65.9003 89.2351 65.872 89.1899 65.8427 89.1455C65.8112 89.0978 65.7786 89.0507 65.746 89.0039C65.7133 88.957 65.6802 88.9103 65.6464 88.8642C65.6144 88.8206 65.5817 88.7772 65.5487 88.7343C65.5166 88.6927 65.4841 88.6512 65.4511 88.6103C65.4134 88.5636 65.3747 88.5174 65.3358 88.4716C65.303 88.433 65.2699 88.3943 65.2362 88.3564C65.1995 88.3151 65.1625 88.2738 65.1249 88.2334C65.0878 88.1935 65.0497 88.1542 65.0116 88.1152C64.9657 88.0681 64.9192 88.0213 64.872 87.9755C64.8464 87.9507 64.8208 87.9257 64.7948 87.9013C64.744 87.8535 64.6918 87.807 64.6395 87.7607C64.6037 87.7289 64.5677 87.697 64.5311 87.666C64.4865 87.628 64.4411 87.5906 64.3954 87.5537C64.3509 87.5177 64.306 87.4821 64.2606 87.4472C64.2231 87.4184 64.1855 87.3894 64.1474 87.3613C64.0918 87.3204 64.0352 87.2805 63.9784 87.2412C63.944 87.2174 63.9097 87.1931 63.8749 87.1699C63.8155 87.1303 63.7549 87.0924 63.6942 87.0546C63.6612 87.0341 63.6281 87.0132 63.5946 86.9931C63.5387 86.9596 63.4816 86.9275 63.4247 86.8955C63.3822 86.8716 63.3398 86.8472 63.2968 86.8242C63.2376 86.7925 63.1773 86.7624 63.1171 86.7324C63.0804 86.7141 63.0438 86.6953 63.0067 86.6777C62.9454 86.6485 62.8834 86.6202 62.8212 86.5927C62.7771 86.5733 62.7329 86.5537 62.6884 86.5351C62.6262 86.5092 62.563 86.485 62.4999 86.4609C62.4628 86.4467 62.4259 86.4315 62.3886 86.4179C62.3225 86.394 62.2553 86.3726 62.1884 86.3505C62.1432 86.3357 62.0982 86.3196 62.0526 86.3056C61.8552 86.2451 61.6536 86.1944 61.4491 86.1513C61.4338 86.1481 61.4186 86.1437 61.4032 86.1406C61.2051 86.1003 61.0035 86.07 60.7997 86.0468C60.7691 86.0434 60.7386 86.0382 60.7079 86.0351C60.5929 86.0236 60.4769 86.0147 60.3602 86.0088L59.9999 86ZM59.9999 27.4999C56.9254 27.5001 54.4529 30.0307 54.5243 33.1044L55.5009 75.1044H55.5028C55.5584 77.5414 57.5497 79.4998 59.9999 79.5C62.4502 79.5 64.4414 77.5415 64.497 75.1044H64.4989L65.4755 33.1044C65.5469 30.0306 63.0746 27.4999 59.9999 27.4999Z" fill="black"/>
</g>
</svg>
