<svg width="120" height="120" viewBox="0 0 120 120" fill="none" xmlns="http://www.w3.org/2000/svg">
<g id="thickness=Bold, mode=default, name=symbol_rightCircle">
<path id="N1" d="M106.5 60C106.5 34.3188 85.6812 13.5 60 13.5C34.3188 13.5 13.5 34.3188 13.5 60C13.5 85.6812 34.3188 106.5 60 106.5C85.6812 106.5 106.5 85.6812 106.5 60ZM115.5 60C115.5 90.6518 90.6518 115.5 60 115.5C29.3482 115.5 4.5 90.6518 4.5 60C4.5 29.3482 29.3482 4.5 60 4.5C90.6518 4.5 115.5 29.3482 115.5 60Z" fill="black"/>
<path id="S1" d="M90 31.5C92.4853 31.5 94.5 33.5147 94.5 36C94.5 36.8734 94.2499 37.6878 93.8193 38.3779L93.8203 38.3789L64.1748 85.9854C59.6036 93.326 49.1387 93.9189 43.7676 87.1416L24.4736 62.7949V62.7939C23.8646 62.0263 23.5 61.056 23.5 60C23.5 57.5147 25.5147 55.5 28 55.5C29.4141 55.5 30.675 56.1528 31.5 57.1729H31.501L51.4336 81.8594C52.5063 83.1876 54.5657 83.0733 55.4854 81.6348L86.1572 33.6553L86.1797 33.6211C86.9744 32.3475 88.3882 31.5 90 31.5Z" fill="black"/>
</g>
</svg>
