<svg width="120" height="120" viewBox="0 0 120 120" fill="none" xmlns="http://www.w3.org/2000/svg">
<g id="thickness=Light, mode=default, name=symbol_warningCircle">
<path id="S1" d="M60 5C90.3757 5 115 29.6243 115 60C115 90.3757 90.3757 115 60 115C29.6243 115 5 90.3757 5 60C5 29.6243 29.6243 5 60 5ZM60 11C32.938 11 11 32.938 11 60C11 87.062 32.938 109 60 109C87.062 109 109 87.062 109 60C109 32.938 87.062 11 60 11ZM60 89C62.2091 89 64 90.7909 64 93C64 95.2091 62.2091 97 60 97C57.7909 97 56 95.2091 56 93C56 90.7909 57.7909 89 60 89ZM60 24C62.2282 24 64.0225 25.8288 63.9805 28.0566L63 80C63 81.6569 61.6569 83 60 83C58.3621 83 57.0312 81.6874 57.001 80.0566L56.0195 28.0566C55.9775 25.8288 57.7718 24 60 24Z" fill="black"/>
</g>
</svg>
