<svg width="120" height="120" viewBox="0 0 120 120" fill="none" xmlns="http://www.w3.org/2000/svg">
<g id="thickness=Bold, mode=default, name=symbol_informationCircle">
<path id="S1" fill-rule="evenodd" clip-rule="evenodd" d="M60 13.5C57.9019 13.5 55.8362 13.639 53.8116 13.9082C53.5299 14.36 53.1862 14.9306 52.7952 15.6173C51.615 17.6899 50.0069 20.8149 48.3744 24.9147C46.7928 28.8866 45.1892 33.771 43.9289 39.5H76.0711C74.8108 33.771 73.2072 28.8866 71.6256 24.9147C69.9931 20.8149 68.385 17.6899 67.2048 15.6173C66.8138 14.9306 66.4701 14.36 66.1884 13.9082C64.1638 13.639 62.0981 13.5 60 13.5ZM40.0129 21.5853C38.0886 26.4179 36.1555 32.4225 34.7319 39.5H18.2511C23.1755 29.4904 31.5936 21.5094 41.9144 17.1481C41.2942 18.495 40.654 19.9753 40.0129 21.5853ZM33.3016 48.5H14.933C13.9973 52.1779 13.5 56.0309 13.5 60C13.5 63.9691 13.9973 67.8221 14.933 71.5H32.9204C32.6042 68.0149 32.4524 64.3231 32.5132 60.4298C32.5788 56.2287 32.8599 52.2486 33.3016 48.5ZM34.1568 80.5H18.2511C23.078 90.3115 31.2618 98.1739 41.3039 102.589C40.767 101.482 40.2211 100.289 39.6775 99.0101C37.5848 94.0861 35.5284 87.8926 34.1568 80.5ZM43.327 80.5H76.673C75.444 86.4707 73.7427 91.4823 72.0395 95.4899C70.3642 99.432 68.6854 102.406 67.4498 104.365C67.0071 105.066 66.6217 105.637 66.3143 106.075C64.2495 106.355 62.1417 106.5 60 106.5C57.8583 106.5 55.7505 106.355 53.6857 106.075C53.3783 105.637 52.9929 105.066 52.5502 104.365C51.3146 102.406 49.6358 99.432 47.9605 95.4899C46.2573 91.4823 44.556 86.4707 43.327 80.5ZM78.0388 71.5H41.9612C41.6207 68.0873 41.4516 64.4422 41.5121 60.5703C41.5789 56.2873 41.8878 52.2595 42.3693 48.5H77.6307C78.1122 52.2595 78.4211 56.2873 78.4879 60.5703C78.5484 64.4422 78.3793 68.0873 78.0388 71.5ZM85.8432 80.5C84.4716 87.8926 82.4152 94.0861 80.3225 99.0101C79.7789 100.289 79.2329 101.482 78.6961 102.589C88.7382 98.1739 96.922 90.3115 101.749 80.5H85.8432ZM105.067 71.5H87.0796C87.3958 68.0149 87.5476 64.3231 87.4868 60.4298C87.4212 56.2287 87.1401 52.2486 86.6984 48.5H105.067C106.003 52.1779 106.5 56.0309 106.5 60C106.5 63.9691 106.003 67.8221 105.067 71.5ZM78.0856 17.1481C88.4064 21.5094 96.8245 29.4904 101.749 39.5H85.2681C83.8445 32.4225 81.9114 26.4179 79.9871 21.5853C79.346 19.9753 78.7058 18.495 78.0856 17.1481ZM4.5 60C4.5 29.3482 29.3482 4.5 60 4.5C90.6518 4.5 115.5 29.3482 115.5 60C115.5 90.6518 90.6518 115.5 60 115.5C29.3482 115.5 4.5 90.6518 4.5 60Z" fill="black"/>
</g>
</svg>
