<svg width="120" height="120" viewBox="0 0 120 120" fill="none" xmlns="http://www.w3.org/2000/svg">
<g id="thickness=Bold, mode=default, name=symbol_questionCircle">
<path id="N1" d="M106.5 60C106.5 34.3188 85.6812 13.5 60 13.5C34.3188 13.5 13.5 34.3188 13.5 60C13.5 85.6812 34.3188 106.5 60 106.5C85.6812 106.5 106.5 85.6812 106.5 60ZM115.5 60C115.5 90.6518 90.6518 115.5 60 115.5C29.3482 115.5 4.5 90.6518 4.5 60C4.5 29.3482 29.3482 4.5 60 4.5C90.6518 4.5 115.5 29.3482 115.5 60Z" fill="black"/>
<path id="S1" d="M60 86C63.866 86 67 89.134 67 93C67 96.866 63.866 100 60 100C56.134 100 53 96.866 53 93C53 89.134 56.134 86 60 86ZM60 20.5C75.3459 20.5 87.5 31.0853 87.5 46.6631C87.4999 52.6536 85.6614 57.6434 82.1201 61.3975C78.6507 65.0751 73.9279 67.1644 68.8389 68.1826C66.0202 68.7465 64.5 70.7699 64.5 72.4941V76C64.5 78.4853 62.4853 80.5 60 80.5C57.5147 80.5 55.5 78.4853 55.5 76V72.4941C55.5 65.3818 61.227 60.5271 67.0732 59.3574C70.9669 58.5784 73.7664 57.137 75.5732 55.2217C77.308 53.3827 78.4999 50.7177 78.5 46.6631C78.5 36.6584 71.0001 29.5 60 29.5C48.9999 29.5 41.5 36.6584 41.5 46.6631C41.4998 49.1482 39.4852 51.1631 37 51.1631C34.5148 51.1631 32.5002 49.1482 32.5 46.6631C32.5 31.0853 44.6541 20.5 60 20.5Z" fill="black"/>
</g>
</svg>
