<svg width="120" height="120" viewBox="0 0 120 120" fill="none" xmlns="http://www.w3.org/2000/svg">
<g id="thickness=Light, mode=default, name=symbol_right">
<path id="S1" fill-rule="evenodd" clip-rule="evenodd" d="M113.512 19.6411C113.82 19.1695 114 18.6057 114 18C114 16.3431 112.657 15 111 15C109.931 15 108.992 15.5592 108.461 16.4011L54.6568 98.9314C53.1881 101.184 49.9592 101.375 48.2356 99.3106L11.3135 55.09C10.7633 54.4243 9.93119 54 9 54C7.34315 54 6 55.3431 6 57C6 57.7256 6.25758 58.391 6.68629 58.9098L43.152 103.758C47.8958 109.593 56.9644 109.054 60.9836 102.698L113.512 19.6411Z" fill="black"/>
</g>
</svg>
