<svg width="120" height="120" viewBox="0 0 120 120" fill="none" xmlns="http://www.w3.org/2000/svg">
<g id="thickness=Standard, mode=default, name=symbol_resize">
<path id="S1" fill-rule="evenodd" clip-rule="evenodd" d="M64 11C64 8.79086 62.2091 7 60 7C57.7909 7 56 8.79086 56 11V56H11C8.79086 56 7 57.7909 7 60C7 62.2091 8.79086 64 11 64H56V109C56 111.209 57.7909 113 60 113C62.2091 113 64 111.209 64 109V64H109C111.209 64 113 62.2091 113 60C113 57.7909 111.209 56 109 56H64V11Z" fill="black"/>
</g>
</svg>
