<svg width="120" height="120" viewBox="0 0 120 120" fill="none" xmlns="http://www.w3.org/2000/svg">
<g id="thickness=Bold, mode=fill, name=symbol_wrongCircle">
<path id="S1" d="M60 4.5C90.6518 4.5 115.5 29.3482 115.5 60C115.5 90.6518 90.6518 115.5 60 115.5C29.3482 115.5 4.5 90.6518 4.5 60C4.5 29.3482 29.3482 4.5 60 4.5ZM87.5 28C86.0243 28 84.7142 28.7102 83.8936 29.8076C83.8813 29.824 83.8695 29.8408 83.8574 29.8574L83.8184 29.8184L60 53.6367L36.1816 29.8184L36.1416 29.8574C36.1297 29.841 36.1186 29.8239 36.1064 29.8076C35.2858 28.7102 33.9757 28 32.5 28C30.0147 28 28 30.0147 28 32.5C28 33.9757 28.7102 35.2858 29.8076 36.1064C29.8239 36.1186 29.841 36.1297 29.8574 36.1416L29.8184 36.1816L53.6367 60L29.8184 83.8184L29.8574 83.8574C28.7319 84.6754 28 86.0022 28 87.5C28 89.9853 30.0147 92 32.5 92C33.9979 92 35.3236 91.2673 36.1416 90.1416L36.1816 90.1816L60 66.3633L83.8184 90.1816L83.8574 90.1416C84.6753 91.2675 86.0019 92 87.5 92C89.9853 92 92 89.9853 92 87.5C92 86.0016 91.2669 84.6753 90.1406 83.8574L90.1816 83.8184L66.3633 60L90.1816 36.1816L90.1416 36.1416C90.1583 36.1295 90.1759 36.1188 90.1924 36.1064C91.2898 35.2858 92 33.9757 92 32.5C92 30.0147 89.9853 28 87.5 28Z" fill="black"/>
</g>
</svg>
