<svg width="120" height="120" viewBox="0 0 120 120" fill="none" xmlns="http://www.w3.org/2000/svg">
<g id="thickness=Light, mode=fill, name=symbol_questionCircle">
<path id="S1" d="M60 5C90.3757 5 115 29.6243 115 60C115 90.3757 90.3757 115 60 115C29.6243 115 5 90.3757 5 60C5 29.6243 29.6243 5 60 5ZM60 89C57.7909 89 56 90.7909 56 93C56 95.2091 57.7909 97 60 97C62.2091 97 64 95.2091 64 93C64 90.7909 62.2091 89 60 89ZM60 22C45.3006 22 35.0002 32.4008 35 46.3584C35 48.0153 36.3431 49.3584 38 49.3584C39.6569 49.3584 41 48.0153 41 46.3584C41.0002 35.7983 48.5298 28 60 28C71.4702 28 78.9998 35.7983 79 46.3584C79 50.9295 77.7972 54.1037 75.918 56.3164C74.0208 58.5502 71.1672 60.1178 67.3066 60.9609C62.0425 62.1109 57.0002 66.4433 57 72.6689V80C57 81.6569 58.3431 83 60 83C61.6569 83 63 81.6569 63 80V72.6689C63.0002 70.0586 65.2187 67.5591 68.5869 66.8232C73.3413 65.7848 77.5158 63.7037 80.4912 60.2002C83.4846 56.6755 85 52.0224 85 46.3584C84.9998 32.4008 74.6994 22 60 22Z" fill="black"/>
</g>
</svg>
