<svg width="120" height="120" viewBox="0 0 120 120" fill="none" xmlns="http://www.w3.org/2000/svg">
<g id="thickness=Light, mode=fill, name=symbol_informationCircle">
<path id="S1" d="M60 5C90.3757 5 115 29.6243 115 60C115 90.3757 90.3757 115 60 115C29.6243 115 5 90.3757 5 60C5 29.6243 29.6243 5 60 5ZM53 41C51.3431 41 50 42.3431 50 44C50 45.6569 51.3431 47 53 47H56.5293L56.9707 92H50C48.3431 92 47 93.3431 47 95C47 96.6569 48.3431 98 50 98H70C71.6569 98 73 96.6569 73 95C73 93.3431 71.6569 92 70 92H63.0293L63.4951 44.5293C63.5136 42.6387 62.0282 41.0871 60.1582 41.0039C60.1058 41.0012 60.0531 41 60 41H53ZM60 26C57.7909 26 56 27.7909 56 30C56 32.2091 57.7909 34 60 34C62.2091 34 64 32.2091 64 30C64 27.7909 62.2091 26 60 26Z" fill="black"/>
</g>
</svg>
