<svg width="120" height="120" viewBox="0 0 120 120" fill="none" xmlns="http://www.w3.org/2000/svg">
<g id="thickness=Bold, mode=default, name=symbol_resize">
<path id="S1LU" fill-rule="evenodd" clip-rule="evenodd" d="M107.182 15.182C108.939 13.4246 108.939 10.5754 107.182 8.81802C105.425 7.06066 102.575 7.06066 100.818 8.81802L8.81802 100.818C7.06066 102.575 7.06066 105.425 8.81802 107.182C10.5754 108.939 13.4246 108.939 15.182 107.182L107.182 15.182ZM110.182 54.182C111.939 52.4246 111.939 49.5754 110.182 47.818C108.425 46.0607 105.575 46.0607 103.818 47.818L47.818 103.818C46.0607 105.575 46.0607 108.425 47.818 110.182C49.5754 111.939 52.4246 111.939 54.182 110.182L110.182 54.182Z" fill="black"/>
</g>
</svg>
