<svg width="120" height="120" viewBox="0 0 120 120" fill="none" xmlns="http://www.w3.org/2000/svg">
<g id="thickness=Light, mode=fill, name=symbol_warningCircle">
<path id="S1" d="M60 5C90.3757 5 115 29.6243 115 60C115 90.3757 90.3757 115 60 115C29.6243 115 5 90.3757 5 60C5 29.6243 29.6243 5 60 5ZM60 89C57.7909 89 56 90.7909 56 93C56 95.2091 57.7909 97 60 97C62.2091 97 64 95.2091 64 93C64 90.7909 62.2091 89 60 89ZM60 24C57.7718 24 55.9775 25.8288 56.0195 28.0566L57.001 80.0566C57.0312 81.6874 58.3621 83 60 83C61.6569 83 63 81.6569 63 80L63.9805 28.0566C64.0225 25.8288 62.2282 24 60 24Z" fill="black"/>
</g>
</svg>
