<svg width="120" height="120" viewBox="0 0 120 120" fill="none" xmlns="http://www.w3.org/2000/svg">
<g id="thickness=Light, mode=default, name=symbol_informationCircle">
<path id="N1" d="M109 60C109 32.938 87.062 11 60 11C32.938 11 11 32.938 11 60C11 87.062 32.938 109 60 109C87.062 109 109 87.062 109 60ZM115 60C115 90.3757 90.3757 115 60 115C29.6243 115 5 90.3757 5 60C5 29.6243 29.6243 5 60 5C90.3757 5 115 29.6243 115 60Z" fill="black"/>
<path id="S1" d="M60 41C60.0531 41 60.1058 41.0012 60.1582 41.0039C62.0282 41.0871 63.5136 42.6387 63.4951 44.5293L63.0293 92H70C71.6569 92 73 93.3431 73 95C73 96.6569 71.6569 98 70 98H50C48.3431 98 47 96.6569 47 95C47 93.3431 48.3431 92 50 92H56.9707L56.5293 47H53C51.3431 47 50 45.6569 50 44C50 42.3431 51.3431 41 53 41H60ZM60 25C62.7614 25 65 27.2386 65 30C65 32.7614 62.7614 35 60 35C57.2386 35 55 32.7614 55 30C55 27.2386 57.2386 25 60 25Z" fill="black"/>
</g>
</svg>
