<svg width="120" height="120" viewBox="0 0 120 120" fill="none" xmlns="http://www.w3.org/2000/svg">
<g id="thickness=Bold, mode=default, name=symbol_information">
<path id="S1" d="M60 35C60.0793 35 60.1581 35.0018 60.2363 35.0059C62.9003 35.1299 65.0165 37.3394 64.9961 40.0342L64.5342 101H70C72.4853 101 74.5 103.015 74.5 105.5C74.5 107.985 72.4853 110 70 110H50C47.5147 110 45.5 107.985 45.5 105.5C45.5 103.015 47.5147 101 50 101H55.4658L55.0342 44H53C50.5147 44 48.5 41.9853 48.5 39.5C48.5 37.0147 50.5147 35 53 35H60ZM60 13C64.4183 13 68 16.5817 68 21C68 25.4183 64.4183 29 60 29C55.5817 29 52 25.4183 52 21C52 16.5817 55.5817 13 60 13Z" fill="black"/>
</g>
</svg>
