<svg width="120" height="120" viewBox="0 0 120 120" fill="none" xmlns="http://www.w3.org/2000/svg">
<g id="thickness=Standard, mode=default, name=symbol_wrongCircle">
<path id="N1" d="M107 60C107 34.0426 85.9574 13 60 13C34.0426 13 13 34.0426 13 60C13 85.9574 34.0426 107 60 107C85.9574 107 107 85.9574 107 60ZM115 60C115 90.3757 90.3757 115 60 115C29.6243 115 5 90.3757 5 60C5 29.6243 29.6243 5 60 5C90.3757 5 115 29.6243 115 60Z" fill="black"/>
<path id="S1" d="M86 30C88.2091 30 90 31.7909 90 34C90 35.1046 89.552 36.1043 88.8281 36.8281L65.6562 60L88.8281 83.1719C89.552 83.8957 90 84.8954 90 86C90 88.2091 88.2091 90 86 90C84.8954 90 83.8957 89.552 83.1719 88.8281L60 65.6562L36.8281 88.8281C36.1043 89.552 35.1046 90 34 90C31.7909 90 30 88.2091 30 86C30 84.8954 30.448 83.8957 31.1719 83.1719L54.3438 60L31.1719 36.8281C30.448 36.1043 30 35.1046 30 34C30 31.7909 31.7909 30 34 30C35.1046 30 36.1043 30.448 36.8281 31.1719L60 54.3438L83.1719 31.1719C83.8957 30.448 84.8954 30 86 30Z" fill="black"/>
</g>
</svg>
