<svg width="120" height="120" viewBox="0 0 120 120" fill="none" xmlns="http://www.w3.org/2000/svg">
<g id="thickness=Standard, mode=fill, name=symbol_warningCircle">
<path id="S1" d="M60 5C90.3757 5 115 29.6243 115 60C115 90.3757 90.3757 115 60 115C29.6243 115 5 90.3757 5 60C5 29.6243 29.6243 5 60 5ZM60 85C56.6863 85 54 87.6863 54 91C54 94.3137 56.6863 97 60 97C63.3137 97 66 94.3137 66 91C66 87.6863 63.3137 85 60 85ZM60 22C57.2094 22 54.9634 24.293 55.0215 27.083L56.001 74.083H56.002C56.0462 76.2538 57.8186 78 60 78C62.1814 78 63.9538 76.2538 63.998 74.083H63.999L64.9785 27.083C65.0366 24.2931 62.7905 22.0001 60 22Z" fill="black"/>
</g>
</svg>
