<svg width="120" height="120" viewBox="0 0 120 120" fill="none" xmlns="http://www.w3.org/2000/svg">
<g id="thickness=Bold, mode=default, name=symbol_infinite">
<path id="S1" d="M110.5 60C110.5 53.5911 108.26 47.5865 104.779 43.249C101.292 38.9034 96.8138 36.5 92.3027 36.5C87.4759 36.5 82.8828 39.0473 78.0146 43.9277C73.7174 48.2358 69.675 53.8784 65.458 60C69.675 66.1216 73.7174 71.7641 78.0146 76.0723C82.8829 80.9527 87.4759 83.5 92.3027 83.5C96.8138 83.5 101.292 81.0966 104.779 76.751C108.26 72.4135 110.5 66.4089 110.5 60ZM9.5 60C9.5 66.4089 11.7398 72.4135 15.2207 76.751C18.7083 81.0966 23.1862 83.5 27.6973 83.5C32.5241 83.5 37.1171 80.9527 41.9854 76.0723C46.2825 71.7643 50.3241 66.1214 54.541 60C50.3241 53.8786 46.2825 48.2357 41.9854 43.9277C37.1171 39.0473 32.5241 36.5 27.6973 36.5C23.1862 36.5 18.7083 38.9034 15.2207 43.249C11.7398 47.5865 9.5 53.5911 9.5 60ZM119.5 60C119.5 68.4365 116.575 76.4326 111.799 82.3838C107.03 88.3265 100.159 92.5 92.3027 92.5C84.0104 92.5 77.2479 88.0472 71.6426 82.4277C67.491 78.2657 63.6445 73.1236 60 67.9219C56.3555 73.1236 52.509 78.2657 48.3574 82.4277C42.7521 88.0472 35.9896 92.5 27.6973 92.5C19.8412 92.5 12.9703 88.3265 8.20117 82.3838C3.42526 76.4326 0.5 68.4365 0.5 60C0.5 51.5635 3.42526 43.5674 8.20117 37.6162C12.9703 31.6735 19.8412 27.5 27.6973 27.5C35.9896 27.5 42.7521 31.9528 48.3574 37.5723C52.5088 41.7342 56.3557 46.8757 60 52.0771C63.6443 46.8757 67.4912 41.7342 71.6426 37.5723C77.2479 31.9528 84.0104 27.5 92.3027 27.5C100.159 27.5 107.03 31.6735 111.799 37.6162C116.575 43.5674 119.5 51.5635 119.5 60Z" fill="black"/>
</g>
</svg>
