<svg width="120" height="120" viewBox="0 0 120 120" fill="none" xmlns="http://www.w3.org/2000/svg">
<g id="thickness=Standard, mode=default, name=symbol_link">
<path id="S2" d="M67.0963 105.28L49.4186 87.6023C47.8565 86.0402 47.8565 83.5075 49.4186 81.9454C50.9807 80.3833 53.5134 80.3833 55.0755 81.9454L72.7532 99.6231C80.1731 107.043 92.2033 107.043 99.6232 99.6231C107.043 92.2031 107.043 80.173 99.6232 72.753L81.9456 55.0754C80.3835 53.5133 80.3835 50.9806 81.9456 49.4185C83.5077 47.8564 86.0403 47.8564 87.6024 49.4185L105.28 67.0962C115.824 77.6403 115.824 94.7358 105.28 105.28C94.7359 115.824 77.6405 115.824 67.0963 105.28Z" fill="black"/>
<path id="S1" d="M41.1718 40.172C42.7338 38.6099 45.2659 38.6099 46.828 40.172L80.828 74.172C82.39 75.7341 82.39 78.2661 80.828 79.8282C79.2659 81.3901 76.7338 81.3902 75.1717 79.8282L41.1718 45.8282C39.6097 44.2662 39.6098 41.7341 41.1718 40.172ZM14.7196 14.7199C25.2638 4.17574 42.3591 4.17573 52.9032 14.7199L70.5809 32.3976C72.1429 33.9596 72.1427 36.4917 70.5809 38.0538C69.0188 39.6159 66.4858 39.6159 64.9237 38.0538L47.246 20.3771C39.826 12.9571 27.7968 12.9572 20.3769 20.3771C12.9569 27.797 12.9569 39.8272 20.3769 47.2472L38.0536 64.9239C39.6157 66.486 39.6157 69.0191 38.0536 70.5812C36.4915 72.143 33.9594 72.1431 32.3974 70.5812L14.7196 52.9034C4.17549 42.3593 4.17549 25.264 14.7196 14.7199Z" fill="black"/>
</g>
</svg>
