<svg width="120" height="120" viewBox="0 0 120 120" fill="none" xmlns="http://www.w3.org/2000/svg">
<g id="thickness=Standard, mode=default, name=symbol_informationCircle">
<path id="S1" fill-rule="evenodd" clip-rule="evenodd" d="M60 13C57.7989 13 55.6332 13.1513 53.5126 13.4441C53.2063 13.9289 52.8148 14.5723 52.3607 15.3699C51.1703 17.4605 49.5518 20.6063 47.9098 24.7298C46.2635 28.8644 44.5943 33.9798 43.3089 40H76.6911C75.4057 33.9798 73.7365 28.8644 72.0902 24.7298C70.4482 20.6063 68.8297 17.4605 67.6393 15.3699C67.1852 14.5723 66.7937 13.9289 66.4874 13.4441C64.3668 13.1513 62.2011 13 60 13ZM40.4774 21.7703C38.527 26.6685 36.5664 32.7799 35.1422 40H17.4554C22.5602 29.1597 31.6862 20.5865 42.9103 16.2036C42.1286 17.8367 41.3038 19.6948 40.4774 21.7703ZM33.8653 48H14.5458C13.5372 51.8307 13 55.8526 13 60C13 64.1474 13.5372 68.1693 14.5458 72H33.4693C33.1201 68.3726 32.9494 64.5165 33.0131 60.4376C33.0817 56.0447 33.3869 51.8948 33.8653 48ZM34.5735 80H17.4554C22.4752 90.6598 31.3834 99.1273 42.3513 103.574C41.629 102.152 40.8812 100.564 40.1376 98.8146C38.0197 93.8309 35.9373 87.5349 34.5735 80ZM42.7159 80H77.2841C76.0402 86.2706 74.2718 91.5158 72.4997 95.6855C70.8127 99.6549 69.1211 102.653 67.8727 104.632C67.363 105.44 66.9276 106.077 66.5974 106.541C64.4417 106.843 62.2391 107 60 107C57.7609 107 55.5583 106.843 53.4026 106.541C53.0724 106.077 52.637 105.44 52.1273 104.632C50.8789 102.653 49.1873 99.6549 47.5003 95.6855C45.7282 91.5158 43.9598 86.2706 42.7159 80ZM78.4903 72H41.5097C41.1366 68.4396 40.9487 64.6249 41.0121 60.5625C41.0819 56.094 41.4139 51.9016 41.9301 48H78.0699C78.5861 51.9016 78.9181 56.094 78.9879 60.5625C79.0513 64.6249 78.8634 68.4396 78.4903 72ZM85.4265 80C84.0627 87.5349 81.9803 93.8309 79.8624 98.8146C79.1188 100.564 78.371 102.152 77.6487 103.574C88.6166 99.1273 97.5248 90.6598 102.545 80H85.4265ZM105.454 72H86.5307C86.8799 68.3726 87.0506 64.5165 86.9869 60.4376C86.9183 56.0447 86.6131 51.8948 86.1347 48H105.454C106.463 51.8307 107 55.8526 107 60C107 64.1474 106.463 68.1693 105.454 72ZM77.0897 16.2036C88.3138 20.5865 97.4398 29.1597 102.545 40H84.8578C83.4336 32.7799 81.473 26.6685 79.5226 21.7703C78.6962 19.6948 77.8714 17.8367 77.0897 16.2036ZM5 60C5 29.6243 29.6243 5 60 5C90.3757 5 115 29.6243 115 60C115 90.3757 90.3757 115 60 115C29.6243 115 5 90.3757 5 60Z" fill="black"/>
</g>
</svg>
