<svg width="120" height="120" viewBox="0 0 120 120" fill="none" xmlns="http://www.w3.org/2000/svg">
<g id="thickness=Standard, mode=fill, name=symbol_questionCircle">
<path id="S1" d="M60 5C90.3757 5 115 29.6243 115 60C115 90.3757 90.3757 115 60 115C29.6243 115 5 90.3757 5 60C5 29.6243 29.6243 5 60 5ZM60 87C56.6863 87 54 89.6863 54 93C54 96.3137 56.6863 99 60 99C63.3137 99 66 96.3137 66 93C66 89.6863 63.3137 87 60 87ZM60 22C52.5292 22 45.976 24.5578 41.2773 29.2148C36.5769 33.8739 34 40.3697 34 47.7393C34 49.9484 35.7909 51.7393 38 51.7393C40.2091 51.7393 42 49.9484 42 47.7393C42 42.2728 43.881 37.899 46.9092 34.8975C49.9393 31.894 54.386 30 60 30C65.614 30 70.0607 31.894 73.0908 34.8975C76.119 37.899 78 42.2728 78 47.7393C78 52.0021 76.8613 54.8289 75.1865 56.7559C73.4793 58.72 70.8468 60.1712 67.1172 60.9648C61.5093 62.1583 56 66.809 56 73.6348V78C56 80.2091 57.7909 82 60 82C62.2091 82 64 80.2091 64 78V73.6348C64 71.6241 65.7474 69.436 68.7822 68.79C73.6661 67.7508 78.0592 65.6445 81.2236 62.0039C84.4204 58.326 86 53.5001 86 47.7393C86 40.3697 83.4231 33.8739 78.7227 29.2148C74.024 24.5578 67.4708 22 60 22Z" fill="black"/>
</g>
</svg>
