<svg width="120" height="120" viewBox="0 0 120 120" fill="none" xmlns="http://www.w3.org/2000/svg">
<g id="thickness=Light, mode=fill, name=symbol_informationCircle">
<path id="S1" fill-rule="evenodd" clip-rule="evenodd" d="M49.359 113.971C52.8017 114.646 56.3595 115 60 115C63.6405 115 67.1983 114.646 70.641 113.971C71.0977 113.409 71.7199 112.608 72.4558 111.574C74.1052 109.255 76.3224 105.769 78.5274 101.168C81.1609 95.6741 83.7781 88.5898 85.3916 80H34.6084C36.2219 88.5898 38.8391 95.6741 41.4726 101.168C43.6776 105.769 45.8948 109.255 47.5442 111.574C48.2801 112.608 48.9023 113.409 49.359 113.971ZM79.8156 111.322C94.1902 105.768 105.647 94.3495 111.251 80H91.49C89.793 89.6503 86.8878 97.6075 83.938 103.762C82.5317 106.696 81.1155 109.22 79.8156 111.322ZM113.202 74C114.375 69.5301 115 64.838 115 60C115 55.162 114.375 50.4699 113.202 46H91.8321C92.479 50.5331 92.8928 55.3772 92.9833 60.5171C93.0672 65.2853 92.8313 69.7821 92.3547 74H113.202ZM111.251 40C105.565 25.4421 93.8563 13.9006 79.1877 8.4396C80.5138 10.7375 81.9977 13.558 83.4878 16.8759C86.2199 22.9598 88.9744 30.7208 90.8114 40H111.251ZM70.5104 6.00314C67.1083 5.3448 63.5944 5 60 5C56.4056 5 52.8917 5.3448 49.4896 6.00314C49.061 6.59676 48.4849 7.42695 47.8046 8.48635C46.2396 10.9233 44.1256 14.5689 41.9856 19.334C39.5318 24.798 37.0455 31.73 35.3119 40H84.6881C82.9545 31.73 80.4682 24.798 78.0144 19.334C75.8744 14.5689 73.7604 10.9233 72.1954 8.48635C71.5151 7.42695 70.939 6.59676 70.5104 6.00314ZM40.8123 8.4396C26.1437 13.9006 14.4347 25.4421 8.74941 40H29.1886C31.0256 30.7208 33.78 22.9598 36.5122 16.8759C38.0023 13.558 39.4862 10.7375 40.8123 8.4396ZM6.79772 46C5.62466 50.4699 5 55.162 5 60C5 64.838 5.62465 69.5301 6.79771 74H27.6453C27.1687 69.7821 26.9328 65.2853 27.0167 60.5171C27.1072 55.3772 27.5209 50.5331 28.1679 46H6.79772ZM8.74939 80H28.51C30.207 89.6503 33.1122 97.6075 36.062 103.762C37.4683 106.696 38.8845 109.22 40.1844 111.322C25.8098 105.768 14.3533 94.3495 8.74939 80ZM86.9842 60.6228C87.0679 65.3769 86.8146 69.8385 86.3139 74H33.6861C33.1854 69.8385 32.9321 65.3769 33.0158 60.6228C33.1074 55.4189 33.5477 50.5389 34.2322 46H85.7678C86.4523 50.5389 86.8926 55.4189 86.9842 60.6228Z" fill="black"/>
</g>
</svg>
