<svg width="120" height="120" viewBox="0 0 120 120" fill="none" xmlns="http://www.w3.org/2000/svg">
<g id="thickness=Bold, mode=fill, name=symbol_questionCircle">
<path id="S1" d="M60 4.5C90.6518 4.5 115.5 29.3482 115.5 60C115.5 90.6518 90.6518 115.5 60 115.5C29.3482 115.5 4.5 90.6518 4.5 60C4.5 29.3482 29.3482 4.5 60 4.5ZM60 86C56.134 86 53 89.134 53 93C53 96.866 56.134 100 60 100C63.866 100 67 96.866 67 93C67 89.134 63.866 86 60 86ZM60 20.5C44.6541 20.5 32.5 31.0853 32.5 46.6631C32.5002 49.1482 34.5148 51.1631 37 51.1631C39.4852 51.1631 41.4998 49.1482 41.5 46.6631C41.5 36.6584 48.9999 29.5 60 29.5C71.0001 29.5 78.5 36.6584 78.5 46.6631C78.4999 50.7177 77.308 53.3827 75.5732 55.2217C73.7664 57.137 70.9669 58.5784 67.0732 59.3574C61.227 60.5271 55.5 65.3818 55.5 72.4941V76C55.5 78.4853 57.5147 80.5 60 80.5C62.4853 80.5 64.5 78.4853 64.5 76V72.4941C64.5 70.7699 66.0202 68.7465 68.8389 68.1826C73.9279 67.1644 78.6507 65.0751 82.1201 61.3975C85.6614 57.6434 87.4999 52.6536 87.5 46.6631C87.5 31.0853 75.3459 20.5 60 20.5Z" fill="black"/>
</g>
</svg>
