<svg width="120" height="120" viewBox="0 0 120 120" fill="none" xmlns="http://www.w3.org/2000/svg">
<g id="thickness=Bold, mode=default, name=symbol_link">
<path id="S2" d="M66.7428 105.634L49.0651 87.9558C47.3077 86.1985 47.3077 83.3492 49.0651 81.5919C50.8224 79.8345 53.6717 79.8345 55.4291 81.5919L73.1067 99.2696C80.3314 106.494 92.045 106.494 99.2697 99.2696C106.494 92.0449 106.494 80.3313 99.2697 73.1066L81.592 55.4289C79.8346 53.6716 79.8346 50.8223 81.592 49.065C83.3494 47.3076 86.1986 47.3076 87.956 49.065L105.634 66.7426C116.373 77.4821 116.373 94.8941 105.634 105.634C94.8942 116.373 77.4822 116.373 66.7428 105.634Z" fill="black"/>
<path id="S1" d="M40.8182 39.8184C42.5755 38.0611 45.4241 38.0611 47.1815 39.8184L81.1814 73.8184C82.9387 75.5758 82.9388 78.4243 81.1814 80.1817C79.4241 81.9389 76.5755 81.9389 74.8182 80.1817L40.8182 46.1817C39.0609 44.4244 39.061 41.5758 40.8182 39.8184ZM14.3661 14.3663C25.1055 3.62692 42.5172 3.62692 53.2567 14.3663L70.9344 32.044C72.6917 33.8014 72.6917 36.651 70.9344 38.4083C69.177 40.1654 66.3274 40.1655 64.5701 38.4083L46.8924 20.7306C39.6677 13.5059 27.955 13.5059 20.7303 20.7306C13.5056 27.9553 13.5056 39.668 20.7303 46.8927L38.408 64.5704C40.1652 66.3276 40.1651 69.1773 38.408 70.9346C36.6507 72.6919 33.8012 72.6919 32.0438 70.9346L14.3661 53.2569C3.62667 42.5175 3.62667 25.1057 14.3661 14.3663Z" fill="black"/>
</g>
</svg>
