<svg width="120" height="120" viewBox="0 0 120 120" fill="none" xmlns="http://www.w3.org/2000/svg">
<g id="thickness=Bold, mode=fill, name=symbol_informationCircle">
<path id="S1" d="M60 4.5C90.6518 4.5 115.5 29.3482 115.5 60C115.5 90.6518 90.6518 115.5 60 115.5C29.3482 115.5 4.5 90.6518 4.5 60C4.5 29.3482 29.3482 4.5 60 4.5ZM53 42C50.5147 42 48.5 44.0147 48.5 46.5C48.5 48.9853 50.5147 51 53 51H55.0479L55.4521 89H50C47.5147 89 45.5 91.0147 45.5 93.5C45.5 95.9853 47.5147 98 50 98H70C72.4853 98 74.5 95.9853 74.5 93.5C74.5 91.0147 72.4853 89 70 89H64.5479L64.9941 47.0479C65.0229 44.3479 62.9054 42.1301 60.2363 42.0059C60.1581 42.0018 60.0793 42 60 42H53ZM60 24C56.134 24 53 27.134 53 31C53 34.866 56.134 38 60 38C63.866 38 67 34.866 67 31C67 27.134 63.866 24 60 24Z" fill="black"/>
</g>
</svg>
