<svg width="120" height="120" viewBox="0 0 120 120" fill="none" xmlns="http://www.w3.org/2000/svg">
<g id="thickness=Light, mode=fill, name=symbol_warningTriangular">
<path id="S1" fill-rule="evenodd" clip-rule="evenodd" d="M50.1966 12.6487C54.2753 4.63437 65.7248 4.63435 69.8035 12.6487L113.756 99.0108C117.48 106.329 112.164 115 103.952 115H16.0479C7.83647 115 2.52003 106.329 6.24448 99.0108L50.1966 12.6487ZM60 31C62.2298 31 64.0245 32.8317 63.979 35.061L62.9994 83.0612C62.9668 84.6898 61.6364 86 60 86C58.358 86 57.0242 84.6809 57.0003 83.0446L56.0211 35.061C55.9756 32.8317 57.7703 31 60 31ZM60 100C62.2091 100 64 98.2091 64 96C64 93.7909 62.2091 92 60 92C57.7909 92 56 93.7909 56 96C56 98.2091 57.7909 100 60 100Z" fill="black"/>
</g>
</svg>
