<svg width="120" height="120" viewBox="0 0 120 120" fill="none" xmlns="http://www.w3.org/2000/svg">
<g id="thickness=Light, mode=default, name=symbol_resize">
<path id="S1LU" fill-rule="evenodd" clip-rule="evenodd" d="M106.121 14.1213C107.293 12.9497 107.293 11.0503 106.121 9.87868C104.95 8.70711 103.05 8.70711 101.879 9.87868L9.87868 101.879C8.70711 103.05 8.70711 104.95 9.87868 106.121C11.0503 107.293 12.9497 107.293 14.1213 106.121L106.121 14.1213ZM109.121 53.1213C110.293 51.9497 110.293 50.0503 109.121 48.8787C107.95 47.7071 106.05 47.7071 104.879 48.8787L48.8787 104.879C47.7071 106.05 47.7071 107.95 48.8787 109.121C50.0503 110.293 51.9497 110.293 53.1213 109.121L109.121 53.1213Z" fill="black"/>
</g>
</svg>
