<svg width="120" height="120" viewBox="0 0 120 120" fill="none" xmlns="http://www.w3.org/2000/svg">
<g id="thickness=Bold, mode=fill, name=symbol_warningCircle">
<path id="S1" d="M60 4.5C90.6518 4.5 115.5 29.3482 115.5 60C115.5 90.6518 90.6518 115.5 60 115.5C29.3482 115.5 4.5 90.6518 4.5 60C4.5 29.3482 29.3482 4.5 60 4.5ZM60 85C56.134 85 53 88.134 53 92C53 95.866 56.134 99 60 99C63.866 99 67 95.866 67 92C67 88.134 63.866 85 60 85ZM60 21.5C56.9291 21.5 54.4575 24.0236 54.5215 27.0938L55.501 74.0938H55.502C55.5519 76.5357 57.5461 78.5 60 78.5C62.4539 78.5 64.4481 76.5357 64.498 74.0938H64.499L65.4785 27.0938C65.5425 24.0236 63.0708 21.5 60 21.5Z" fill="black"/>
</g>
</svg>
