<svg width="120" height="120" viewBox="0 0 120 120" fill="none" xmlns="http://www.w3.org/2000/svg">
<path fill-rule="evenodd" clip-rule="evenodd" d="M53.0174 114.561C55.3041 114.851 57.6346 115 60 115C62.3654 115 64.6959 114.851 66.9826 114.561L69.0403 112.309L69.0412 112.308L69.0582 112.289C69.0783 112.267 69.1143 112.226 69.1652 112.167C69.267 112.048 69.4284 111.857 69.6408 111.593C70.0656 111.067 70.6937 110.252 71.4566 109.156C72.9831 106.964 75.0449 103.654 77.0985 99.2761C79.3591 94.4576 81.6111 88.3447 83.1291 81H36.8709C38.3889 88.3447 40.6409 94.4576 42.9015 99.2761C44.9551 103.654 47.0169 106.964 48.5434 109.156C49.3063 110.252 49.9344 111.067 50.3592 111.593C50.5716 111.857 50.733 112.048 50.8348 112.167L50.8722 112.21L50.8932 112.234C50.9143 112.258 50.9305 112.277 50.9418 112.289L50.9588 112.308L50.9597 112.309L53.0174 114.561ZM79.5551 111.422C93.7154 106.034 105.075 94.9652 110.849 81H91.2837C89.6359 89.7303 87.0098 96.9855 84.3411 102.674C82.6873 106.199 81.0177 109.122 79.5551 111.422ZM113.455 73C114.465 68.832 115 64.4785 115 60C115 55.5215 114.465 51.168 113.455 47H91.9763C92.5416 51.2256 92.9021 55.7236 92.9841 60.4811C93.0601 64.8937 92.8609 69.0688 92.4512 73H113.455ZM110.849 39C105.005 24.8665 93.4407 13.6994 79.0418 8.38551C80.4932 10.8443 82.2065 14.0519 83.9267 17.9654C86.3896 23.5685 88.8687 30.6235 90.6119 39H110.849ZM67.2462 5.47309C64.8751 5.16102 62.4563 5 60 5C57.5437 5 55.1249 5.16102 52.7538 5.47309L51.1212 7.50156L51.1205 7.50251L51.1179 7.50567L51.1161 7.50796L51.1017 7.52634C51.0816 7.55196 51.0466 7.597 50.9976 7.66129C50.8996 7.78989 50.7458 7.99544 50.5439 8.27659C50.14 8.83897 49.5441 9.70318 48.8179 10.8584C47.3652 13.1697 45.3945 16.6403 43.397 21.1846C41.2939 25.9691 39.1627 31.9396 37.5734 39H82.4266C80.8373 31.9396 78.7061 25.9691 76.603 21.1846C74.6055 16.6403 72.6348 13.1697 71.1821 10.8584C70.4559 9.70318 69.86 8.83897 69.4561 8.27659C69.2542 7.99544 69.1004 7.78989 69.0024 7.66129C68.9534 7.597 68.9184 7.55196 68.8983 7.52634L68.8839 7.50796L68.8821 7.50567L68.8795 7.50251L68.8788 7.50156L67.2462 5.47309ZM40.9582 8.38551C26.5593 13.6994 14.9948 24.8665 9.15133 39H29.3881C31.1314 30.6235 33.6104 23.5685 36.0733 17.9654C37.7935 14.0519 39.5068 10.8443 40.9582 8.38551ZM6.54534 47C5.53528 51.168 5 55.5215 5 60C5 64.4785 5.53528 68.832 6.54537 73H27.5488C27.1391 69.0688 26.9399 64.8937 27.0159 60.4811C27.0979 55.7236 27.4584 51.2256 28.0237 47H6.54534ZM9.15136 81H28.7163C30.3641 89.7303 32.9902 96.9855 35.6589 102.674C37.3127 106.199 38.9823 109.122 40.4449 111.422C26.2846 106.034 14.9252 94.9652 9.15136 81ZM84.9853 60.619C85.0609 65.0109 84.8418 69.1401 84.4039 73H35.5961C35.1582 69.1401 34.9391 65.0109 35.0147 60.619C35.0981 55.7805 35.4902 51.2358 36.1006 47H83.8994C84.5098 51.2358 84.9019 55.7805 84.9853 60.619Z" fill="black"/>
</svg>
