<svg width="120" height="120" viewBox="0 0 120 120" fill="none" xmlns="http://www.w3.org/2000/svg">
<g id="thickness=Bold, mode=default, name=symbol_warningTriangular">
<path id="S1" d="M49.0623 10.7106C53.867 1.97521 66.6112 2.11643 71.1599 11.1334L115.165 98.3699L115.354 98.7605C119.169 106.988 113.171 116.5 104.005 116.5H15.9949C6.68372 116.499 0.641162 106.683 4.83472 98.3699L48.8396 11.1334L49.0623 10.7106ZM63.1248 15.1862C61.8711 12.7019 58.3948 12.6242 57.0027 14.9537L56.8748 15.1862L12.8709 102.424C11.6967 104.751 13.3881 107.499 15.9949 107.5H104.005C106.53 107.5 108.197 104.921 107.231 102.643L107.129 102.424L63.1248 15.1862ZM59.9998 85.9998C63.8656 85.9998 66.9996 89.1339 66.9998 92.9998C66.9998 96.8658 63.8658 99.9998 59.9998 99.9998C56.1339 99.9997 52.9998 96.8657 52.9998 92.9998C52.9999 89.134 56.134 85.9999 59.9998 85.9998ZM59.9998 27.4997C63.0744 27.4997 65.5467 30.0304 65.4753 33.1042L64.4988 75.1042H64.4968C64.4414 77.5414 62.4502 79.4998 59.9998 79.4998C57.5494 79.4996 55.5581 77.5413 55.5027 75.1042H55.5007L54.5242 33.1042C54.4529 30.0305 56.9253 27.4998 59.9998 27.4997Z" fill="black"/>
</g>
</svg>
