<svg width="120" height="120" viewBox="0 0 120 120" fill="none" xmlns="http://www.w3.org/2000/svg">
<g id="thickness=Standard, mode=default, name=symbol_warningTriangular">
<path id="S1" d="M49.5004 10.9526C54.113 2.56705 66.3475 2.70187 70.7143 11.3579L114.719 98.5952L114.901 98.9702C118.563 106.868 112.804 115.999 104.005 116H15.9955C7.05672 115.999 1.25599 106.576 5.28164 98.5952L49.2865 11.3579L49.5004 10.9526ZM63.5717 14.9614C62.1393 12.1221 58.167 12.0332 56.5756 14.6948L56.4291 14.9614L12.4242 102.198C11.0823 104.858 13.016 107.999 15.9955 108H104.005C106.891 107.999 108.796 105.051 107.693 102.449L107.577 102.198L63.5717 14.9614ZM60.0004 86.9995C63.3138 86.9997 66.0001 89.6861 66.0004 92.9995C66.0004 96.3131 63.3139 98.9993 60.0004 98.9995C56.6867 98.9995 54.0004 96.3132 54.0004 92.9995C54.0006 89.686 56.6868 86.9995 60.0004 86.9995ZM60.0004 27.9995C62.7941 27.9998 65.0407 30.2994 64.976 33.0923L63.9994 75.0923H63.9975C63.9484 77.2586 62.1785 78.9993 60.0004 78.9995C57.8221 78.9995 56.0514 77.2588 56.0023 75.0923H56.0014L55.0248 33.0923C54.9601 30.2992 57.2065 27.9995 60.0004 27.9995Z" fill="black"/>
</g>
</svg>
