<svg width="120" height="120" viewBox="0 0 120 120" fill="none" xmlns="http://www.w3.org/2000/svg">
<g id="thickness=Standard, mode=default, name=symbol_right">
<path id="S1" fill-rule="evenodd" clip-rule="evenodd" d="M115.301 21.2594C115.742 20.6165 116 19.8384 116 19C116 16.7909 114.209 15 112 15C110.609 15 109.384 15.71 108.667 16.7873L53.7088 96.935C52.6135 98.5323 50.3141 98.6886 49.0127 97.2541L10.9768 55.3281C10.2445 54.5128 9.18213 54 8 54C5.79086 54 4 55.7909 4 58C4 59.0192 4.38119 59.9494 5.00878 60.6557L42.6064 103.323C47.8228 109.242 57.2346 108.603 61.6028 102.033L115.301 21.2594Z" fill="black"/>
</g>
</svg>
