<svg width="120" height="120" viewBox="0 0 120 120" fill="none" xmlns="http://www.w3.org/2000/svg">
<g id="thickness=Light, mode=default, name=symbol_wrongCircle">
<path id="N1" d="M109 60C109 32.938 87.062 11 60 11C32.938 11 11 32.938 11 60C11 87.062 32.938 109 60 109C87.062 109 109 87.062 109 60ZM115 60C115 90.3757 90.3757 115 60 115C29.6243 115 5 90.3757 5 60C5 29.6243 29.6243 5 60 5C90.3757 5 115 29.6243 115 60Z" fill="black"/>
<path id="S1" d="M87 30C88.6569 30 90 31.3431 90 33C90 33.8284 89.664 34.5782 89.1211 35.1211L64.2422 60L89.1211 84.8789C89.664 85.4218 90 86.1716 90 87C90 88.6569 88.6569 90 87 90C86.1716 90 85.4218 89.664 84.8789 89.1211L60 64.2422L35.1211 89.1211C34.5782 89.664 33.8284 90 33 90C31.3431 90 30 88.6569 30 87C30 86.1716 30.336 85.4218 30.8789 84.8789L55.7578 60L30.8789 35.1211C30.336 34.5782 30 33.8284 30 33C30 31.3431 31.3431 30 33 30C33.8284 30 34.5782 30.336 35.1211 30.8789L60 55.7578L84.8789 30.8789C85.4218 30.336 86.1716 30 87 30Z" fill="black"/>
</g>
</svg>
