<svg width="120" height="120" viewBox="0 0 120 120" fill="none" xmlns="http://www.w3.org/2000/svg">
<g id="thickness=Standard, mode=default, name=symbol_resize">
<path id="S1LU" fill-rule="evenodd" clip-rule="evenodd" d="M106.828 14.8284C108.391 13.2663 108.391 10.7337 106.828 9.17157C105.266 7.60948 102.734 7.60948 101.172 9.17157L9.17157 101.172C7.60948 102.734 7.60948 105.266 9.17157 106.828C10.7337 108.391 13.2663 108.391 14.8284 106.828L106.828 14.8284ZM109.828 53.8284C111.391 52.2663 111.391 49.7337 109.828 48.1716C108.266 46.6095 105.734 46.6095 104.172 48.1716L48.1716 104.172C46.6095 105.734 46.6095 108.266 48.1716 109.828C49.7337 111.391 52.2663 111.391 53.8284 109.828L109.828 53.8284Z" fill="black"/>
</g>
</svg>
