<svg width="120" height="120" viewBox="0 0 120 120" fill="none" xmlns="http://www.w3.org/2000/svg">
<g id="thickness=Light, mode=default, name=symbol_question">
<path id="Union" fill-rule="evenodd" clip-rule="evenodd" d="M28 45C28 27.4396 42.2119 14 60 14C77.7881 14 92 27.4396 92 45C92 59.9443 81.6914 70.5624 67.3902 73.309C61.9931 74.3455 57 78.81 57 85V97C57 98.6569 58.3431 100 60 100C61.6569 100 63 98.6569 63 97V85C63 82.3535 65.241 79.8314 68.5218 79.2013C85.2146 75.9954 98 63.2421 98 45C98 23.9005 80.8718 8 60 8C39.1282 8 22 23.9005 22 45C22 46.6569 23.3431 48 25 48C26.6569 48 28 46.6569 28 45ZM60 104C62.2091 104 64 105.791 64 108C64 110.209 62.2091 112 60 112C57.7909 112 56 110.209 56 108C56 105.791 57.7909 104 60 104Z" fill="black"/>
</g>
</svg>
