<svg width="120" height="120" viewBox="0 0 120 120" fill="none" xmlns="http://www.w3.org/2000/svg">
<g id="thickness=Light, mode=default, name=symbol_warningTriangular">
<path id="N1" fill-rule="evenodd" clip-rule="evenodd" d="M50.1966 12.6487C54.2753 4.63437 65.7248 4.63435 69.8035 12.6487L113.756 99.0108C117.48 106.329 112.164 115 103.952 115H16.0479C7.83647 115 2.52003 106.329 6.24448 99.0108L50.1966 12.6487ZM64.4562 15.3701C62.6022 11.7272 57.3979 11.7272 55.5439 15.3701L11.5918 101.732C9.89888 105.059 12.3154 109 16.0479 109H103.952C107.685 109 110.101 105.059 108.408 101.732L64.4562 15.3701Z" fill="black"/>
<path id="S1" fill-rule="evenodd" clip-rule="evenodd" d="M60 31C62.2298 31 64.0245 32.8317 63.979 35.061L62.9994 83.0612C62.9668 84.6898 61.6364 86 60 86C58.358 86 57.0242 84.6809 57.0003 83.0446L56.0211 35.061C55.9756 32.8317 57.7703 31 60 31ZM60 100C62.2091 100 64 98.2091 64 96C64 93.7909 62.2091 92 60 92C57.7909 92 56 93.7909 56 96C56 98.2091 57.7909 100 60 100Z" fill="black"/>
</g>
</svg>
