<svg width="120" height="120" viewBox="0 0 120 120" fill="none" xmlns="http://www.w3.org/2000/svg">
<g id="thickness=Standard, mode=default, name=symbol_more">
<path id="S1" d="M19 50C24.5228 50 29 54.4772 29 60C29 65.5228 24.5228 70 19 70C13.4772 70 9 65.5228 9 60C9 54.4772 13.4772 50 19 50ZM60 50C65.5228 50 70 54.4772 70 60C70 65.5228 65.5228 70 60 70C54.4772 70 50 65.5228 50 60C50 54.4772 54.4772 50 60 50ZM101 50C106.523 50 111 54.4772 111 60C111 65.5228 106.523 70 101 70C95.4771 70 91 65.5228 91 60C91 54.4772 95.4771 50 101 50Z" fill="black"/>
</g>
</svg>
