<svg width="120" height="120" viewBox="0 0 120 120" fill="none" xmlns="http://www.w3.org/2000/svg">
<g id="thickness=Standard, mode=default, name=symbol_questionCircle">
<path id="N1" d="M107 60C107 34.0426 85.9574 13 60 13C34.0426 13 13 34.0426 13 60C13 85.9574 34.0426 107 60 107C85.9574 107 107 85.9574 107 60ZM115 60C115 90.3757 90.3757 115 60 115C29.6243 115 5 90.3757 5 60C5 29.6243 29.6243 5 60 5C90.3757 5 115 29.6243 115 60Z" fill="black"/>
<path id="S1" d="M60 87C63.3137 87 66 89.6863 66 93C66 96.3137 63.3137 99 60 99C56.6863 99 54 96.3137 54 93C54 89.6863 56.6863 87 60 87ZM60 22C67.4708 22 74.024 24.5578 78.7227 29.2148C83.4231 33.8739 86 40.3697 86 47.7393C86 53.5001 84.4204 58.326 81.2236 62.0039C78.0592 65.6445 73.6661 67.7508 68.7822 68.79C65.7474 69.436 64 71.6241 64 73.6348V78C64 80.2091 62.2091 82 60 82C57.7909 82 56 80.2091 56 78V73.6348C56 66.809 61.5093 62.1583 67.1172 60.9648C70.8468 60.1712 73.4793 58.72 75.1865 56.7559C76.8613 54.8289 78 52.0021 78 47.7393C78 42.2728 76.119 37.899 73.0908 34.8975C70.0607 31.894 65.614 30 60 30C54.386 30 49.9393 31.894 46.9092 34.8975C43.881 37.899 42 42.2728 42 47.7393C42 49.9484 40.2091 51.7393 38 51.7393C35.7909 51.7393 34 49.9484 34 47.7393C34 40.3697 36.5769 33.8739 41.2773 29.2148C45.976 24.5578 52.5292 22 60 22Z" fill="black"/>
</g>
</svg>
