<svg width="120" height="120" viewBox="0 0 120 120" fill="none" xmlns="http://www.w3.org/2000/svg">
<g id="thickness=Standard, mode=default, name=symbol_information">
<path id="S1" d="M60 35C60.0711 35 60.1418 35.0012 60.2119 35.0049C62.6097 35.1162 64.5145 37.1049 64.4961 39.5303L64.0303 101H70C72.2091 101 74 102.791 74 105C74 107.209 72.2091 109 70 109H50C47.7909 109 46 107.209 46 105C46 102.791 47.7909 101 50 101H55.9697L55.5303 43H53C50.7909 43 49 41.2091 49 39C49 36.7909 50.7909 35 53 35H60ZM60 14C63.866 14 67 17.134 67 21C67 24.866 63.866 28 60 28C56.134 28 53 24.866 53 21C53 17.134 56.134 14 60 14Z" fill="black"/>
</g>
</svg>
