<svg width="120" height="120" viewBox="0 0 120 120" fill="none" xmlns="http://www.w3.org/2000/svg">
<g id="thickness=Standard, mode=fill, name=symbol_rightCircle">
<path id="S1" d="M60 5C90.3757 5 115 29.6243 115 60C115 90.3757 90.3757 115 60 115C29.6243 115 5 90.3757 5 60C5 29.6243 29.6243 5 60 5ZM91 34C89.6347 34 88.4298 34.6845 87.708 35.7285H87.707L55.6465 82.208C54.5485 83.7998 52.253 83.952 50.9541 82.5195L29.4639 58.8135C28.732 58.0066 27.6751 57.5 26.5 57.5C24.2909 57.5 22.5 59.2909 22.5 61.5C22.5 62.5188 22.8816 63.448 23.5088 64.1543V64.1553L44.3867 87.6748C49.5976 93.5448 58.9479 92.914 63.3232 86.3975L94.3213 40.2295L94.3203 40.2285C94.7487 39.5915 95 38.8254 95 38C95 35.7909 93.2091 34 91 34Z" fill="black"/>
</g>
</svg>
