<svg width="120" height="120" viewBox="0 0 120 120" fill="none" xmlns="http://www.w3.org/2000/svg">
<g id="thickness=Bold, mode=fill, name=symbol_rightCircle">
<path id="S1" d="M60 4.5C90.6518 4.5 115.5 29.3482 115.5 60C115.5 90.6518 90.6518 115.5 60 115.5C29.3482 115.5 4.5 90.6518 4.5 60C4.5 29.3482 29.3482 4.5 60 4.5ZM90 31.5C88.4466 31.5 87.0772 32.2872 86.2686 33.4844C86.2382 33.5294 86.2085 33.5749 86.1797 33.6211L86.1572 33.6553L55.4854 81.6348C54.5657 83.0733 52.5063 83.1876 51.4336 81.8594L31.501 57.1729H31.5C30.675 56.1528 29.4141 55.5 28 55.5C25.5147 55.5 23.5 57.5147 23.5 60C23.5 61.056 23.8646 62.0263 24.4736 62.7939V62.7949L43.7676 87.1416C49.1387 93.9189 59.6036 93.326 64.1748 85.9854L93.8203 38.3789L93.8193 38.3779C93.8288 38.3628 93.8393 38.3483 93.8486 38.333C94.2619 37.6527 94.5 36.8542 94.5 36C94.5 33.5147 92.4853 31.5 90 31.5Z" fill="black"/>
</g>
</svg>
