<svg width="120" height="120" viewBox="0 0 120 120" fill="none" xmlns="http://www.w3.org/2000/svg">
<g id="thickness=Light, mode=default, name=symbol_rightCircle">
<path id="N1" d="M109 60C109 32.938 87.062 11 60 11C32.938 11 11 32.938 11 60C11 87.062 32.938 109 60 109C87.062 109 109 87.062 109 60ZM115 60C115 90.3757 90.3757 115 60 115C29.6243 115 5 90.3757 5 60C5 29.6243 29.6243 5 60 5C90.3757 5 115 29.6243 115 60Z" fill="black"/>
<path id="S1" d="M91 35C92.6569 35 94 36.3431 94 38C94 38.6029 93.8197 39.1626 93.5137 39.6328L93.5156 39.6338L63.8682 85.2822C59.8324 91.4961 50.932 92.0237 46.1904 86.3301L26.6943 62.9199V62.9189C26.261 62.3988 26 61.73 26 61C26 59.3431 27.3431 58 29 58C29.9155 58 30.7339 58.4111 31.2842 59.0576L31.2861 59.0566L51.415 82.7393C53.1358 84.7635 56.3155 84.5782 57.79 82.3682L88.5049 36.335C89.0429 35.5303 89.9593 35 91 35Z" fill="black"/>
</g>
</svg>
