<svg width="120" height="120" viewBox="0 0 120 120" fill="none" xmlns="http://www.w3.org/2000/svg">
<g id="thickness=Bold, mode=default, name=symbol_question">
<path id="Union" fill-rule="evenodd" clip-rule="evenodd" d="M29.5 44C29.5 27.3244 42.9828 14.5 60 14.5C77.0172 14.5 90.5 27.3244 90.5 44C90.5 58.1199 80.8106 68.2041 67.1073 70.8359C61.1811 71.9741 55.5 76.9241 55.5 84V92C55.5 94.4853 57.5147 96.5 60 96.5C62.4853 96.5 64.5 94.4853 64.5 92V84C64.5 82.2393 66.053 80.2029 68.8047 79.6744C86.0954 76.3536 99.5 63.0666 99.5 44C99.5 22.0157 81.6427 5.5 60 5.5C38.3573 5.5 20.5 22.0157 20.5 44C20.5 46.4853 22.5147 48.5 25 48.5C27.4853 48.5 29.5 46.4853 29.5 44ZM60 100C63.866 100 67 103.134 67 107C67 110.866 63.866 114 60 114C56.134 114 53 110.866 53 107C53 103.134 56.134 100 60 100Z" fill="black"/>
</g>
</svg>
