<svg width="120" height="120" viewBox="0 0 120 120" fill="none" xmlns="http://www.w3.org/2000/svg">
<g id="thickness=Bold, mode=fill, name=users_userGroup">
<path id="S2" d="M61.3241 65.5C66.2726 65.5 70.8259 65.9093 74.9999 66.6768V77H67.9999C61.3726 77.0001 55.9999 82.3726 55.9999 89C55.9999 95.6274 61.3726 101 67.9999 101H74.9999V110C74.9999 110.167 75.0039 110.334 75.0107 110.5H21.9999C15.4745 110.5 8.68749 104.889 10.5458 97.0352C12.4634 88.9326 17.1187 80.9571 25.2245 75.043C33.3213 69.1355 44.559 65.5 59.3105 65.5H61.3241ZM59.9999 6.5C74.6355 6.5 86.4999 18.3645 86.4999 33C86.4999 47.6355 74.6355 59.5 59.9999 59.5C45.3645 59.4999 33.4999 47.6355 33.4999 33C33.4999 18.3645 45.3645 6.50013 59.9999 6.5Z" fill="black"/>
<path id="S1" d="M87 65.5C89.4853 65.5 91.5 67.5147 91.5 70V84.5H106C108.485 84.5 110.5 86.5147 110.5 89C110.5 91.4853 108.485 93.5 106 93.5H91.5V108C91.5 110.485 89.4853 112.5 87 112.5C84.5147 112.5 82.5 110.485 82.5 108V93.5H68C65.5147 93.5 63.5 91.4853 63.5 89C63.5 86.5147 65.5147 84.5 68 84.5H82.5V70C82.5 67.5147 84.5147 65.5 87 65.5Z" fill="black"/>
</g>
</svg>
