<svg width="120" height="120" viewBox="0 0 120 120" fill="none" xmlns="http://www.w3.org/2000/svg">
<g id="thickness=Bold, mode=fill, name=users_userGroup">
<path id="S2" d="M87.7393 69.583C94.4343 70.9426 99.9333 73.5201 104.321 76.96C110.974 82.1753 114.818 89.1755 116.489 96.2686C118.153 103.332 112.056 108.5 106 108.5H103.923C106.077 104.896 106.972 100.385 105.669 95.1709C103.372 85.9778 97.973 76.9483 88.7734 70.3086C88.4328 70.0627 88.0882 69.8207 87.7393 69.583ZM79.1436 14.2314C88.5593 16.7233 95.5 25.3007 95.5 35.5C95.5 47.4448 85.9805 57.1659 74.1143 57.4912C80.7986 51.4525 85 42.7176 85 33C85 26.0267 82.8352 19.5601 79.1436 14.2314Z" fill="black"/>
<path id="S1" d="M52.4458 67.5C66.2013 67.5001 76.7407 70.8732 84.3843 76.3896C92.0368 81.9127 96.4904 89.3742 98.3931 96.9893C100.366 104.887 93.497 110.5 87.0005 110.5H16.0004C9.50374 110.5 2.63466 104.887 4.60787 96.9893C6.51056 89.3742 10.964 81.9127 18.6167 76.3896C26.2603 70.8733 36.7996 67.5 50.5551 67.5H52.4458ZM52.0005 7.5C66.0835 7.50022 77.5005 18.9169 77.5005 33C77.5005 47.0831 66.0835 58.4998 52.0005 58.5C37.9172 58.5 26.5005 47.0833 26.5005 33C26.5005 18.9167 37.9172 7.5 52.0005 7.5Z" fill="black"/>
</g>
</svg>
