<svg width="120" height="120" viewBox="0 0 120 120" fill="none" xmlns="http://www.w3.org/2000/svg">
<g id="thickness=Bold, mode=fill, name=users_userList">
<path id="S1" d="M97 7C103.904 7 109.5 12.5964 109.5 19.5V101.5C109.5 108.404 103.904 114 97 114H23C16.0964 114 10.5 108.404 10.5 101.5V19.5C10.5 12.5964 16.0964 7 23 7H97ZM23 16C21.067 16 19.5 17.567 19.5 19.5V101.5C19.5 101.669 19.512 101.835 19.5352 101.998C19.5402 102.033 19.5466 102.068 19.5527 102.104C19.5779 102.248 19.6111 102.39 19.6533 102.527C19.7109 102.715 19.7841 102.896 19.8711 103.069C19.9346 103.196 20.0053 103.318 20.083 103.435C20.6378 104.269 21.5415 104.851 22.5859 104.975C22.7218 104.991 22.8599 105 23 105H27C28.933 105 30.5 103.433 30.5 101.5V19.5C30.5 17.567 28.933 16 27 16H23ZM67.5 65.5C61.2774 65.5 56.6026 67.0585 53.2119 69.7764C49.8286 72.4885 47.9343 76.1865 46.9492 80.0781C46.2208 82.9559 47.1498 85.6245 48.9238 87.5107C50.6726 89.3701 53.2532 90.5 56 90.5H84C86.7468 90.5 89.3274 89.3701 91.0762 87.5107C92.8502 85.6245 93.7792 82.9559 93.0508 80.0781C92.0657 76.1865 90.1714 72.4885 86.7881 69.7764C83.3974 67.0585 78.7226 65.5 72.5 65.5H67.5ZM70 32.5C63.3726 32.5 58 37.8726 58 44.5C58 51.1274 63.3726 56.5 70 56.5C76.6274 56.5 82 51.1274 82 44.5C82 37.8726 76.6274 32.5 70 32.5Z" fill="black"/>
</g>
</svg>
