<svg width="120" height="120" viewBox="0 0 120 120" fill="none" xmlns="http://www.w3.org/2000/svg">
<g id="thickness=Light, mode=default, name=users_userLiked">
<path id="S2" d="M52.9394 67.2324C51.6892 69.2226 50.7947 71.3502 50.2451 73.5342C31.1157 75.977 21.5927 86.4079 18.3457 97.0244C17.8785 98.5519 18.2771 99.9338 19.2793 101.034C20.3281 102.186 22.0452 103 24 103H64.8935L71.0761 109H24C20.432 109 17.0793 107.529 14.8437 105.074C12.5616 102.569 11.4603 99.0232 12.6084 95.2695C16.8454 81.4164 29.5368 69.0598 52.9394 67.2324ZM60 10C73.8071 10 85 21.1929 85 35C85 44.4959 79.7051 52.7543 71.9072 56.9863C67.8928 56.9133 63.8889 57.9389 60.3818 59.9951C60.2548 59.997 60.1275 60 60 60C46.1929 59.9999 35 48.8071 35 35C35 21.1929 46.1929 10.0001 60 10ZM60 16C49.5066 16.0001 41 24.5066 41 35C41 45.4934 49.5066 53.9999 60 54C70.4934 54 79 45.4934 79 35C79 24.5066 70.4934 16 60 16Z" fill="black"/>
<path id="S1B" d="M85.8432 67.1009C93.1685 60.4629 104.713 62.0486 109.976 70.4164C113.974 76.7729 112.979 85.0609 107.59 90.2904L86.433 110.821C85.0781 112.135 82.9228 112.135 81.5678 110.821L60.4105 90.2904C55.0213 85.0609 54.0265 76.7729 58.0247 70.4164C63.2882 62.0486 74.8322 60.4629 82.1576 67.1009L84.0004 68.7709L85.8432 67.1009ZM104.897 73.6107C101.62 68.4013 94.4331 67.4146 89.8725 71.5472L86.1303 74.9379C84.9219 76.0329 83.079 76.0326 81.8705 74.9379L78.1283 71.5472C73.5677 67.4146 66.3809 68.4013 63.1038 73.6107C60.6145 77.5682 61.2339 82.7289 64.5892 85.9848L84.0004 104.82L103.412 85.9848C106.767 82.729 107.386 77.5682 104.897 73.6107Z" fill="black"/>
</g>
</svg>
