<svg width="120" height="120" viewBox="0 0 120 120" fill="none" xmlns="http://www.w3.org/2000/svg">
<g id="thickness=Light, mode=fill, name=users_userList">
<path id="S1" d="M97 8.5C103.075 8.5 108 13.4249 108 19.5V101.5C108 107.575 103.075 112.5 97 112.5H23C16.9249 112.5 12 107.575 12 101.5V19.5C12 13.4249 16.9249 8.5 23 8.5H97ZM23 14.5C20.2386 14.5 18 16.7386 18 19.5V101.5C18 104.261 20.2386 106.5 23 106.5H27C29.7614 106.5 32 104.261 32 101.5V19.5C32 16.7386 29.7614 14.5 27 14.5H23ZM67.5 64.5C61.2678 64.5 56.479 66.0623 52.9346 68.752C49.3946 71.4383 47.2724 75.1157 46.1299 79.0352C45.2927 81.9073 46.1766 84.5976 47.9375 86.498C49.6688 88.3663 52.2535 89.5 55 89.5H85C87.7465 89.5 90.3312 88.3663 92.0625 86.498C93.8234 84.5976 94.7072 81.9072 93.8701 79.0352C92.7276 75.1157 90.6053 71.4383 87.0654 68.752C83.521 66.0623 78.7322 64.5 72.5 64.5H67.5ZM70 33.5C63.3726 33.5 58 38.8726 58 45.5C58 52.1274 63.3726 57.5 70 57.5C76.6274 57.5 82 52.1274 82 45.5C82 38.8726 76.6274 33.5 70 33.5Z" fill="black"/>
</g>
</svg>
