<svg width="120" height="120" viewBox="0 0 120 120" fill="none" xmlns="http://www.w3.org/2000/svg">
<g id="thickness=Bold, mode=fill, name=user_userVerified">
<path id="S2" d="M61.1474 65.5C75.2885 65.5 86.1707 68.8739 94.1191 74.3359L81.8066 93.2812L74.1591 84.2471L74.1572 84.248C71.956 81.6505 68.6714 80 65 80C58.3726 80 53 85.3726 53 92C53 94.93 54.0515 97.6136 55.7959 99.6973L55.7949 99.6982L64.8281 110.5H22C15.4728 110.5 8.6909 104.889 10.5419 97.0381C12.4516 88.9394 17.0883 80.9641 25.1669 75.0479C33.2376 69.1375 44.4389 65.5 59.1416 65.5H61.1474ZM60 6.5C74.6355 6.5 86.5 18.3645 86.5 33C86.5 47.6355 74.6355 59.5 60 59.5C45.3645 59.4999 33.5 47.6355 33.5 33C33.5 18.3645 45.3645 6.50008 60 6.5Z" fill="black"/>
<path id="S1" d="M108 70.5C110.485 70.5 112.5 72.5147 112.5 75C112.5 75.8979 112.235 76.7333 111.782 77.4355L111.783 77.4365L92.834 106.854C92.4563 107.44 92.039 107.981 91.5908 108.479C87.241 114.517 78.2905 114.906 73.4512 109.12L61.5479 94.8867V94.8857C60.8941 94.1045 60.5 93.0984 60.5 92C60.5 89.5147 62.5147 87.5 65 87.5C66.3767 87.5 67.6082 88.1189 68.4336 89.0928H68.4346L79.6543 102.346C80.9471 103.873 83.1813 103.966 84.6035 102.742L104.227 72.5479C105.029 71.3152 106.419 70.5 108 70.5Z" fill="black"/>
</g>
</svg>
