<svg width="120" height="120" viewBox="0 0 120 120" fill="none" xmlns="http://www.w3.org/2000/svg">
<g id="thickness=Light, mode=default, name=users_userInfo">
<path id="S1" d="M104 19C110.075 19 115 23.9249 115 30V90C115 96.0751 110.075 101 104 101H16C9.92487 101 5 96.0751 5 90V30C5 23.9249 9.92487 19 16 19H104ZM16 25C13.2386 25 11 27.2386 11 30V90C11 92.7614 13.2386 95 16 95H104C106.761 95 109 92.7614 109 90V30C109 27.2386 106.761 25 104 25H16ZM77.5 62.5C83.9025 62.5 88.9168 64.1079 92.6699 66.9561C96.4165 69.7993 98.6415 73.6779 99.8301 77.7559C100.777 81.0036 99.7674 84.0501 97.7959 86.1777C95.8689 88.2571 93.0152 89.5 90 89.5H60C56.9848 89.5 54.1311 88.2571 52.2041 86.1777C50.2326 84.0501 49.2233 81.0036 50.1699 77.7559C51.3585 73.6779 53.5835 69.7993 57.3301 66.9561C61.0832 64.1079 66.0975 62.5 72.5 62.5H77.5ZM72.5 68.5C67.1186 68.5 63.458 69.8374 60.957 71.7354C58.4495 73.6383 56.8413 76.3069 55.9297 79.4346C55.64 80.4286 55.8963 81.3353 56.6045 82.0996C57.3572 82.9119 58.5972 83.5 60 83.5H90C91.4028 83.5 92.6428 82.9119 93.3955 82.0996C94.1037 81.3353 94.36 80.4286 94.0703 79.4346C93.1587 76.3069 91.5505 73.6383 89.043 71.7354C86.542 69.8374 82.8814 68.5 77.5 68.5H72.5ZM38 64.5C39.6569 64.5 41 65.8431 41 67.5C41 69.1569 39.6569 70.5 38 70.5H23C21.3431 70.5 20 69.1569 20 67.5C20 65.8431 21.3431 64.5 23 64.5H38ZM75 31.5C82.1797 31.5 88 37.3203 88 44.5C88 51.6797 82.1797 57.5 75 57.5C67.8203 57.5 62 51.6797 62 44.5C62 37.3203 67.8203 31.5 75 31.5ZM47 48.5C48.6569 48.5 50 49.8431 50 51.5C50 53.1569 48.6569 54.5 47 54.5H23C21.3431 54.5 20 53.1569 20 51.5C20 49.8431 21.3431 48.5 23 48.5H47ZM75 37.5C71.134 37.5 68 40.634 68 44.5C68 48.366 71.134 51.5 75 51.5C78.866 51.5 82 48.366 82 44.5C82 40.634 78.866 37.5 75 37.5Z" fill="black"/>
</g>
</svg>
