<svg width="120" height="120" viewBox="0 0 120 120" fill="none" xmlns="http://www.w3.org/2000/svg">
<g id="thickness=Light, mode=default, name=users_userSwitch">
<path id="S2" d="M60.9532 67C69.354 67 76.5445 68.254 82.6085 70.4258C81.3935 71.142 80.2533 72.0193 79.2198 73.0527L77.6358 74.6357L77.2725 75H77.1934C72.5326 73.7261 67.1443 73 60.9532 73H59.0469C33.9668 73.0001 22.0569 84.8904 18.3458 97.0244C17.8786 98.5518 18.2772 99.9338 19.2794 101.034C20.3282 102.186 22.0453 103 24.0001 103H58.1046C58.9432 104.634 60.2286 106.033 61.8555 107.009L65.1739 109H24.0001C20.4322 109 17.0794 107.529 14.8438 105.074C12.5618 102.569 11.4604 99.0232 12.6085 95.2695C17.2003 80.2561 31.7224 67.0001 59.0469 67H60.9532ZM60.0001 10C73.8072 10 85.0001 21.1929 85.0001 35C85.0001 48.8071 73.8072 60 60.0001 60C46.1931 59.9999 35.0001 48.807 35.0001 35C35.0001 21.193 46.1931 10.0001 60.0001 10ZM60.0001 16C49.5068 16.0001 41.0001 24.5067 41.0001 35C41.0001 45.4933 49.5068 53.9999 60.0001 54C70.4935 54 79.0001 45.4934 79.0001 35C79.0001 24.5066 70.4935 16 60.0001 16Z" fill="black"/>
<path id="S1" d="M107 96.0001C108.657 96.0003 110 97.3434 110 99.0001C110 100.657 108.657 102 107 102H89.0001V107.468C88.9997 111.233 85.0206 113.603 81.7423 111.93L81.4279 111.755L67.5528 103.43C64.0741 101.343 65.5535 96.0001 69.6104 96.0001H107ZM87.0001 78.5323C87.0002 74.7673 90.9794 72.3967 94.258 74.0704L94.5724 74.2452L108.447 82.5704C111.925 84.6578 110.446 89.9997 106.39 90.0001H69.0001C67.3434 90.0001 66.0003 88.6568 66.0001 87.0001C66.0001 85.3432 67.3432 84.0001 69.0001 84.0001H87.0001V78.5323Z" fill="black"/>
</g>
</svg>
