<svg width="120" height="120" viewBox="0 0 120 120" fill="none" xmlns="http://www.w3.org/2000/svg">
<g id="thickness=Light, mode=fill, name=users_userGroup">
<path id="S2" d="M60.9531 67C67.3026 67 72.9733 67.7126 78 69.0088V80H68C63.0294 80 59 84.0295 59 89C59 93.9705 63.0294 98 68 98H78V109H24C20.432 109 17.0793 107.529 14.8437 105.074C12.5616 102.569 11.4603 99.0232 12.6084 95.2695C17.2003 80.2561 31.7221 67 59.0468 67H60.9531ZM60 10C73.8071 10 85 21.1929 85 35C85 48.8071 73.8071 60 60 60C46.1929 59.9999 35 48.8071 35 35C35 21.1929 46.1929 10.0001 60 10Z" fill="black"/>
<path id="S1" d="M87 67C88.6569 67 90 68.3431 90 70V86H106C107.657 86 109 87.3431 109 89C109 90.6569 107.657 92 106 92H90V108C90 109.657 88.6569 111 87 111C85.3431 111 84 109.657 84 108V92H68C66.3431 92 65 90.6569 65 89C65 87.3431 66.3431 86 68 86H84V70C84 68.3431 85.3431 67 87 67Z" fill="black"/>
</g>
</svg>
