<svg width="120" height="120" viewBox="0 0 120 120" fill="none" xmlns="http://www.w3.org/2000/svg">
<g id="thickness=Light, mode=fill, name=users_userLiked">
<path id="S2" d="M52.9394 67.2324C47.44 75.9866 48.8122 87.3953 56.2324 94.5957L71.0761 109H24C20.432 109 17.0793 107.529 14.8437 105.074C12.5616 102.569 11.4603 99.0232 12.6084 95.2695C16.8454 81.4164 29.5368 69.0598 52.9394 67.2324ZM60 10C73.8071 10 85 21.1929 85 35C85 44.4959 79.7051 52.7543 71.9072 56.9863C67.8928 56.9133 63.8889 57.9389 60.3818 59.9951C60.2548 59.997 60.1275 60 60 60C46.1929 59.9999 35 48.8071 35 35C35 21.1929 46.1929 10.0001 60 10Z" fill="black"/>
<path id="S1B" d="M85.8432 67.1009C93.1685 60.4629 104.713 62.0486 109.976 70.4164C113.974 76.7729 112.979 85.0609 107.59 90.2904L86.433 110.821C85.0781 112.135 82.9228 112.135 81.5678 110.821L60.4105 90.2904C55.0213 85.0609 54.0265 76.7729 58.0247 70.4164C63.2882 62.0486 74.8322 60.4629 82.1576 67.1009L84.0004 68.7709L85.8432 67.1009Z" fill="black"/>
</g>
</svg>
