<svg width="120" height="120" viewBox="0 0 120 120" fill="none" xmlns="http://www.w3.org/2000/svg">
<g id="thickness=Bold, mode=fill, name=users_userLiked">
<path id="S2" d="M50.3057 65.9922C44.2191 75.7878 45.7526 88.5326 54.0508 96.6055L68.333 110.5H22C15.475 110.5 8.68647 104.888 10.5469 97.0342C12.4665 88.9306 17.1273 80.9556 25.2402 75.042C31.5996 70.4068 39.8943 67.1707 50.3057 65.9922ZM60 6.5C74.6353 6.50026 86.5 18.3646 86.5 33C86.5 41.9709 82.0408 49.8989 75.2197 54.6934C68.678 53.6206 61.8592 55.2247 56.4619 59.2637C43.4992 57.5341 33.5 46.4359 33.5 33C33.5 18.3645 45.3645 6.5 60 6.5Z" fill="black"/>
<path id="S1B" d="M85.6266 66.0199C93.4758 59.2525 105.493 60.9659 111.137 69.6576C115.583 76.5039 114.571 85.5386 108.719 91.2309L87.4772 111.896C85.5414 113.779 82.4577 113.779 80.5221 111.896L59.2798 91.2309C53.4288 85.5387 52.4162 76.5038 56.8619 69.6576C62.5064 60.9659 74.5235 59.2526 82.3727 66.0199L83.9996 67.4222L85.6266 66.0199Z" fill="black"/>
</g>
</svg>
