<svg width="120" height="120" viewBox="0 0 120 120" fill="none" xmlns="http://www.w3.org/2000/svg">
<g id="thickness=Light, mode=fill, name=users_userMention">
<path id="S2" d="M56.3369 67.0615C52.9576 72.3952 51 78.7187 51 85.5C51 94.5803 54.5095 102.84 60.2441 109H24C20.4322 109 17.079 107.528 14.8447 105.073C12.5634 102.566 11.4656 99.018 12.625 95.2646C17.085 80.8267 30.8033 68.039 56.3369 67.0615ZM60 10C73.807 10.0001 85 21.1929 85 35C85 41.4143 82.5825 47.2627 78.6113 51.6885C72.4489 52.9372 66.8823 55.8278 62.3887 59.8848C61.6024 59.9593 60.8058 60 60 60C46.1929 60 35 48.8071 35 35C35 21.1929 46.1929 10 60 10Z" fill="black"/>
<path id="S1" d="M85.5 57C101.24 57 114 69.7599 114 85.5C114 87.7012 113.507 91.211 112.285 94.2676C111.17 97.0566 108.785 101 104.25 101C100.901 101 98.5929 98.8802 97.2119 96.3359C94.277 99.8001 89.8959 102 85 102C76.1634 102 69 94.8366 69 86C69 77.1634 76.1634 70 85 70C89.5052 70 93.5746 71.8629 96.4824 74.8594C96.5108 74.7695 96.5391 74.6786 96.5684 74.5869C97.0725 73.0088 98.7607 72.1387 100.339 72.6426C101.917 73.1467 102.788 74.8348 102.284 76.4131L102.074 77.082C101.615 78.5733 101.368 79.5926 101.222 80.6367C101.051 81.855 101 83.2102 101 85.5C101 88.8762 101.533 91.5066 102.331 93.1729C103.12 94.8199 103.847 95 104.25 95C104.715 95 105.705 94.5652 106.715 92.04C107.618 89.7824 108 87.0419 108 85.5C108 73.0736 97.9264 63 85.5 63C73.0736 63 63 73.0736 63 85.5C63 97.9264 73.0736 108 85.5 108C89.7864 108 93.7849 106.804 97.1895 104.729C98.6042 103.868 100.449 104.316 101.312 105.73C102.174 107.145 101.725 108.991 100.311 109.854C95.9923 112.485 90.9185 114 85.5 114C69.7599 114 57 101.24 57 85.5C57 69.7599 69.7599 57 85.5 57ZM85 76C79.4772 76 75 80.4772 75 86C75 91.5229 79.4772 96 85 96C90.5229 96 95 91.5229 95 86C95 80.4772 90.5229 76 85 76Z" fill="black"/>
</g>
</svg>
