<svg width="120" height="120" viewBox="0 0 120 120" fill="none" xmlns="http://www.w3.org/2000/svg">
<g id="thickness=Light, mode=default, name=user_userVerified">
<path id="S2" d="M61.0366 67C76.7704 67.0001 88.3235 71.3703 96.1968 78.0713L92.8667 83.125C86.2795 77.2561 76.0392 73.0001 61.0366 73H59.1265C33.9962 73 22.0652 84.894 18.3481 97.0264C17.8804 98.5532 18.2789 99.9341 19.2808 101.034C20.3293 102.185 22.0458 103 24.0005 103H61.5024L66.562 109H24.0005C20.4326 109 17.0796 107.529 14.8442 105.074C12.5622 102.568 11.4618 99.0223 12.6118 95.2686C17.2123 80.2532 31.7588 67 59.1265 67H61.0366ZM60.0005 10C73.8074 10.0003 85.0005 21.193 85.0005 35C85.0005 48.807 73.8074 59.9997 60.0005 60C46.1934 60 35.0005 48.8071 35.0005 35C35.0005 21.1929 46.1934 10 60.0005 10ZM60.0005 16C49.5071 16 41.0005 24.5066 41.0005 35C41.0005 45.4934 49.5071 54 60.0005 54C70.4937 53.9997 79.0005 45.4932 79.0005 35C79.0005 24.5068 70.4937 16.0003 60.0005 16Z" fill="black"/>
<path id="S1" d="M109 72C110.657 72 112 73.3431 112 75C112 75.6057 111.818 76.1681 111.51 76.6396L111.512 76.6406L91.5498 107.192C91.1957 107.734 90.8033 108.232 90.3809 108.687C86.6018 113.923 78.8494 114.266 74.6367 109.27L61.7061 93.9336V93.9326C61.2658 93.4105 61 92.7364 61 92C61 90.3431 62.3431 89 64 89C64.9135 89 65.73 89.4097 66.2803 90.0537L66.2822 90.0527L78.5371 104.42C80.4297 106.639 83.7207 106.724 85.7393 104.846L106.495 73.3496C107.032 72.5367 107.953 72 109 72Z" fill="black"/>
</g>
</svg>
