<svg width="120" height="120" viewBox="0 0 120 120" fill="none" xmlns="http://www.w3.org/2000/svg">
<g id="thickness=Light, mode=fill, name=users_userInfo">
<path id="S1" d="M104 19C110.075 19 115 23.9249 115 30V90C115 96.0751 110.075 101 104 101H16C9.92487 101 5 96.0751 5 90V30C5 23.9249 9.92487 19 16 19H104ZM72.5 64.5C66.3885 64.5 61.549 65.834 57.8535 68.2334C54.139 70.6452 51.8016 73.9915 50.4746 77.6143C49.2822 80.8698 50.2332 83.9859 52.2002 86.1475C54.1089 88.245 56.9845 89.5 60 89.5H90C93.0155 89.5 95.8911 88.245 97.7998 86.1475C99.7668 83.9859 100.718 80.8698 99.5254 77.6143C98.1984 73.9915 95.861 70.6452 92.1465 68.2334C88.451 65.834 83.6115 64.5 77.5 64.5H72.5ZM23 64.5C21.3431 64.5 20 65.8431 20 67.5C20 69.1569 21.3431 70.5 23 70.5H38C39.6569 70.5 41 69.1569 41 67.5C41 65.8431 39.6569 64.5 38 64.5H23ZM75 31.5C67.8203 31.5 62 37.3203 62 44.5C62 51.6797 67.8203 57.5 75 57.5C82.1797 57.5 88 51.6797 88 44.5C88 37.3203 82.1797 31.5 75 31.5ZM23 48.5C21.3431 48.5 20 49.8431 20 51.5C20 53.1569 21.3431 54.5 23 54.5H47C48.6569 54.5 50 53.1569 50 51.5C50 49.8431 48.6569 48.5 47 48.5H23Z" fill="black"/>
</g>
</svg>
