<svg width="120" height="120" viewBox="0 0 120 120" fill="none" xmlns="http://www.w3.org/2000/svg">
<g id="thickness=Light, mode=fill, name=users_userGroup">
<path id="S2" d="M78.7451 67.5537C88.8566 67.99 96.7774 71.1301 102.711 75.835C109.093 80.8959 113.035 87.6519 114.989 94.4424C116.016 98.0096 114.959 101.361 112.783 103.743C110.643 106.086 107.434 107.5 104 107.5H97.8779C100.549 103.71 101.698 98.718 100.117 93.5273C96.9926 83.269 89.9756 73.634 78.7451 67.5537ZM80.5 21C90.7172 21.0001 99 29.2828 99 39.5C99 49.7172 90.7172 57.9999 80.5 58C77.1026 58 73.9198 57.0826 71.1836 55.4844C70.6882 55.9384 70.1702 56.368 69.6328 56.7734C75.401 51.3067 79 43.5746 79 35C79 30.1799 77.8609 25.6265 75.8408 21.5908C77.3294 21.2049 78.8908 21 80.5 21Z" fill="black"/>
<path id="S1" d="M50.4014 67C76.2635 67 89.9506 80.7439 94.377 95.2764C95.5187 99.0251 94.4265 102.567 92.1485 105.074C89.9166 107.53 86.5678 109 83 109H16C12.4322 109 9.08345 107.53 6.85157 105.074C4.57353 102.567 3.48134 99.0251 4.62306 95.2764C9.04948 80.7439 22.7365 67 48.5986 67H50.4014ZM49 11C62.2548 11.0001 73 21.7452 73 35C73 48.2548 62.2548 58.9999 49 59C35.7452 59 25 48.2548 25 35C25 21.7452 35.7452 11 49 11Z" fill="black"/>
</g>
</svg>
