<svg width="120" height="120" viewBox="0 0 120 120" fill="none" xmlns="http://www.w3.org/2000/svg">
<g id="thickness=Light, mode=default, name=users_userList">
<path id="S1" d="M97 8.5C103.075 8.5 108 13.4249 108 19.5V101.5C108 107.575 103.075 112.5 97 112.5H23C16.9249 112.5 12 107.575 12 101.5V19.5C12 13.4249 16.9249 8.5 23 8.5H97ZM23 14.5C20.2386 14.5 18 16.7386 18 19.5V101.5C18 104.261 20.2386 106.5 23 106.5H32V14.5H23ZM38 106.5H97C99.7614 106.5 102 104.261 102 101.5V19.5C102 16.7386 99.7614 14.5 97 14.5H38V106.5ZM72.5 63.5C78.9025 63.5 83.9168 65.1079 87.6699 67.9561C91.4165 70.7993 93.6415 74.6779 94.8301 78.7559C95.7767 82.0036 94.7674 85.0501 92.7959 87.1777C90.8689 89.2571 88.0152 90.5 85 90.5H55C51.9848 90.5 49.1311 89.2571 47.2041 87.1777C45.2326 85.0501 44.2233 82.0036 45.1699 78.7559C46.3585 74.6779 48.5835 70.7993 52.3301 67.9561C56.0832 65.1079 61.0975 63.5 67.5 63.5H72.5ZM67.5 69.5C62.1186 69.5 58.458 70.8374 55.957 72.7354C53.4495 74.6383 51.8413 77.3069 50.9297 80.4346C50.64 81.4286 50.8963 82.3353 51.6045 83.0996C52.3572 83.9119 53.5972 84.5 55 84.5H85C86.4028 84.5 87.6428 83.9119 88.3955 83.0996C89.1037 82.3353 89.36 81.4286 89.0703 80.4346C88.1587 77.3069 86.5505 74.6383 84.043 72.7354C81.542 70.8374 77.8814 69.5 72.5 69.5H67.5ZM70 32.5C77.1797 32.5 83 38.3203 83 45.5C83 52.6797 77.1797 58.5 70 58.5C62.8203 58.5 57 52.6797 57 45.5C57 38.3203 62.8203 32.5 70 32.5ZM70 38.5C66.134 38.5 63 41.634 63 45.5C63 49.366 66.134 52.5 70 52.5C73.866 52.5 77 49.366 77 45.5C77 41.634 73.866 38.5 70 38.5Z" fill="black"/>
</g>
</svg>
