<svg width="120" height="120" viewBox="0 0 120 120" fill="none" xmlns="http://www.w3.org/2000/svg">
<g id="thickness=Bold, mode=fill, name=users_userSwitch">
<path id="S2" d="M60.9998 65.5C68.6229 65.5 75.3019 66.4861 81.0896 68.2617C79.6777 69.2701 78.3767 70.477 77.2312 71.877L76.3133 72.999H69.9998C61.1637 72.9992 54.0003 80.163 53.9998 88.999V99.4482C53.9999 103.908 56.2867 108.058 60.0574 110.439L60.1531 110.5H21.9998C15.4713 110.5 8.69301 104.888 10.5379 97.04C12.4409 88.9449 17.0625 80.9696 25.1179 75.0518C33.1666 69.1391 44.3382 65.5001 58.9998 65.5H60.9998ZM59.9998 6.5C74.6353 6.5 86.4998 18.3645 86.4998 33C86.4998 47.6355 74.6353 59.5 59.9998 59.5C45.3644 59.4998 33.4998 47.6354 33.4998 33C33.4998 18.3646 45.3644 6.50018 59.9998 6.5Z" fill="black"/>
<path id="S1" d="M107 95.4998C109.485 95.4999 111.5 97.5147 111.5 99.9998C111.5 102.485 109.486 104.5 107 104.5H89.5003V108.371C89.5003 113.41 84.032 116.503 79.7327 113.991L79.5296 113.867L66.5198 105.65C61.8592 102.707 63.9441 95.4998 69.4563 95.4998H107ZM86.5003 77.6287C86.5006 72.5897 91.9687 69.4964 96.2679 72.0086L96.471 72.1326L109.481 80.3494C114.141 83.2929 112.056 90.4996 106.544 90.4998H69.0003C66.515 90.4998 64.5003 88.4851 64.5003 85.9998C64.5004 83.5146 66.5151 81.4998 69.0003 81.4998H86.5003V77.6287Z" fill="black"/>
</g>
</svg>
