<svg width="120" height="120" viewBox="0 0 120 120" fill="none" xmlns="http://www.w3.org/2000/svg">
<g id="thickness=Bold, mode=fill, name=users_userInfo">
<path id="S1" d="M103 13.5C109.904 13.5 115.5 19.0964 115.5 26V94C115.5 100.904 109.904 106.5 103 106.5H17C10.0964 106.5 4.5 100.904 4.5 94V26C4.5 19.0964 10.0964 13.5 17 13.5H103ZM70.5 64C64.1924 64 59.1318 65.3739 55.2568 68.0215C51.3464 70.6934 49.0572 74.3803 47.8193 78.2305C46.5823 82.0784 47.7896 85.71 50.0869 88.1895C52.3093 90.5879 55.5824 92 59 92H89C92.4176 92 95.6907 90.5879 97.9131 88.1895C100.21 85.71 101.418 82.0784 100.181 78.2305C98.9428 74.3803 96.6536 70.6934 92.7432 68.0215C88.8682 65.3739 83.8076 64 77.5 64H70.5ZM26 66C23.5147 66 21.5 68.0147 21.5 70.5C21.5 72.9853 23.5147 75 26 75H35C37.4853 75 39.5 72.9853 39.5 70.5C39.5 68.0147 37.4853 66 35 66H26ZM74 29C65.9919 29 59.5 35.4919 59.5 43.5C59.5 51.5081 65.9919 58 74 58C82.0081 58 88.5 51.5081 88.5 43.5C88.5 35.4919 82.0081 29 74 29ZM26 46C23.5147 46 21.5 48.0147 21.5 50.5C21.5 52.9853 23.5147 55 26 55H44C46.4853 55 48.5 52.9853 48.5 50.5C48.5 48.0147 46.4853 46 44 46H26Z" fill="black"/>
</g>
</svg>
