<svg width="120" height="120" viewBox="0 0 120 120" fill="none" xmlns="http://www.w3.org/2000/svg">
<g id="thickness=Bold, mode=fill, name=users_teacher">
<path id="S1" d="M99.6172 10.3843C106.84 9.83607 112.5 15.6852 112.5 22.5581V92.7378C112.5 99.529 107.144 104.905 100.65 105.478C98.3126 105.684 95.8239 105.943 93.2715 106.236C80.5156 107.701 66.4158 109.993 62.0791 110.714C60.6971 110.944 59.3029 110.944 57.9209 110.714C53.5842 109.993 39.4844 107.701 26.7285 106.236C24.1761 105.943 21.6874 105.684 19.3496 105.478C12.8563 104.905 7.50023 99.529 7.5 92.7378V22.5581C7.50016 15.6852 13.1598 9.83607 20.3828 10.3843C35.2735 11.5147 54.0096 14.8259 59.3242 15.7984C59.778 15.8814 60.222 15.8814 60.6758 15.7984C65.9904 14.8259 84.7265 11.5147 99.6172 10.3843ZM100.298 19.3579C85.9291 20.4487 67.6109 23.6784 62.2959 24.6509C60.7709 24.9299 59.2291 24.9299 57.7041 24.6509C52.3891 23.6784 34.0709 20.4487 19.7021 19.3579C18.0692 19.234 16.5002 20.5497 16.5 22.5581V92.7378C16.5002 94.5949 18.0191 96.3249 20.1406 96.5122C21.6003 96.6411 23.1086 96.7903 24.6455 96.9527C30.6729 86.1133 42.1908 76.0005 59 76.0005H61C77.809 76.0005 89.326 86.1135 95.3535 96.9527C96.8907 96.7902 98.3994 96.6411 99.8594 96.5122C101.981 96.3249 103.5 94.595 103.5 92.7378V22.5581C103.5 20.5497 101.931 19.234 100.298 19.3579ZM60 30.0005C71.3218 30.0005 80.5 39.1787 80.5 50.5005C80.4997 61.8221 71.3217 71.0005 60 71.0005C48.6783 71.0005 39.5002 61.8221 39.5 50.5005C39.5 39.1787 48.6782 30.0005 60 30.0005Z" fill="black"/>
</g>
</svg>
