<svg width="120" height="120" viewBox="0 0 120 120" fill="none" xmlns="http://www.w3.org/2000/svg">
<g id="thickness=Light, mode=default, name=users_userGroup">
<path id="S2" d="M78.7451 67.5537C88.8566 67.99 96.7774 71.1301 102.711 75.835C109.093 80.8959 113.035 87.6519 114.989 94.4424C116.016 98.0096 114.959 101.361 112.783 103.743C110.643 106.086 107.434 107.5 104 107.5H97.8779C100.549 103.71 101.698 98.718 100.117 93.5273C96.9926 83.2691 89.9756 73.634 78.7451 67.5537ZM74.166 18.668C84.5051 19.978 92.5 28.8052 92.5 39.5C92.5 51.0979 83.0979 60.4999 71.5 60.5C69.5766 60.5 67.7141 60.2392 65.9443 59.7549C73.8272 54.3495 79 45.2802 79 35C79 28.9759 77.2224 23.3679 74.166 18.668Z" fill="black"/>
<path id="S1" d="M50.4014 67C76.2635 67 89.9506 80.7439 94.377 95.2764C95.5187 99.0251 94.4265 102.567 92.1485 105.074C89.9166 107.53 86.5678 109 83 109H16C12.4322 109 9.08345 107.53 6.85157 105.074C4.57353 102.567 3.48134 99.0251 4.62306 95.2764C9.04948 80.7439 22.7365 67 48.5986 67H50.4014ZM48.5986 73C25.2995 73 13.9971 85.0909 10.3623 97.0244C9.89507 98.5587 10.2949 99.9418 11.292 101.039C12.3354 102.187 14.0452 103 16 103H83C84.9548 103 86.6646 102.187 87.708 101.039C88.7051 99.9418 89.1049 98.5587 88.6377 97.0244C85.0029 85.0909 73.7005 73 50.4014 73H48.5986ZM49 11C62.2548 11.0001 73 21.7452 73 35C73 48.2548 62.2548 58.9999 49 59C35.7452 59 25 48.2548 25 35C25 21.7452 35.7452 11 49 11ZM49 17C39.0589 17 31 25.0589 31 35C31 44.9411 39.0589 53 49 53C58.9411 52.9999 67 44.9411 67 35C67 25.0589 58.9411 17.0001 49 17Z" fill="black"/>
</g>
</svg>
