<svg width="120" height="120" viewBox="0 0 120 120" fill="none" xmlns="http://www.w3.org/2000/svg">
<g id="thickness=Light, mode=default, name=users_teacher">
<path id="S1" d="M99.7305 11.879C106.022 11.4014 111 16.4955 111 22.5577V92.7374C111 98.7064 106.283 103.475 100.519 103.983C98.1646 104.191 95.662 104.451 93.0996 104.745C80.3045 106.215 66.1745 108.512 61.833 109.234C60.614 109.437 59.386 109.437 58.167 109.234C53.8255 108.512 39.6955 106.215 26.9004 104.745C24.338 104.451 21.8354 104.191 19.4814 103.983C13.7166 103.475 9.00006 98.7064 9 92.7374V22.5577C9.00016 16.4955 13.9781 11.4014 20.2695 11.879C35.073 13.0028 53.7387 16.301 59.0537 17.2735C59.6862 17.3892 60.3138 17.3892 60.9463 17.2735C66.2613 16.301 84.927 13.0028 99.7305 11.879ZM59 83.5001C46.2449 83.5001 37.1377 90.758 31.9443 99.3106C43.5895 100.77 55.2777 102.671 59.1523 103.315C59.7192 103.41 60.2808 103.41 60.8477 103.315C64.7222 102.671 76.4099 100.77 88.0547 99.3106C82.8613 90.7581 73.7549 83.5001 61 83.5001H59ZM100.185 17.8624C85.7293 18.9597 67.3419 22.2023 62.0264 23.1749C60.6798 23.4213 59.3202 23.4213 57.9736 23.1749C52.6581 22.2023 34.2707 18.9597 19.8154 17.8624C17.2508 17.6677 15.0002 19.7385 15 22.5577V92.7374C15.0001 95.417 17.1585 97.7543 20.0088 98.0059C21.7731 98.1617 23.6109 98.3457 25.4863 98.5499C31.1794 87.7316 42.4303 77.5001 59 77.5001H61C77.5695 77.5001 88.8196 87.7317 94.5127 98.5499C96.3884 98.3457 98.2266 98.1617 99.9912 98.0059C102.842 97.7543 105 95.417 105 92.7374V22.5577C105 19.7385 102.749 17.6677 100.185 17.8624ZM60 31.5001C70.4934 31.5001 79 40.0067 79 50.5001C78.9999 60.9934 70.4934 69.5001 60 69.5001C49.5066 69.5001 41.0001 60.9934 41 50.5001C41 40.0067 49.5066 31.5001 60 31.5001ZM60 37.5001C52.8203 37.5001 47 43.3204 47 50.5001C47.0001 57.6797 52.8204 63.5001 60 63.5001C67.1796 63.5001 72.9999 57.6797 73 50.5001C73 43.3204 67.1797 37.5001 60 37.5001Z" fill="black"/>
</g>
</svg>
